<svg width="16" height="16" viewBox="0 0 16 16" fill="none" xmlns="http://www.w3.org/2000/svg">
<path fill-rule="evenodd" clip-rule="evenodd" d="M14.5807 3.97664V14.8544C14.5807 15.4785 14.0748 15.9844 13.4507 15.9844H2.54896C1.92486 15.9844 1.41895 15.4785 1.41895 14.8544V3.97664H14.5807ZM6.74367 11.3996C6.74367 11.0896 6.49235 10.8382 6.18227 10.8382H3.56238C3.25233 10.8382 3.00098 11.0896 3.00098 11.3996V14.0195C3.00098 14.3296 3.25233 14.5809 3.56238 14.5809H6.18227C6.49235 14.5809 6.74367 14.3296 6.74367 14.0195V11.3996ZM7.82132 13.4269H12.6868C12.8417 13.4269 12.9675 13.3011 12.9675 13.1462C12.9675 12.9913 12.8417 12.8655 12.6868 12.8655H7.82132C7.66637 12.8655 7.54061 12.9913 7.54061 13.1462C7.54061 13.3011 7.66637 13.4269 7.82132 13.4269ZM7.82132 11.6803H10.7843C10.9392 11.6803 11.065 11.5546 11.065 11.3996C11.065 11.2447 10.9392 11.1189 10.7843 11.1189H7.82132C7.66637 11.1189 7.54061 11.2447 7.54061 11.3996C7.54061 11.5546 7.66637 11.6803 7.82132 11.6803ZM6.74367 6.20666C6.74367 5.89661 6.49235 5.64526 6.18227 5.64526H3.56238C3.25233 5.64526 3.00098 5.89661 3.00098 6.20666V8.82654C3.00098 9.13659 3.25233 9.38795 3.56238 9.38795H6.18227C6.49235 9.38795 6.74367 9.13659 6.74367 8.82654V6.20666ZM7.82132 8.23395H12.6868C12.8417 8.23395 12.9675 8.10816 12.9675 7.95325C12.9675 7.79833 12.8417 7.67255 12.6868 7.67255H7.82132C7.66637 7.67255 7.54061 7.79833 7.54061 7.95325C7.54061 8.10816 7.66637 8.23395 7.82132 8.23395ZM7.82132 6.48736H10.7843C10.9392 6.48736 11.065 6.36157 11.065 6.20666C11.065 6.05174 10.9392 5.92596 10.7843 5.92596H7.82132C7.66637 5.92596 7.54061 6.05174 7.54061 6.20666C7.54061 6.36157 7.66637 6.48736 7.82132 6.48736ZM1.41895 3.41524V1.14564C1.41895 0.521543 1.92486 0.015625 2.54896 0.015625H13.4507C14.0748 0.015625 14.5807 0.521543 14.5807 1.14564V3.41524H1.41895ZM9.854 0.842136C9.32897 0.842136 8.90274 1.2684 8.90274 1.7934C8.90274 2.31841 9.32897 2.74467 9.854 2.74467C10.379 2.74467 10.8053 2.31841 10.8053 1.7934C10.8053 1.2684 10.379 0.842136 9.854 0.842136ZM12.4755 0.842136C11.9505 0.842136 11.5242 1.2684 11.5242 1.7934C11.5242 2.31841 11.9505 2.74467 12.4755 2.74467C13.0005 2.74467 13.4267 2.31841 13.4267 1.7934C13.4267 1.2684 13.0005 0.842136 12.4755 0.842136Z" fill="#B7D7FE"/>
</svg>
