<svg width="14" height="14" viewBox="0 0 14 14" fill="none" xmlns="http://www.w3.org/2000/svg">
<path d="M7.52465 7.00192L11.4643 10.9454C11.5338 11.0152 11.5727 11.1098 11.5727 11.2083C11.5726 11.3068 11.5335 11.4013 11.4639 11.4711C11.3246 11.6097 11.0793 11.6104 10.9386 11.4704L7 7.52692L3.06005 11.4714C2.92005 11.6097 2.6747 11.609 2.5354 11.4707C2.50083 11.4363 2.47346 11.3953 2.45489 11.3502C2.43632 11.305 2.42693 11.2567 2.42725 11.2079C2.42725 11.1085 2.46575 11.0154 2.5354 10.9464L6.475 7.00227L2.53575 3.05777C2.46624 2.98782 2.42731 2.89315 2.42751 2.79453C2.4277 2.69591 2.46701 2.6014 2.5368 2.53172C2.60435 2.46487 2.6999 2.42637 2.7986 2.42637H2.8007C2.89975 2.42672 2.9953 2.46557 3.06145 2.53312L7 6.47657L10.94 2.53207C11.0096 2.46277 11.1027 2.42427 11.2014 2.42427C11.2502 2.42413 11.2986 2.43364 11.3437 2.45226C11.3888 2.47087 11.4298 2.49822 11.4643 2.53273C11.4988 2.56724 11.5262 2.60823 11.5448 2.65335C11.5634 2.69847 11.5729 2.74682 11.5728 2.79562C11.5728 2.89467 11.5343 2.98812 11.4643 3.05707L7.52465 7.00192Z" fill="#000743"/>
</svg>
