<svg width="45" height="45" viewBox="0 0 45 45" fill="none" xmlns="http://www.w3.org/2000/svg">
<g clip-path="url(#clip0_11700_27672)">
<path d="M33.0448 24.7807L31.6905 20.8308C31.6479 20.707 31.5787 20.5967 31.4913 20.5032C31.4304 21.4146 30.6946 22.1595 29.7599 22.2075C29.5289 22.219 29.3013 22.225 29.0834 22.225H29.0627C28.4413 22.2248 27.8505 22.1791 27.2898 22.0961C27.2871 22.2108 27.3048 22.3278 27.3478 22.4418C27.5262 22.9144 28.0538 23.1525 28.5267 22.9742V22.9738L30.2657 22.3165L34.3926 34.3517C35.107 33.5709 36.0096 32.9777 37.0396 32.6284C37.7018 32.4039 38.3899 32.2896 39.0834 32.2896C41.293 32.2896 43.3008 33.4292 44.4507 35.2353C45.1349 35.2026 45.3102 34.802 44.2107 33.3693C42.438 31.0593 39.9721 30.6115 38.2378 30.6347C38.129 30.3413 38.0165 30.0347 37.8992 29.7105C36.8365 26.7721 34.4496 25.3726 33.0448 24.7807Z" fill="black"/>
<path d="M24.7524 6.65781C24.7524 6.67007 24.7528 6.68269 24.7539 6.69678C24.8007 7.58186 25.0021 8.19837 25.0051 8.80995C25.0058 9.12534 24.9449 9.44019 24.7733 9.75869C24.7566 9.78979 24.7297 9.8165 24.6981 9.83333C24.1946 10.1026 23.6537 10.1871 23.1034 10.1871C22.6226 10.1868 22.1318 10.124 21.6364 10.0593C21.1741 9.99907 20.7659 9.90394 20.4019 9.77442C20.9609 10.4978 21.7629 11.0406 22.7228 11.2639C24.9365 11.7795 27.1484 10.4028 27.6645 8.18941C27.8924 7.21012 27.7496 6.23119 27.3281 5.39917C26.5912 5.48954 25.5993 5.67303 25.0987 6.05959C24.8702 6.23503 24.7544 6.41944 24.7524 6.65781Z" fill="black"/>
<path d="M18.2174 15.2759L18.2163 15.2734L18.2084 15.2565C18.0059 14.8118 17.9891 14.3145 18.1605 13.8572C18.3319 13.3998 18.6716 13.0363 19.1162 12.8344C19.3562 12.7248 19.6109 12.6697 19.8728 12.6697C20.5887 12.6697 21.2425 13.0905 21.5387 13.7418L21.5477 13.7599C21.5612 13.7875 21.5837 13.8319 21.6152 13.8907C21.6788 14.0107 21.7862 14.2019 21.9355 14.4347C22.11 14.7081 22.3629 15.0703 22.6914 15.464C23.0213 13.735 22.3261 11.828 20.8754 11.4667C19.3136 11.0772 17.0497 11.9255 16.1286 14.604C14.8836 18.2948 14.616 20.697 15.0891 24.7611C15.5466 27.1156 16.9284 27.7806 18.3206 27.9419C18.3268 27.943 18.3326 27.9449 18.3389 27.9458L25.2762 29.0244L27.8749 35.6114C28.2296 36.5108 29.0911 37.0596 30.0027 37.0596C30.2819 37.0596 30.566 37.0082 30.8415 36.8995C32.016 36.436 32.5926 35.1078 32.1294 33.9333L29.0498 26.1275C28.7523 25.3742 28.0738 24.8314 27.274 24.707L21.5261 23.8129C21.4963 22.4641 21.6448 21.0671 21.8572 19.7362C21.437 19.4058 21.0647 19.0694 20.7409 18.7458C19.1965 17.2082 18.4192 15.7013 18.2174 15.2759Z" fill="black"/>
<path d="M29.0628 21.8593H29.0834C29.3009 21.8593 29.5201 21.8533 29.7411 21.8421C30.5484 21.8008 31.1695 21.1135 31.1284 20.3063C31.0872 19.499 30.3993 18.8781 29.5926 18.9192C29.4175 18.9282 29.2479 18.9324 29.0834 18.9324C26.2795 18.9264 24.3747 17.6974 23.0611 16.4084C22.4128 15.7659 21.9351 15.1133 21.6276 14.6324C21.4738 14.392 21.3623 14.194 21.2923 14.0634C21.2575 13.9979 21.2326 13.9492 21.2185 13.9196C21.2125 13.9075 21.2083 13.8986 21.2056 13.8935C20.8706 13.1577 20.0033 12.8326 19.2676 13.1675C18.5317 13.502 18.2068 14.3695 18.5414 15.1053C18.59 15.2061 19.3262 16.8216 21.0001 18.487C22.6559 20.1428 25.3498 21.8591 29.0628 21.8593Z" fill="black"/>
<path d="M13.507 26.8438V15.4519C13.507 14.9128 13.07 14.4756 12.5308 14.4756H0.976181C0.43705 14.4758 0 14.913 0 15.4521V26.844C0 27.3833 0.43705 27.8203 0.976181 27.8203H12.5308C13.07 27.8203 13.507 27.3833 13.507 26.8438Z" fill="black"/>
<path d="M17.15 36.9062C16.1834 34.0556 13.0893 32.5281 10.2383 33.4947C7.38767 34.4612 5.8601 37.5559 6.82677 40.4065C7.79325 43.2571 10.8875 44.7847 13.7385 43.8182C16.5891 42.8515 18.1165 39.7569 17.15 36.9062ZM12.6796 40.6955C11.5534 41.0775 10.3307 40.4736 9.94904 39.3478C9.56743 38.2216 10.171 36.9988 11.2968 36.6172C12.423 36.2352 13.6458 36.8391 14.0274 37.9649C14.4095 39.0911 13.806 40.3135 12.6796 40.6955Z" fill="black"/>
<path d="M36.2528 24.4738C37.7933 24.4738 37.7933 18.894 36.2528 18.894C34.712 18.894 33.4629 20.143 33.4629 21.6839C33.4629 23.2248 34.712 24.4738 36.2528 24.4738Z" fill="black"/>
<path d="M32.7896 37.6992H21.1253C20.117 35.6647 19.7701 33.5877 19.6552 32.2367C19.9547 32.145 20.1738 31.8695 20.1738 31.54V29.5277C20.1738 29.1235 19.8462 28.7959 19.4421 28.7959H4.53227C4.12815 28.7959 3.8005 29.1235 3.8005 29.5277V31.54C3.8005 31.9442 4.12815 32.2718 4.53227 32.2718H4.61295C3.81824 34.2218 2.5918 37.602 2.5918 39.8945H5.74609C5.47168 38.5255 5.65279 37.1121 6.28101 35.8394C7.03382 34.3149 8.33491 33.1743 9.9448 32.6287C10.6076 32.4037 11.2951 32.2901 11.989 32.2901C14.7178 32.2901 17.1399 34.027 18.0164 36.6128C18.3878 37.7078 18.4408 38.8347 18.2288 39.8945H19.514H22.5325H32.8413C32.6952 39.1658 32.6781 38.4251 32.7896 37.6992Z" fill="black"/>
<path d="M37.3335 33.4946C34.4829 34.4611 32.9553 37.5558 33.922 40.4064C34.8885 43.257 37.9828 44.7846 40.8337 43.8181C43.6843 42.8516 45.2119 39.7569 44.2452 36.9063C43.2788 34.0557 40.1845 32.5282 37.3335 33.4946ZM39.775 40.6956C38.6488 41.0776 37.4261 40.4737 37.0444 39.3479C36.6628 38.2217 37.2664 36.9989 38.3922 36.6173C39.5184 36.2353 40.7412 36.8392 41.1228 37.965C41.5048 39.0912 40.9012 40.3136 39.775 40.6956Z" fill="black"/>
<path d="M27.7836 4.9839C27.7055 4.42831 27.5301 3.89924 27.2727 3.41627C26.5736 2.10475 25.2755 1.13973 23.6899 0.932276C23.4808 0.904835 23.273 0.891846 23.0675 0.891846C23.0674 0.891846 23.0672 0.891846 23.0668 0.891846C20.7153 0.891846 18.67 2.63693 18.3575 5.03275C18.3304 5.24112 18.3169 5.44821 18.3169 5.65256C18.3169 5.93539 18.3421 6.21364 18.3908 6.48568C18.5714 7.49936 18.8765 8.22729 19.3822 8.73587C19.8875 9.24408 20.6114 9.55582 21.6838 9.69668C22.1781 9.76145 22.6552 9.82163 23.1032 9.82108C23.5983 9.82108 24.0551 9.74882 24.4757 9.53679C24.5971 9.29201 24.6383 9.06517 24.639 8.81014C24.6419 8.28693 24.4405 7.64645 24.3886 6.71783C24.3871 6.69807 24.3867 6.67813 24.3864 6.65801C24.3849 6.28133 24.5938 5.97874 24.8783 5.76781C25.1641 5.55304 25.5327 5.40558 25.9213 5.29436C26.593 5.10336 27.3317 5.0258 27.7836 4.9839Z" fill="black"/>
<path d="M33.0448 24.7807L31.6905 20.8308C31.6479 20.707 31.5787 20.5967 31.4913 20.5032C31.4304 21.4146 30.6946 22.1595 29.7599 22.2075C29.5289 22.219 29.3013 22.225 29.0834 22.225H29.0627C28.4413 22.2248 27.8505 22.1791 27.2898 22.0961C27.2871 22.2108 27.3048 22.3278 27.3478 22.4418C27.5262 22.9144 28.0538 23.1525 28.5267 22.9742V22.9738L30.2657 22.3165L34.3926 34.3517C35.107 33.5709 36.0096 32.9777 37.0396 32.6284C37.7018 32.4039 38.3899 32.2896 39.0834 32.2896C41.293 32.2896 43.3008 33.4292 44.4507 35.2353C45.1349 35.2026 45.3102 34.802 44.2107 33.3693C42.438 31.0593 39.9721 30.6115 38.2378 30.6347C38.129 30.3413 38.0165 30.0347 37.8992 29.7105C36.8365 26.7721 34.4496 25.3726 33.0448 24.7807Z" fill="url(#paint0_linear_11700_27672)"/>
<path d="M24.7524 6.65781C24.7524 6.67007 24.7528 6.68269 24.7539 6.69678C24.8007 7.58186 25.0021 8.19837 25.0051 8.80995C25.0058 9.12534 24.9449 9.44019 24.7733 9.75869C24.7566 9.78979 24.7297 9.8165 24.6981 9.83333C24.1946 10.1026 23.6537 10.1871 23.1034 10.1871C22.6226 10.1868 22.1318 10.124 21.6364 10.0593C21.1741 9.99907 20.7659 9.90394 20.4019 9.77442C20.9609 10.4978 21.7629 11.0406 22.7228 11.2639C24.9365 11.7795 27.1484 10.4028 27.6645 8.18941C27.8924 7.21012 27.7496 6.23119 27.3281 5.39917C26.5912 5.48954 25.5993 5.67303 25.0987 6.05959C24.8702 6.23503 24.7544 6.41944 24.7524 6.65781Z" fill="url(#paint1_linear_11700_27672)"/>
<path d="M18.2174 15.2759L18.2163 15.2734L18.2084 15.2565C18.0059 14.8118 17.9891 14.3145 18.1605 13.8572C18.3319 13.3998 18.6716 13.0363 19.1162 12.8344C19.3562 12.7248 19.6109 12.6697 19.8728 12.6697C20.5887 12.6697 21.2425 13.0905 21.5387 13.7418L21.5477 13.7599C21.5612 13.7875 21.5837 13.8319 21.6152 13.8907C21.6788 14.0107 21.7862 14.2019 21.9355 14.4347C22.11 14.7081 22.3629 15.0703 22.6914 15.464C23.0213 13.735 22.3261 11.828 20.8754 11.4667C19.3136 11.0772 17.0497 11.9255 16.1286 14.604C14.8836 18.2948 14.616 20.697 15.0891 24.7611C15.5466 27.1156 16.9284 27.7806 18.3206 27.9419C18.3268 27.943 18.3326 27.9449 18.3389 27.9458L25.2762 29.0244L27.8749 35.6114C28.2296 36.5108 29.0911 37.0596 30.0027 37.0596C30.2819 37.0596 30.566 37.0082 30.8415 36.8995C32.016 36.436 32.5926 35.1078 32.1294 33.9333L29.0498 26.1275C28.7523 25.3742 28.0738 24.8314 27.274 24.707L21.5261 23.8129C21.4963 22.4641 21.6448 21.0671 21.8572 19.7362C21.437 19.4058 21.0647 19.0694 20.7409 18.7458C19.1965 17.2082 18.4192 15.7013 18.2174 15.2759Z" fill="url(#paint2_linear_11700_27672)"/>
<path d="M29.0628 21.8593H29.0834C29.3009 21.8593 29.5201 21.8533 29.7411 21.8421C30.5484 21.8008 31.1695 21.1135 31.1284 20.3063C31.0872 19.499 30.3993 18.8781 29.5926 18.9192C29.4175 18.9282 29.2479 18.9324 29.0834 18.9324C26.2795 18.9264 24.3747 17.6974 23.0611 16.4084C22.4128 15.7659 21.9351 15.1133 21.6276 14.6324C21.4738 14.392 21.3623 14.194 21.2923 14.0634C21.2575 13.9979 21.2326 13.9492 21.2185 13.9196C21.2125 13.9075 21.2083 13.8986 21.2056 13.8935C20.8706 13.1577 20.0033 12.8326 19.2676 13.1675C18.5317 13.502 18.2068 14.3695 18.5414 15.1053C18.59 15.2061 19.3262 16.8216 21.0001 18.487C22.6559 20.1428 25.3498 21.8591 29.0628 21.8593Z" fill="url(#paint3_linear_11700_27672)"/>
<path d="M13.507 26.8438V15.4519C13.507 14.9128 13.07 14.4756 12.5308 14.4756H0.976181C0.43705 14.4758 0 14.913 0 15.4521V26.844C0 27.3833 0.43705 27.8203 0.976181 27.8203H12.5308C13.07 27.8203 13.507 27.3833 13.507 26.8438Z" fill="url(#paint4_linear_11700_27672)"/>
<path d="M17.15 36.9062C16.1834 34.0556 13.0893 32.5281 10.2383 33.4947C7.38767 34.4612 5.8601 37.5559 6.82677 40.4065C7.79325 43.2571 10.8875 44.7847 13.7385 43.8182C16.5891 42.8515 18.1165 39.7569 17.15 36.9062ZM12.6796 40.6955C11.5534 41.0775 10.3307 40.4736 9.94904 39.3478C9.56743 38.2216 10.171 36.9988 11.2968 36.6172C12.423 36.2352 13.6458 36.8391 14.0274 37.9649C14.4095 39.0911 13.806 40.3135 12.6796 40.6955Z" fill="url(#paint5_linear_11700_27672)"/>
<path d="M36.2528 24.4738C37.7933 24.4738 37.7933 18.894 36.2528 18.894C34.712 18.894 33.4629 20.143 33.4629 21.6839C33.4629 23.2248 34.712 24.4738 36.2528 24.4738Z" fill="url(#paint6_linear_11700_27672)"/>
<path d="M32.7896 37.6992H21.1253C20.117 35.6647 19.7701 33.5877 19.6552 32.2367C19.9547 32.145 20.1738 31.8695 20.1738 31.54V29.5277C20.1738 29.1235 19.8462 28.7959 19.4421 28.7959H4.53227C4.12815 28.7959 3.8005 29.1235 3.8005 29.5277V31.54C3.8005 31.9442 4.12815 32.2718 4.53227 32.2718H4.61295C3.81824 34.2218 2.5918 37.602 2.5918 39.8945H5.74609C5.47168 38.5255 5.65279 37.1121 6.28101 35.8394C7.03382 34.3149 8.33491 33.1743 9.9448 32.6287C10.6076 32.4037 11.2951 32.2901 11.989 32.2901C14.7178 32.2901 17.1399 34.027 18.0164 36.6128C18.3878 37.7078 18.4408 38.8347 18.2288 39.8945H19.514H22.5325H32.8413C32.6952 39.1658 32.6781 38.4251 32.7896 37.6992Z" fill="url(#paint7_linear_11700_27672)"/>
<path d="M37.3335 33.4946C34.4829 34.4611 32.9553 37.5558 33.922 40.4064C34.8885 43.257 37.9828 44.7846 40.8337 43.8181C43.6843 42.8516 45.2119 39.7569 44.2452 36.9063C43.2788 34.0557 40.1845 32.5282 37.3335 33.4946ZM39.775 40.6956C38.6488 41.0776 37.4261 40.4737 37.0444 39.3479C36.6628 38.2217 37.2664 36.9989 38.3922 36.6173C39.5184 36.2353 40.7412 36.8392 41.1228 37.965C41.5048 39.0912 40.9012 40.3136 39.775 40.6956Z" fill="url(#paint8_linear_11700_27672)"/>
<path d="M27.7836 4.9839C27.7055 4.42831 27.5301 3.89924 27.2727 3.41627C26.5736 2.10475 25.2755 1.13973 23.6899 0.932276C23.4808 0.904835 23.273 0.891846 23.0675 0.891846C23.0674 0.891846 23.0672 0.891846 23.0668 0.891846C20.7153 0.891846 18.67 2.63693 18.3575 5.03275C18.3304 5.24112 18.3169 5.44821 18.3169 5.65256C18.3169 5.93539 18.3421 6.21364 18.3908 6.48568C18.5714 7.49936 18.8765 8.22729 19.3822 8.73587C19.8875 9.24408 20.6114 9.55582 21.6838 9.69668C22.1781 9.76145 22.6552 9.82163 23.1032 9.82108C23.5983 9.82108 24.0551 9.74882 24.4757 9.53679C24.5971 9.29201 24.6383 9.06517 24.639 8.81014C24.6419 8.28693 24.4405 7.64645 24.3886 6.71783C24.3871 6.69807 24.3867 6.67813 24.3864 6.65801C24.3849 6.28133 24.5938 5.97874 24.8783 5.76781C25.1641 5.55304 25.5327 5.40558 25.9213 5.29436C26.593 5.10336 27.3317 5.0258 27.7836 4.9839Z" fill="url(#paint9_linear_11700_27672)"/>
<path d="M38.7296 11.8034C41.7852 11.8034 44.2624 9.32625 44.2624 6.27058C44.2624 3.21491 41.7852 0.737793 38.7296 0.737793C35.6739 0.737793 33.1968 3.21491 33.1968 6.27058C33.1968 9.32625 35.6739 11.8034 38.7296 11.8034Z" fill="#8D8D8D"/>
<path d="M38.7296 11.8034C41.7852 11.8034 44.2624 9.32625 44.2624 6.27058C44.2624 3.21491 41.7852 0.737793 38.7296 0.737793C35.6739 0.737793 33.1968 3.21491 33.1968 6.27058C33.1968 9.32625 35.6739 11.8034 38.7296 11.8034Z" fill="url(#paint10_linear_11700_27672)"/>
<path d="M40.6541 8.91652C40.5593 8.91663 40.4654 8.89801 40.3779 8.86173C40.2903 8.82544 40.2108 8.77221 40.1438 8.70509L36.2949 4.85619C36.1604 4.7207 36.0851 4.53742 36.0855 4.3465C36.0858 4.15558 36.1618 3.97257 36.2968 3.83757C36.4318 3.70257 36.6148 3.62657 36.8057 3.62622C36.9966 3.62587 37.1799 3.7012 37.3154 3.83571L41.1643 7.68461C41.2652 7.78554 41.3339 7.91411 41.3618 8.05409C41.3896 8.19406 41.3753 8.33915 41.3207 8.471C41.2661 8.60286 41.1736 8.71556 41.055 8.79486C40.9363 8.87416 40.7968 8.91649 40.6541 8.91652Z" fill="#EAF4F4"/>
<path d="M36.8041 8.91652C36.6614 8.91649 36.5219 8.87416 36.4032 8.79486C36.2845 8.71556 36.1921 8.60286 36.1374 8.471C36.0828 8.33915 36.0685 8.19406 36.0964 8.05409C36.1242 7.91411 36.1929 7.78554 36.2938 7.68461L40.1427 3.83571C40.2782 3.7012 40.4615 3.62587 40.6524 3.62622C40.8433 3.62657 41.0263 3.70257 41.1614 3.83757C41.2964 3.97257 41.3724 4.15558 41.3727 4.3465C41.373 4.53742 41.2977 4.7207 41.1632 4.85619L37.3143 8.70509C37.2474 8.77221 37.1679 8.82544 37.0803 8.86173C36.9927 8.89801 36.8989 8.91663 36.8041 8.91652Z" fill="#EAF4F4"/>
</g>
<defs>
<linearGradient id="paint0_linear_11700_27672" x1="36.1458" y1="35.2334" x2="36.1458" y2="20.4968" gradientUnits="userSpaceOnUse">
<stop stop-color="#9B9B9B"/>
<stop offset="1" stop-color="#DDDDDD"/>
</linearGradient>
<linearGradient id="paint1_linear_11700_27672" x1="24.0876" y1="11.3713" x2="24.0876" y2="5.39657" gradientUnits="userSpaceOnUse">
<stop stop-color="#9B9B9B"/>
<stop offset="1" stop-color="#DDDDDD"/>
</linearGradient>
<linearGradient id="paint2_linear_11700_27672" x1="23.5807" y1="37.0562" x2="23.5807" y2="11.3658" gradientUnits="userSpaceOnUse">
<stop stop-color="#9B9B9B"/>
<stop offset="1" stop-color="#DDDDDD"/>
</linearGradient>
<linearGradient id="paint3_linear_11700_27672" x1="24.7708" y1="21.8581" x2="24.7708" y2="13.0318" gradientUnits="userSpaceOnUse">
<stop stop-color="#9B9B9B"/>
<stop offset="1" stop-color="#DDDDDD"/>
</linearGradient>
<linearGradient id="paint4_linear_11700_27672" x1="6.75438" y1="27.8185" x2="6.75438" y2="14.4698" gradientUnits="userSpaceOnUse">
<stop stop-color="#9B9B9B"/>
<stop offset="1" stop-color="#DDDDDD"/>
</linearGradient>
<linearGradient id="paint5_linear_11700_27672" x1="11.9891" y1="44.1068" x2="11.9891" y2="33.1998" gradientUnits="userSpaceOnUse">
<stop stop-color="#9B9B9B"/>
<stop offset="1" stop-color="#DDDDDD"/>
</linearGradient>
<linearGradient id="paint6_linear_11700_27672" x1="35.4358" y1="24.473" x2="35.4358" y2="18.8916" gradientUnits="userSpaceOnUse">
<stop stop-color="#9B9B9B"/>
<stop offset="1" stop-color="#DDDDDD"/>
</linearGradient>
<linearGradient id="paint7_linear_11700_27672" x1="17.7185" y1="39.893" x2="17.7185" y2="28.7911" gradientUnits="userSpaceOnUse">
<stop stop-color="#9B9B9B"/>
<stop offset="1" stop-color="#DDDDDD"/>
</linearGradient>
<linearGradient id="paint8_linear_11700_27672" x1="39.0843" y1="44.1067" x2="39.0843" y2="33.1998" gradientUnits="userSpaceOnUse">
<stop stop-color="#9B9B9B"/>
<stop offset="1" stop-color="#DDDDDD"/>
</linearGradient>
<linearGradient id="paint9_linear_11700_27672" x1="23.0509" y1="9.8199" x2="23.0509" y2="0.887957" gradientUnits="userSpaceOnUse">
<stop stop-color="#9B9B9B"/>
<stop offset="1" stop-color="#DDDDDD"/>
</linearGradient>
<linearGradient id="paint10_linear_11700_27672" x1="38.7303" y1="11.8019" x2="34.3033" y2="2.58205" gradientUnits="userSpaceOnUse">
<stop stop-color="#6B6B6B"/>
<stop offset="1" stop-color="#D9D9D9"/>
</linearGradient>
<clipPath id="clip0_11700_27672">
<rect width="45" height="45" fill="white"/>
</clipPath>
</defs>
</svg>
