<svg width="51" height="50" viewBox="0 0 51 50" fill="none" xmlns="http://www.w3.org/2000/svg">
<rect x="0.66687" width="50" height="50" rx="10" fill="#E9F3FF"/>
<path d="M17.8167 30.8417L17.8 30.8583C17.575 30.3667 17.4333 29.8083 17.375 29.1917C17.4333 29.8 17.5917 30.35 17.8167 30.8417Z" fill="#1455AC"/>
<path d="M23.1669 23.65C24.2623 23.65 25.1502 22.762 25.1502 21.6667C25.1502 20.5713 24.2623 19.6833 23.1669 19.6833C22.0716 19.6833 21.1836 20.5713 21.1836 21.6667C21.1836 22.762 22.0716 23.65 23.1669 23.65Z" fill="#1455AC"/>
<path d="M29.1585 16.6667H22.1752C19.1418 16.6667 17.3335 18.4751 17.3335 21.5084V28.4917C17.3335 29.4001 17.4918 30.1917 17.8002 30.8584C18.5168 32.4417 20.0502 33.3334 22.1752 33.3334H29.1585C32.1918 33.3334 34.0002 31.5251 34.0002 28.4917V26.5834V21.5084C34.0002 18.4751 32.1918 16.6667 29.1585 16.6667ZM32.6418 25.4167C31.9918 24.8584 30.9418 24.8584 30.2918 25.4167L26.8252 28.3917C26.1752 28.9501 25.1252 28.9501 24.4752 28.3917L24.1918 28.1584C23.6002 27.6417 22.6585 27.5917 21.9918 28.0417L18.8752 30.1334C18.6918 29.6667 18.5835 29.1251 18.5835 28.4917V21.5084C18.5835 19.1584 19.8252 17.9167 22.1752 17.9167H29.1585C31.5085 17.9167 32.7502 19.1584 32.7502 21.5084V25.5084L32.6418 25.4167Z" fill="#1455AC"/>
</svg>
