<svg width="10" height="13" viewBox="0 0 10 13" fill="none" xmlns="http://www.w3.org/2000/svg">
<path fill-rule="evenodd" clip-rule="evenodd" d="M6.79195 4.54921V3.23871C6.79195 2.24911 5.98558 1.4394 5 1.4394C4.01442 1.4394 3.20805 2.24908 3.20805 3.23871V4.54921H1.7745V3.23873C1.7745 1.45744 3.22598 0 5 0C6.77402 0 8.2255 1.45744 8.2255 3.23873V4.54921H6.79195ZM10 6.35134V11.875C10 12.4937 9.4958 13 8.87956 13H1.12044C0.5042 13 0 12.4937 0 11.875V6.35131C0 5.73254 0.5042 5.22627 1.12044 5.22627H8.87956C9.4958 5.22627 10 5.73257 10 6.35134ZM5.94226 8.24964C5.94226 7.72712 5.52041 7.30351 5 7.30351C4.47959 7.30351 4.05774 7.72712 4.05774 8.24964C4.05774 8.57114 4.2175 8.85514 4.46157 9.02612V10.3822C4.46157 10.6796 4.70384 10.9228 5 10.9228C5.29616 10.9228 5.53843 10.6796 5.53843 10.3822V9.02609C5.78253 8.85511 5.94226 8.57112 5.94226 8.24964Z" fill="#1455AC"/>
</svg>
