<svg width="19" height="14" viewBox="0 0 19 14" fill="none" xmlns="http://www.w3.org/2000/svg">
<path d="M7.5982 5.42592C8.63677 5.96311 9.8544 5.96311 10.8572 5.42592L16.4797 2.5609L17.769 1.91627C17.3034 0.913519 16.2649 0.197266 15.0472 0.197266H3.44393C2.26211 0.197266 1.22355 0.913519 0.722168 1.91627L2.01142 2.5609L7.5982 5.42592Z" fill="#816868" fill-opacity="0.4"/>
<path d="M11.5376 6.71513C10.8214 7.07326 10.0335 7.25232 9.24563 7.25232C8.45775 7.25232 7.66987 7.07326 6.95362 6.71513L1.83241 4.10081L0.399902 3.38455V10.189C0.399902 11.8363 1.76078 13.1972 3.40817 13.1972H15.0473C16.6947 13.1972 18.0555 11.8363 18.0555 10.189V3.38455L16.623 4.10081L11.5376 6.71513Z" fill="#816868" fill-opacity="0.4"/>
</svg>
