<svg width="100" height="100" viewBox="0 0 100 100" fill="none" xmlns="http://www.w3.org/2000/svg">
<path d="M66.7561 10.4023C65.8256 10.5662 65.0166 10.6607 64.2076 10.7552C57.3863 13.192 52.9877 19.9918 45.2495 19.2559C33.3716 18.1842 18.7212 14.4295 10.7 25.5542C9.41096 27.546 8.58416 29.7759 8.42334 32.0998C8.26252 34.4237 8.76707 36.8415 10.1371 39.2096C13.5266 44.8266 18.2007 49.7468 17.3708 56.6761C16.107 66.909 8.64738 80.9646 17.1707 88.7078C18.1178 89.5671 19.262 90.351 20.6345 91.0403C22.6152 91.9818 24.9121 92.2372 26.9567 91.4699C28.1049 91.0231 29.2589 90.6311 30.4186 90.2939C39.2071 88.1517 47.8845 87.3863 56.8173 88.6624C61.4111 89.4278 66.0054 90.9592 70.8005 90.1355C71.5726 89.9952 72.335 89.8062 73.0833 89.5696C74.6553 89.0706 76.1415 88.3332 77.4898 87.3832C78.1762 86.7622 78.7996 86.0749 79.3509 85.3312C80.9615 83.1479 81.8061 80.5871 81.7312 77.8096C81.692 77.0056 81.5587 76.209 81.3341 75.436C80.3612 72.3725 78.9709 69.3593 77.8053 66.3308C76.6397 63.3022 75.6993 60.2669 75.6275 57.185C75.3089 54.2743 76.6096 51.3894 77.9459 48.7758C81.1536 43.4817 85.6602 39.9486 87.4599 34.2727C88.9871 28.6257 88.5648 22.665 85.5074 17.5562C83.1473 13.7322 79.233 10.6361 74.4385 10.2924C72.1392 10.0131 69.5888 10.0297 66.7561 10.4023Z" fill="#DCE5F7" fill-opacity="0.2"/>
<path d="M76.9244 80.9996L47.1204 79.0552L17.2973 80.9996C17.1805 80.9996 17.0859 80.905 17.0859 80.7883V41.032H77.1359V80.7883C77.1358 80.905 77.0412 80.9996 76.9244 80.9996Z" fill="#8E8E8E"/>
<path d="M77.0908 40.9216L47.2106 11.0413C47.1555 10.9862 47.0662 10.9862 47.0111 11.0413L17.131 40.9216C17.0709 40.9816 17.0709 41.079 17.131 41.139L47.1109 71.1188L77.0908 41.1388C77.1509 41.0788 77.1509 40.9816 77.0908 40.9216Z" fill="#6A6A6A"/>
<path d="M76.9245 80.9997C76.9829 80.9997 77.0357 80.9761 77.0739 80.9378L47.2105 51.0742C47.1555 51.0192 47.0664 51.0192 47.0114 51.0742L17.1479 80.9378C17.1862 80.9761 17.239 80.9997 17.2974 80.9997H76.9245Z" fill="#838383"/>
<path d="M52.9445 36.278L47.1112 42.1114L41.2778 36.278H16.2127C16.0953 36.278 16 36.1827 16 36.0653V20.9351C16 20.8177 16.0953 20.7224 16.2127 20.7224H78.0096C78.127 20.7224 78.2223 20.8177 78.2223 20.9351V36.0653C78.2223 36.1827 78.127 36.278 78.0096 36.278H52.9445Z" fill="#AD75F4"/>
<path d="M26.2196 26.5282C25.9364 26.0378 25.309 25.8699 24.8189 26.1529L23.8311 26.7232V25.5825C23.8311 25.0161 23.3721 24.5571 22.8057 24.5571C22.2393 24.5571 21.7803 25.0161 21.7803 25.5825V26.7233L20.7924 26.1529C20.3017 25.8698 19.6747 26.0377 19.3917 26.5282C19.1086 27.0186 19.2766 27.6457 19.767 27.9289L20.7549 28.4993L19.7671 29.0695C19.2767 29.3527 19.1087 29.9798 19.3918 30.4702C19.5817 30.7992 19.9264 30.983 20.2808 30.983C20.4547 30.983 20.631 30.9387 20.7925 30.8455L21.7804 30.2751V31.4159C21.7804 31.9823 22.2394 32.4413 22.8058 32.4413C23.3723 32.4413 23.8312 31.9823 23.8312 31.4159V30.2753L24.819 30.8455C24.9806 30.9387 25.1568 30.983 25.3308 30.983C25.6851 30.983 26.0298 30.7992 26.2197 30.4702C26.5028 29.9798 26.3348 29.3527 25.8444 29.0695L24.8565 28.4993L25.8443 27.929C26.3347 27.6457 26.5028 27.0186 26.2196 26.5282Z" fill="#EAF9FA"/>
<path d="M35.942 26.5282C35.659 26.0378 35.0316 25.8699 34.5413 26.1529L33.5534 26.7233V25.5825C33.5534 25.0161 33.0944 24.5571 32.528 24.5571C31.9615 24.5571 31.5026 25.0161 31.5026 25.5825V26.7232L30.5148 26.1529C30.0241 25.8698 29.397 26.0377 29.1141 26.5282C28.831 27.0186 28.999 27.6457 29.4894 27.9289L30.4772 28.4991L29.4894 29.0694C28.999 29.3525 28.831 29.9797 29.1141 30.4701C29.304 30.799 29.6487 30.9829 30.0031 30.9829C30.177 30.9829 30.3533 30.9386 30.5148 30.8454L31.5026 30.2751V31.4158C31.5026 31.9822 31.9615 32.4411 32.528 32.4411C33.0944 32.4411 33.5534 31.9822 33.5534 31.4158V30.275L34.5413 30.8454C34.7029 30.9386 34.8791 30.9829 35.053 30.9829C35.4074 30.9829 35.7521 30.799 35.942 30.4701C36.2251 29.9797 36.0571 29.3525 35.5667 29.0694L34.5788 28.4993L35.5665 27.929C36.057 27.6457 36.2251 27.0186 35.942 26.5282Z" fill="#EAF9FA"/>
<path d="M74.4551 29.0694L73.4673 28.4991L74.4551 27.9289C74.9455 27.6457 75.1135 27.0186 74.8304 26.5282C74.5474 26.0378 73.92 25.8699 73.4297 26.1529L72.4419 26.7232V25.5825C72.4419 25.0161 71.983 24.5571 71.4165 24.5571C70.8501 24.5571 70.3911 25.0161 70.3911 25.5825V26.7233L69.4032 26.1529C68.9124 25.8698 68.2855 26.0377 68.0025 26.5282C67.7194 27.0186 67.8874 27.6457 68.3778 27.9289L69.3656 28.4991L68.3778 29.0694C67.8874 29.3525 67.7194 29.9797 68.0025 30.4701C68.1924 30.799 68.5371 30.9829 68.8915 30.9829C69.0654 30.9829 69.2418 30.9386 69.4032 30.8454L70.3911 30.275V31.4158C70.3911 31.9822 70.8501 32.4411 71.4165 32.4411C71.983 32.4411 72.4419 31.9822 72.4419 31.4158V30.2751L73.4297 30.8454C73.5913 30.9386 73.7676 30.9829 73.9415 30.9829C74.2958 30.9829 74.6405 30.799 74.8304 30.4701C75.1135 29.9798 74.9455 29.3527 74.4551 29.0694Z" fill="#EAF9FA"/>
<path d="M65.108 26.5282C64.825 26.0378 64.1974 25.8699 63.7073 26.1529L62.7195 26.7232V25.5825C62.7195 25.0161 62.2605 24.5571 61.6941 24.5571C61.1277 24.5571 60.6687 25.0161 60.6687 25.5825V26.7233L59.6808 26.1529C59.1901 25.8698 58.5631 26.0377 58.2801 26.5282C57.997 27.0186 58.165 27.6457 58.6554 27.9289L59.6432 28.4991L58.6554 29.0694C58.165 29.3525 57.997 29.9797 58.2801 30.4701C58.47 30.799 58.8147 30.9829 59.1691 30.9829C59.343 30.9829 59.5193 30.9386 59.6808 30.8454L60.6687 30.275V31.4158C60.6687 31.9822 61.1277 32.4411 61.6941 32.4411C62.2605 32.4411 62.7195 31.9822 62.7195 31.4158V30.2751L63.7073 30.8454C63.8689 30.9386 64.0451 30.9829 64.219 30.9829C64.5734 30.9829 64.9181 30.799 65.108 30.4701C65.3911 29.9797 65.2231 29.3525 64.7327 29.0694L63.7448 28.4993L64.7326 27.929C65.223 27.6457 65.3911 27.0186 65.108 26.5282Z" fill="#EAF9FA"/>
<path d="M45.6639 26.5282C45.3809 26.0378 44.7534 25.8699 44.2632 26.1529L43.2753 26.7233V25.5825C43.2753 25.0161 42.8163 24.5571 42.2499 24.5571C41.6835 24.5571 41.2245 25.0161 41.2245 25.5825V26.7232L40.2367 26.1529C39.7459 25.8698 39.119 26.0377 38.836 26.5282C38.5529 27.0186 38.7209 27.6457 39.2113 27.9289L40.1991 28.4991L39.2113 29.0694C38.7209 29.3525 38.5529 29.9797 38.836 30.4701C39.0259 30.799 39.3706 30.9829 39.725 30.9829C39.8989 30.9829 40.0752 30.9386 40.2367 30.8454L41.2245 30.2751V31.4158C41.2245 31.9822 41.6835 32.4411 42.2499 32.4411C42.8163 32.4411 43.2753 31.9822 43.2753 31.4158V30.275L44.2632 30.8454C44.4248 30.9386 44.601 30.9829 44.775 30.9829C45.1293 30.9829 45.474 30.799 45.6639 30.4701C45.947 29.9797 45.779 29.3525 45.2886 29.0694L44.3008 28.4993L45.2886 27.929C45.779 27.6457 45.947 27.0186 45.6639 26.5282Z" fill="#EAF9FA"/>
<path d="M55.386 26.5281C55.1029 26.0377 54.4755 25.8698 53.9853 26.1528L52.9973 26.7232V25.5825C52.9973 25.0161 52.5384 24.5571 51.972 24.5571C51.4055 24.5571 50.9466 25.0161 50.9466 25.5825V26.7232L49.9586 26.1528C49.4678 25.8696 48.8408 26.0375 48.558 26.5281C48.2748 27.0185 48.4428 27.6456 48.9332 27.9287L49.921 28.499L48.9332 29.0693C48.4428 29.3524 48.2748 29.9795 48.558 30.4699C48.7479 30.7989 49.0925 30.9828 49.4469 30.9828C49.6208 30.9828 49.7972 30.9385 49.9586 30.8452L50.9466 30.2748V31.4155C50.9466 31.9819 51.4055 32.4409 51.972 32.4409C52.5384 32.4409 52.9973 31.9819 52.9973 31.4155V30.2748L53.9853 30.8452C54.1469 30.9385 54.3231 30.9828 54.497 30.9828C54.8514 30.9828 55.1961 30.7989 55.386 30.4699C55.6691 29.9795 55.5011 29.3524 55.0107 29.0693L54.0229 28.4991L55.0107 27.9289C55.5011 27.6456 55.6692 27.0185 55.386 26.5281Z" fill="#EAF9FA"/>
</svg>
