<?xml version="1.0" encoding="UTF-8"?>
<svg version="1.1" xmlns="http://www.w3.org/2000/svg" width="300" height="397">
<path d="M0 0 C1.04595337 -0.00095673 2.09190674 -0.00191345 3.16955566 -0.00289917 C5.36450257 -0.00357478 7.55945155 -0.00176409 9.75439453 0.00244141 C13.08500725 0.00779844 16.41548515 0.00247517 19.74609375 -0.00390625 C21.89322946 -0.00324536 24.04036509 -0.00196397 26.1875 0 C27.16803345 -0.00202423 28.14856689 -0.00404846 29.15881348 -0.00613403 C35.68543531 0.01564364 42.10449053 0.44001778 48.59375 1.1328125 C48.59375 1.7928125 48.59375 2.4528125 48.59375 3.1328125 C51.23375 3.1328125 53.87375 3.1328125 56.59375 3.1328125 C56.59375 3.4628125 56.59375 3.7928125 56.59375 4.1328125 C57.3775 4.2565625 58.16125 4.3803125 58.96875 4.5078125 C61.59375 5.1328125 61.59375 5.1328125 63.59375 7.1328125 C64.91863113 7.49829695 66.25393514 7.8265691 67.59375 8.1328125 C69.2681739 8.779749 70.93677621 9.44240676 72.59375 10.1328125 C72.59375 10.7928125 72.59375 11.4528125 72.59375 12.1328125 C74.24375 12.1328125 75.89375 12.1328125 77.59375 12.1328125 C77.59375 12.7928125 77.59375 13.4528125 77.59375 14.1328125 C78.91375 14.1328125 80.23375 14.1328125 81.59375 14.1328125 C81.59375 14.7928125 81.59375 15.4528125 81.59375 16.1328125 C82.109375 16.2153125 82.625 16.2978125 83.15625 16.3828125 C86.63830732 17.45421475 89.46575885 19.26804855 92.59375 21.1328125 C92.59375 21.7928125 92.59375 22.4528125 92.59375 23.1328125 C93.58375 23.1328125 94.57375 23.1328125 95.59375 23.1328125 C95.59375 23.7928125 95.59375 24.4528125 95.59375 25.1328125 C96.58375 25.1328125 97.57375 25.1328125 98.59375 25.1328125 C98.59375 25.7928125 98.59375 26.4528125 98.59375 27.1328125 C99.58375 27.1328125 100.57375 27.1328125 101.59375 27.1328125 C104.28125 29.5078125 104.28125 29.5078125 106.59375 32.1328125 C106.59375 32.7928125 106.59375 33.4528125 106.59375 34.1328125 C107.58375 34.1328125 108.57375 34.1328125 109.59375 34.1328125 C109.59375 34.7928125 109.59375 35.4528125 109.59375 36.1328125 C110.25375 36.1328125 110.91375 36.1328125 111.59375 36.1328125 C111.59375 36.7928125 111.59375 37.4528125 111.59375 38.1328125 C112.25375 38.1328125 112.91375 38.1328125 113.59375 38.1328125 C113.59375 38.7928125 113.59375 39.4528125 113.59375 40.1328125 C114.25375 40.1328125 114.91375 40.1328125 115.59375 40.1328125 C115.59375 40.7928125 115.59375 41.4528125 115.59375 42.1328125 C116.25375 42.1328125 116.91375 42.1328125 117.59375 42.1328125 C117.59375 43.1228125 117.59375 44.1128125 117.59375 45.1328125 C118.25375 45.1328125 118.91375 45.1328125 119.59375 45.1328125 C119.59375 45.7928125 119.59375 46.4528125 119.59375 47.1328125 C120.25375 47.1328125 120.91375 47.1328125 121.59375 47.1328125 C124.21875 49.4453125 124.21875 49.4453125 126.59375 52.1328125 C126.59375 53.1228125 126.59375 54.1128125 126.59375 55.1328125 C127.25375 55.1328125 127.91375 55.1328125 128.59375 55.1328125 C128.59375 56.4528125 128.59375 57.7728125 128.59375 59.1328125 C129.25375 59.1328125 129.91375 59.1328125 130.59375 59.1328125 C132.59375 62.1328125 132.59375 62.1328125 132.59375 65.1328125 C133.58375 65.1328125 134.57375 65.1328125 135.59375 65.1328125 C135.59375 66.4528125 135.59375 67.7728125 135.59375 69.1328125 C136.25375 69.1328125 136.91375 69.1328125 137.59375 69.1328125 C137.59375 70.4528125 137.59375 71.7728125 137.59375 73.1328125 C138.25375 73.1328125 138.91375 73.1328125 139.59375 73.1328125 C139.59375 74.4528125 139.59375 75.7728125 139.59375 77.1328125 C140.25375 77.1328125 140.91375 77.1328125 141.59375 77.1328125 C143.51493227 82.76828048 143.51493227 82.76828048 144.09375 85.4453125 C144.25875 86.0021875 144.42375 86.5590625 144.59375 87.1328125 C145.25375 87.4628125 145.91375 87.7928125 146.59375 88.1328125 C147.21875 90.6953125 147.21875 90.6953125 147.59375 93.1328125 C147.92375 93.1328125 148.25375 93.1328125 148.59375 93.1328125 C148.59375 95.4428125 148.59375 97.7528125 148.59375 100.1328125 C149.25375 100.1328125 149.91375 100.1328125 150.59375 100.1328125 C150.59375 103.1028125 150.59375 106.0728125 150.59375 109.1328125 C151.25375 109.1328125 151.91375 109.1328125 152.59375 109.1328125 C152.64273437 109.95265625 152.69171875 110.7725 152.7421875 111.6171875 C152.81695312 112.69484375 152.89171875 113.7725 152.96875 114.8828125 C153.03835938 115.95015625 153.10796875 117.0175 153.1796875 118.1171875 C153.39598614 121.03354877 153.39598614 121.03354877 154.60302734 122.96166992 C155.86254409 125.72186767 155.85259261 127.85813862 155.859375 130.88671875 C155.86195313 131.98822266 155.86453125 133.08972656 155.8671875 134.22460938 C155.85945313 135.36994141 155.85171875 136.51527344 155.84375 137.6953125 C155.85148437 138.84451172 155.85921875 139.99371094 155.8671875 141.17773438 C155.86332031 142.82805664 155.86332031 142.82805664 155.859375 144.51171875 C155.85711914 145.5179126 155.85486328 146.52410645 155.85253906 147.56079102 C155.59375 150.1328125 155.59375 150.1328125 153.59375 153.1328125 C153.13602937 155.87154205 153.13602937 155.87154205 152.96875 158.8203125 C152.89398438 159.81417969 152.81921875 160.80804688 152.7421875 161.83203125 C152.69320313 162.59128906 152.64421875 163.35054687 152.59375 164.1328125 C151.93375 164.1328125 151.27375 164.1328125 150.59375 164.1328125 C150.59375 166.7728125 150.59375 169.4128125 150.59375 172.1328125 C149.93375 172.1328125 149.27375 172.1328125 148.59375 172.1328125 C148.59375 174.4428125 148.59375 176.7528125 148.59375 179.1328125 C147.93375 179.1328125 147.27375 179.1328125 146.59375 179.1328125 C146.635 180.2465625 146.67625 181.3603125 146.71875 182.5078125 C146.59375 186.1328125 146.59375 186.1328125 144.59375 188.1328125 C143.9512265 190.20155284 143.9512265 190.20155284 143.59375 192.1328125 C142.93375 192.1328125 142.27375 192.1328125 141.59375 192.1328125 C141.59375 194.1128125 141.59375 196.0928125 141.59375 198.1328125 C140.93375 198.1328125 140.27375 198.1328125 139.59375 198.1328125 C139.59375 199.7828125 139.59375 201.4328125 139.59375 203.1328125 C138.93375 203.1328125 138.27375 203.1328125 137.59375 203.1328125 C137.59375 204.7828125 137.59375 206.4328125 137.59375 208.1328125 C136.93375 208.1328125 136.27375 208.1328125 135.59375 208.1328125 C135.59375 210.1128125 135.59375 212.0928125 135.59375 214.1328125 C134.93375 214.4628125 134.27375 214.7928125 133.59375 215.1328125 C132.67112791 217.27122631 131.8281101 219.4444206 131.03125 221.6328125 C128.68294383 228.04361867 128.68294383 228.04361867 127.59375 229.1328125 C129.2334375 229.3184375 129.2334375 229.3184375 130.90625 229.5078125 C134.59375 230.1328125 134.59375 230.1328125 137.59375 232.1328125 C137.59375 232.7928125 137.59375 233.4528125 137.59375 234.1328125 C138.5425 234.4421875 139.49125 234.7515625 140.46875 235.0703125 C143.59375 236.1328125 143.59375 236.1328125 145.59375 237.1328125 C145.59375 237.7928125 145.59375 238.4528125 145.59375 239.1328125 C146.58375 239.1328125 147.57375 239.1328125 148.59375 239.1328125 C148.59375 239.7928125 148.59375 240.4528125 148.59375 241.1328125 C149.17640625 241.40222656 149.7590625 241.67164063 150.359375 241.94921875 C152.60483176 243.13868273 154.40069844 244.43864741 156.34375 246.0703125 C156.95734375 246.57433594 157.5709375 247.07835937 158.203125 247.59765625 C159.59375 249.1328125 159.59375 249.1328125 159.59375 252.1328125 C160.25375 252.1328125 160.91375 252.1328125 161.59375 252.1328125 C161.59375 253.1228125 161.59375 254.1128125 161.59375 255.1328125 C162.25375 255.1328125 162.91375 255.1328125 163.59375 255.1328125 C165.57375 258.5978125 165.57375 258.5978125 167.59375 262.1328125 C167.92375 262.1328125 168.25375 262.1328125 168.59375 262.1328125 C168.92375 263.7828125 169.25375 265.4328125 169.59375 267.1328125 C169.92375 267.1328125 170.25375 267.1328125 170.59375 267.1328125 C170.59375 269.4428125 170.59375 271.7528125 170.59375 274.1328125 C171.25375 274.1328125 171.91375 274.1328125 172.59375 274.1328125 C174.29279268 286.75427244 173.93400761 299.49609785 172.59375 312.1328125 C171.93375 312.1328125 171.27375 312.1328125 170.59375 312.1328125 C170.59375 314.1128125 170.59375 316.0928125 170.59375 318.1328125 C169.93375 318.1328125 169.27375 318.1328125 168.59375 318.1328125 C168.655625 319.3084375 168.655625 319.3084375 168.71875 320.5078125 C168.59375 323.1328125 168.59375 323.1328125 166.59375 325.1328125 C166.59375 325.7928125 166.59375 326.4528125 166.59375 327.1328125 C165.93375 327.4628125 165.27375 327.7928125 164.59375 328.1328125 C163.54566959 330.10804096 162.5417089 332.10762759 161.59375 334.1328125 C160.93375 334.1328125 160.27375 334.1328125 159.59375 334.1328125 C159.59375 334.7928125 159.59375 335.4528125 159.59375 336.1328125 C157.21875 338.7578125 157.21875 338.7578125 154.59375 341.1328125 C153.93375 341.1328125 153.27375 341.1328125 152.59375 341.1328125 C152.59375 341.7928125 152.59375 342.4528125 152.59375 343.1328125 C151.93375 343.1328125 151.27375 343.1328125 150.59375 343.1328125 C150.59375 343.7928125 150.59375 344.4528125 150.59375 345.1328125 C147.13221154 348.1328125 147.13221154 348.1328125 144.59375 348.1328125 C144.59375 348.7928125 144.59375 349.4528125 144.59375 350.1328125 C143.60375 350.1328125 142.61375 350.1328125 141.59375 350.1328125 C141.59375 350.7928125 141.59375 351.4528125 141.59375 352.1328125 C139.94375 352.1328125 138.29375 352.1328125 136.59375 352.1328125 C136.59375 352.7928125 136.59375 353.4528125 136.59375 354.1328125 C135.54574219 354.42285156 135.54574219 354.42285156 134.4765625 354.71875 C133.56648438 354.97914063 132.65640625 355.23953125 131.71875 355.5078125 C130.36136719 355.89066406 130.36136719 355.89066406 128.9765625 356.28125 C126.44805274 356.993244 126.44805274 356.993244 124.59375 359.1328125 C122.01271694 359.30784245 119.54066837 359.36443529 116.9609375 359.328125 C115.83318405 359.32388016 115.83318405 359.32388016 114.68264771 359.31954956 C112.27785422 359.30834124 109.87343119 359.28323602 107.46875 359.2578125 C105.83984912 359.24778352 104.21094242 359.23865753 102.58203125 359.23046875 C98.58579444 359.20839985 94.58983506 359.17386601 90.59375 359.1328125 C90.59375 358.4728125 90.59375 357.8128125 90.59375 357.1328125 C89.541875 357.0090625 88.49 356.8853125 87.40625 356.7578125 C84.13416229 356.22140468 81.58838924 355.49401215 78.59375 354.1328125 C78.59375 353.4728125 78.59375 352.8128125 78.59375 352.1328125 C77.27375 352.1328125 75.95375 352.1328125 74.59375 352.1328125 C74.59375 351.4728125 74.59375 350.8128125 74.59375 350.1328125 C73.27375 350.1328125 71.95375 350.1328125 70.59375 350.1328125 C70.59375 349.4728125 70.59375 348.8128125 70.59375 348.1328125 C69.93375 348.1328125 69.27375 348.1328125 68.59375 348.1328125 C68.59375 347.4728125 68.59375 346.8128125 68.59375 346.1328125 C67.27375 345.8028125 65.95375 345.4728125 64.59375 345.1328125 C64.59375 344.4728125 64.59375 343.8128125 64.59375 343.1328125 C63.93375 343.1328125 63.27375 343.1328125 62.59375 343.1328125 C61.93375 344.7828125 61.27375 346.4328125 60.59375 348.1328125 C59.93375 348.1328125 59.27375 348.1328125 58.59375 348.1328125 C58.325625 348.6690625 58.0575 349.2053125 57.78125 349.7578125 C56.38541667 352.54947917 54.98958333 355.34114583 53.59375 358.1328125 C52.93375 358.1328125 52.27375 358.1328125 51.59375 358.1328125 C51.59375 359.4528125 51.59375 360.7728125 51.59375 362.1328125 C50.93375 362.1328125 50.27375 362.1328125 49.59375 362.1328125 C49.26375 363.1228125 48.93375 364.1128125 48.59375 365.1328125 C47.93375 365.1328125 47.27375 365.1328125 46.59375 365.1328125 C46.4390625 365.9371875 46.4390625 365.9371875 46.28125 366.7578125 C45.41282303 369.75783294 44.03754704 372.370766 42.59375 375.1328125 C41.93375 375.1328125 41.27375 375.1328125 40.59375 375.1328125 C40.59375 376.1228125 40.59375 377.1128125 40.59375 378.1328125 C38.59375 380.1328125 38.59375 380.1328125 36.59375 381.1328125 C35.94161708 383.15744505 35.94161708 383.15744505 35.59375 385.1328125 C34.93375 385.1328125 34.27375 385.1328125 33.59375 385.1328125 C33.59375 386.1228125 33.59375 387.1128125 33.59375 388.1328125 C32.93375 388.1328125 32.27375 388.1328125 31.59375 388.1328125 C31.59375 389.1228125 31.59375 390.1128125 31.59375 391.1328125 C29.59375 393.1328125 29.59375 393.1328125 26.59375 394.1328125 C26.59375 394.7928125 26.59375 395.4528125 26.59375 396.1328125 C23.77243669 397.07325027 22.02299066 397.26145579 19.1015625 397.265625 C17.79638672 397.26755859 17.79638672 397.26755859 16.46484375 397.26953125 C15.10552734 397.26373047 15.10552734 397.26373047 13.71875 397.2578125 C12.82027344 397.26167969 11.92179688 397.26554687 10.99609375 397.26953125 C2.22270595 397.25657204 2.22270595 397.25657204 -1.40625 396.1328125 C-4.40625 392.92591595 -4.40625 392.92591595 -4.40625 390.1328125 C-5.06625 390.1328125 -5.72625 390.1328125 -6.40625 390.1328125 C-6.40625 389.1428125 -6.40625 388.1528125 -6.40625 387.1328125 C-7.06625 387.1328125 -7.72625 387.1328125 -8.40625 387.1328125 C-9.3034375 385.493125 -9.3034375 385.493125 -10.21875 383.8203125 C-11.42362626 381.6849802 -12.38169237 380.15649308 -14.15625 378.4453125 C-15.40625 377.1328125 -15.40625 377.1328125 -15.40625 373.1328125 C-16.06625 373.1328125 -16.72625 373.1328125 -17.40625 373.1328125 C-17.40625 372.1428125 -17.40625 371.1528125 -17.40625 370.1328125 C-18.06625 370.1328125 -18.72625 370.1328125 -19.40625 370.1328125 C-19.40625 369.1428125 -19.40625 368.1528125 -19.40625 367.1328125 C-20.06625 367.1328125 -20.72625 367.1328125 -21.40625 367.1328125 C-21.73625 365.8128125 -22.06625 364.4928125 -22.40625 363.1328125 C-23.06625 363.1328125 -23.72625 363.1328125 -24.40625 363.1328125 C-24.40625 362.1428125 -24.40625 361.1528125 -24.40625 360.1328125 C-25.06625 360.1328125 -25.72625 360.1328125 -26.40625 360.1328125 C-26.40625 358.8128125 -26.40625 357.4928125 -26.40625 356.1328125 C-27.06625 356.1328125 -27.72625 356.1328125 -28.40625 356.1328125 C-28.40625 355.1428125 -28.40625 354.1528125 -28.40625 353.1328125 C-29.06625 353.1328125 -29.72625 353.1328125 -30.40625 353.1328125 C-33.40625 348.74819712 -33.40625 348.74819712 -33.40625 346.1328125 C-34.06625 346.1328125 -34.72625 346.1328125 -35.40625 346.1328125 C-35.40625 345.1428125 -35.40625 344.1528125 -35.40625 343.1328125 C-36.06625 343.1328125 -36.72625 343.1328125 -37.40625 343.1328125 C-37.40625 341.8128125 -37.40625 340.4928125 -37.40625 339.1328125 C-38.06625 339.1328125 -38.72625 339.1328125 -39.40625 339.1328125 C-39.40625 338.1428125 -39.40625 337.1528125 -39.40625 336.1328125 C-40.06625 336.1328125 -40.72625 336.1328125 -41.40625 336.1328125 C-41.40625 334.8128125 -41.40625 333.4928125 -41.40625 332.1328125 C-42.06625 332.1328125 -42.72625 332.1328125 -43.40625 332.1328125 C-45.03125 330.8828125 -45.03125 330.8828125 -46.40625 329.1328125 C-46.40625 327.8128125 -46.40625 326.4928125 -46.40625 325.1328125 C-47.06625 325.1328125 -47.72625 325.1328125 -48.40625 325.1328125 C-48.40625 323.8128125 -48.40625 322.4928125 -48.40625 321.1328125 C-49.06625 321.1328125 -49.72625 321.1328125 -50.40625 321.1328125 C-50.40625 320.1428125 -50.40625 319.1528125 -50.40625 318.1328125 C-51.06625 318.1328125 -51.72625 318.1328125 -52.40625 318.1328125 C-52.40625 316.8128125 -52.40625 315.4928125 -52.40625 314.1328125 C-53.39625 313.8028125 -54.38625 313.4728125 -55.40625 313.1328125 C-55.40625 312.1428125 -55.40625 311.1528125 -55.40625 310.1328125 C-56.06625 310.1328125 -56.72625 310.1328125 -57.40625 310.1328125 C-57.40625 309.1428125 -57.40625 308.1528125 -57.40625 307.1328125 C-58.06625 307.1328125 -58.72625 307.1328125 -59.40625 307.1328125 C-59.40625 305.8128125 -59.40625 304.4928125 -59.40625 303.1328125 C-60.06625 303.1328125 -60.72625 303.1328125 -61.40625 303.1328125 C-64.40625 297.3828125 -64.40625 297.3828125 -64.40625 295.1328125 C-65.06625 295.1328125 -65.72625 295.1328125 -66.40625 295.1328125 C-66.40625 294.1428125 -66.40625 293.1528125 -66.40625 292.1328125 C-67.06625 292.1328125 -67.72625 292.1328125 -68.40625 292.1328125 C-68.40625 290.8128125 -68.40625 289.4928125 -68.40625 288.1328125 C-69.06625 288.1328125 -69.72625 288.1328125 -70.40625 288.1328125 C-70.40625 286.8128125 -70.40625 285.4928125 -70.40625 284.1328125 C-71.06625 284.1328125 -71.72625 284.1328125 -72.40625 284.1328125 C-72.86 282.9984375 -73.31375 281.8640625 -73.78125 280.6953125 C-74.97720806 277.08559558 -74.97720806 277.08559558 -77.40625 276.1328125 C-77.40625 275.1428125 -77.40625 274.1528125 -77.40625 273.1328125 C-78.06625 272.8028125 -78.72625 272.4728125 -79.40625 272.1328125 C-79.40625 270.8128125 -79.40625 269.4928125 -79.40625 268.1328125 C-80.06625 268.1328125 -80.72625 268.1328125 -81.40625 268.1328125 C-81.40625 266.8128125 -81.40625 265.4928125 -81.40625 264.1328125 C-82.06625 264.1328125 -82.72625 264.1328125 -83.40625 264.1328125 C-83.86 262.9984375 -84.31375 261.8640625 -84.78125 260.6953125 C-85.97720806 257.08559558 -85.97720806 257.08559558 -88.40625 256.1328125 C-88.40625 254.8128125 -88.40625 253.4928125 -88.40625 252.1328125 C-89.06625 252.1328125 -89.72625 252.1328125 -90.40625 252.1328125 C-90.40625 250.8128125 -90.40625 249.4928125 -90.40625 248.1328125 C-91.06625 248.1328125 -91.72625 248.1328125 -92.40625 248.1328125 C-92.40625 246.4828125 -92.40625 244.8328125 -92.40625 243.1328125 C-93.06625 243.1328125 -93.72625 243.1328125 -94.40625 243.1328125 C-94.40625 241.8128125 -94.40625 240.4928125 -94.40625 239.1328125 C-95.06625 239.1328125 -95.72625 239.1328125 -96.40625 239.1328125 C-96.53 238.4934375 -96.65375 237.8540625 -96.78125 237.1953125 C-96.9875 236.5146875 -97.19375 235.8340625 -97.40625 235.1328125 C-98.06625 234.8028125 -98.72625 234.4728125 -99.40625 234.1328125 C-99.40625 232.8128125 -99.40625 231.4928125 -99.40625 230.1328125 C-100.06625 230.1328125 -100.72625 230.1328125 -101.40625 230.1328125 C-101.40625 228.8128125 -101.40625 227.4928125 -101.40625 226.1328125 C-102.06625 226.1328125 -102.72625 226.1328125 -103.40625 226.1328125 C-103.59960938 225.46894531 -103.79296875 224.80507812 -103.9921875 224.12109375 C-105.93376352 217.53491941 -105.93376352 217.53491941 -108.40625 211.1328125 C-109.06625 211.1328125 -109.72625 211.1328125 -110.40625 211.1328125 C-110.40625 209.4828125 -110.40625 207.8328125 -110.40625 206.1328125 C-111.06625 206.1328125 -111.72625 206.1328125 -112.40625 206.1328125 C-112.40625 204.1528125 -112.40625 202.1728125 -112.40625 200.1328125 C-113.06625 200.1328125 -113.72625 200.1328125 -114.40625 200.1328125 C-114.40625 198.4828125 -114.40625 196.8328125 -114.40625 195.1328125 C-115.06625 195.1328125 -115.72625 195.1328125 -116.40625 195.1328125 C-117.73958333 191.1328125 -119.07291667 187.1328125 -120.40625 183.1328125 C-120.73625 183.1328125 -121.06625 183.1328125 -121.40625 183.1328125 C-121.40625 180.8228125 -121.40625 178.5128125 -121.40625 176.1328125 C-122.06625 176.1328125 -122.72625 176.1328125 -123.40625 176.1328125 C-123.40625 173.4928125 -123.40625 170.8528125 -123.40625 168.1328125 C-124.06625 168.1328125 -124.72625 168.1328125 -125.40625 168.1328125 C-126.18603358 161.4449594 -126.55500838 154.86766654 -126.5390625 148.13671875 C-126.54001923 147.2225267 -126.54097595 146.30833466 -126.54196167 145.36643982 C-126.54263707 143.44798717 -126.54082786 141.52953214 -126.53662109 139.61108398 C-126.53126999 136.70616419 -126.53658486 133.80139941 -126.54296875 130.89648438 C-126.54875365 112.91759853 -126.54875365 112.91759853 -125.40625 104.1328125 C-124.74625 104.1328125 -124.08625 104.1328125 -123.40625 104.1328125 C-123.40625 101.4928125 -123.40625 98.8528125 -123.40625 96.1328125 C-123.07625 96.1328125 -122.74625 96.1328125 -122.40625 96.1328125 C-122.2825 95.2253125 -122.15875 94.3178125 -122.03125 93.3828125 C-121.47915777 90.51193291 -121.01464922 88.54541133 -119.40625 86.1328125 C-117.92125 85.6378125 -117.92125 85.6378125 -116.40625 85.1328125 C-116.4475 84.4109375 -116.48875 83.6890625 -116.53125 82.9453125 C-116.39703695 79.92551881 -115.65454381 77.86345521 -114.40625 75.1328125 C-113.74625 75.1328125 -113.08625 75.1328125 -112.40625 75.1328125 C-112.468125 74.3696875 -112.53 73.6065625 -112.59375 72.8203125 C-112.40625 70.1328125 -112.40625 70.1328125 -111.09375 68.5703125 C-110.536875 68.0959375 -109.98 67.6215625 -109.40625 67.1328125 C-107.44438622 64.71821092 -106.40209691 63.12035324 -105.40625 60.1328125 C-104.74625 60.1328125 -104.08625 60.1328125 -103.40625 60.1328125 C-103.40625 59.1428125 -103.40625 58.1528125 -103.40625 57.1328125 C-102.74625 57.1328125 -102.08625 57.1328125 -101.40625 57.1328125 C-101.40625 56.1428125 -101.40625 55.1528125 -101.40625 54.1328125 C-100.74625 54.1328125 -100.08625 54.1328125 -99.40625 54.1328125 C-99.303125 53.4934375 -99.2 52.8540625 -99.09375 52.1953125 C-98.866875 51.5146875 -98.64 50.8340625 -98.40625 50.1328125 C-96.92125 49.6378125 -96.92125 49.6378125 -95.40625 49.1328125 C-94.23958333 47.21614583 -94.23958333 47.21614583 -93.40625 45.1328125 C-92.91125 44.1428125 -92.91125 44.1428125 -92.40625 43.1328125 C-91.74625 43.1328125 -91.08625 43.1328125 -90.40625 43.1328125 C-90.40625 42.4728125 -90.40625 41.8128125 -90.40625 41.1328125 C-88.03125 38.5078125 -88.03125 38.5078125 -85.40625 36.1328125 C-84.74625 36.1328125 -84.08625 36.1328125 -83.40625 36.1328125 C-83.40625 35.4728125 -83.40625 34.8128125 -83.40625 34.1328125 C-79.94471154 31.1328125 -79.94471154 31.1328125 -77.40625 31.1328125 C-77.40625 30.4728125 -77.40625 29.8128125 -77.40625 29.1328125 C-76.766875 28.8440625 -76.1275 28.5553125 -75.46875 28.2578125 C-73.25418921 27.30457799 -73.25418921 27.30457799 -72.40625 25.1328125 C-71.41625 25.1328125 -70.42625 25.1328125 -69.40625 25.1328125 C-69.40625 24.4728125 -69.40625 23.8128125 -69.40625 23.1328125 C-68.41625 23.1328125 -67.42625 23.1328125 -66.40625 23.1328125 C-66.40625 22.4728125 -66.40625 21.8128125 -66.40625 21.1328125 C-65.41625 21.1328125 -64.42625 21.1328125 -63.40625 21.1328125 C-63.40625 20.4728125 -63.40625 19.8128125 -63.40625 19.1328125 C-60.76720629 17.71903909 -58.33504371 16.76041115 -55.40625 16.1328125 C-55.40625 15.4728125 -55.40625 14.8128125 -55.40625 14.1328125 C-54.08625 14.1328125 -52.76625 14.1328125 -51.40625 14.1328125 C-51.40625 13.4728125 -51.40625 12.8128125 -51.40625 12.1328125 C-49.75625 12.1328125 -48.10625 12.1328125 -46.40625 12.1328125 C-46.40625 11.4728125 -46.40625 10.8128125 -46.40625 10.1328125 C-45.766875 10.0090625 -45.1275 9.8853125 -44.46875 9.7578125 C-43.788125 9.5515625 -43.1075 9.3453125 -42.40625 9.1328125 C-42.07625 8.4728125 -41.74625 7.8128125 -41.40625 7.1328125 C-39.75625 7.1328125 -38.10625 7.1328125 -36.40625 7.1328125 C-36.40625 6.4728125 -36.40625 5.8128125 -36.40625 5.1328125 C-33.43625 4.6378125 -33.43625 4.6378125 -30.40625 4.1328125 C-30.40625 3.8028125 -30.40625 3.4728125 -30.40625 3.1328125 C-27.76625 3.1328125 -25.12625 3.1328125 -22.40625 3.1328125 C-22.40625 2.4728125 -22.40625 1.8128125 -22.40625 1.1328125 C-14.91669652 0.33322618 -7.52975716 -0.01554457 0 0 Z " fill="#C8C8C8" transform="translate(126.40625,-0.1328125)"/>
<path d="M0 0 C0.72815918 0.00045822 1.45631836 0.00091644 2.20654297 0.00138855 C3.73601933 0.00439054 5.26549319 0.01221463 6.79492188 0.0246582 C9.11860148 0.04291847 11.44188105 0.04516741 13.765625 0.04492188 C15.26042007 0.04983844 16.75521247 0.05566736 18.25 0.0625 C19.27843018 0.06416924 19.27843018 0.06416924 20.32763672 0.06587219 C31.5412971 0.17466682 31.5412971 0.17466682 36.125 3.23046875 C36.125 3.89046875 36.125 4.55046875 36.125 5.23046875 C37.07375 5.53984375 38.0225 5.84921875 39 6.16796875 C42.125 7.23046875 42.125 7.23046875 44.125 8.23046875 C44.125 8.89046875 44.125 9.55046875 44.125 10.23046875 C45.115 10.23046875 46.105 10.23046875 47.125 10.23046875 C47.125 10.89046875 47.125 11.55046875 47.125 12.23046875 C47.70765625 12.49988281 48.2903125 12.76929688 48.890625 13.046875 C51.13608176 14.23633898 52.93194844 15.53630366 54.875 17.16796875 C55.48859375 17.67199219 56.1021875 18.17601562 56.734375 18.6953125 C58.125 20.23046875 58.125 20.23046875 58.125 23.23046875 C58.785 23.23046875 59.445 23.23046875 60.125 23.23046875 C60.125 24.22046875 60.125 25.21046875 60.125 26.23046875 C60.785 26.23046875 61.445 26.23046875 62.125 26.23046875 C63.445 28.54046875 64.765 30.85046875 66.125 33.23046875 C66.455 33.23046875 66.785 33.23046875 67.125 33.23046875 C67.62 35.70546875 67.62 35.70546875 68.125 38.23046875 C68.455 38.23046875 68.785 38.23046875 69.125 38.23046875 C69.125 40.54046875 69.125 42.85046875 69.125 45.23046875 C69.785 45.23046875 70.445 45.23046875 71.125 45.23046875 C72.82404268 57.85192869 72.46525761 70.5937541 71.125 83.23046875 C70.465 83.23046875 69.805 83.23046875 69.125 83.23046875 C69.125 85.21046875 69.125 87.19046875 69.125 89.23046875 C68.465 89.23046875 67.805 89.23046875 67.125 89.23046875 C67.16625 90.01421875 67.2075 90.79796875 67.25 91.60546875 C67.125 94.23046875 67.125 94.23046875 65.125 96.23046875 C65.125 96.89046875 65.125 97.55046875 65.125 98.23046875 C64.135 98.72546875 64.135 98.72546875 63.125 99.23046875 C62.07691959 101.20569721 61.0729589 103.20528384 60.125 105.23046875 C59.465 105.23046875 58.805 105.23046875 58.125 105.23046875 C58.125 105.89046875 58.125 106.55046875 58.125 107.23046875 C55.75 109.85546875 55.75 109.85546875 53.125 112.23046875 C52.465 112.23046875 51.805 112.23046875 51.125 112.23046875 C51.125 112.89046875 51.125 113.55046875 51.125 114.23046875 C50.465 114.23046875 49.805 114.23046875 49.125 114.23046875 C49.125 114.89046875 49.125 115.55046875 49.125 116.23046875 C45.66346154 119.23046875 45.66346154 119.23046875 43.125 119.23046875 C43.125 119.89046875 43.125 120.55046875 43.125 121.23046875 C42.135 121.23046875 41.145 121.23046875 40.125 121.23046875 C40.125 121.89046875 40.125 122.55046875 40.125 123.23046875 C38.475 123.23046875 36.825 123.23046875 35.125 123.23046875 C35.125 123.89046875 35.125 124.55046875 35.125 125.23046875 C34.07699219 125.52050781 34.07699219 125.52050781 33.0078125 125.81640625 C31.64269531 126.20699219 31.64269531 126.20699219 30.25 126.60546875 C29.34507812 126.86070312 28.44015625 127.1159375 27.5078125 127.37890625 C24.97930274 128.09090025 24.97930274 128.09090025 23.125 130.23046875 C20.54396694 130.4054987 18.07191837 130.46209154 15.4921875 130.42578125 C14.36443405 130.42153641 14.36443405 130.42153641 13.21389771 130.41720581 C10.80910422 130.40599749 8.40468119 130.38089227 6 130.35546875 C4.37109912 130.34543977 2.74219242 130.33631378 1.11328125 130.328125 C-2.88295556 130.3060561 -6.87891494 130.27152226 -10.875 130.23046875 C-10.875 129.57046875 -10.875 128.91046875 -10.875 128.23046875 C-12.4528125 128.04484375 -12.4528125 128.04484375 -14.0625 127.85546875 C-17.33458771 127.31906093 -19.88036076 126.5916684 -22.875 125.23046875 C-22.875 124.57046875 -22.875 123.91046875 -22.875 123.23046875 C-24.195 123.23046875 -25.515 123.23046875 -26.875 123.23046875 C-26.875 122.57046875 -26.875 121.91046875 -26.875 121.23046875 C-28.195 121.23046875 -29.515 121.23046875 -30.875 121.23046875 C-30.875 120.57046875 -30.875 119.91046875 -30.875 119.23046875 C-31.535 119.23046875 -32.195 119.23046875 -32.875 119.23046875 C-32.875 118.57046875 -32.875 117.91046875 -32.875 117.23046875 C-34.195 116.90046875 -35.515 116.57046875 -36.875 116.23046875 C-36.875 115.57046875 -36.875 114.91046875 -36.875 114.23046875 C-37.535 114.23046875 -38.195 114.23046875 -38.875 114.23046875 C-38.875 111.92046875 -38.875 109.61046875 -38.875 107.23046875 C-39.803125 107.04484375 -39.803125 107.04484375 -40.75 106.85546875 C-42.875 106.23046875 -42.875 106.23046875 -44.875 104.23046875 C-45.2771875 103.14765625 -45.2771875 103.14765625 -45.6875 102.04296875 C-46.7261614 99.58298122 -47.7463236 97.91246495 -49.3125 95.79296875 C-56.83672244 85.51060026 -58.37358438 75.03185699 -58.25 62.54296875 C-58.26160156 61.35896484 -58.27320313 60.17496094 -58.28515625 58.95507812 C-58.26362453 52.5493917 -57.86597291 47.90485951 -54.875 42.23046875 C-54.47735737 40.24225562 -54.12044834 38.24314513 -53.875 36.23046875 C-51.895 35.73546875 -51.895 35.73546875 -49.875 35.23046875 C-49.771875 34.46734375 -49.66875 33.70421875 -49.5625 32.91796875 C-48.79850186 29.93143058 -48.07750065 29.26354627 -45.875 27.23046875 C-45.38 26.40546875 -44.885 25.58046875 -44.375 24.73046875 C-42.36428786 21.37928184 -41.05814049 19.63446794 -37.3125 18.35546875 C-34.10006689 16.87280732 -34.1256102 15.43515739 -32.875 12.23046875 C-30.375 10.54296875 -30.375 10.54296875 -27.875 9.23046875 C-27.215 8.57046875 -26.555 7.91046875 -25.875 7.23046875 C-23.30448089 6.37505474 -20.70882414 5.70309951 -18.08984375 5.01171875 C-15.69859908 4.45660629 -15.69859908 4.45660629 -14.875 2.23046875 C-9.8730829 0.42117161 -5.31551623 -0.0557083 0 0 Z " fill="#4B4C4B" transform="translate(227.875,228.76953125)"/>
<path d="M0 0 C3.26335857 0 4.22708502 0.61231271 6.7265625 2.8125 C9.01314931 5.37466893 11.17024584 8.0044006 13.3125 10.6875 C13.89386719 11.24824219 14.47523438 11.80898437 15.07421875 12.38671875 C16.3125 13.6875 16.3125 13.6875 16.3125 15.6875 C16.89373627 15.78043335 17.47497253 15.8733667 18.07382202 15.96911621 C20.85074544 16.86022104 22.08887346 18.10839499 24.13134766 20.18164062 C24.86535797 20.91910522 25.59936829 21.65656982 26.35562134 22.41638184 C27.13803192 23.21741333 27.9204425 24.01844482 28.7265625 24.84375 C29.53741302 25.66121704 30.34826355 26.47868408 31.1836853 27.32092285 C33.77546373 29.93613271 36.35688252 32.56128009 38.9375 35.1875 C41.52695457 37.81197313 44.11851417 40.43431829 46.71273804 43.05407715 C48.32742361 44.68578903 49.93901887 46.32056568 51.54727173 47.95861816 C52.27497772 48.69608276 53.00268372 49.43354736 53.75244141 50.19335938 C54.39323639 50.84542358 55.03403137 51.49748779 55.69424438 52.16931152 C57.253514 53.77709655 57.253514 53.77709655 59.3125 54.6875 C59.77355691 59.39028047 59.95772502 62.63363247 57.4375 66.75 C53.01611593 69.49125812 49.38661264 69.44388946 44.3125 68.6875 C41.77284023 67.89498206 39.68496802 66.9253094 37.3125 65.6875 C37.6425 66.3475 37.9725 67.0075 38.3125 67.6875 C38.4809741 70.10731625 38.59494219 72.50276556 38.6640625 74.92578125 C38.69879166 76.00245308 38.69879166 76.00245308 38.73422241 77.10087585 C38.78187059 78.62145935 38.82710364 80.14212014 38.87011719 81.6628418 C38.93694123 83.98061906 39.01483483 86.2978411 39.09375 88.61523438 C39.13869467 90.09372967 39.1829865 91.57224498 39.2265625 93.05078125 C39.25046051 93.74053543 39.27435852 94.43028961 39.29898071 95.14094543 C39.39361274 98.80902405 39.20302604 102.12324482 38.3125 105.6875 C37.6525 105.6875 36.9925 105.6875 36.3125 105.6875 C36.3125 106.3475 36.3125 107.0075 36.3125 107.6875 C25.303316 112.80708273 10.28603923 110.78527415 -1.6875 110.8125 C-2.71289383 110.81651825 -2.71289383 110.81651825 -3.75900269 110.82061768 C-5.7143265 110.82642722 -7.66967024 110.82355124 -9.625 110.8203125 C-10.76839844 110.81918457 -11.91179687 110.81805664 -13.08984375 110.81689453 C-15.6875 110.6875 -15.6875 110.6875 -16.6875 109.6875 C-20.45448237 109.48347086 -24.2149531 109.34076498 -27.98632812 109.2578125 C-31.31379148 109.12827621 -34.08200538 108.92291782 -37.19921875 107.7109375 C-42.11000677 101.03432806 -39.57093076 88.63546828 -39.25 80.625 C-39.19666183 79.17254809 -39.14392267 77.72007405 -39.09179688 76.26757812 C-38.96393515 72.74060359 -38.82797379 69.21399739 -38.6875 65.6875 C-40.0075 65.6875 -41.3275 65.6875 -42.6875 65.6875 C-43.0175 66.6775 -43.3475 67.6675 -43.6875 68.6875 C-46.75179776 70.21964888 -49.3040642 69.91688548 -52.6875 69.6875 C-55.625 68.4375 -55.625 68.4375 -57.6875 66.6875 C-57.6875 65.3675 -57.6875 64.0475 -57.6875 62.6875 C-58.3475 62.6875 -59.0075 62.6875 -59.6875 62.6875 C-60.00370778 59.09890942 -59.87006484 56.10866493 -58.6875 52.6875 C-56.01616757 50.16761318 -53.27786314 48.30577828 -50.15625 46.37890625 C-47.41043381 44.86278389 -47.41043381 44.86278389 -46.6875 41.6875 C-46.0275 41.6875 -45.3675 41.6875 -44.6875 41.6875 C-44.43613281 41.10871094 -44.18476562 40.52992187 -43.92578125 39.93359375 C-42.53157086 37.40466323 -40.94959642 35.7531954 -38.875 33.75 C-36.48826693 31.43677139 -34.14403672 29.115646 -31.875 26.6875 C-29.6875 24.6875 -29.6875 24.6875 -26.6875 24.6875 C-26.6875 24.0275 -26.6875 23.3675 -26.6875 22.6875 C-25.04296875 21.13671875 -25.04296875 21.13671875 -22.875 19.375 C-19.68362012 16.66902231 -17.77582954 14.31937746 -15.6875 10.6875 C-13.91547033 8.8090667 -12.08162018 7.01819241 -10.2109375 5.23828125 C-8.58836307 3.74570739 -8.58836307 3.74570739 -7.6875 1.6875 C-5.23952872 0.70831149 -2.59173569 0.48320496 0 0 Z " fill="#B3B3B3" transform="translate(139.6875,79.3125)"/>
<path d="M0 0 C3.26335857 0 4.22708502 0.61231271 6.7265625 2.8125 C9.01314931 5.37466893 11.17024584 8.0044006 13.3125 10.6875 C13.89386719 11.24824219 14.47523438 11.80898437 15.07421875 12.38671875 C16.3125 13.6875 16.3125 13.6875 16.3125 15.6875 C16.89373627 15.78043335 17.47497253 15.8733667 18.07382202 15.96911621 C20.85074544 16.86022104 22.08887346 18.10839499 24.13134766 20.18164062 C24.86535797 20.91910522 25.59936829 21.65656982 26.35562134 22.41638184 C27.13803192 23.21741333 27.9204425 24.01844482 28.7265625 24.84375 C29.53741302 25.66121704 30.34826355 26.47868408 31.1836853 27.32092285 C33.77546373 29.93613271 36.35688252 32.56128009 38.9375 35.1875 C41.52695457 37.81197313 44.11851417 40.43431829 46.71273804 43.05407715 C48.32742361 44.68578903 49.93901887 46.32056568 51.54727173 47.95861816 C52.27497772 48.69608276 53.00268372 49.43354736 53.75244141 50.19335938 C54.39323639 50.84542358 55.03403137 51.49748779 55.69424438 52.16931152 C57.253514 53.77709655 57.253514 53.77709655 59.3125 54.6875 C59.77355691 59.39028047 59.95772502 62.63363247 57.4375 66.75 C53.7536712 69.03397386 51.54879236 69.61082001 47.25439453 69.52368164 C41.23120588 67.81169648 37.06005195 62.62027181 32.87695312 58.17114258 C31.18011346 56.36714699 29.45020902 54.60092403 27.7109375 52.83789062 C26.61512252 51.71033652 25.52129742 50.58084436 24.4296875 49.44921875 C23.91421356 48.91785812 23.39873962 48.3864975 22.86764526 47.83903503 C19.3125 44.0405464 19.3125 44.0405464 19.3125 40.6875 C18.6525 40.6875 17.9925 40.6875 17.3125 40.6875 C17.3125 40.0275 17.3125 39.3675 17.3125 38.6875 C16.77625 38.625625 16.24 38.56375 15.6875 38.5 C12.14223843 37.28714736 10.0532608 35.24139074 7.3125 32.6875 C7.3125 32.0275 7.3125 31.3675 7.3125 30.6875 C6.6525 30.6875 5.9925 30.6875 5.3125 30.6875 C5.3125 30.0275 5.3125 29.3675 5.3125 28.6875 C4.6525 28.6875 3.9925 28.6875 3.3125 28.6875 C3.3125 28.0275 3.3125 27.3675 3.3125 26.6875 C2.6525 26.6875 1.9925 26.6875 1.3125 26.6875 C1.3125 26.0275 1.3125 25.3675 1.3125 24.6875 C-0.0075 24.6875 -1.3275 24.6875 -2.6875 24.6875 C-2.914375 25.43 -3.14125 26.1725 -3.375 26.9375 C-4.95413416 30.24616205 -6.7929706 31.48214426 -9.6875 33.6875 C-10.6465625 34.8940625 -10.6465625 34.8940625 -11.625 36.125 C-13.57316409 38.54544629 -15.6338009 40.2480317 -18.05078125 42.171875 C-20.72996274 44.65283543 -22.76269041 47.62014319 -24.9453125 50.53515625 C-27.24922686 53.38147197 -29.81560281 55.43100935 -32.6875 57.6875 C-33.0175 58.3475 -33.3475 59.0075 -33.6875 59.6875 C-34.6775 59.6875 -35.6675 59.6875 -36.6875 59.6875 C-37.0175 60.6775 -37.3475 61.6675 -37.6875 62.6875 C-44.0333498 69.53433794 -44.0333498 69.53433794 -49.0625 70 C-52.88536353 69.6704428 -54.77281777 69.16056371 -57.6875 66.6875 C-57.6875 65.3675 -57.6875 64.0475 -57.6875 62.6875 C-58.3475 62.6875 -59.0075 62.6875 -59.6875 62.6875 C-60.00370778 59.09890942 -59.87006484 56.10866493 -58.6875 52.6875 C-56.01616757 50.16761318 -53.27786314 48.30577828 -50.15625 46.37890625 C-47.41043381 44.86278389 -47.41043381 44.86278389 -46.6875 41.6875 C-46.0275 41.6875 -45.3675 41.6875 -44.6875 41.6875 C-44.43613281 41.10871094 -44.18476562 40.52992187 -43.92578125 39.93359375 C-42.53157086 37.40466323 -40.94959642 35.7531954 -38.875 33.75 C-36.48826693 31.43677139 -34.14403672 29.115646 -31.875 26.6875 C-29.6875 24.6875 -29.6875 24.6875 -26.6875 24.6875 C-26.6875 24.0275 -26.6875 23.3675 -26.6875 22.6875 C-25.04296875 21.13671875 -25.04296875 21.13671875 -22.875 19.375 C-19.68362012 16.66902231 -17.77582954 14.31937746 -15.6875 10.6875 C-13.91547033 8.8090667 -12.08162018 7.01819241 -10.2109375 5.23828125 C-8.58836307 3.74570739 -8.58836307 3.74570739 -7.6875 1.6875 C-5.23952872 0.70831149 -2.59173569 0.48320496 0 0 Z " fill="#474747" transform="translate(139.6875,79.3125)"/>
<path d="M0 0 C6.83811149 1.56940264 11.10900226 7.08412686 15.8671875 11.99609375 C16.46789062 12.61613281 17.06859375 13.23617188 17.6875 13.875 C18.20054687 14.431875 18.71359375 14.98875 19.2421875 15.5625 C21.06251947 17.0839715 22.49716134 17.47407556 24.8125 17.875 C24.8125 17.215 24.8125 16.555 24.8125 15.875 C26.2734375 14.5859375 26.2734375 14.5859375 28.1875 13.25 C28.81398437 12.80398438 29.44046875 12.35796875 30.0859375 11.8984375 C31.8125 10.875 31.8125 10.875 33.8125 10.875 C33.85375 10.153125 33.895 9.43125 33.9375 8.6875 C34.93156634 5.49228675 36.33769001 3.85235532 38.99609375 1.828125 C42.45715574 0.01199785 44.95826381 0.3155141 48.8125 0.875 C51.3125 2.4375 51.3125 2.4375 52.8125 4.875 C53.5 8.25 53.5 8.25 52.8125 11.875 C51.29342056 13.59513408 49.6597584 14.88054803 47.828125 16.26171875 C44.93827357 18.57471999 42.67805934 21.32436242 40.29296875 24.140625 C38.8125 25.875 38.8125 25.875 36.8125 27.875 C36.41485737 29.86321313 36.07474651 31.86444339 35.8125 33.875 C37.1325 34.205 38.4525 34.535 39.8125 34.875 C39.8125 35.865 39.8125 36.855 39.8125 37.875 C40.37453125 38.11863281 40.9365625 38.36226563 41.515625 38.61328125 C46.05851563 41.1087807 49.61896495 44.8316261 52.8125 48.875 C53.76351724 53.26431035 53.33376773 54.89501667 51.25 58.8125 C48.8125 60.875 48.8125 60.875 45.25 61.375 C41.8125 60.875 41.8125 60.875 39.875 59.5 C38.8125 57.875 38.8125 57.875 38.8125 55.875 C38.0803125 55.64167969 37.348125 55.40835938 36.59375 55.16796875 C32.46083045 53.24662553 30.07441085 50.05001528 27.09375 46.67578125 C24.95585651 44.57528747 24.95585651 44.57528747 22.21875 45.04296875 C21.4246875 45.31753906 20.630625 45.59210938 19.8125 45.875 C18.3275 46.37 18.3275 46.37 16.8125 46.875 C16.11461339 48.19226098 15.45359011 49.52918215 14.8125 50.875 C13.52279294 52.47369938 12.18589965 54.03509782 10.8125 55.5625 C10.11125 56.35011719 9.41 57.13773437 8.6875 57.94921875 C6.72598776 59.96385528 5.74161568 60.80918764 2.9375 61.0078125 C2.23625 61.00523437 1.535 61.00265625 0.8125 61 C-0.239375 61.00386719 -0.239375 61.00386719 -1.3125 61.0078125 C-3.1875 60.875 -3.1875 60.875 -5.1875 59.875 C-7.15340045 56.81693264 -7.70200494 54.4765346 -7.1875 50.875 C-5.3125 47.5625 -5.3125 47.5625 -3.1875 44.875 C-2.5275 44.875 -1.8675 44.875 -1.1875 44.875 C-1.11789063 44.29621094 -1.04828125 43.71742188 -0.9765625 43.12109375 C0.37511936 39.27348448 3.83293245 37.40534227 6.9765625 34.97265625 C7.58242187 34.28042969 8.18828125 33.58820313 8.8125 32.875 C8.51959324 28.86883071 7.40680852 27.00794195 4.46875 24.3515625 C3.79972656 23.7225 3.13070312 23.0934375 2.44140625 22.4453125 C1.02601943 21.15198656 -0.39324301 19.86288888 -1.81640625 18.578125 C-5.16608112 15.41561886 -6.97915251 13.59751933 -8.28125 9.08203125 C-8.1875 5.875 -8.1875 5.875 -6.1875 2.9375 C-3.1875 0.875 -3.1875 0.875 0 0 Z " fill="#E7EDEB" transform="translate(211.1875,262.125)"/>
<path d="M0 0 C0.89267578 0.00644531 1.78535156 0.01289063 2.70507812 0.01953125 C4.09823242 0.04466797 4.09823242 0.04466797 5.51953125 0.0703125 C6.45990234 0.07933594 7.40027344 0.08835938 8.36914062 0.09765625 C10.69036093 0.12122194 13.01106769 0.15412134 15.33203125 0.1953125 C15.99203125 1.8453125 16.65203125 3.4953125 17.33203125 5.1953125 C17.99203125 5.1953125 18.65203125 5.1953125 19.33203125 5.1953125 C20.10267091 7.93510166 20.4581039 10.3704942 20.46142578 13.21362305 C20.46457794 13.99090256 20.4677301 14.76818207 20.47097778 15.5690155 C20.46895355 16.3983107 20.46692932 17.2276059 20.46484375 18.08203125 C20.46627884 19.36845268 20.46627884 19.36845268 20.46774292 20.68086243 C20.46842219 22.48882114 20.46658556 24.29678232 20.46240234 26.10473633 C20.45703083 28.8830303 20.46236595 31.66116405 20.46875 34.43945312 C20.46808956 36.19531286 20.46680911 37.95117249 20.46484375 39.70703125 C20.46686798 40.54239914 20.46889221 41.37776703 20.47097778 42.2384491 C20.4469949 48.08034885 20.4469949 48.08034885 19.33203125 49.1953125 C17.11347861 49.28314792 14.89214629 49.30225859 12.671875 49.29296875 C11.6751754 49.29084633 11.6751754 49.29084633 10.65834045 49.28868103 C8.52869226 49.28306768 6.39914786 49.27051304 4.26953125 49.2578125 C2.82877756 49.25279921 1.38802222 49.24823601 -0.05273438 49.24414062 C-3.59117977 49.23309395 -7.12956414 49.21582042 -10.66796875 49.1953125 C-10.74222514 43.30544787 -10.79662143 37.41585684 -10.83276367 31.52563477 C-10.8478334 29.52265678 -10.86829285 27.5197117 -10.89428711 25.5168457 C-10.93075002 22.63484569 -10.94771336 19.75328266 -10.9609375 16.87109375 C-10.97642136 15.97820145 -10.99190521 15.08530914 -11.00785828 14.1653595 C-11.00915418 9.358507 -10.86118416 6.06014467 -7.66796875 2.1953125 C-4.46390413 0.05926942 -3.67196128 -0.04677658 0 0 Z " fill="#424242" transform="translate(134.66796875,138.8046875)"/>
<path d="M0 0 C0 2.43245834 -0.03475409 4.85639308 -0.09179688 7.2878418 C-0.11181763 8.14850754 -0.13183838 9.00917328 -0.15246582 9.8959198 C-0.1743396 10.82100845 -0.19621338 11.74609711 -0.21875 12.69921875 C-0.25204407 14.12449638 -0.25204407 14.12449638 -0.28601074 15.5785675 C-0.35701348 18.6148861 -0.42850103 21.65119306 -0.5 24.6875 C-0.548209 26.74544196 -0.59638648 28.80338466 -0.64453125 30.86132812 C-0.76265494 35.90756073 -0.88121345 40.95378296 -1 46 C-0.39291199 45.83734146 0.21417603 45.67468292 0.83966064 45.50709534 C3.42556988 44.9001062 5.76607295 44.88758929 8.421875 44.90234375 C9.44667969 44.90556641 10.47148437 44.90878906 11.52734375 44.91210938 C12.59082031 44.92048828 13.65429688 44.92886719 14.75 44.9375 C15.82894531 44.94201172 16.90789062 44.94652344 18.01953125 44.95117188 C20.67974383 44.96294273 23.33984365 44.97938601 26 45 C25.98952637 43.91992676 25.97905273 42.83985352 25.96826172 41.72705078 C25.93211806 37.72773541 25.90912016 33.72843454 25.89013672 29.72900391 C25.88006624 27.99655735 25.86640911 26.26412784 25.84912109 24.53173828 C25.82491838 22.04455361 25.81352761 19.55759325 25.8046875 17.0703125 C25.79436493 16.29317902 25.78404236 15.51604553 25.77340698 14.71536255 C25.77300729 12.80874507 25.8776786 10.90268964 26 9 C26.66 8.34 27.32 7.68 28 7 C28.02464775 12.53588533 28.04283496 18.071739 28.05493164 23.60766602 C28.05997244 25.4924373 28.06680498 27.37720465 28.07543945 29.26196289 C28.08751617 31.96501636 28.09323068 34.66801831 28.09765625 37.37109375 C28.10281754 38.21900986 28.10797882 39.06692596 28.11329651 39.9405365 C28.11349195 41.96071068 28.06206211 43.98077934 28 46 C27 47 27 47 24.13256836 47.11352539 C22.88096924 47.10828857 21.62937012 47.10305176 20.33984375 47.09765625 C19.34314415 47.09553383 19.34314415 47.09553383 18.3263092 47.09336853 C16.19666101 47.08775518 14.06711661 47.07520054 11.9375 47.0625 C10.49674631 47.05748671 9.05599097 47.05292351 7.61523438 47.04882812 C4.07678898 47.03778145 0.53840461 47.02050792 -3 47 C-3.07425639 41.11013537 -3.12865268 35.22054434 -3.16479492 29.33032227 C-3.17986465 27.32734428 -3.2003241 25.3243992 -3.22631836 23.3215332 C-3.26278127 20.43953319 -3.27974461 17.55797016 -3.29296875 14.67578125 C-3.30845261 13.78288895 -3.32393646 12.88999664 -3.33988953 11.970047 C-3.3411958 7.1247383 -3.10725002 3.97455626 0 0 Z " fill="#696969" transform="translate(127,141)"/>
<path d="M0 0 C0.33 0 0.66 0 1 0 C1.53561148 35.24735521 1.53561148 35.24735521 -4 43 C-4.66 43 -5.32 43 -6 43 C-5.95875 43.94875 -5.9175 44.8975 -5.875 45.875 C-6 49 -6 49 -8 51 C-8.433125 52.093125 -8.86625 53.18625 -9.3125 54.3125 C-10.86561451 58.0677918 -13.00942737 60.21333005 -16 63 C-17.11416097 64.28305578 -18.21754252 65.57551744 -19.3125 66.875 C-22.36115918 70.4039731 -25.63891346 73.45596514 -29.203125 76.45703125 C-31.00727488 77.95975563 -31.00727488 77.95975563 -32.55859375 79.6015625 C-36.19921545 83.13365619 -41.28763217 84.45941821 -46 86 C-47.73400363 86.65398259 -49.46287727 87.32166508 -51.1875 88 C-52.44626953 88.495 -52.44626953 88.495 -53.73046875 89 C-56.20598568 90.01301821 -56.20598568 90.01301821 -59 92 C-61.26171875 92.1953125 -61.26171875 92.1953125 -63.6875 92.125 C-64.49574219 92.10695313 -65.30398437 92.08890625 -66.13671875 92.0703125 C-66.75160156 92.04710937 -67.36648437 92.02390625 -68 92 C-68 91.34 -68 90.68 -68 90 C-67.33613281 89.96261719 -66.67226562 89.92523438 -65.98828125 89.88671875 C-60.81076564 89.50123949 -57.34382417 89.01654456 -53 86 C-51.66775391 85.56107422 -51.66775391 85.56107422 -50.30859375 85.11328125 C-46.66015649 83.88564888 -43.25447079 82.32945512 -39.8125 80.625 C-39.19697266 80.33367187 -38.58144531 80.04234375 -37.94726562 79.7421875 C-34.33964899 77.95987636 -32.24168758 76.31506892 -30 73 C-29.34 73 -28.68 73 -28 73 C-28 72.34 -28 71.68 -28 71 C-27.34 71 -26.68 71 -26 71 C-26 70.34 -26 69.68 -26 69 C-25.34 69 -24.68 69 -24 69 C-23.34 67.68 -22.68 66.36 -22 65 C-21.34 65 -20.68 65 -20 65 C-19.773125 64.443125 -19.54625 63.88625 -19.3125 63.3125 C-18 61 -18 61 -15.5625 58.625 C-12.892393 55.88976843 -11.5763096 53.45286865 -10 50 C-9.34 49.01 -8.68 48.02 -8 47 C-7.46034467 45.53483579 -6.96271523 44.0537507 -6.5 42.5625 C-5.79792069 40.30745178 -5.12202694 38.23187859 -4.02124023 36.14013672 C-0.43576028 28.62631474 -0.76611287 20.065405 -0.9375 11.9375 C-0.97174311 9.88418172 -1.0019265 7.83079025 -1.02734375 5.77734375 C-1.04531006 4.88265381 -1.06327637 3.98796387 -1.08178711 3.06616211 C-1 1 -1 1 0 0 Z " fill="#DFDFDF" transform="translate(218,125)"/>
<path d="M0 0 C0.33 0 0.66 0 1 0 C1.26169111 3.57644522 1.17322517 5.66266677 -0.484375 8.890625 C-2.93204125 14.38898468 -2.47315209 20.27897593 -2.4375 26.1875 C-2.45748047 27.34314453 -2.47746094 28.49878906 -2.49804688 29.68945312 C-2.49235405 39.82836588 -0.38807228 48.99458841 5.125 57.625 C5.62257812 58.42164063 6.12015625 59.21828125 6.6328125 60.0390625 C7.98788567 62.10497279 7.98788567 62.10497279 10 64 C10.433125 65.2375 10.433125 65.2375 10.875 66.5 C11.78208622 69.1395076 11.78208622 69.1395076 14.125 70.3125 C14.74375 70.539375 15.3625 70.76625 16 71 C16 72.65 16 74.3 16 76 C13.46012156 73.53067374 11.07403955 71.09363826 8.875 68.3125 C7.03438927 65.80846331 7.03438927 65.80846331 4 64 C2.17614572 61.26421857 1.15258738 59.05096658 0 56 C-0.26167969 55.35289062 -0.52335938 54.70578125 -0.79296875 54.0390625 C-1.06753906 53.34554687 -1.34210938 52.65203125 -1.625 51.9375 C-1.88539063 51.28652344 -2.14578125 50.63554687 -2.4140625 49.96484375 C-3 48 -3 48 -3 44 C-3.66 43.67 -4.32 43.34 -5 43 C-5.54328737 8.81886627 -5.54328737 8.81886627 0 0 Z " fill="#8D8D8D" transform="translate(173,265)"/>
<path d="M0 0 C1.32 0.33 2.64 0.66 4 1 C3.67 1.66 3.34 2.32 3 3 C2.95024095 5.09706761 2.96382046 7.19577223 3.0078125 9.29296875 C3.02457031 10.56333984 3.04132813 11.83371094 3.05859375 13.14257812 C3.09949253 15.82014954 3.15450267 18.49652084 3.21484375 21.17382812 C3.37326928 35.43932687 3.37326928 35.43932687 -2.25 41.375 C-7.52257308 44.49061136 -13.04862172 44 -19 44 C-20.46098906 44.15294433 -21.92057001 44.31963861 -23.37890625 44.49609375 C-29.79525592 45.16198013 -36.18068835 45.10919791 -42.625 45.0625 C-44.41744141 45.05573242 -44.41744141 45.05573242 -46.24609375 45.04882812 C-49.16411647 45.03715603 -52.08203037 45.02078326 -55 45 C-55 44.34 -55 43.68 -55 43 C-54.42228348 42.97716446 -53.84456696 42.95432892 -53.24934387 42.93080139 C-47.23072728 42.69212083 -41.21235424 42.44788572 -35.1940918 42.20043945 C-32.94870668 42.10884732 -30.70326352 42.01866655 -28.45776367 41.92993164 C-25.22818935 41.80206307 -21.9988585 41.66910276 -18.76953125 41.53515625 C-17.76727005 41.49656998 -16.76500885 41.4579837 -15.7323761 41.41822815 C-14.79177841 41.37826218 -13.85118073 41.3382962 -12.88208008 41.29711914 C-12.05823318 41.26380997 -11.23438629 41.23050079 -10.38557434 41.19618225 C-7.86486635 40.98888703 -5.46870333 40.54149357 -3 40 C-3 39.34 -3 38.68 -3 38 C-2.34 38 -1.68 38 -1 38 C-0.67 25.46 -0.34 12.92 0 0 Z " fill="#DFDFDF" transform="translate(179,147)"/>
<path d="M0 0 C0.99 0.33 1.98 0.66 3 1 C2.37755401 2.27208622 1.75193233 3.54261882 1.125 4.8125 C0.77695313 5.52019531 0.42890625 6.22789063 0.0703125 6.95703125 C-1 9 -1 9 -3 12 C-3.03150641 13.89038444 -3.06094374 15.78329053 -2.97265625 17.671875 C-3 20 -3 20 -3.48828125 23.2421875 C-4.04493727 27.32999737 -4.14774348 31.25843042 -4.125 35.375 C-4.12886719 36.09816406 -4.13273437 36.82132813 -4.13671875 37.56640625 C-4.44888171 41.07495076 -4.44888171 41.07495076 -3 44 C-2.65268264 45.57606197 -2.34685523 47.16137078 -2.0625 48.75 C-1.51837745 51.62607635 -0.96505158 54.08737105 0.125 56.8125 C1.13480892 59.33702229 1.15396332 61.30564195 1 64 C1.66 64 2.32 64 3 64 C3.33 65.98 3.66 67.96 4 70 C3.01 69.67 2.02 69.34 1 69 C-0.09765625 66.1640625 -0.09765625 66.1640625 -1.0625 62.625 C-2.09219792 58.89492963 -2.84513749 56.23229376 -5 53 C-5.1953125 50.73828125 -5.1953125 50.73828125 -5.125 48.3125 C-5.10695312 47.50425781 -5.08890625 46.69601563 -5.0703125 45.86328125 C-5.04710937 45.24839844 -5.02390625 44.63351563 -5 44 C-5.66 44 -6.32 44 -7 44 C-7.02683987 41.02077407 -7.04676037 38.04178705 -7.0625 35.0625 C-7.07087891 34.21236328 -7.07925781 33.36222656 -7.08789062 32.48632812 C-7.09111328 31.67744141 -7.09433594 30.86855469 -7.09765625 30.03515625 C-7.10289307 29.2862915 -7.10812988 28.53742676 -7.11352539 27.76586914 C-7 26 -7 26 -6 25 C-5.8926267 22.68849147 -5.81470199 20.37559627 -5.75 18.0625 C-5.44503048 11.10803151 -3.78442532 5.93498435 0 0 Z " fill="#DDDDDD" transform="translate(66,106)"/>
<path d="M0 0 C0.66 0 1.32 0 2 0 C2.02505615 1.00377686 2.0501123 2.00755371 2.07592773 3.04174805 C2.17035296 6.7785236 2.27048686 10.51512843 2.37231445 14.25170898 C2.41553083 15.86657711 2.45721489 17.48148702 2.49731445 19.09643555 C2.55534048 21.42249117 2.61894029 23.74833904 2.68359375 26.07421875 C2.70866249 27.15107185 2.70866249 27.15107185 2.73423767 28.24967957 C2.86968689 33.70069939 2.86968689 33.70069939 4 39 C7.0211434 41.0140956 7.80660017 41.26836596 11.23046875 41.4140625 C12.03291016 41.45273438 12.83535156 41.49140625 13.66210938 41.53125 C14.91217773 41.57765625 14.91217773 41.57765625 16.1875 41.625 C17.03248047 41.66367188 17.87746094 41.70234375 18.74804688 41.7421875 C20.83167524 41.83636279 22.91580753 41.91926675 25 42 C25.33 42.66 25.66 43.32 26 44 C23.43788925 44.19569589 20.87567609 44.38180612 18.3125 44.5625 C17.2306543 44.64661133 17.2306543 44.64661133 16.12695312 44.73242188 C8.5463223 45.25164316 8.5463223 45.25164316 5 44 C3.18588362 41.83241681 2.25871293 39.56404485 1 37 C0.34 37 -0.32 37 -1 37 C-0.67 24.79 -0.34 12.58 0 0 Z " fill="#DADADA" transform="translate(98,146)"/>
<path d="M0 0 C-0.6290625 0.43570313 -1.258125 0.87140625 -1.90625 1.3203125 C-2.7621875 1.91585937 -3.618125 2.51140625 -4.5 3.125 C-5.3353125 3.70507812 -6.170625 4.28515625 -7.03125 4.8828125 C-8.0109375 5.58148438 -8.990625 6.28015625 -10 7 C-10.60537598 7.42893555 -11.21075195 7.85787109 -11.83447266 8.29980469 C-17.10928471 12.13107954 -21.76487095 16.39852035 -26.375 21 C-27.08527344 21.68578125 -27.79554687 22.3715625 -28.52734375 23.078125 C-32.32907231 26.85821185 -34.73635471 29.64530308 -36 35 C-37.625 37.375 -37.625 37.375 -39 39 C-39.42492538 34.3258208 -38.14003326 31.13247801 -36 27 C-33.4375 24.0625 -33.4375 24.0625 -31 22 C-30.34 22 -29.68 22 -29 22 C-28.938125 21.4225 -28.87625 20.845 -28.8125 20.25 C-27.66790652 17.08035652 -25.67439695 16.00579772 -23 14 C-22.24332031 13.23042969 -21.48664063 12.46085937 -20.70703125 11.66796875 C-17.92919843 8.9302201 -15.05115116 6.59606333 -11.9375 4.25 C-10.91527344 3.47140625 -9.89304687 2.6928125 -8.83984375 1.890625 C-3.42654867 -1.71327434 -3.42654867 -1.71327434 0 0 Z " fill="#DFDFDF" transform="translate(107,67)"/>
<path d="M0 0 C2.9499931 4.42498965 2.78742928 8.80939474 2 14 C-0.1875 15.875 -0.1875 15.875 -3 17 C-4.71108689 18.62102968 -6.37253306 20.29503463 -8 22 C-8.61746094 22.56203125 -9.23492187 23.1240625 -9.87109375 23.703125 C-13.82033326 27.15326176 -13.82033326 27.15326176 -15.4375 31.9375 C-15.293125 32.618125 -15.14875 33.29875 -15 34 C-15.66 34 -16.32 34 -17 34 C-17.5 31.5 -17.5 31.5 -17 28 C-15.23853313 25.82169746 -13.2992859 23.99783321 -11.23828125 22.1015625 C-8.38502434 19.4225883 -5.93639634 16.48122349 -3.4453125 13.46875 C-2.96835937 12.9840625 -2.49140625 12.499375 -2 12 C-1.34 12 -0.68 12 0 12 C-0.39629124 7.35391142 -0.39629124 7.35391142 -2.0625 3.0625 C-5.25900766 1.30957645 -8.50307863 1.35368185 -12 2 C-14.96731398 3.83656989 -14.96731398 3.83656989 -17 6 C-16.690625 5.401875 -16.38125 4.80375 -16.0625 4.1875 C-14.89790296 1.91043228 -14.89790296 1.91043228 -14 -1 C-8.64754828 -2.33811293 -5.13915236 -1.71305079 0 0 Z " fill="#7D8281" transform="translate(264,262)"/>
<path d="M0 0 C-0.928125 0.433125 -1.85625 0.86625 -2.8125 1.3125 C-5.92647854 2.76105525 -5.92647854 2.76105525 -7.6875 4.6875 C-8.120625 5.120625 -8.55375 5.55375 -9 6 C-9.99 6 -10.98 6 -12 6 C-12.309375 7.3921875 -12.309375 7.3921875 -12.625 8.8125 C-14.37320846 12.86516506 -16.03753585 13.30180108 -20 15 C-23.63829567 17.96453721 -25.56512281 22.01679939 -27.4375 26.25 C-29 29 -29 29 -31.1875 29.875 C-31.785625 29.91625 -32.38375 29.9575 -33 30 C-30.125 23.25 -30.125 23.25 -29 21 C-29.66 21 -30.32 21 -31 21 C-30.67 20.01 -30.34 19.02 -30 18 C-28.68 18 -27.36 18 -26 18 C-25.79375 17.443125 -25.5875 16.88625 -25.375 16.3125 C-22.71818321 11.84421721 -18.58952641 9.21563344 -14 7 C-12.97803008 6.02246356 -11.98020375 5.0194119 -11 4 C-4.07476636 -2.03738318 -4.07476636 -2.03738318 0 0 Z " fill="#797979" transform="translate(207,235)"/>
<path d="M0 0 C0 0.66 0 1.32 0 2 C0.99 2 1.98 2 3 2 C3.33 3.32 3.66 4.64 4 6 C2.68 5.67 1.36 5.34 0 5 C0.04125 5.928125 0.0825 6.85625 0.125 7.8125 C0 11 0 11 -2 14 C-0.68 13.67 0.64 13.34 2 13 C2.59732819 15.76264289 3 18.16032769 3 21 C-5.46534653 13.45814581 -5.46534653 13.45814581 -7.375 8.25 C-7 5 -7 5 -4.6875 2.0625 C-2 0 -2 0 0 0 Z " fill="#E4E9E8" transform="translate(210,263)"/>
<path d="M0 0 C4.00180927 2.17241075 6.86860539 4.70802105 10 8 C10.70511719 8.56332031 11.41023438 9.12664062 12.13671875 9.70703125 C14.75153038 12.92483927 14.40119176 15.16782249 14.25 19.25 C14.21390625 20.51328125 14.1778125 21.7765625 14.140625 23.078125 C14.07101562 24.52445312 14.07101562 24.52445312 14 26 C6.1202697 28.07453077 6.1202697 28.07453077 2 27 C-1.03849923 24.63844533 -3.53044882 21.94244396 -6 19 C-5.01 19 -4.02 19 -3 19 C-2.2575 19.825 -1.515 20.65 -0.75 21.5 C1.84030301 24.31629006 1.84030301 24.31629006 5.625 24.5625 C8.96529837 24.28978224 8.96529837 24.28978224 10.9375 22.4375 C12.41370372 19.05091499 12.37004355 16.67316915 12 13 C9.94299021 10.06293465 9.94299021 10.06293465 7.125 7.625 C5.76761719 6.34496094 5.76761719 6.34496094 4.3828125 5.0390625 C2.1843581 2.99145024 2.1843581 2.99145024 0 2 C0 1.34 0 0.68 0 0 Z " fill="#888E8C" transform="translate(251,298)"/>
<path d="M0 0 C2.05893621 0.22325814 4.12233653 0.40705759 6.1875 0.5625 C7.27417969 0.64628906 8.36085937 0.73007813 9.48046875 0.81640625 C10.72763672 0.90728516 10.72763672 0.90728516 12 1 C12 1.33 12 1.66 12 2 C11.03698975 2.02505615 10.07397949 2.0501123 9.08178711 2.07592773 C5.48287383 2.17064271 1.884125 2.27070252 -1.71459961 2.37231445 C-3.26729464 2.41542245 -4.82002974 2.45711268 -6.37280273 2.49731445 C-8.61454303 2.5556069 -10.85608604 2.61912578 -13.09765625 2.68359375 C-14.12621483 2.70866249 -14.12621483 2.70866249 -15.17555237 2.73423767 C-19.53043364 2.8658112 -23.70668063 3.31414284 -28 4 C-21.9960418 -2.80572902 -8.00934796 -2.66978265 0 0 Z " fill="#989898" transform="translate(241,227)"/>
<path d="M0 0 C0.66 0 1.32 0 2 0 C0.23186986 5.62586863 -3.16760844 8.77840563 -8 12 C-8.99 12 -9.98 12 -11 12 C-10.69240822 13.97993541 -10.3787932 15.95893599 -10.0625 17.9375 C-9.88847656 19.03964844 -9.71445313 20.14179688 -9.53515625 21.27734375 C-9.28154864 23.90426929 -9.28154864 23.90426929 -8 25 C-6.35659133 25.09854655 -4.7088539 25.12972411 -3.0625 25.125 C-2.16660156 25.12757813 -1.27070312 25.13015625 -0.34765625 25.1328125 C2.02155555 25.15421413 2.02155555 25.15421413 4 24 C3 27 3 27 1 28 C-3.90064917 28.36986031 -7.16435803 28.25448409 -11 25 C-11 23.68 -11 22.36 -11 21 C-11.66 21 -12.32 21 -13 21 C-13.31620778 17.41140942 -13.18256484 14.42116493 -12 11 C-9.32866757 8.48011318 -6.59036314 6.61827828 -3.46875 4.69140625 C-0.72293381 3.17528389 -0.72293381 3.17528389 0 0 Z " fill="#757575" transform="translate(93,121)"/>
<path d="M0 0 C6.45362563 5.43844857 6.45362563 5.43844857 9.25 8.3125 C10.99500355 10.23771233 10.99500355 10.23771233 14 11 C14 11.66 14 12.32 14 13 C14.66 13 15.32 13 16 13 C19.41356674 23.81838074 19.41356674 23.81838074 17.6875 28.75 C17.130625 29.4925 16.57375 30.235 16 31 C15.10494835 28.03430646 15.05570219 25.81085484 15.375 22.75 C15.42443822 17.71554085 13.52247885 15.49111339 10.08984375 11.98828125 C9.40019531 11.33214844 8.71054688 10.67601563 8 10 C6.51838597 8.54415317 5.0391623 7.08586912 3.5625 5.625 C2.88316406 4.97789063 2.20382813 4.33078125 1.50390625 3.6640625 C0 2 0 2 0 0 Z M12 32 C14 33 14 33 14 33 Z " fill="#DFDFDF" transform="translate(183,116)"/>
<path d="M0 0 C0.33 0.66 0.66 1.32 1 2 C0.01 2.66 -0.98 3.32 -2 4 C-4.00256298 7.0565435 -4.27097174 9.38704347 -4 13 C-3.67 14.32 -3.34 15.64 -3 17 C0.3 17.33 3.6 17.66 7 18 C7 18.66 7 19.32 7 20 C2.5922087 20.34570912 -0.95027638 20.44988155 -5.0625 18.6875 C-7.71819771 15.00379027 -7.80810087 12.11462316 -7.640625 7.640625 C-6.88621887 4.53099972 -6.07984977 3.63727179 -3.5 1.8125 C-2.345 1.214375 -1.19 0.61625 0 0 Z " fill="#8A8A8A" transform="translate(209,305)"/>
<path d="M0 0 C1.38012056 2.76024111 0.59705421 3.96959936 -0.3125 6.875 C-0.57675781 7.73867188 -0.84101563 8.60234375 -1.11328125 9.4921875 C-2 12 -2 12 -3.02954102 13.80419922 C-4.22743055 16.5145938 -4.31965097 18.68239701 -4.4140625 21.640625 C-4.45273438 22.71054687 -4.49140625 23.78046875 -4.53125 24.8828125 C-4.5621875 25.99398438 -4.593125 27.10515625 -4.625 28.25 C-4.66367188 29.37664062 -4.70234375 30.50328125 -4.7421875 31.6640625 C-4.83637336 34.44254548 -4.92199586 37.22102334 -5 40 C-4.34 40 -3.68 40 -3 40 C-3 41.98 -3 43.96 -3 46 C-6.94221506 40.08667741 -6.22094336 34.79699003 -6.25 27.8125 C-6.270625 26.59240234 -6.29125 25.37230469 -6.3125 24.11523438 C-6.34097037 17.56348946 -6.09298472 12.79636468 -3 7 C-2.814375 5.88625 -2.62875 4.7725 -2.4375 3.625 C-2.2209375 2.325625 -2.2209375 2.325625 -2 1 C-1.34 0.67 -0.68 0.34 0 0 Z " fill="#666666" transform="translate(176,264)"/>
<path d="M0 0 C0.33 0.66 0.66 1.32 1 2 C-2.3 2 -5.6 2 -9 2 C-9.66 3.32 -10.32 4.64 -11 6 C-12.83984375 7.95703125 -12.83984375 7.95703125 -14.9375 9.8125 C-15.62714844 10.43769531 -16.31679687 11.06289062 -17.02734375 11.70703125 C-18.00380859 12.34705078 -18.00380859 12.34705078 -19 13 C-19.99 12.67 -20.98 12.34 -22 12 C-21.36191406 11.37351562 -20.72382812 10.74703125 -20.06640625 10.1015625 C-19.24011719 9.28429687 -18.41382812 8.46703125 -17.5625 7.625 C-16.73878906 6.81289062 -15.91507813 6.00078125 -15.06640625 5.1640625 C-12.96565328 3.17651485 -12.96565328 3.17651485 -12 1 C-8.204122 -0.5183512 -4.0122978 -0.06687163 0 0 Z " fill="#6C6C6C" transform="translate(144,80)"/>
<path d="M0 0 C0.66 0.33 1.32 0.66 2 1 C1.45730469 1.44730469 0.91460937 1.89460937 0.35546875 2.35546875 C-6.01945139 7.74256343 -8.90826333 11.79395614 -11 20 C-12.32 20.33 -13.64 20.66 -15 21 C-12.125 14.25 -12.125 14.25 -11 12 C-11.66 12 -12.32 12 -13 12 C-12.67 11.01 -12.34 10.02 -12 9 C-10.68 9 -9.36 9 -8 9 C-7.79375 8.443125 -7.5875 7.88625 -7.375 7.3125 C-5.44999226 4.07498698 -2.96149098 2.31768859 0 0 Z " fill="#A4A4A4" transform="translate(189,244)"/>
<path d="M0 0 C0.72822464 0.00141495 1.45644928 0.0028299 2.20674133 0.00428772 C4.52979664 0.00987966 6.85275513 0.02243063 9.17578125 0.03515625 C10.75195173 0.04017229 12.32812373 0.04473502 13.90429688 0.04882812 C17.76566223 0.05984645 21.62695533 0.07710551 25.48828125 0.09765625 C25.48828125 0.75765625 25.48828125 1.41765625 25.48828125 2.09765625 C24.65578857 2.09241943 23.8232959 2.08718262 22.96557617 2.08178711 C19.8737819 2.064734 16.78201161 2.0522006 13.69018555 2.04272461 C11.69513357 2.03522896 9.70010339 2.0225228 7.70507812 2.00976562 C6.45146484 2.00654297 5.19785156 2.00332031 3.90625 2 C2.74891357 1.99476318 1.59157715 1.98952637 0.39916992 1.98413086 C-2.57776286 1.96466164 -2.57776286 1.96466164 -5.51171875 3.09765625 C-7.07290303 3.1650649 -8.63674395 3.18280081 -10.19921875 3.16015625 C-11.41158203 3.14662109 -11.41158203 3.14662109 -12.6484375 3.1328125 C-13.57076172 3.11541016 -13.57076172 3.11541016 -14.51171875 3.09765625 C-9.5433284 0.52779917 -5.53868273 -0.040471 0 0 Z " fill="#6D6D6D" transform="translate(227.51171875,228.90234375)"/>
<path d="M0 0 C2.83717004 2.60712923 4.85547167 4.70516221 6.5625 8.1875 C8.09237022 11.18072433 8.88968998 11.9274793 12 13 C12 14.65 12 16.3 12 18 C9.46012156 15.53067374 7.07403955 13.09363826 4.875 10.3125 C3.03438927 7.80846331 3.03438927 7.80846331 0 6 C-0.1875 2.875 -0.1875 2.875 0 0 Z " fill="#7E7E7E" transform="translate(177,323)"/>
<path d="M0 0 C0.33 1.32 0.66 2.64 1 4 C1.66 4 2.32 4 3 4 C3.33 4.66 3.66 5.32 4 6 C4.33 4.02 4.66 2.04 5 0 C5.66 0.66 6.32 1.32 7 2 C6.6730244 4.61580479 6.17960932 6.64078137 5 9 C6.32 8.67 7.64 8.34 9 8 C9.59732819 10.76264289 10 13.16032769 10 16 C0.52456201 7.55824616 0.52456201 7.55824616 -0.0625 2.9375 C-0.041875 1.968125 -0.02125 0.99875 0 0 Z " fill="#D1D6D5" transform="translate(203,268)"/>
<path d="M0 0 C0.33 1.32 0.66 2.64 1 4 C0.01 4.33 -0.98 4.66 -2 5 C-2.144375 5.61875 -2.28875 6.2375 -2.4375 6.875 C-3.19551313 9.73860516 -4.51696612 10.49513098 -7 12 C-7.66 12 -8.32 12 -9 12 C-9.33 12.99 -9.66 13.98 -10 15 C-11 13 -11 13 -10.44140625 11.0546875 C-10.00634766 9.97574219 -10.00634766 9.97574219 -9.5625 8.875 C-9.27503906 8.15054688 -8.98757812 7.42609375 -8.69140625 6.6796875 C-8.46324219 6.12539062 -8.23507813 5.57109375 -8 5 C-4.535 4.505 -4.535 4.505 -1 4 C-0.67 2.68 -0.34 1.36 0 0 Z " fill="#DEDEDE" transform="translate(90,120)"/>
<path d="M0 0 C4.55315948 0.61811534 8.28459767 2.46765893 12.3125 4.5625 C13.28026367 5.0565332 13.28026367 5.0565332 14.26757812 5.56054688 C15.84785228 6.36824255 17.42432105 7.18337613 19 8 C19 8.66 19 9.32 19 10 C21.97 10.66 24.94 11.32 28 12 C23.59232396 13.10191901 22.1077065 12.58706842 18 11 C18 10.34 18 9.68 18 9 C17.34 8.9175 16.68 8.835 16 8.75 C9.86364406 7.21591101 4.74866815 4.15508463 0 0 Z " fill="#DFDFDF" transform="translate(91,202)"/>
<path d="M0 0 C0.99 0.33 1.98 0.66 3 1 C2.67 1.66 2.34 2.32 2 3 C1.93827817 5.10849149 1.94016528 7.21898055 1.97265625 9.328125 C1.98490234 10.60300781 1.99714844 11.87789062 2.00976562 13.19140625 C2.03448855 15.21672753 2.06236561 17.24189537 2.09594727 19.26708984 C2.12637947 21.22481537 2.14339687 23.18273469 2.16015625 25.140625 C2.17699463 26.31141602 2.19383301 27.48220703 2.21118164 28.68847656 C1.99290366 32.11127714 1.22774861 34.81118412 0 38 C-1.31134718 34.09686563 -1.03043509 30.22457296 -0.87890625 26.171875 C-0.85529526 25.42286926 -0.83168427 24.67386353 -0.80735779 23.90216064 C-0.73099344 21.51790112 -0.64685283 19.13398895 -0.5625 16.75 C-0.50925201 15.13022514 -0.4565118 13.51043349 -0.40429688 11.890625 C-0.27541537 7.92686479 -0.13956072 3.96339799 0 0 Z " fill="#E8E8E8" transform="translate(180,147)"/>
<path d="M0 0 C0.66 0.33 1.32 0.66 2 1 C0.56354149 2.60509934 -0.87420706 4.20904424 -2.3125 5.8125 C-3.11300781 6.70582031 -3.91351563 7.59914063 -4.73828125 8.51953125 C-8.64426354 12.80329421 -8.64426354 12.80329421 -10 14 C-10.66 14 -11.32 14 -12 14 C-11 11 -11 11 -9.5 9.625 C-7.56690264 7.53081119 -7.37547204 5.77849308 -7 3 C-5.5459375 2.5359375 -5.5459375 2.5359375 -4.0625 2.0625 C-1.15934208 1.30476658 -1.15934208 1.30476658 0 0 Z " fill="#DCDCDC" transform="translate(106,105)"/>
<path d="M0 0 C-0.33 0.99 -0.66 1.98 -1 3 C-2.10408203 3.14695313 -2.10408203 3.14695313 -3.23046875 3.296875 C-8.93374502 4.17082486 -12.72357331 4.86152256 -17 9 C-17.66 9 -18.32 9 -19 9 C-19.66 10.32 -20.32 11.64 -21 13 C-21 11 -21 9 -21 7 C-19.9171875 6.87625 -19.9171875 6.87625 -18.8125 6.75 C-15.88231756 6.17503911 -15.88231756 6.17503911 -13.625 4.0625 C-9.39266026 0.73709021 -5.30684924 0 0 0 Z " fill="#A3A3A3" transform="translate(213,231)"/>
<path d="M0 0 C2.3125 0.8125 2.3125 0.8125 3.3125 2.8125 C2.590625 2.68875 1.86875 2.565 1.125 2.4375 C-1.99498828 2.54194004 -1.99498828 2.54194004 -4.1875 5.625 C-4.59613281 6.16898437 -5.00476563 6.71296875 -5.42578125 7.2734375 C-7.20660993 9.44571768 -9.15354442 10.64825014 -11.6875 11.8125 C-12.3475 11.4825 -13.0075 11.1525 -13.6875 10.8125 C-12.60923635 9.53736237 -11.52464481 8.26757431 -10.4375 7 C-9.83421875 6.29230469 -9.2309375 5.58460938 -8.609375 4.85546875 C-3.79277853 -0.26461246 -3.79277853 -0.26461246 0 0 Z " fill="#707775" transform="translate(234.6875,306.1875)"/>
<path d="M0 0 C1.63001953 0.02707031 1.63001953 0.02707031 3.29296875 0.0546875 C4.54013672 0.08949219 4.54013672 0.08949219 5.8125 0.125 C5.8125 0.455 5.8125 0.785 5.8125 1.125 C5.05324219 1.18558594 4.29398438 1.24617188 3.51171875 1.30859375 C2.51785156 1.39238281 1.52398437 1.47617188 0.5 1.5625 C-0.48613281 1.64371094 -1.47226563 1.72492188 -2.48828125 1.80859375 C-5.28125599 2.04312559 -5.28125599 2.04312559 -8.1875 3.125 C-9.27916275 5.05830603 -9.27916275 5.05830603 -10.1875 7.125 C-10.8475 7.785 -11.5075 8.445 -12.1875 9.125 C-13.1775 9.125 -14.1675 9.125 -15.1875 9.125 C-15 7.3125 -15 7.3125 -14.1875 5.125 C-11.8125 3.5 -11.8125 3.5 -9.1875 2.125 C-5.66070901 -0.22619399 -4.15870515 -0.08943452 0 0 Z " fill="#E4E4E4" transform="translate(140.1875,77.875)"/>
<path d="M0 0 C2.97 0.33 5.94 0.66 9 1 C10 7.625 10 7.625 10 11 C8.33035479 9.35718838 6.6643536 7.71067239 5 6.0625 C4.071875 5.14597656 3.14375 4.22945313 2.1875 3.28515625 C0 1 0 1 0 0 Z " fill="#6A726F" transform="translate(219,266)"/>
<path d="M0 0 C4.67457386 3.30170144 8.55802438 6.37113623 12 11 C12.9075 11.86625 13.815 12.7325 14.75 13.625 C17 16 17 16 17 19 C14.15862758 16.21641519 11.32831845 13.42184273 8.5 10.625 C7.68917969 9.8309375 6.87835938 9.036875 6.04296875 8.21875 C4.89248047 7.07792969 4.89248047 7.07792969 3.71875 5.9140625 C3.00654297 5.2123291 2.29433594 4.5105957 1.56054688 3.78759766 C0 2 0 2 0 0 Z " fill="#E0E0E0" transform="translate(164,97)"/>
<path d="M0 0 C1.43859375 0.00580078 1.43859375 0.00580078 2.90625 0.01171875 C5.5 0.3125 5.5 0.3125 8.5 2.3125 C8.17 2.9725 7.84 3.6325 7.5 4.3125 C6.51 3.6525 5.52 2.9925 4.5 2.3125 C0.62661246 1.88994863 -1.61598609 1.74582442 -4.9375 3.875 C-7.0248128 7.13120797 -6.7915423 9.52245016 -6.5 13.3125 C-7.16 13.3125 -7.82 13.3125 -8.5 13.3125 C-8.58121924 11.70917209 -8.63929134 10.10465974 -8.6875 8.5 C-8.72230469 7.60667969 -8.75710937 6.71335937 -8.79296875 5.79296875 C-8.5 3.3125 -8.5 3.3125 -7.33203125 1.5078125 C-4.80883232 -0.13845375 -2.99163356 -0.05227317 0 0 Z " fill="#898C8B" transform="translate(210.5,261.6875)"/>
<path d="M0 0 C6.875 5.625 6.875 5.625 8 9 C5.36 9 2.72 9 0 9 C0 6.03 0 3.06 0 0 Z " fill="#515956" transform="translate(238,309)"/>
<path d="M0 0 C1.12588014 0.95729916 2.2506715 1.91587895 3.375 2.875 C4.00148437 3.40867187 4.62796875 3.94234375 5.2734375 4.4921875 C6.55836651 5.61432007 7.79371975 6.79371975 9 8 C8.75 10.5625 8.75 10.5625 8 13 C7.01 13.495 7.01 13.495 6 14 C6 12.02 6 10.04 6 8 C5.071875 7.7834375 5.071875 7.7834375 4.125 7.5625 C2 7 2 7 0 6 C0 4.02 0 2.04 0 0 Z " fill="#6F7472" transform="translate(212,283)"/>
<path d="M0 0 C0.99 0.33 1.98 0.66 3 1 C-0.79965767 4.56937538 -3.85152229 5.9641845 -9 6 C-13.34531282 5.77638156 -17.66987082 5.42324571 -22 5 C-22 4.67 -22 4.34 -22 4 C-20.83082031 3.93941406 -19.66164062 3.87882813 -18.45703125 3.81640625 C-16.90884386 3.73195966 -15.36066732 3.64731375 -13.8125 3.5625 C-13.04357422 3.52318359 -12.27464844 3.48386719 -11.48242188 3.44335938 C-7.56748925 3.22492966 -3.82879312 2.91307892 0 2 C0 1.34 0 0.68 0 0 Z " fill="#DCDCDC" transform="translate(176,185)"/>
<path d="M0 0 C0.33 0.66 0.66 1.32 1 2 C0.67 2.66 0.34 3.32 0 4 C-0.66 4 -1.32 4 -2 4 C-1.67 4.99 -1.34 5.98 -1 7 C-1.66 7.66 -2.32 8.32 -3 9 C-2.01 9.66 -1.02 10.32 0 11 C0 11.99 0 12.98 0 14 C-2.46800047 12.84826645 -4.04783565 11.95216435 -6 10 C-5.89834392 6.23872509 -5.00920966 5.01010816 -2.4375 2.1875 C-1.2309375 1.1046875 -1.2309375 1.1046875 0 0 Z " fill="#565B59" transform="translate(254,285)"/>
<path d="M0 0 C0.33 0.66 0.66 1.32 1 2 C0.319375 2.680625 -0.36125 3.36125 -1.0625 4.0625 C-1.51109375 4.51753906 -1.9596875 4.97257812 -2.421875 5.44140625 C-3.55302219 6.5585541 -4.71304656 7.64675091 -5.890625 8.71484375 C-9.82540888 12.16260709 -9.82540888 12.16260709 -11.4375 16.9375 C-11.293125 17.618125 -11.14875 18.29875 -11 19 C-11.66 19 -12.32 19 -13 19 C-13.5 16.5 -13.5 16.5 -13 13 C-10.61581728 10.0241223 -7.82897875 7.54660379 -5 5 C-3.99284891 4.0072026 -2.99139215 3.00853438 -2 2 C-1.34 1.34 -0.68 0.68 0 0 Z " fill="#9EA3A2" transform="translate(260,277)"/>
<path d="M0 0 C0.33 0 0.66 0 1 0 C1.37705922 5.1531427 0.02042284 8.31261901 -2 13 C-2.23331035 14.45170887 -2.42137207 15.91145114 -2.5625 17.375 C-2.706875 18.57125 -2.85125 19.7675 -3 21 C-3.66 21.33 -4.32 21.66 -5 22 C-4.22166373 10.48881629 -4.22166373 10.48881629 -2 5 C-1.62875 4.05125 -1.2575 3.1025 -0.875 2.125 C-0.58625 1.42375 -0.2975 0.7225 0 0 Z " fill="#9A9A9A" transform="translate(173,265)"/>
<path d="M0 0 C0 0.33 0 0.66 0 1 C-0.67804688 1.03738281 -1.35609375 1.07476562 -2.0546875 1.11328125 C-7.99455027 1.53285604 -13.19899432 2.46191229 -18.80859375 4.4765625 C-21.26055538 5.06223604 -22.64048154 4.8062136 -25 4 C-17.56166129 -0.95889247 -8.62632528 -0.2399905 0 0 Z " fill="#A9A9A9" transform="translate(238,226)"/>
<path d="M0 0 C1.65 0 3.3 0 5 0 C5 0.99 5 1.98 5 3 C3.35 3.33 1.7 3.66 0 4 C0 4.66 0 5.32 0 6 C-1.32 6 -2.64 6 -4 6 C-3.67 5.01 -3.34 4.02 -3 3 C-2.34 3 -1.68 3 -1 3 C-0.67 2.01 -0.34 1.02 0 0 Z " fill="#404040" transform="translate(209,255)"/>
<path d="M0 0 C0.48210937 0.42152344 0.96421875 0.84304687 1.4609375 1.27734375 C2.09257812 1.82519531 2.72421875 2.37304688 3.375 2.9375 C4.00148437 3.48277344 4.62796875 4.02804688 5.2734375 4.58984375 C6.95632334 6.06958624 6.95632334 6.06958624 9 7 C9 9.97 9 12.94 9 16 C8.67 16 8.34 16 8 16 C8 13.69 8 11.38 8 9 C7.01 9.33 6.02 9.66 5 10 C4.731875 9.236875 4.46375 8.47375 4.1875 7.6875 C3.04199033 5.09503074 2.00288478 3.91184456 0 2 C0 1.34 0 0.68 0 0 Z " fill="#737373" transform="translate(190,127)"/>
<path d="M0 0 C0.66 0.33 1.32 0.66 2 1 C1.8125 2.875 1.8125 2.875 1 5 C-0.64991582 5.70710678 -2.3207762 6.36562656 -4 7 C-6.112341 8.56194229 -8.02812906 10.25741638 -10 12 C-8.52278578 8.54798361 -6.56205999 6.35038064 -3.875 3.75 C-3.15054688 3.04359375 -2.42609375 2.3371875 -1.6796875 1.609375 C-1.12539062 1.07828125 -0.57109375 0.5471875 0 0 Z " fill="#7F7F7F" transform="translate(105,109)"/>
<path d="M0 0 C4.13621084 3.3810038 7.81316569 6.66590534 11 11 C8.50638429 9.79618552 6.31856917 8.54571278 4 7 C4 6.34 4 5.68 4 5 C3.01 5 2.02 5 1 5 C0.67 3.35 0.34 1.7 0 0 Z " fill="#989898" transform="translate(167,131)"/>
<path d="M0 0 C0.66 1.32 1.32 2.64 2 4 C-1.8503105 6.56687367 -3.58569763 5.83288724 -8 5 C-6.625 3.5 -6.625 3.5 -5 2 C-4.34 2 -3.68 2 -3 2 C-3 2.66 -3 3.32 -3 4 C-2.34 4 -1.68 4 -1 4 C-0.67 2.68 -0.34 1.36 0 0 Z " fill="#5F6060" transform="translate(217,257)"/>
<path d="M0 0 C0.66 0.33 1.32 0.66 2 1 C1.0479279 2.00596297 0.08812654 3.00461563 -0.875 4 C-1.40867187 4.556875 -1.94234375 5.11375 -2.4921875 5.6875 C-4 7 -4 7 -6 7 C-6.66 8.32 -7.32 9.64 -8 11 C-8.33 9.68 -8.66 8.36 -9 7 C-8.071875 6.401875 -7.14375 5.80375 -6.1875 5.1875 C-3.79745282 3.54727155 -1.91529747 2.1281083 0 0 Z " fill="#5B5B5B" transform="translate(116,123)"/>
<path d="M0 0 C1.32 0 2.64 0 4 0 C2.98823563 3.40320742 2.35156418 4.75725331 -0.625 6.8125 C-1.40875 7.204375 -2.1925 7.59625 -3 8 C-3 6.68 -3 5.36 -3 4 C-1.68 4 -0.36 4 1 4 C0.67 2.68 0.34 1.36 0 0 Z " fill="#5E6462" transform="translate(243,266)"/>
<path d="M0 0 C2.23288365 0.38497994 3.83656302 0.89493337 5.75 2.125 C7.66497267 4.99745901 7.18991495 7.64483583 7 11 C6.67 11 6.34 11 6 11 C6 9.35 6 7.7 6 6 C5.34 6 4.68 6 4 6 C3.67 5.01 3.34 4.02 3 3 C1.50014391 1.33289654 1.50014391 1.33289654 0 0 Z " fill="#D0D6D4" transform="translate(257,263)"/>
<path d="M0 0 C4.875 1.75 4.875 1.75 6 4 C4.02 4.33 2.04 4.66 0 5 C-0.5625 3.0625 -0.5625 3.0625 -1 1 C-0.67 0.67 -0.34 0.34 0 0 Z " fill="#525252" transform="translate(141,81)"/>
<path d="M0 0 C0.33 0.66 0.66 1.32 1 2 C0.01 3.485 0.01 3.485 -1 5 C-4.125 5.1875 -4.125 5.1875 -7 5 C-6.67 4.01 -6.34 3.02 -6 2 C-4.02 2.495 -4.02 2.495 -2 3 C-2 2.34 -2 1.68 -2 1 C-1.34 0.67 -0.68 0.34 0 0 Z " fill="#CED3D1" transform="translate(238,277)"/>
<path d="M0 0 C0.66 0.33 1.32 0.66 2 1 C-2.43076923 6.78461538 -2.43076923 6.78461538 -5.3125 7.875 C-5.869375 7.91625 -6.42625 7.9575 -7 8 C-5.61918777 3.8575633 -3.40174442 2.67796901 0 0 Z " fill="#C9CFCD" transform="translate(252,263)"/>
<path d="M0 0 C0.66 0 1.32 0 2 0 C1.67 1.98 1.34 3.96 1 6 C-0.32 6.33 -1.64 6.66 -3 7 C-2.01 4.69 -1.02 2.38 0 0 Z " fill="#909090" transform="translate(177,258)"/>
<path d="M0 0 C-0.57344937 2.86724686 -0.8614515 3.8614515 -3 6 C-5.125 5.625 -5.125 5.625 -7 5 C-2.25 0 -2.25 0 0 0 Z " fill="#A8A8A8" transform="translate(105,139)"/>
<path d="M0 0 C0.99 0 1.98 0 3 0 C3 0.66 3 1.32 3 2 C3.639375 2.268125 4.27875 2.53625 4.9375 2.8125 C7 4 7 4 8 7 C4.2047869 5.50902342 2.38957269 3.24299151 0 0 Z " fill="#D8D8D8" transform="translate(82,194)"/>
<path d="M0 0 C3.72940389 1.24313463 4.84656811 2.76985216 7 6 C6.67 6.99 6.34 7.98 6 9 C0.42857143 3.85714286 0.42857143 3.85714286 0 0 Z " fill="#D2D2D2" transform="translate(157,90)"/>
<path d="M0 0 C-1.8125 2 -1.8125 2 -4 4 C-4.99 4 -5.98 4 -7 4 C-7 3.01 -7 2.02 -7 1 C-3.375 -1.125 -3.375 -1.125 0 0 Z " fill="#D8D8D8" transform="translate(132,83)"/>
<path d="M0 0 C2.31 1.98 4.62 3.96 7 6 C4 6 4 6 1 5 C0.67 3.35 0.34 1.7 0 0 Z " fill="#6F7976" transform="translate(238,309)"/>
<path d="M0 0 C2.31 1.98 4.62 3.96 7 6 C6.67 6.66 6.34 7.32 6 8 C3.5625 6.8125 3.5625 6.8125 1 5 C0.1875 2.3125 0.1875 2.3125 0 0 Z " fill="#CBD4D1" transform="translate(257,305)"/>
<path d="M0 0 C0.99 0 1.98 0 3 0 C2.67 1.65 2.34 3.3 2 5 C0.68 5.33 -0.64 5.66 -2 6 C-1.34 4.02 -0.68 2.04 0 0 Z " fill="#D0D3D2" transform="translate(221,291)"/>
<path d="M0 0 C1.65 1.65 3.3 3.3 5 5 C4.01 5.33 3.02 5.66 2 6 C2 5.34 2 4.68 2 4 C1.01 3.67 0.02 3.34 -1 3 C-0.67 2.01 -0.34 1.02 0 0 Z " fill="#ECECEC" transform="translate(80,144)"/>
<path d="" fill="#D9D9D9" transform="translate(0,0)"/>
</svg>
