<?xml version="1.0" encoding="UTF-8"?>
<svg version="1.1" xmlns="http://www.w3.org/2000/svg" width="300" height="300">
<path d="M0 0 C1.12085999 0.00007553 2.24171997 0.00015106 3.39654541 0.00022888 C4.60083191 0.00539017 5.80511841 0.01055145 7.04589844 0.01586914 C8.28321716 0.01728409 9.52053589 0.01869904 10.79534912 0.02015686 C14.07672285 0.0248043 17.35804717 0.03378192 20.6394043 0.04486084 C23.99104355 0.05511019 27.34268492 0.0595768 30.69433594 0.06469727 C37.26468778 0.07487439 43.83491727 0.09445016 50.40527344 0.11352539 C50.40527344 9.35352539 50.40527344 18.59352539 50.40527344 28.11352539 C52.38527344 28.11352539 54.36527344 28.11352539 56.40527344 28.11352539 C56.40527344 18.87352539 56.40527344 9.63352539 56.40527344 0.11352539 C82.80410197 0.09039429 109.20292806 0.07253992 135.60176468 0.06171322 C147.85869949 0.05655298 160.11562789 0.04951545 172.37255859 0.03808594 C183.05344896 0.02813081 193.73433468 0.02166998 204.41522956 0.0194369 C210.07268584 0.01813121 215.73012884 0.01505424 221.38758087 0.00779533 C226.70950877 0.00102207 232.03141789 -0.00108889 237.35334969 0.00041771 C239.30931513 0.00014197 241.26528118 -0.00185542 243.2212429 -0.00568008 C245.88671531 -0.01063767 248.55211636 -0.0094652 251.21759033 -0.00672913 C251.99580147 -0.00964197 252.77401261 -0.01255481 253.5758059 -0.01555592 C256.98970795 -0.00605053 260.14302508 0.03401318 263.40527344 1.11352539 C263.40527344 1.77352539 263.40527344 2.43352539 263.40527344 3.11352539 C264.24058594 3.20633789 264.24058594 3.20633789 265.09277344 3.30102539 C268.39595385 4.46160229 270.12422077 6.51565985 272.40527344 9.11352539 C272.40527344 9.77352539 272.40527344 10.43352539 272.40527344 11.11352539 C273.06527344 11.11352539 273.72527344 11.11352539 274.40527344 11.11352539 C276.35452051 15.99001547 276.67131011 20.39145083 276.60058594 25.57446289 C276.59634109 26.76031479 276.59634109 26.76031479 276.5920105 27.97012329 C276.58088299 30.47641623 276.55579269 32.98234184 276.53027344 35.48852539 C276.52023401 37.19555145 276.51110985 38.90258316 276.50292969 40.60961914 C276.48096807 44.77772779 276.44649015 48.94556447 276.40527344 53.11352539 C273.43527344 53.11352539 270.46527344 53.11352539 267.40527344 53.11352539 C267.40527344 53.77352539 267.40527344 54.43352539 267.40527344 55.11352539 C259.97670201 57.25638253 259.97670201 57.25638253 256.40527344 58.11352539 C256.40527344 58.77352539 256.40527344 59.43352539 256.40527344 60.11352539 C254.92027344 60.60852539 254.92027344 60.60852539 253.40527344 61.11352539 C252.0670004 62.77622826 250.73337558 64.44268721 249.40527344 66.11352539 C248.74527344 66.11352539 248.08527344 66.11352539 247.40527344 66.11352539 C247.07527344 67.43352539 246.74527344 68.75352539 246.40527344 70.11352539 C245.74527344 70.11352539 245.08527344 70.11352539 244.40527344 70.11352539 C244.40527344 71.43352539 244.40527344 72.75352539 244.40527344 74.11352539 C243.74527344 74.11352539 243.08527344 74.11352539 242.40527344 74.11352539 C242.07527344 77.41352539 241.74527344 80.71352539 241.40527344 84.11352539 C240.74527344 84.11352539 240.08527344 84.11352539 239.40527344 84.11352539 C239.40527344 87.41352539 239.40527344 90.71352539 239.40527344 94.11352539 C240.06527344 94.11352539 240.72527344 94.11352539 241.40527344 94.11352539 C241.50324219 94.75418945 241.60121094 95.39485352 241.70214844 96.05493164 C242.71802378 101.93124504 244.2542244 106.07184693 247.40527344 111.11352539 C247.40527344 111.77352539 247.40527344 112.43352539 247.40527344 113.11352539 C248.39527344 113.44352539 249.38527344 113.77352539 250.40527344 114.11352539 C250.40527344 114.77352539 250.40527344 115.43352539 250.40527344 116.11352539 C251.72527344 116.44352539 253.04527344 116.77352539 254.40527344 117.11352539 C254.40527344 117.77352539 254.40527344 118.43352539 254.40527344 119.11352539 C257.37527344 120.10352539 260.34527344 121.09352539 263.40527344 122.11352539 C263.40527344 122.77352539 263.40527344 123.43352539 263.40527344 124.11352539 C264.20964844 124.09290039 265.01402344 124.07227539 265.84277344 124.05102539 C268.40527344 124.11352539 268.40527344 124.11352539 269.40527344 125.11352539 C271.73345307 125.4811327 274.06711194 125.8159412 276.40527344 126.11352539 C276.45489801 130.98818496 276.49109898 135.8626958 276.51513672 140.73754883 C276.52516301 142.39415042 276.5387875 144.05073446 276.55615234 145.70727539 C276.58054964 148.09534044 276.59179037 150.48317047 276.60058594 152.87133789 C276.61090851 153.60595245 276.62123108 154.34056702 276.63186646 155.09744263 C276.63281412 159.49048898 276.02803681 163.03134902 274.40527344 167.11352539 C273.74527344 167.11352539 273.08527344 167.11352539 272.40527344 167.11352539 C272.32277344 167.71165039 272.24027344 168.30977539 272.15527344 168.92602539 C271.18950565 171.74284812 269.91658777 172.59151671 267.40527344 174.11352539 C266.74527344 174.11352539 266.08527344 174.11352539 265.40527344 174.11352539 C265.40527344 174.77352539 265.40527344 175.43352539 265.40527344 176.11352539 C260.54168994 178.05044979 256.1453235 178.39301566 250.9770813 178.35403442 C249.72594978 178.3565977 249.72594978 178.3565977 248.44954288 178.35921276 C245.66272554 178.36249944 242.87615052 178.3515175 240.08935547 178.34057617 C238.08849595 178.34001188 236.08763601 178.34032897 234.08677673 178.34146118 C228.65958285 178.34203499 223.23247738 178.33027598 217.80530405 178.31631327 C212.13183446 178.30381073 206.45836284 178.30263578 200.78488159 178.30026245 C190.04339898 178.29404629 179.30195708 178.2776336 168.5604924 178.25756347 C156.33084556 178.23520874 144.10119677 178.22421211 131.87153459 178.2141726 C106.71609087 178.19326751 81.56068615 178.15768598 56.40527344 178.11352539 C56.40527344 169.53352539 56.40527344 160.95352539 56.40527344 152.11352539 C54.42527344 152.11352539 52.44527344 152.11352539 50.40527344 152.11352539 C50.40527344 160.69352539 50.40527344 169.27352539 50.40527344 178.11352539 C42.55803964 178.15949031 34.71127492 178.19930106 26.86401367 178.22338867 C24.19564087 178.2323008 21.52748342 178.2470699 18.85913086 178.2644043 C15.01901539 178.28872241 11.17904574 178.30002471 7.33886719 178.30883789 C6.15006454 178.31916046 4.9612619 178.32948303 3.73643494 178.34011841 C-9.91209084 178.34195824 -9.91209084 178.34195824 -14.80957031 174.27368164 C-15.37804688 173.58145508 -15.94652344 172.88922852 -16.53222656 172.17602539 C-17.11875 171.48637695 -17.70527344 170.79672852 -18.30957031 170.08618164 C-19.59472656 168.11352539 -19.59472656 168.11352539 -19.59472656 165.11352539 C-20.25472656 165.11352539 -20.91472656 165.11352539 -21.59472656 165.11352539 C-23.7882768 156.72758532 -23.83097744 148.61474719 -23.71972656 139.98852539 C-23.70966938 138.63696958 -23.7005484 137.28540646 -23.69238281 135.93383789 C-23.66899975 132.66020981 -23.63622717 129.38696545 -23.59472656 126.11352539 C-22.34175781 125.96786133 -21.08878906 125.82219727 -19.79785156 125.67211914 C-15.34819059 125.15482316 -11.40851953 124.0463332 -7.40722656 121.98852539 C-5.59472656 121.11352539 -5.59472656 121.11352539 -2.59472656 121.11352539 C-2.59472656 120.45352539 -2.59472656 119.79352539 -2.59472656 119.11352539 C0.8668119 116.11352539 0.8668119 116.11352539 3.40527344 116.11352539 C3.40527344 115.45352539 3.40527344 114.79352539 3.40527344 114.11352539 C4.06527344 114.11352539 4.72527344 114.11352539 5.40527344 114.11352539 C6.97157052 111.09381751 8.28152507 108.02702125 9.53027344 104.86352539 C9.88347656 103.97149414 10.23667969 103.07946289 10.60058594 102.16040039 C10.86613281 101.48493164 11.13167969 100.80946289 11.40527344 100.11352539 C12.06527344 100.11352539 12.72527344 100.11352539 13.40527344 100.11352539 C13.40527344 93.18352539 13.40527344 86.25352539 13.40527344 79.11352539 C12.74527344 79.11352539 12.08527344 79.11352539 11.40527344 79.11352539 C10.97214844 77.89665039 10.53902344 76.67977539 10.09277344 75.42602539 C8.84447809 72.06751648 7.29049536 69.16578945 5.40527344 66.11352539 C5.40527344 65.45352539 5.40527344 64.79352539 5.40527344 64.11352539 C3.92027344 63.61852539 3.92027344 63.61852539 2.40527344 63.11352539 C2.40527344 62.45352539 2.40527344 61.79352539 2.40527344 61.11352539 C1.53902344 60.92790039 1.53902344 60.92790039 0.65527344 60.73852539 C-1.61808423 60.10703715 -3.52007946 59.22494348 -5.59472656 58.11352539 C-5.59472656 57.45352539 -5.59472656 56.79352539 -5.59472656 56.11352539 C-8.56472656 55.78352539 -11.53472656 55.45352539 -14.59472656 55.11352539 C-14.59472656 54.78352539 -14.59472656 54.45352539 -14.59472656 54.11352539 C-17.56472656 53.78352539 -20.53472656 53.45352539 -23.59472656 53.11352539 C-23.64473702 49.02420857 -23.68073013 44.93501398 -23.70458984 40.84545898 C-23.71455259 39.45870863 -23.72812775 38.07197874 -23.74560547 36.68530273 C-23.84456364 28.62312195 -23.66820525 20.95627736 -21.59472656 13.11352539 C-20.93472656 13.11352539 -20.27472656 13.11352539 -19.59472656 13.11352539 C-19.19253906 11.96883789 -19.19253906 11.96883789 -18.78222656 10.80102539 C-17.10432592 7.00367129 -15.70458066 5.60392604 -11.90722656 3.92602539 C-11.14410156 3.65790039 -10.38097656 3.38977539 -9.59472656 3.11352539 C-9.59472656 2.45352539 -9.59472656 1.79352539 -9.59472656 1.11352539 C-6.3336979 0.13955253 -3.39650786 -0.00764979 0 0 Z M52.40527344 51.11352539 C52.40527344 51.77352539 52.40527344 52.43352539 52.40527344 53.11352539 C51.74527344 53.11352539 51.08527344 53.11352539 50.40527344 53.11352539 C50.40527344 61.03352539 50.40527344 68.95352539 50.40527344 77.11352539 C52.05527344 77.44352539 53.70527344 77.77352539 55.40527344 78.11352539 C56.66708439 77.07559767 56.66708439 77.07559767 56.51879883 74.796875 C56.51356201 73.79664307 56.5083252 72.79641113 56.50292969 71.76586914 C56.49970703 70.6862793 56.49648437 69.60668945 56.49316406 68.49438477 C56.48478516 67.35807617 56.47640625 66.22176758 56.46777344 65.05102539 C56.46326172 63.91084961 56.45875 62.77067383 56.45410156 61.59594727 C56.44227091 58.76842188 56.42578753 55.94099899 56.40527344 53.11352539 C55.08527344 52.45352539 53.76527344 51.79352539 52.40527344 51.11352539 Z M52.40527344 101.11352539 C52.40527344 101.77352539 52.40527344 102.43352539 52.40527344 103.11352539 C51.74527344 103.11352539 51.08527344 103.11352539 50.40527344 103.11352539 C50.40527344 111.03352539 50.40527344 118.95352539 50.40527344 127.11352539 C52.38527344 127.11352539 54.36527344 127.11352539 56.40527344 127.11352539 C56.40527344 119.19352539 56.40527344 111.27352539 56.40527344 103.11352539 C55.74527344 103.11352539 55.08527344 103.11352539 54.40527344 103.11352539 C54.40527344 102.45352539 54.40527344 101.79352539 54.40527344 101.11352539 C53.74527344 101.11352539 53.08527344 101.11352539 52.40527344 101.11352539 Z " fill="#AEAEAE" transform="translate(23.5947265625,121.886474609375)"/>
<path d="M0 0 C0 0.66 0 1.32 0 2 C0.61875 2.309375 1.2375 2.61875 1.875 2.9375 C3.25 3.625 4.625 4.3125 6 5 C6 5.66 6 6.32 6 7 C7.32 7.33 8.64 7.66 10 8 C10 8.66 10 9.32 10 10 C10.99 10 11.98 10 13 10 C13 10.66 13 11.32 13 12 C13.66 12 14.32 12 15 12 C15 12.66 15 13.32 15 14 C16.32 14.33 17.64 14.66 19 15 C19 15.66 19 16.32 19 17 C19.556875 17.268125 20.11375 17.53625 20.6875 17.8125 C27.70909091 21.41818182 27.70909091 21.41818182 29 24 C30.65071396 25.02611949 32.31970006 26.02308143 34 27 C35.34631825 27.98244845 36.68441297 28.97676564 38 30 C37.44271087 33.34373475 36.64826111 36.03312999 35 39 C34.34 39 33.68 39 33 39 C32.690625 39.61875 32.38125 40.2375 32.0625 40.875 C31.375 42.25 30.6875 43.625 30 45 C29.34 45 28.68 45 28 45 C27.67 46.32 27.34 47.64 27 49 C26.34 49 25.68 49 25 49 C25 49.99 25 50.98 25 52 C24.34 52 23.68 52 23 52 C23 53.65 23 55.3 23 57 C27.82442184 55.73053486 27.82442184 55.73053486 31 52 C31.66 52 32.32 52 33 52 C33.185625 51.1028125 33.185625 51.1028125 33.375 50.1875 C34 48 34 48 36 45 C36.66 45 37.32 45 38 45 C38.309375 44.38125 38.61875 43.7625 38.9375 43.125 C39.625 41.75 40.3125 40.375 41 39 C41.66 39 42.32 39 43 39 C43 38.34 43 37.68 43 37 C46.37462715 37.54723683 48.08235 38.0549 51 40 C51 40.66 51 41.32 51 42 C52.32 42.33 53.64 42.66 55 43 C55 43.66 55 44.32 55 45 C55.99 45 56.98 45 58 45 C58.33 45.66 58.66 46.32 59 47 C59.99 47.33 60.98 47.66 62 48 C62 48.66 62 49.32 62 50 C62.66 50 63.32 50 64 50 C64 50.66 64 51.32 64 52 C65.32 52.33 66.64 52.66 68 53 C68 53.66 68 54.32 68 55 C68.804375 55.268125 69.60875 55.53625 70.4375 55.8125 C71.283125 56.204375 72.12875 56.59625 73 57 C73.33 57.99 73.66 58.98 74 60 C75.90178785 60.60061233 75.90178785 60.60061233 78 61 C78.99 61.66 79.98 62.32 81 63 C81 63.66 81 64.32 81 65 C83.33214148 66.20628008 85.49642139 67.1654738 88 68 C88.6875 70.0625 88.6875 70.0625 89 72 C90.32 72.33 91.64 72.66 93 73 C93 73.66 93 74.32 93 75 C93.99 75 94.98 75 96 75 C96 75.66 96 76.32 96 77 C97.32 77.33 98.64 77.66 100 78 C100 78.66 100 79.32 100 80 C102.33214148 81.20628008 104.49642139 82.1654738 107 83 C109.6875 85.4375 109.6875 85.4375 112 88 C112 88.66 112 89.32 112 90 C112.598125 90.12375 113.19625 90.2475 113.8125 90.375 C116 91 116 91 119 93 C119 93.66 119 94.32 119 95 C120.32 95.33 121.64 95.66 123 96 C123 96.66 123 97.32 123 98 C123.99 98 124.98 98 126 98 C127.8590123 99.57301041 128.90809958 100.81619917 130 103 C130.66 103 131.32 103 132 103 C132 103.66 132 104.32 132 105 C133.175625 105.37125 133.175625 105.37125 134.375 105.75 C137.32317108 107.15389099 137.9024777 108.00675737 139 111 C136.80948426 113.19051574 131.51487437 112.15511728 128.46470642 112.15821838 C127.45113101 112.16315636 126.4375556 112.16809434 125.39326578 112.17318195 C121.96912881 112.18864012 118.5450107 112.19693996 115.12084961 112.20532227 C112.67738171 112.21489426 110.23391549 112.22490393 107.79045105 112.23532104 C102.51553333 112.25681827 97.24061833 112.27524822 91.96568108 112.29092598 C84.33892555 112.31359888 76.71219803 112.34174523 69.08546621 112.37124526 C56.71283292 112.41895289 44.3401882 112.46220844 31.9675293 112.50268555 C19.94571035 112.54202437 7.92390157 112.58344669 -4.09790039 112.62768555 C-4.83841257 112.63040982 -5.57892475 112.63313409 -6.34187669 112.63594092 C-10.05665586 112.64962013 -13.77143487 112.66334045 -17.4862138 112.67708123 C-48.32412158 112.7910958 -79.16205064 112.89782028 -110 113 C-110 113.66 -110 114.32 -110 115 C-111.98 115 -113.96 115 -116 115 C-115.67 112.69 -115.34 110.38 -115 108 C-114.34 108 -113.68 108 -113 108 C-112.690625 107.38125 -112.38125 106.7625 -112.0625 106.125 C-111.375 104.75 -110.6875 103.375 -110 102 C-109.34 102 -108.68 102 -108 102 C-107.67 100.68 -107.34 99.36 -107 98 C-106.34 98 -105.68 98 -105 98 C-105 97.01 -105 96.02 -105 95 C-104.34 95 -103.68 95 -103 95 C-103 94.34 -103 93.68 -103 93 C-102.34 93 -101.68 93 -101 93 C-100.34 91.35 -99.68 89.7 -99 88 C-97.02 88 -95.04 88 -93 88 C-93 88.66 -93 89.32 -93 90 C-91.02 90.33 -89.04 90.66 -87 91 C-87 91.66 -87 92.32 -87 93 C-85.35 93 -83.7 93 -82 93 C-82 93.66 -82 94.32 -82 95 C-76.06 95 -70.12 95 -64 95 C-64 94.34 -64 93.68 -64 93 C-62.35 93 -60.7 93 -59 93 C-58.67 92.34 -58.34 91.68 -58 91 C-55.4375 90.375 -55.4375 90.375 -53 90 C-53 89.34 -53 88.68 -53 88 C-52.01 88 -51.02 88 -50 88 C-49.505 86.515 -49.505 86.515 -49 85 C-48.34 85 -47.68 85 -47 85 C-46.71125 84.38125 -46.4225 83.7625 -46.125 83.125 C-45 81 -45 81 -43 79 C-42.3574765 76.93125966 -42.3574765 76.93125966 -42 75 C-41.34 75 -40.68 75 -40 75 C-39.855625 73.865625 -39.71125 72.73125 -39.5625 71.5625 C-39 68 -39 68 -38 67 C-37.87227986 64.4248055 -37.81478146 61.88826801 -37.8125 59.3125 C-37.80025391 58.60416016 -37.78800781 57.89582031 -37.77539062 57.16601562 C-37.76299707 52.69194346 -38.42915364 49.24066429 -40 45 C-40 44.01 -40 43.02 -40 42 C-40.66 42 -41.32 42 -42 42 C-42.33 40.35 -42.66 38.7 -43 37 C-43.66 37 -44.32 37 -45 37 C-47.625 34.625 -47.625 34.625 -50 32 C-50 31.34 -50 30.68 -50 30 C-50.66 30 -51.32 30 -52 30 C-52 27 -52 27 -50.0625 24.9375 C-49.381875 24.298125 -48.70125 23.65875 -48 23 C-47.67 22.34 -47.34 21.68 -47 21 C-46.34 21 -45.68 21 -45 21 C-44.731875 20.443125 -44.46375 19.88625 -44.1875 19.3125 C-40.58181818 12.29090909 -40.58181818 12.29090909 -38 11 C-36.86649466 8.98330173 -36.86649466 8.98330173 -36 7 C-35.34 7 -34.68 7 -34 7 C-34 6.34 -34 5.68 -34 5 C-33.34 5 -32.68 5 -32 5 C-32 4.34 -32 3.68 -32 3 C-30.68 2.67 -29.36 2.34 -28 2 C-28 1.34 -28 0.68 -28 0 C-18.86259017 -2.5475267 -9.16747416 -2.64185832 0 0 Z M5 75 C5 75.99 5 76.98 5 78 C4.01 78.33 3.02 78.66 2 79 C-1.03852726 81.65871135 -3.12102348 84.4299446 -5 88 C-5 88.66 -5 89.32 -5 90 C-5.66 90 -6.32 90 -7 90 C-7.38218767 91.65614657 -7.71395102 93.32457024 -8 95 C-6.95137906 96.25156054 -6.95137906 96.25156054 -4.625 96.3125 C-1.8746284 96.26539871 -1.8746284 96.26539871 -0.1875 94.125 C1.16260712 92.1147343 1.16260712 92.1147343 1 90 C1.66 90 2.32 90 3 90 C5.29648649 87.4385343 6 86.52032428 6 83 C6.639375 82.773125 7.27875 82.54625 7.9375 82.3125 C10.25484291 81.14785347 10.25484291 81.14785347 10.8125 78.4375 C10.9053125 77.2309375 10.9053125 77.2309375 11 76 C9.93354885 74.70366379 9.93354885 74.70366379 7.4375 74.9375 C6.633125 74.958125 5.82875 74.97875 5 75 Z " fill="#CDCDCD" transform="translate(127,2)"/>
</svg>
