<?xml version="1.0" encoding="UTF-8"?>
<svg version="1.1" xmlns="http://www.w3.org/2000/svg" width="300" height="300">
<path d="M0 0 C0 0.66 0 1.32 0 2 C0.66 2 1.32 2 2 2 C5.4887612 6.29385993 5.26854022 9.71870895 5 15 C4.34 15 3.68 15 3 15 C2.67 16.32 2.34 17.64 2 19 C1.34 19 0.68 19 0 19 C0 19.66 0 20.32 0 21 C-1.28197266 21.19916016 -1.28197266 21.19916016 -2.58984375 21.40234375 C-4.24693359 21.66724609 -4.24693359 21.66724609 -5.9375 21.9375 C-7.03964844 22.11152344 -8.14179688 22.28554688 -9.27734375 22.46484375 C-11.90426929 22.71845136 -11.90426929 22.71845136 -13 24 C-14.99958364 24.04080783 -17.00045254 24.04254356 -19 24 C-19 24.66 -19 25.32 -19 26 C-22.96 26.495 -22.96 26.495 -27 27 C-27 27.66 -27 28.32 -27 29 C-28.62249941 29.83819158 -30.24808497 30.6704116 -31.875 31.5 C-32.77992187 31.9640625 -33.68484375 32.428125 -34.6171875 32.90625 C-37 34 -37 34 -39 34 C-39 34.66 -39 35.32 -39 36 C-40.98 36.495 -40.98 36.495 -43 37 C-43 37.66 -43 38.32 -43 39 C-43.66 39 -44.32 39 -45 39 C-45 39.66 -45 40.32 -45 41 C-46.47704212 42.25227484 -47.95827399 43.50166522 -49.4921875 44.68359375 C-51.26762944 46.11764091 -51.26762944 46.11764091 -53 49 C-53.66 49 -54.32 49 -55 49 C-55 49.99 -55 50.98 -55 52 C-55.66 52 -56.32 52 -57 52 C-57.33 53.65 -57.66 55.3 -58 57 C-58.66 57 -59.32 57 -60 57 C-60.185625 57.7734375 -60.185625 57.7734375 -60.375 58.5625 C-61.18641628 61.72702351 -62.0945913 64.86124985 -63 68 C-63.66 68 -64.32 68 -65 68 C-65 69.32 -65 70.64 -65 72 C-65.66 72 -66.32 72 -67 72 C-67.33 78.27 -67.66 84.54 -68 91 C-68.66 91 -69.32 91 -70 91 C-69.99333817 91.79433945 -69.98667633 92.58867889 -69.97981262 93.40708923 C-69.91948869 100.92421697 -69.87391811 108.44122592 -69.84456348 115.95853329 C-69.8289642 119.82247758 -69.80783216 123.68622043 -69.77368164 127.55004883 C-69.74088166 131.28481058 -69.72310393 135.0193796 -69.71536827 138.75427437 C-69.70986152 140.1731119 -69.69910894 141.59193991 -69.68280983 143.0106945 C-69.59471608 151.00284278 -69.90922092 157.58141723 -73 165 C-73.66 165 -74.32 165 -75 165 C-75 166.65 -75 168.3 -75 170 C-75.66 170 -76.32 170 -77 170 C-77 174.29 -77 178.58 -77 183 C-75.35 183.66 -73.7 184.32 -72 185 C-72 185.66 -72 186.32 -72 187 C-52.25067551 186.91615388 -32.50143604 186.82104046 -12.7522316 186.71247292 C-3.58255943 186.66232775 5.58710371 186.61588505 14.75683594 186.578125 C22.74815173 186.5452082 30.73939788 186.50537871 38.73063684 186.45720994 C42.96285472 186.43194185 47.19502638 186.41016148 51.4272995 186.39665604 C55.4097982 186.38383849 59.3921384 186.36178745 63.37454987 186.33261681 C64.83705432 186.32353862 66.2995843 186.31785023 67.76211548 186.31578636 C69.75760436 186.31246571 71.75305784 186.29581557 73.74847412 186.2784729 C74.86568722 186.27294214 75.98290031 186.26741138 77.13396835 186.26171303 C80.33321627 185.9695722 82.69632116 185.30367884 85 183 C85.12535652 181.39951798 85.17574787 179.79284072 85.1875 178.1875 C85.20167969 177.31480469 85.21585938 176.44210938 85.23046875 175.54296875 C84.98692849 172.85577028 84.21564391 171.3688239 83 169 C83 167.68 83 166.36 83 165 C82.34 165 81.68 165 81 165 C77.37266725 156.5552647 77.65455812 148.43621383 77.8125 139.4375 C77.82757608 137.93686241 77.84125931 136.43621015 77.85351562 134.93554688 C77.88628518 131.29005548 77.93790521 127.64512365 78 124 C78.66 124 79.32 124 80 124 C80.1546875 123.0409375 80.1546875 123.0409375 80.3125 122.0625 C80.6528125 121.0415625 80.6528125 121.0415625 81 120 C83.81227622 119.06257459 85.58746844 118.86529156 88.5 118.875 C89.2734375 118.87242187 90.046875 118.86984375 90.84375 118.8671875 C93 119 93 119 96 120 C100.80376913 126.16022912 100.48400604 131.85480418 100.25 139.4375 C100.23195312 140.55060547 100.21390625 141.66371094 100.1953125 142.81054688 C100.14843319 145.54126646 100.08282819 148.27017386 100 151 C100.66 151 101.32 151 102 151 C102.33 153.97 102.66 156.94 103 160 C103.66 160 104.32 160 105 160 C105 161.32 105 162.64 105 164 C105.66 164 106.32 164 107 164 C107.98248524 168.0527516 108.08159574 171.83861737 108 176 C108.66 176 109.32 176 110 176 C110.26371511 180.35129931 109.25925134 183.85187793 108 188 C107.64628502 189.66246041 107.30404678 191.32774271 107 193 C106.34 193 105.68 193 105 193 C104.814375 193.70125 104.62875 194.4025 104.4375 195.125 C102.47932486 199.04135028 99.59323769 201.5338864 96 204 C95.34 204 94.68 204 94 204 C94 204.66 94 205.32 94 206 C93.36191406 206.13277344 92.72382813 206.26554688 92.06640625 206.40234375 C90.82697266 206.66724609 90.82697266 206.66724609 89.5625 206.9375 C88.73878906 207.11152344 87.91507813 207.28554687 87.06640625 207.46484375 C85.02338796 207.80752994 85.02338796 207.80752994 84 209 C81.55391002 209.15980437 79.13268942 209.25929447 76.68359375 209.31640625 C75.58701195 209.3475779 75.58701195 209.3475779 74.46827698 209.37937927 C72.12478344 209.44495024 69.78117461 209.50379432 67.4375 209.5625 C65.85220145 209.60567808 64.26691471 209.64929213 62.68164062 209.69335938 C58.78787963 209.8006392 54.89400228 209.9018849 51 210 C50.69255859 211.04800781 50.69255859 211.04800781 50.37890625 212.1171875 C49.97478516 213.48230469 49.97478516 213.48230469 49.5625 214.875 C49.29566406 215.77992188 49.02882812 216.68484375 48.75390625 217.6171875 C48 220 48 220 47 222 C46.34 222 45.68 222 45 222 C44.87625 222.598125 44.7525 223.19625 44.625 223.8125 C44 226 44 226 42 229 C41.34 229 40.68 229 40 229 C39.731875 229.639375 39.46375 230.27875 39.1875 230.9375 C38 233 38 233 35 234 C35 234.66 35 235.32 35 236 C33.68 236.33 32.36 236.66 31 237 C31 237.66 31 238.32 31 239 C30.01 239 29.02 239 28 239 C28 239.66 28 240.32 28 241 C19.57142857 244.42857143 19.57142857 244.42857143 15 244 C15 244.66 15 245.32 15 246 C7.74 246 0.48 246 -7 246 C-7 245.67 -7 245.34 -7 245 C-8.98 244.67 -10.96 244.34 -13 244 C-13 243.34 -13 242.68 -13 242 C-15.31 241.67 -17.62 241.34 -20 241 C-20 240.34 -20 239.68 -20 239 C-20.99 239 -21.98 239 -23 239 C-23 238.34 -23 237.68 -23 237 C-24.32 236.67 -25.64 236.34 -27 236 C-27 235.34 -27 234.68 -27 234 C-27.639375 233.731875 -28.27875 233.46375 -28.9375 233.1875 C-31 232 -31 232 -32 229 C-32.66 229 -33.32 229 -34 229 C-36.32803018 225.79895851 -38.28222353 222.55825126 -40 219 C-40.66 218.01 -41.32 217.02 -42 216 C-42.125 213.3125 -42.125 213.3125 -42 211 C-44.94705258 209.52647371 -47.6552449 209.79640676 -50.94140625 209.71875 C-51.96571999 209.69113586 -51.96571999 209.69113586 -53.01072693 209.66296387 C-55.93692188 209.58418998 -58.8633476 209.51640015 -61.78979492 209.44775391 C-63.92378516 209.39613848 -66.05757072 209.33885607 -68.19140625 209.28125 C-69.47217041 209.25095703 -70.75293457 209.22066406 -72.07250977 209.18945312 C-75 209 -75 209 -76 208 C-77.67884238 207.6068352 -79.36850045 207.25914548 -81.0625 206.9375 C-81.98160156 206.76089844 -82.90070313 206.58429688 -83.84765625 206.40234375 C-84.55792969 206.26957031 -85.26820312 206.13679687 -86 206 C-86 205.34 -86 204.68 -86 204 C-86.70125 203.814375 -87.4025 203.62875 -88.125 203.4375 C-91.56893646 201.71553177 -93.28742289 199.62094036 -95.66796875 196.65625 C-97.04494914 194.88314171 -97.04494914 194.88314171 -99 193 C-99.59765625 190.43359375 -99.59765625 190.43359375 -100.0625 187.4375 C-100.35968163 183.90904834 -100.35968163 183.90904834 -102 181 C-102.04063832 179.33382885 -102.042721 177.66611905 -102 176 C-101.34 176 -100.68 176 -100 176 C-100.0309375 174.14375 -100.0309375 174.14375 -100.0625 172.25 C-100.06766681 169.3359175 -99.93015558 166.79046673 -99 164 C-98.34 164 -97.68 164 -97 164 C-96.87625 163.34 -96.7525 162.68 -96.625 162 C-95.85479462 158.30301417 -94.93049337 154.65994058 -94 151 C-93.34 151 -92.68 151 -92 151 C-92 129.55 -92 108.1 -92 86 C-91.34 86 -90.68 86 -90 86 C-90.01160156 85.28714844 -90.02320313 84.57429688 -90.03515625 83.83984375 C-90.08606026 78.43674634 -89.94608271 73.32171525 -89 68 C-88.34 68 -87.68 68 -87 68 C-87.061875 67.360625 -87.12375 66.72125 -87.1875 66.0625 C-86.92439224 61.76507326 -85.47182579 58.02123832 -84 54 C-83.34 54 -82.68 54 -82 54 C-81.87625 53.443125 -81.7525 52.88625 -81.625 52.3125 C-80.94023145 49.77885636 -80.00866237 47.42078968 -79 45 C-78.34 45 -77.68 45 -77 45 C-77 44.01 -77 43.02 -77 42 C-76.34 42 -75.68 42 -75 42 C-74.67 40.35 -74.34 38.7 -74 37 C-73.34 37 -72.68 37 -72 37 C-71.731875 36.4225 -71.46375 35.845 -71.1875 35.25 C-69.97070811 32.94449957 -68.69666121 30.97943808 -67 29 C-66.34 29 -65.68 29 -65 29 C-65 28.34 -65 27.68 -65 27 C-63.28667246 25.41466298 -61.50310953 23.90458785 -59.6875 22.4375 C-58.70136719 21.63183594 -57.71523437 20.82617188 -56.69921875 19.99609375 C-54 18 -54 18 -51 17 C-51 16.34 -51 15.68 -51 15 C-48.09451118 12.95830515 -46.59857954 12 -43 12 C-43 11.34 -43 10.68 -43 10 C-41.02 9.67 -39.04 9.34 -37 9 C-37 8.34 -37 7.68 -37 7 C-35.68 7 -34.36 7 -33 7 C-33 6.34 -33 5.68 -33 5 C-27.47239641 2.89424625 -22.93002267 1.62148791 -17 2 C-17 1.34 -17 0.68 -17 0 C-11.06390334 -0.89316269 -5.93024803 -0.97040422 0 0 Z M-20 209 C-19.01 209.495 -19.01 209.495 -18 210 C-17.7525 210.7425 -17.505 211.485 -17.25 212.25 C-15.51004997 216.07789007 -13.41876257 217.55802674 -10 220 C-9.01 220 -8.02 220 -7 220 C-7 220.66 -7 221.32 -7 222 C-3.19471609 223.76274181 -0.1839474 224.27134667 4 224.25 C5.010625 224.25515625 6.02125 224.2603125 7.0625 224.265625 C10.0703976 223.99363426 12.27306793 223.26321118 15 222 C15 221.34 15 220.68 15 220 C16.65 219.67 18.3 219.34 20 219 C20 218.34 20 217.68 20 217 C20.928125 216.6596875 20.928125 216.6596875 21.875 216.3125 C24.62260139 214.61545208 24.93210179 212.97485929 26 210 C26.66 209.67 27.32 209.34 28 209 C12.16 209 -3.68 209 -20 209 Z " fill="#B4B4B4" transform="translate(146,37)"/>
<path d="M0 0 C0 0.66 0 1.32 0 2 C0.639375 1.938125 1.27875 1.87625 1.9375 1.8125 C6.16397157 2.07126357 10.23569534 3.01800855 14 5 C14.70422232 6.31388475 15.37513192 7.64657394 16 9 C18.55519921 9.81171228 18.55519921 9.81171228 21 10 C21 10.66 21 11.32 21 12 C21.66 12 22.32 12 23 12 C23 12.66 23 13.32 23 14 C23.61875 14.2475 24.2375 14.495 24.875 14.75 C27.35068687 16.20628639 27.95125002 17.37812506 29 20 C29.66 20 30.32 20 31 20 C31 20.66 31 21.32 31 22 C31.66 22 32.32 22 33 22 C33.495 24.475 33.495 24.475 34 27 C34.66 27 35.32 27 36 27 C36 27.99 36 28.98 36 30 C36.66 30 37.32 30 38 30 C41.42857143 38.42857143 41.42857143 38.42857143 41 43 C41.66 43 42.32 43 43 43 C43.75406186 52.79120319 44.22598899 62.21094945 43 72 C42.34 72 41.68 72 41 72 C41 73.65 41 75.3 41 77 C40.34 77 39.68 77 39 77 C38.67 79.64 38.34 82.28 38 85 C37.34 85 36.68 85 36 85 C35.9175 85.53625 35.835 86.0725 35.75 86.625 C33.37314621 94.15170368 27.03394428 99.26955588 21 104 C20.34 104 19.68 104 19 104 C19 104.66 19 105.32 19 106 C17.35 106.33 15.7 106.66 14 107 C14 107.66 14 108.32 14 109 C10.96474514 111.02350324 9.80573798 111.32124018 6.3125 111.625 C5.10013672 111.73714844 5.10013672 111.73714844 3.86328125 111.8515625 C3.24839844 111.90054688 2.63351563 111.94953125 2 112 C2 112.66 2 113.32 2 114 C-0.64 114.33 -3.28 114.66 -6 115 C-6 115.33 -6 115.66 -6 116 C-11.28 116 -16.56 116 -22 116 C-22 115.34 -22 114.68 -22 114 C-23.134375 114.061875 -24.26875 114.12375 -25.4375 114.1875 C-30.33847991 114.21380222 -34.473967 112.76012394 -39 111 C-39 110.34 -39 109.68 -39 109 C-39.556875 108.87625 -40.11375 108.7525 -40.6875 108.625 C-43.22114364 107.94023145 -45.57921032 107.00866237 -48 106 C-48 105.34 -48 104.68 -48 104 C-48.556875 103.773125 -49.11375 103.54625 -49.6875 103.3125 C-52.65253447 101.6296426 -54.65353689 99.46378626 -57 97 C-57.763125 96.278125 -58.52625 95.55625 -59.3125 94.8125 C-61 93 -61 93 -61 91 C-61.66 91 -62.32 91 -63 91 C-64.32 88.36 -65.64 85.72 -67 83 C-67.33 83 -67.66 83 -68 83 C-68.13277344 82.36191406 -68.26554688 81.72382812 -68.40234375 81.06640625 C-68.57894531 80.24011719 -68.75554687 79.41382812 -68.9375 78.5625 C-69.11152344 77.73878906 -69.28554687 76.91507812 -69.46484375 76.06640625 C-69.80752994 74.02338796 -69.80752994 74.02338796 -71 73 C-71.04092937 70.66702567 -71.04241723 68.33294775 -71 66 C-71.66 66 -72.32 66 -73 66 C-73 60.39 -73 54.78 -73 49 C-72.67 49 -72.34 49 -72 49 C-71.67 46.36 -71.34 43.72 -71 41 C-70.34 41 -69.68 41 -69 41 C-68.95101562 40.38511719 -68.90203125 39.77023438 -68.8515625 39.13671875 C-68.77679688 38.32847656 -68.70203125 37.52023438 -68.625 36.6875 C-68.55539063 35.88699219 -68.48578125 35.08648437 -68.4140625 34.26171875 C-68 32 -68 32 -66 29 C-65.34 29 -64.68 29 -64 29 C-63.67 27.35 -63.34 25.7 -63 24 C-62.34 24 -61.68 24 -61 24 C-60.67 22.68 -60.34 21.36 -60 20 C-59.34 20 -58.68 20 -58 20 C-57.690625 19.1646875 -57.690625 19.1646875 -57.375 18.3125 C-54.0193737 12.66894667 -47.98945384 9.26627983 -42 7 C-42 6.34 -42 5.68 -42 5 C-33.57142857 1.57142857 -33.57142857 1.57142857 -29 2 C-29 1.34 -29 0.68 -29 0 C-19.21094945 -1.22598899 -9.79120319 -0.75406186 0 0 Z M-29 24 C-29 24.66 -29 25.32 -29 26 C-29.763125 26.12375 -30.52625 26.2475 -31.3125 26.375 C-34.20267136 26.88102792 -34.20267136 26.88102792 -37 29 C-37 29.66 -37 30.32 -37 31 C-38.32 31.33 -39.64 31.66 -41 32 C-41.33 33.32 -41.66 34.64 -42 36 C-42.66 36 -43.32 36 -44 36 C-44 36.99 -44 37.98 -44 39 C-44.66 39 -45.32 39 -46 39 C-46.33 41.31 -46.66 43.62 -47 46 C-47.66 46 -48.32 46 -49 46 C-50.74511597 51.23534791 -51.2857653 55.47520423 -51 61 C-50.67 61.33 -50.34 61.66 -50 62 C-49.87625 63.093125 -49.7525 64.18625 -49.625 65.3125 C-49.01508516 68.91099753 -48.41455588 70.37548273 -46 73 C-44.2925002 71.71937515 -42.62626404 70.38232443 -41 69 C-41 68.34 -41 67.68 -41 67 C-40.360625 66.731875 -39.72125 66.46375 -39.0625 66.1875 C-36.66868314 65.11332248 -36.66868314 65.11332248 -36 62 C-34.66666667 61.33333333 -33.33333333 60.66666667 -32 60 C-31.67 59.01 -31.34 58.02 -31 57 C-29.66666667 56.33333333 -28.33333333 55.66666667 -27 55 C-26.67 54.01 -26.34 53.02 -26 52 C-24.66666667 51.33333333 -23.33333333 50.66666667 -22 50 C-21.67 49.01 -21.34 48.02 -21 47 C-19.66666667 46.33333333 -18.33333333 45.66666667 -17 45 C-16.505 43.515 -16.505 43.515 -16 42 C-14.66666667 41.33333333 -13.33333333 40.66666667 -12 40 C-11.505 38.515 -11.505 38.515 -11 37 C-9.66666667 36.33333333 -8.33333333 35.66666667 -7 35 C-6.67 34.01 -6.34 33.02 -6 32 C-4.66666667 31.33333333 -3.33333333 30.66666667 -2 30 C-1.67 29.01 -1.34 28.02 -1 27 C-0.34 26.67 0.32 26.34 1 26 C0.15624386 23.84608333 0.15624386 23.84608333 -1.96875 22.890625 C-6.17862223 21.65370378 -10.13600143 21.709902 -14.5 21.75 C-15.34175781 21.74226563 -16.18351562 21.73453125 -17.05078125 21.7265625 C-21.47480077 21.74049642 -24.97938878 21.92378273 -29 24 Z M16 42 C16 42.66 16 43.32 16 44 C15.0409375 44.4021875 15.0409375 44.4021875 14.0625 44.8125 C11.66868314 45.88667752 11.66868314 45.88667752 11 49 C9.66666667 49.66666667 8.33333333 50.33333333 7 51 C6.67 51.99 6.34 52.98 6 54 C4.66666667 54.66666667 3.33333333 55.33333333 2 56 C1.67 56.99 1.34 57.98 1 59 C-0.33333333 59.66666667 -1.66666667 60.33333333 -3 61 C-3.33 61.99 -3.66 62.98 -4 64 C-5.33333333 64.66666667 -6.66666667 65.33333333 -8 66 C-8.33 66.99 -8.66 67.98 -9 69 C-10.33333333 69.66666667 -11.66666667 70.33333333 -13 71 C-13.33 71.99 -13.66 72.98 -14 74 C-15.33333333 74.66666667 -16.66666667 75.33333333 -18 76 C-18.33 76.99 -18.66 77.98 -19 79 C-20.33333333 79.66666667 -21.66666667 80.33333333 -23 81 C-23.33 81.99 -23.66 82.98 -24 84 C-24.639375 84.309375 -25.27875 84.61875 -25.9375 84.9375 C-28.45468915 86.2342338 -28.96886948 87.4221737 -30 90 C-26.45917084 92.1244975 -23.05008109 92.46508363 -19 93 C-18.67 93.33 -18.34 93.66 -18 94 C-14.5 94.16666667 -14.5 94.16666667 -11 94 C-10.67 93.67 -10.34 93.34 -10 93 C-7.67182036 92.63239269 -5.3381615 92.29758419 -3 92 C-3 91.34 -3 90.68 -3 90 C0.465 89.505 0.465 89.505 4 89 C4 88.34 4 87.68 4 87 C4.99 87 5.98 87 7 87 C7 86.34 7 85.68 7 85 C8.98 84.505 8.98 84.505 11 84 C11.33 82.68 11.66 81.36 12 80 C12.66 80 13.32 80 14 80 C16.74375671 77.04518508 17 76.22528092 17 72 C17.66 72 18.32 72 19 72 C21.4638083 67.22881567 21.29809439 62.73427243 21.25 57.5 C21.25773437 56.65824219 21.26546875 55.81648438 21.2734375 54.94921875 C21.26879606 48.723176 21.26879606 48.723176 19 43 C18.01 42.67 17.02 42.34 16 42 Z " fill="#4B4B4B" transform="translate(230,27)"/>
</svg>
