<?xml version="1.0" encoding="UTF-8"?>
<svg version="1.1" xmlns="http://www.w3.org/2000/svg" width="300" height="300">
<path d="M0 0 C28.65483824 -0.11411151 57.30964964 -0.20257334 85.96467045 -0.25532665 C89.34916869 -0.26158003 92.73366649 -0.26805166 96.11816406 -0.2746582 C97.12883474 -0.27662553 97.12883474 -0.27662553 98.15992302 -0.2786326 C109.06361875 -0.30037748 119.96718241 -0.33979386 130.87079984 -0.38576398 C142.06246336 -0.43255429 153.25408174 -0.45992667 164.44584417 -0.47044247 C170.73065487 -0.47696158 177.01516621 -0.49228624 183.29988098 -0.52865028 C189.21616953 -0.56260501 195.13203559 -0.57305376 201.04841232 -0.56553841 C203.21880261 -0.56691316 205.38920712 -0.57684839 207.55951309 -0.59602737 C210.52623566 -0.62095677 213.49136947 -0.61490507 216.45812988 -0.60127258 C217.31418147 -0.61583679 218.17023305 -0.630401 219.05222559 -0.64540654 C225.08556694 -0.57062419 229.39112494 1.02223806 234 5 C235.5 7.8125 235.5 7.8125 236 10 C237.32 10 238.64 10 240 10 C240 10.66 240 11.32 240 12 C242.97 12.33 245.94 12.66 249 13 C249 13.66 249 14.32 249 15 C249.99 15 250.98 15 252 15 C252 15.66 252 16.32 252 17 C253.65 17.33 255.3 17.66 257 18 C257 18.66 257 19.32 257 20 C257.57234375 20.08507812 258.1446875 20.17015625 258.734375 20.2578125 C261.65560717 21.21476786 263.09680721 22.69788284 265.25 24.875 C266.30960937 25.92300781 266.30960937 25.92300781 267.390625 26.9921875 C269 29 269 29 269 32 C269.66 32 270.32 32 271 32 C271.33 33.65 271.66 35.3 272 37 C272.66 37 273.32 37 274 37 C274 37.99 274 38.98 274 40 C274.66 40 275.32 40 276 40 C276.33 42.97 276.66 45.94 277 49 C277.66 49 278.32 49 279 49 C279.33 51.31 279.66 53.62 280 56 C280.33 56 280.66 56 281 56 C281 61.28 281 66.56 281 72 C280.67 72 280.34 72 280 72 C279.67 74.64 279.34 77.28 279 80 C278.34 80 277.68 80 277 80 C276.67 82.64 276.34 85.28 276 88 C275.34 88 274.68 88 274 88 C274 89.32 274 90.64 274 92 C273.34 92 272.68 92 272 92 C271.67 93.65 271.34 95.3 271 97 C270.34 97 269.68 97 269 97 C268.6596875 98.0828125 268.6596875 98.0828125 268.3125 99.1875 C266.73664872 102.56432417 264.79123384 104.55767039 262 107 C261.34 107 260.68 107 260 107 C260 107.66 260 108.32 260 109 C257.09451118 111.04169485 255.59857954 112 252 112 C252 112.66 252 113.32 252 114 C248.535 114.495 248.535 114.495 245 115 C245 115.66 245 116.32 245 117 C243.35 117.33 241.7 117.66 240 118 C239.67 159.91 239.34 201.82 239 245 C252.2 245 265.4 245 279 245 C279.0928125 253.229375 279.0928125 253.229375 279.1875 261.625 C279.21481201 263.34541504 279.24212402 265.06583008 279.27026367 266.83837891 C279.27903398 268.21776632 279.28667663 269.59716156 279.29296875 270.9765625 C279.3159906 272.03170044 279.3159906 272.03170044 279.33947754 273.1081543 C279.34195472 277.81975055 278.39700992 280.95798327 276 285 C275.34 285 274.68 285 274 285 C274 285.66 274 286.32 274 287 C273.34 287 272.68 287 272 287 C272 287.66 272 288.32 272 289 C270.02 289.33 268.04 289.66 266 290 C266 290.66 266 291.32 266 292 C237.34516176 292.11411151 208.69035036 292.20257334 180.03532955 292.25532665 C176.65083131 292.26158003 173.26633351 292.26805166 169.88183594 292.2746582 C168.87116526 292.27662553 168.87116526 292.27662553 167.84007698 292.2786326 C156.93638125 292.30037748 146.03281759 292.33979386 135.12920016 292.38576398 C123.93753664 292.43255429 112.74591826 292.45992667 101.55415583 292.47044247 C95.26934513 292.47696158 88.98483379 292.49228624 82.70011902 292.52865028 C76.78383047 292.56260501 70.86796441 292.57305376 64.95158768 292.56553841 C62.78119739 292.56691316 60.61079288 292.57684839 58.44048691 292.59602737 C55.47376434 292.62095677 52.50863053 292.61490507 49.54187012 292.60127258 C48.68581853 292.61583679 47.82976695 292.630401 46.94777441 292.64540654 C40.85019068 292.56982792 36.71800426 290.89477972 32 287 C29.69972066 283.98088336 29 282.79198146 29 279 C28.34 279 27.68 279 27 279 C27 202.44 27 125.88 27 47 C14.46 47 1.92 47 -11 47 C-11 46.34 -11 45.68 -11 45 C-11.66 45 -12.32 45 -13 45 C-13.12452065 40.58928701 -13.21476527 36.17953143 -13.2746582 31.76757812 C-13.29965007 30.27000077 -13.33365627 28.77254349 -13.37719727 27.27539062 C-13.82042748 11.63197134 -13.82042748 11.63197134 -8 5 C-7.34 5 -6.68 5 -6 5 C-6 4.34 -6 3.68 -6 3 C-4.02 2.67 -2.04 2.34 0 2 C0 1.34 0 0.68 0 0 Z " fill="#B5B5B5" transform="translate(17,4)"/>
<path d="M0 0 C0 0.66 0 1.32 0 2 C2.97 2.33 5.94 2.66 9 3 C9 3.66 9 4.32 9 5 C9.99 5 10.98 5 12 5 C12 5.66 12 6.32 12 7 C13.65 7.33 15.3 7.66 17 8 C17 8.66 17 9.32 17 10 C17.57234375 10.08507813 18.1446875 10.17015625 18.734375 10.2578125 C21.65560717 11.21476786 23.09680721 12.69788284 25.25 14.875 C25.95640625 15.57367188 26.6628125 16.27234375 27.390625 16.9921875 C29 19 29 19 29 22 C29.66 22 30.32 22 31 22 C31.495 24.475 31.495 24.475 32 27 C32.66 27 33.32 27 34 27 C34 27.99 34 28.98 34 30 C34.66 30 35.32 30 36 30 C36.495 34.455 36.495 34.455 37 39 C37.66 39 38.32 39 39 39 C39.495 42.465 39.495 42.465 40 46 C40.33 46 40.66 46 41 46 C41 51.28 41 56.56 41 62 C40.67 62 40.34 62 40 62 C39.67 64.64 39.34 67.28 39 70 C38.34 70 37.68 70 37 70 C36.67 72.64 36.34 75.28 36 78 C35.34 78 34.68 78 34 78 C34 79.32 34 80.64 34 82 C33.34 82 32.68 82 32 82 C31.67 83.65 31.34 85.3 31 87 C30.34 87 29.68 87 29 87 C28.773125 87.721875 28.54625 88.44375 28.3125 89.1875 C26.73664872 92.56432417 24.79123384 94.55767039 22 97 C21.34 97 20.68 97 20 97 C20 97.66 20 98.32 20 99 C17.09451118 101.04169485 15.59857954 102 12 102 C12 102.66 12 103.32 12 104 C8.535 104.495 8.535 104.495 5 105 C5 105.66 5 106.32 5 107 C-0.8628077 108.36794257 -6.70605006 108.25994862 -12.70019531 108.29516602 C-14.05967639 108.30666234 -15.41911316 108.32707745 -16.77832031 108.35668945 C-25.10324531 108.53762214 -31.73696434 108.29050652 -39 104 C-39.66 103.67 -40.32 103.34 -41 103 C-41 102.34 -41 101.68 -41 101 C-42.11375 100.9071875 -42.11375 100.9071875 -43.25 100.8125 C-46.84163143 99.75133617 -47.77833085 97.93833662 -50 95 C-51.32467746 94.3162955 -52.65863633 93.65035814 -54 93 C-60.2893989 87.51693429 -63.96376092 81.09707224 -66.32421875 73.17578125 C-66.971142 70.94605007 -66.971142 70.94605007 -68.01904297 68.6940918 C-71.99804273 57.76620171 -70.16221102 41.9267857 -65.484375 31.48828125 C-63.86697282 28.77700444 -61.9895023 26.44832163 -60 24 C-59.27876953 22.76830078 -59.27876953 22.76830078 -58.54296875 21.51171875 C-55.31324966 16.25422667 -50.41796293 10.42368043 -44.63671875 8.015625 C-42.76909043 7.61956488 -40.88497353 7.30294217 -39 7 C-38.34 6.01 -37.68 5.02 -37 4 C-32.76483193 2.62979857 -28.40355236 2.92536352 -24 3 C-24 2.34 -24 1.68 -24 1 C-20.93758173 0.83170223 -17.87508013 0.66530338 -14.8125 0.5 C-13.94818359 0.45230469 -13.08386719 0.40460937 -12.19335938 0.35546875 C-8.12442913 0.13721196 -4.07665227 -0.06752219 0 0 Z " fill="#8D8E8E" transform="translate(257,14)"/>
<path d="M0 0 C2.5226593 -0.38095093 2.5226593 -0.38095093 5.74731445 -0.38818359 C7.55477898 -0.40236832 7.55477898 -0.40236832 9.39875793 -0.4168396 C11.36119698 -0.40773056 11.36119698 -0.40773056 13.36328125 -0.3984375 C14.71608131 -0.40045829 16.06888031 -0.40336977 17.42167664 -0.40713501 C20.26063379 -0.41156272 23.09930811 -0.40511639 25.93823242 -0.39111328 C29.56996247 -0.37406957 33.20102506 -0.38382834 36.83273029 -0.40183067 C39.62866697 -0.4126986 42.42444688 -0.40920765 45.22038841 -0.4014473 C47.20839751 -0.39848207 49.19641278 -0.40756893 51.18440247 -0.4168396 C52.3988353 -0.40738312 53.61326813 -0.39792664 54.86450195 -0.38818359 C55.93102493 -0.38579681 56.99754791 -0.38341003 58.09638977 -0.38095093 C61.42936724 0.05633258 63.30943621 1.01396126 66 3 C67.93065026 6.51886102 68.31039366 9.78066613 68.5625 13.75 C68.51235954 17.18688444 68.51235954 17.18688444 70 20 C70.28682063 21.62256381 70.51543591 23.25549725 70.71875 24.890625 C70.90945068 26.41212158 70.90945068 26.41212158 71.10400391 27.96435547 C71.23468262 29.04861816 71.36536133 30.13288086 71.5 31.25 C71.6345459 32.34070801 71.7690918 33.43141602 71.90771484 34.55517578 C72.72388264 41.30035586 73.40911621 48.01993238 73.7890625 54.8046875 C73.87126221 57.04220438 73.87126221 57.04220438 75 59 C75.39063046 62.44607673 75.51434864 65.9119728 75.6875 69.375 C75.74744141 70.3340625 75.80738281 71.293125 75.86914062 72.28125 C75.91619141 73.20679688 75.96324219 74.13234375 76.01171875 75.0859375 C76.08072388 76.3551001 76.08072388 76.3551001 76.15112305 77.64990234 C75.98236891 80.27417908 75.4291272 81.80376096 74 84 C71.875 84.75 71.875 84.75 70 85 C70 85.66 70 86.32 70 87 C59.50807048 87.09264814 49.01623815 87.16373867 38.523983 87.20724869 C33.65207224 87.22813056 28.78044118 87.25645914 23.90869141 87.30175781 C19.20785012 87.34519419 14.50727799 87.36913259 9.80625153 87.37950897 C8.01205456 87.38690432 6.21787246 87.40134567 4.42378998 87.42292023 C1.91208472 87.45192537 -0.59850599 87.45595729 -3.11035156 87.45410156 C-3.85338028 87.46848267 -4.596409 87.48286377 -5.36195374 87.49768066 C-8.79387695 87.47021381 -10.65899467 87.25826939 -13.43060303 85.15911865 C-16.32122354 81.18230924 -16.15614821 77.39977846 -16.125 72.6875 C-16.12306641 71.98560547 -16.12113281 71.28371094 -16.11914062 70.56054688 C-16.06350723 63.68055032 -15.59973388 56.85410151 -15 50 C-14.34 50 -13.68 50 -13 50 C-13.01160156 49.22914063 -13.02320312 48.45828125 -13.03515625 47.6640625 C-13.04869141 46.15972656 -13.04869141 46.15972656 -13.0625 44.625 C-13.07410156 43.62726563 -13.08570312 42.62953125 -13.09765625 41.6015625 C-13 39 -13 39 -12 37 C-11.77141886 34.9625237 -11.58975722 32.91959697 -11.4375 30.875 C-11.35371094 29.77929688 -11.26992187 28.68359375 -11.18359375 27.5546875 C-11.12300781 26.71164063 -11.06242187 25.86859375 -11 25 C-10.34 25 -9.68 25 -9 25 C-9.02320312 24.28714844 -9.04640625 23.57429688 -9.0703125 22.83984375 C-9.17815674 17.11639606 -8.92057311 12.40161186 -7 7 C-6.34 7 -5.68 7 -5 7 C-5 6.01 -5 5.02 -5 4 C-4.01 3.67 -3.02 3.34 -2 3 C-1.34 2.01 -0.68 1.02 0 0 Z " fill="#4D4D4D" transform="translate(124,110)"/>
<path d="M0 0 C4.29 0 8.58 0 13 0 C13.33 0.66 13.66 1.32 14 2 C14.928125 2.268125 15.85625 2.53625 16.8125 2.8125 C20.57247124 4.2132736 21.87313622 5.64609943 24 9 C24 9.99 24 10.98 24 12 C24.66 12 25.32 12 26 12 C27.98759945 16.14369781 28.23422068 19.47907025 28.1953125 24.05078125 C28.19031738 25.25645752 28.18532227 26.46213379 28.18017578 27.7043457 C28.16196777 29.22503662 28.14375977 30.74572754 28.125 32.3125 C28.08375 37.159375 28.0425 42.00625 28 47 C15.13 47 2.26 47 -11 47 C-11 46.34 -11 45.68 -11 45 C-11.66 45 -12.32 45 -13 45 C-13.12452065 40.58928701 -13.21476527 36.17953143 -13.2746582 31.76757812 C-13.29965007 30.27000077 -13.33365627 28.77254349 -13.37719727 27.27539062 C-13.82042748 11.63197134 -13.82042748 11.63197134 -8 5 C-7.34 5 -6.68 5 -6 5 C-6 4.34 -6 3.68 -6 3 C-4.02 2.67 -2.04 2.34 0 2 C0 1.34 0 0.68 0 0 Z " fill="#686867" transform="translate(17,4)"/>
<path d="M0 0 C1.96734466 2.43576005 2.04645015 4.37160118 2.4375 7.5 C2 11 2 11 -0.1875 13.125 C-1.5796875 14.053125 -1.5796875 14.053125 -3 15 C-4.68711423 16.6459651 -6.3545622 18.31237149 -8 20 C-9.11375 21.0209375 -9.11375 21.0209375 -10.25 22.0625 C-12.0851527 24.0942762 -12.61776714 25.32437 -13 28 C-12.360625 28.103125 -11.72125 28.20625 -11.0625 28.3125 C-10.381875 28.539375 -9.70125 28.76625 -9 29 C-8.505 30.485 -8.505 30.485 -8 32 C-7.34 32 -6.68 32 -6 32 C-6 32.66 -6 33.32 -6 34 C-5.4225 34.226875 -4.845 34.45375 -4.25 34.6875 C-1.27953134 36.42027339 0.18020872 38.07533544 2 41 C2.50724638 46.98550725 2.50724638 46.98550725 1 50 C-2.23723022 50.58858731 -3.88868666 50.86254231 -7 50 C-9.64829831 47.64974169 -11.80099307 45.13929711 -14.01953125 42.3828125 C-15.95443639 39.82430678 -15.95443639 39.82430678 -19 38 C-19 37.34 -19 36.68 -19 36 C-20.65 35.67 -22.3 35.34 -24 35 C-24.0825 35.7425 -24.165 36.485 -24.25 37.25 C-25.17446956 40.63972173 -26.42343035 41.6323414 -29 44 C-29.39960938 44.59554687 -29.79921875 45.19109375 -30.2109375 45.8046875 C-32.42069817 48.98521008 -33.85779216 50.73817585 -37.7265625 51.625 C-40.65351342 51.74856521 -43.14373399 51.64894364 -46 51 C-48.25 48.875 -48.25 48.875 -49 46 C-48.67108936 40.8913879 -47.1549615 38.45013895 -43.6875 34.75 C-42.90761719 33.89921875 -42.12773437 33.0484375 -41.32421875 32.171875 C-39.24570548 30.22960041 -37.60570562 29.07328835 -35 28 C-36.85843094 20.83176636 -40.34113164 17.3848067 -45.91796875 12.58984375 C-48 10 -48 10 -48.3984375 6.3125 C-48 3 -48 3 -46.4375 1.0625 C-42.87189581 -0.49173772 -40.87406187 -0.64567698 -37 0 C-34.01400101 2.02661909 -31.53801738 4.44605364 -29 7 C-28.46632812 7.48597656 -27.93265625 7.97195312 -27.3828125 8.47265625 C-26 9.75 -26 9.75 -24 12 C-24 12.99 -24 13.98 -24 15 C-20.88667752 14.33131686 -20.88667752 14.33131686 -19.8125 11.9375 C-19.544375 11.298125 -19.27625 10.65875 -19 10 C-18.34 10 -17.68 10 -17 10 C-16.74089844 9.40574219 -16.48179687 8.81148437 -16.21484375 8.19921875 C-14.91195824 5.84061893 -13.61934696 4.53317412 -11.5625 2.8125 C-10.96566406 2.30332031 -10.36882812 1.79414062 -9.75390625 1.26953125 C-6.36061658 -1.18663611 -3.87343102 -1.29114367 0 0 Z " fill="#ECF2F0" transform="translate(264,43)"/>
<path d="M0 0 C1.32 0 2.64 0 4 0 C4.14695313 0.59167969 4.29390625 1.18335937 4.4453125 1.79296875 C6.15223408 7.80643386 7.99175187 10.32728471 13 14 C13 14.66 13 15.32 13 16 C16.63 16 20.26 16 24 16 C24 15.34 24 14.68 24 14 C24.928125 13.319375 25.85625 12.63875 26.8125 11.9375 C30.83151828 8.78309322 31.80438718 4.81391477 33 0 C34.32 0.33 35.64 0.66 37 1 C37 3.64 37 6.28 37 9 C36.34 9 35.68 9 35 9 C34.9071875 9.8353125 34.9071875 9.8353125 34.8125 10.6875 C33.21054468 15.2469113 28.93779813 18.37480125 25 21 C19.66555683 22.77814772 14.70589777 22.46261635 9.3125 21 C4.95797157 18.37085076 2.26830988 15.56716939 0 11 C-0.77622513 7.65403576 -1.154013 4.4351596 -1 1 C-0.67 0.67 -0.34 0.34 0 0 Z " fill="#BEBEBE" transform="translate(136,124)"/>
<path d="M0 0 C1.32 0 2.64 0 4 0 C4.14695313 0.59167969 4.29390625 1.18335937 4.4453125 1.79296875 C6.15223408 7.80643386 7.99175187 10.32728471 13 14 C13 14.66 13 15.32 13 16 C16.3 16 19.6 16 23 16 C23 16.33 23 16.66 23 17 C22.14535156 17.04898438 21.29070312 17.09796875 20.41015625 17.1484375 C19.30542969 17.22320312 18.20070312 17.29796875 17.0625 17.375 C15.96035156 17.44460937 14.85820312 17.51421875 13.72265625 17.5859375 C12.82417969 17.72257812 11.92570313 17.85921875 11 18 C10.67 18.66 10.34 19.32 10 20 C10.99 20.33 11.98 20.66 13 21 C7.31456802 20.51267726 4.96891864 17.26665756 1.3984375 13.15625 C-0.25844516 10.60150355 -0.51817554 8.83067621 -0.75 5.8125 C-0.82734375 4.93207031 -0.9046875 4.05164063 -0.984375 3.14453125 C-0.98953125 2.43683594 -0.9946875 1.72914062 -1 1 C-0.67 0.67 -0.34 0.34 0 0 Z " fill="#BABABA" transform="translate(136,124)"/>
<path d="M0 0 C0.99 0.66 1.98 1.32 3 2 C3.1875 4.625 3.1875 4.625 3 7 C2.01 7 1.02 7 0 7 C0 7.66 0 8.32 0 9 C-0.928125 9.5775 -1.85625 10.155 -2.8125 10.75 C-7.97682477 14.74227943 -8.06649777 21.94861272 -9 28 C-6.36 28 -3.72 28 -1 28 C-0.773125 27.4225 -0.54625 26.845 -0.3125 26.25 C1.34761639 23.40408619 3.39187957 22.00158079 6 20 C7.68528688 18.35216394 9.35697047 16.68997323 11 15 C11 18 11 18 9.375 19.75 C8.59125 20.4925 7.8075 21.235 7 22 C6.39865234 22.8971875 6.39865234 22.8971875 5.78515625 23.8125 C3.57571373 26.98897389 2.1387292 28.73897325 -1.7265625 29.625 C-4.65351342 29.74856521 -7.14373399 29.64894364 -10 29 C-12.25 26.875 -12.25 26.875 -13 24 C-12.67108936 18.8913879 -11.1549615 16.45013895 -7.6875 12.75 C-6.90761719 11.89921875 -6.12773437 11.0484375 -5.32421875 10.171875 C-3.24570548 8.22960041 -1.60570562 7.07328835 1 6 C0.67 4.02 0.34 2.04 0 0 Z " fill="#C8CCCB" transform="translate(228,65)"/>
<path d="M0 0 C5.67123103 1.37484389 8.47742062 5.69146877 12 10 C12.33 10.33 12.66 10.66 13 11 C13.09854655 12.64340867 13.12972411 14.2911461 13.125 15.9375 C13.12886719 17.28134766 13.12886719 17.28134766 13.1328125 18.65234375 C13 21 13 21 12 23 C7.61647997 23.96586035 5.08262814 24.36087605 0.8125 22.9375 C-2.59067189 20.5930927 -4.57909307 18.34654781 -7 15 C-7 14.34 -7 13.68 -7 13 C-8.32 12.67 -9.64 12.34 -11 12 C-11 11.01 -11 10.02 -11 9 C-11.99 9 -12.98 9 -14 9 C-14 8.34 -14 7.68 -14 7 C-11.525 7.495 -11.525 7.495 -9 8 C-9 8.66 -9 9.32 -9 10 C-8.4225 10.2475 -7.845 10.495 -7.25 10.75 C-4.67060021 12.18299988 -2.93878408 13.78424676 -1 16 C-1 16.66 -1 17.32 -1 18 C-0.01 18.33 0.98 18.66 2 19 C2.33 19.66 2.66 20.32 3 21 C4.89533342 21.46523063 4.89533342 21.46523063 7.0625 21.625 C8.361875 21.74875 9.66125 21.8725 11 22 C11.61576963 16.36818327 11.61576963 16.36818327 9.95703125 11.1015625 C8.17646218 8.96070232 6.50485776 7.25242888 4 6 C4 5.34 4 4.68 4 4 C3.34 4 2.68 4 2 4 C1.34 2.68 0.68 1.36 0 0 Z " fill="#BABBBB" transform="translate(254,71)"/>
<path d="M0 0 C0 0.33 0 0.66 0 1 C-0.969375 0.95875 -1.93875 0.9175 -2.9375 0.875 C-9.01751415 1.6782539 -12.33801958 7.59343946 -16 12 C-19.61275089 15.9338843 -19.61275089 15.9338843 -22.5625 16.4375 C-25.49466099 15.91121469 -26.21671965 15.35068773 -28 13 C-28.433125 12.2575 -28.86625 11.515 -29.3125 10.75 C-31.51267094 7.16453625 -34.20851529 4.13477409 -37 1 C-33.39438086 2.5299072 -31.0140801 4.68696932 -28.25 7.4375 C-27.45078125 8.21996094 -26.6515625 9.00242187 -25.828125 9.80859375 C-24 12 -24 12 -24 15 C-20.88667752 14.33131686 -20.88667752 14.33131686 -19.8125 11.9375 C-19.544375 11.298125 -19.27625 10.65875 -19 10 C-18.34 10 -17.68 10 -17 10 C-16.74089844 9.40574219 -16.48179687 8.81148437 -16.21484375 8.19921875 C-14.91195824 5.84061893 -13.61934696 4.53317412 -11.5625 2.8125 C-10.96566406 2.30332031 -10.36882812 1.79414062 -9.75390625 1.26953125 C-6.27621884 -1.24772578 -3.98293715 -0.96882255 0 0 Z " fill="#C3C9C7" transform="translate(264,43)"/>
<path d="M0 0 C1.80152779 0.00022659 1.80152779 0.00022659 3.63945007 0.00045776 C4.93639297 0.01078033 6.23333588 0.02110291 7.56958008 0.03173828 C8.91050506 0.03546923 10.25143277 0.03831582 11.59236145 0.04031372 C15.11875965 0.04794379 18.64499267 0.06758675 22.17132568 0.08972168 C25.77085129 0.11019368 29.37040364 0.11931833 32.9699707 0.12939453 C40.03058509 0.15083333 47.09108741 0.18496165 54.15161133 0.22705078 C54.15161133 0.55705078 54.15161133 0.88705078 54.15161133 1.22705078 C53.04953842 1.23585014 53.04953842 1.23585014 51.92520142 1.24482727 C45.00903431 1.30267532 38.09314556 1.37470617 31.17730141 1.46276569 C27.62156047 1.50753805 24.06593592 1.5467784 20.51000977 1.57348633 C16.42409983 1.60441517 12.33881586 1.65920582 8.25317383 1.71533203 C6.97294342 1.72172195 5.69271301 1.72811188 4.37368774 1.73469543 C3.19261444 1.75448959 2.01154114 1.77428375 0.79467773 1.79467773 C-0.77085342 1.81133232 -0.77085342 1.81133232 -2.36801147 1.82832336 C-3.18653595 1.95990341 -4.00506042 2.09148346 -4.84838867 2.22705078 C-5.83838867 3.71205078 -5.83838867 3.71205078 -6.84838867 5.22705078 C-7.83838867 5.22705078 -8.82838867 5.22705078 -9.84838867 5.22705078 C-9.84838867 6.21705078 -9.84838867 7.20705078 -9.84838867 8.22705078 C-10.50838867 8.22705078 -11.16838867 8.22705078 -11.84838867 8.22705078 C-11.84838867 10.20705078 -11.84838867 12.18705078 -11.84838867 14.22705078 C-12.17838867 14.22705078 -12.50838867 14.22705078 -12.84838867 14.22705078 C-12.84838867 11.58705078 -12.84838867 8.94705078 -12.84838867 6.22705078 C-12.18838867 6.22705078 -11.52838867 6.22705078 -10.84838867 6.22705078 C-10.84838867 5.56705078 -10.84838867 4.90705078 -10.84838867 4.22705078 C-10.18838867 4.22705078 -9.52838867 4.22705078 -8.84838867 4.22705078 C-8.84838867 3.56705078 -8.84838867 2.90705078 -8.84838867 2.22705078 C-5.38161623 -0.08413085 -4.08506986 -0.01712818 0 0 Z " fill="#8D8D8D" transform="translate(128.848388671875,108.77294921875)"/>
<path d="M0 0 C1.32 0.33 2.64 0.66 4 1 C4 3.64 4 6.28 4 9 C3.34 9 2.68 9 2 9 C1.67 9.99 1.34 10.98 1 12 C0.34 11.67 -0.32 11.34 -1 11 C-1 11.66 -1 12.32 -1 13 C-3.35438733 14.42944945 -4.48032433 15.08661261 -7.25 14.625 C-7.8275 14.41875 -8.405 14.2125 -9 14 C-7.6078125 13.0409375 -7.6078125 13.0409375 -6.1875 12.0625 C-2.22388903 8.82039741 -1.20061724 4.83406415 0 0 Z " fill="#AAAAAA" transform="translate(169,124)"/>
<path d="M0 0 C1.65 0 3.3 0 5 0 C5 0.66 5 1.32 5 2 C22.16 2 39.32 2 57 2 C57 2.33 57 2.66 57 3 C37.86 3 18.72 3 -1 3 C-0.67 2.01 -0.34 1.02 0 0 Z " fill="#D4D4D4" transform="translate(125,106)"/>
<path d="M0 0 C0.66 0 1.32 0 2 0 C2.14695313 0.59167969 2.29390625 1.18335937 2.4453125 1.79296875 C4.15223408 7.80643386 5.99175187 10.32728471 11 14 C11 14.66 11 15.32 11 16 C14.3 16 17.6 16 21 16 C21 16.33 21 16.66 21 17 C20.14535156 17.04898438 19.29070312 17.09796875 18.41015625 17.1484375 C17.30542969 17.22320312 16.20070312 17.29796875 15.0625 17.375 C13.40927734 17.47941406 13.40927734 17.47941406 11.72265625 17.5859375 C10.82417969 17.72257812 9.92570313 17.85921875 9 18 C8.67 18.66 8.34 19.32 8 20 C8.99 20.33 9.98 20.66 11 21 C6.25 20.25 6.25 20.25 4 18 C4.66 17.67 5.32 17.34 6 17 C5.62652204 13.73206785 5.15167322 12.18011195 3 9.625 C0.5518109 6.4117518 0.31162074 3.97316437 0 0 Z " fill="#A0A0A0" transform="translate(138,124)"/>
<path d="M0 0 C0 3 0 3 -1.625 4.75 C-2.40875 5.4925 -3.1925 6.235 -4 7 C-4.60134766 7.8971875 -4.60134766 7.8971875 -5.21484375 8.8125 C-6.69103151 10.93478733 -7.91100669 12.46185685 -10 14 C-13.73910395 14.59309925 -17.24810052 14.4205866 -21 14 C-21 13.67 -21 13.34 -21 13 C-18.03 13 -15.06 13 -12 13 C-11.34 11.68 -10.68 10.36 -10 9 C-8.36395804 7.62926214 -6.69321939 6.29944744 -5 5 C-3.31471312 3.35216394 -1.64302953 1.68997323 0 0 Z " fill="#B8BBBA" transform="translate(239,80)"/>
<path d="M0 0 C0.99 0.33 1.98 0.66 3 1 C2.01 1.66 1.02 2.32 0 3 C-0.71001388 6.33220765 -0.71001388 6.33220765 0 10 C1.80719635 12.3206044 3.34484934 14.02328141 5.5 15.9375 C6.02464844 16.43056641 6.54929688 16.92363281 7.08984375 17.43164062 C8.37787365 18.63770499 9.68694263 19.82123259 11 21 C10.01 21.33 9.02 21.66 8 22 C-1.45873321 12.96353167 -1.45873321 12.96353167 -2.734375 8.3359375 C-2.74927821 6.0482955 -2.6725942 4.18593113 -2 2 C-1.34 1.34 -0.68 0.68 0 0 Z " fill="#A5A7A7" transform="translate(217,43)"/>
<path d="M0 0 C0.66 0 1.32 0 2 0 C1.88481642 2.66740923 1.75810454 5.33347241 1.625 8 C1.5940625 8.74378906 1.563125 9.48757812 1.53125 10.25390625 C1.26246207 15.40567483 0.38936116 20.02992756 -1 25 C-1.33 25 -1.66 25 -2 25 C-2.02696365 23.20841511 -2.04637917 21.41671527 -2.0625 19.625 C-2.07410156 18.62726563 -2.08570312 17.62953125 -2.09765625 16.6015625 C-2 14 -2 14 -1 12 C-0.77141886 9.9625237 -0.58975722 7.91959697 -0.4375 5.875 C-0.35371094 4.77929688 -0.26992187 3.68359375 -0.18359375 2.5546875 C-0.12300781 1.71164063 -0.06242187 0.86859375 0 0 Z " fill="#6E6E6E" transform="translate(113,135)"/>
<path d="M0 0 C0.99 0.33 1.98 0.66 3 1 C3.33 4.3 3.66 7.6 4 11 C3.01 11.495 3.01 11.495 2 12 C2 11.34 2 10.68 2 10 C1.34 10 0.68 10 0 10 C-0.19412181 8.52168779 -0.38012131 7.04230684 -0.5625 5.5625 C-0.66691406 4.73878906 -0.77132812 3.91507812 -0.87890625 3.06640625 C-0.91886719 2.38449219 -0.95882812 1.70257813 -1 1 C-0.67 0.67 -0.34 0.34 0 0 Z " fill="#C1C1C1" transform="translate(136,124)"/>
<path d="M0 0 C0.33 0 0.66 0 1 0 C1.07406517 4.5206339 1.12856045 9.040916 1.16479492 13.56201172 C1.17989711 15.10048574 1.20038046 16.63891661 1.22631836 18.17724609 C1.26264074 20.38650141 1.27971119 22.59518848 1.29296875 24.8046875 C1.30845261 25.49432587 1.32393646 26.18396423 1.33988953 26.89450073 C1.34057617 28.83544922 1.34057617 28.83544922 1 32 C0.01 32.66 -0.98 33.32 -2 34 C-1.84152588 33.4834082 -1.68305176 32.96681641 -1.51977539 32.43457031 C-0.84791934 29.28767106 -0.77900563 26.26361848 -0.68359375 23.046875 C-0.66281265 22.38665344 -0.64203156 21.72643188 -0.62062073 21.04620361 C-0.55549853 18.94756985 -0.49641498 16.84881628 -0.4375 14.75 C-0.39427921 13.32290453 -0.3506638 11.89582095 -0.30664062 10.46875 C-0.19985589 6.97929278 -0.09848434 3.48970247 0 0 Z " fill="#E3E4E2" transform="translate(46,20)"/>
<path d="M0 0 C3 1 3 1 4 3 C4.770366 8.22136954 4.770366 8.22136954 4 11 C1.58881332 13.21069413 -1.04425278 14.62768879 -4 16 C-2.48052501 12.63251488 -1.47899158 11.39159663 2 10 C1.54177532 6.53058454 1.10868317 3.32604951 0 0 Z " fill="#B4BCB9" transform="translate(264,44)"/>
<path d="M0 0 C0.66 0 1.32 0 2 0 C1.44225728 3.23490776 0.62788492 4.97855006 -2 7 C-2.99 7 -3.98 7 -5 7 C-4.67 8.32 -4.34 9.64 -4 11 C-4.99 11 -5.98 11 -7 11 C-6.67 9.35 -6.34 7.7 -6 6 C-5.34 6 -4.68 6 -4 6 C-3.71125 5.38125 -3.4225 4.7625 -3.125 4.125 C-2 2 -2 2 0 0 Z " fill="#B9BEBD" transform="translate(258,60)"/>
<path d="M0 0 C2.475 0.495 2.475 0.495 5 1 C5 1.66 5 2.32 5 3 C5.86625 3.37125 5.86625 3.37125 6.75 3.75 C9.3002997 5.16683317 11.01785701 6.87627537 13 9 C12.67 9.66 12.34 10.32 12 11 C11.443125 10.38125 10.88625 9.7625 10.3125 9.125 C7.93354822 6.93893621 6.03642904 6.01214301 3 5 C3 4.01 3 3.02 3 2 C2.01 2 1.02 2 0 2 C0 1.34 0 0.68 0 0 Z " fill="#C1C6C4" transform="translate(240,78)"/>
<path d="M0 0 C0.66 0 1.32 0 2 0 C2.14695313 0.59167969 2.29390625 1.18335937 2.4453125 1.79296875 C4.15223408 7.80643386 5.99175187 10.32728471 11 14 C11 14.66 11 15.32 11 16 C6.49224177 13.99546543 3.66553049 11.12620819 1 7 C0.26480734 4.55251992 0.10529481 2.57972292 0 0 Z " fill="#777777" transform="translate(138,124)"/>
<path d="M0 0 C0.66 1.32 1.32 2.64 2 4 C1.01 3.67 0.02 3.34 -1 3 C-1 3.66 -1 4.32 -1 5 C-3.35438733 6.42944945 -4.48032433 7.08661261 -7.25 6.625 C-7.8275 6.41875 -8.405 6.2125 -9 6 C-6.11912454 3.59927045 -3.43595166 1.52708963 0 0 Z " fill="#A8A8A8" transform="translate(169,132)"/>
<path d="M0 0 C0.66 0.33 1.32 0.66 2 1 C1.01 2.485 1.01 2.485 0 4 C-0.99 4 -1.98 4 -3 4 C-3 4.99 -3 5.98 -3 7 C-3.66 7 -4.32 7 -5 7 C-5 8.98 -5 10.96 -5 13 C-5.33 13 -5.66 13 -6 13 C-6 10.36 -6 7.72 -6 5 C-5.34 5 -4.68 5 -4 5 C-4 4.34 -4 3.68 -4 3 C-3.34 3 -2.68 3 -2 3 C-2 2.34 -2 1.68 -2 1 C-1.34 0.67 -0.68 0.34 0 0 Z " fill="#6D6D6D" transform="translate(122,110)"/>
<path d="M0 0 C3 1 3 1 4.1875 3 C5.28113733 7.03804554 5.16301345 10.84315708 5 15 C4.67 15 4.34 15 4 15 C3.87882813 14.28972656 3.75765625 13.57945313 3.6328125 12.84765625 C3.46523437 11.92855469 3.29765625 11.00945312 3.125 10.0625 C2.96257812 9.14597656 2.80015625 8.22945312 2.6328125 7.28515625 C2.42398438 6.53105469 2.21515625 5.77695313 2 5 C1.34 4.67 0.68 4.34 0 4 C0 2.68 0 1.36 0 0 Z " fill="#727272" transform="translate(187,112)"/>
<path d="M0 0 C1.1055189 0.93590504 2.20935453 1.87379858 3.3125 2.8125 C3.92738281 3.33457031 4.54226562 3.85664062 5.17578125 4.39453125 C6.85424679 5.87172469 8.43882034 7.40039131 10 9 C9.67 9.99 9.34 10.98 9 12 C5.74483572 8.83525695 2.67991207 5.67247209 0 2 C0 1.34 0 0.68 0 0 Z " fill="#9E9E9E" transform="translate(195,96)"/>
<path d="M0 0 C0.99 0 1.98 0 3 0 C3 2.31 3 4.62 3 7 C2.01 7 1.02 7 0 7 C-0.93423645 3.98968256 -1.04449911 3.13349732 0 0 Z " fill="#C6C6C6" transform="translate(169,126)"/>
<path d="M0 0 C0 0.33 0 0.66 0 1 C-1.093125 1.309375 -2.18625 1.61875 -3.3125 1.9375 C-5.55407994 2.58337897 -7.7869351 3.2623117 -10 4 C-10 5.98 -10 7.96 -10 10 C-10.33 10 -10.66 10 -11 10 C-11.48309179 3.59903382 -11.48309179 3.59903382 -9.4375 1.0625 C-6.19917389 -0.34907805 -3.49186021 -0.20145347 0 0 Z " fill="#D6D6D6" transform="translate(227,43)"/>
<path d="M0 0 C2.09350689 3.4019487 2.17942163 6.05272412 2 10 C0.4375 8.375 0.4375 8.375 -1 6 C-0.6875 2.75 -0.6875 2.75 0 0 Z " fill="#C2C4C3" transform="translate(216,83)"/>
</svg>
