<?xml version="1.0" encoding="UTF-8"?>
<svg version="1.1" xmlns="http://www.w3.org/2000/svg" width="300" height="300">
<path d="M0 0 C2.31 0 4.62 0 7 0 C7 0.66 7 1.32 7 2 C8.7015625 1.9690625 8.7015625 1.9690625 10.4375 1.9375 C14 2 14 2 15 3 C17.52195967 3.39943176 20.02963656 3.75079848 22.5625 4.0625 C23.27341797 4.15337891 23.98433594 4.24425781 24.71679688 4.33789062 C26.47738403 4.56239503 28.23863478 4.78168397 30 5 C30 5.66 30 6.32 30 7 C32.64 7 35.28 7 38 7 C38 7.66 38 8.32 38 9 C39.175625 8.979375 40.35125 8.95875 41.5625 8.9375 C45.47413467 8.93052739 49.14497944 9.35749657 53 10 C53 10.66 53 11.32 53 12 C55.64 12 58.28 12 61 12 C61 12.66 61 13.32 61 14 C65.95 14.33 70.9 14.66 76 15 C76 15.66 76 16.32 76 17 C77.175625 16.95875 78.35125 16.9175 79.5625 16.875 C83.67322473 16.8677882 87.05384592 17.82307685 91 19 C93.99191142 19.43632041 96.98799372 19.74046204 100 20 C100 20.33 100 20.66 100 21 C100.969375 21.103125 101.93875 21.20625 102.9375 21.3125 C108.1957807 22.06368296 114.17332065 23.17332065 118 27 C118 27.99 118 28.98 118 30 C118.66 30 119.32 30 120 30 C120 30.99 120 31.98 120 33 C120.66 33 121.32 33 122 33 C125 38.75 125 38.75 125 41 C125.66 41 126.32 41 127 41 C130 46.75 130 46.75 130 49 C130.66 49 131.32 49 132 49 C132.33 50.98 132.66 52.96 133 55 C133.66 55 134.32 55 135 55 C135 55.99 135 56.98 135 58 C135.66 58 136.32 58 137 58 C140 63.625 140 63.625 140 67 C140.66 67 141.32 67 142 67 C142.05406122 68.93719378 142.09282025 70.87481921 142.125 72.8125 C142.14820313 73.89144531 142.17140625 74.97039062 142.1953125 76.08203125 C142 79 142 79 140 82 C139.34 82 138.68 82 138 82 C138 82.66 138 83.32 138 84 C137.34 84 136.68 84 136 84 C136 84.66 136 85.32 136 86 C132.27034861 88.03435531 130.33094958 89 126 89 C126 89.66 126 90.32 126 91 C123.36 91.33 120.72 91.66 118 92 C118.00222061 92.66763367 118.00444122 93.33526733 118.00672913 94.02313232 C118.02883644 100.96593695 118.04392944 107.90873158 118.05493164 114.8515625 C118.05996332 117.44336351 118.06678927 120.03516167 118.07543945 122.62695312 C118.08755591 126.35026755 118.09323995 130.07354447 118.09765625 133.796875 C118.10281754 134.95741394 118.10797882 136.11795288 118.11329651 137.31365967 C118.11337204 138.39447815 118.11344757 139.47529663 118.11352539 140.58886719 C118.115746 141.53928894 118.11796661 142.48971069 118.12025452 143.46893311 C118.0096099 145.79773487 117.66082137 147.77207276 117 150 C116.34 150 115.68 150 115 150 C115 150.66 115 151.32 115 152 C114.34 152 113.68 152 113 152 C113 152.66 113 153.32 113 154 C112.34 154 111.68 154 111 154 C111 154.66 111 155.32 111 156 C108.36 156.33 105.72 156.66 103 157 C103 157.66 103 158.32 103 159 C102.39671875 159.19335938 101.7934375 159.38671875 101.171875 159.5859375 C100.37265625 159.84632813 99.5734375 160.10671875 98.75 160.375 C97.96109375 160.63023437 97.1721875 160.88546875 96.359375 161.1484375 C94.00373091 161.93340522 94.00373091 161.93340522 91.953125 163.1015625 C90 164 90 164 86 164 C86 164.66 86 165.32 86 166 C83.03 166.33 80.06 166.66 77 167 C77 167.66 77 168.32 77 169 C75.68 169 74.36 169 73 169 C73 169.66 73 170.32 73 171 C71.35 171.33 69.7 171.66 68 172 C67.67 178.27 67.34 184.54 67 191 C66.34 191 65.68 191 65 191 C65.061875 191.969375 65.12375 192.93875 65.1875 193.9375 C65.21625881 198.61559946 63.64771207 202.67475582 62 207 C61.34 207 60.68 207 60 207 C59.20046862 210.28696233 58.90341064 211.71023192 60 215 C60.66 215 61.32 215 62 215 C62 215.66 62 216.32 62 217 C62.99 217.33 63.98 217.66 65 218 C65 218.66 65 219.32 65 220 C66.2375 219.9175 67.475 219.835 68.75 219.75 C72.6875 219.75 72.6875 219.75 75.1875 221.75 C75.785625 222.4925 76.38375 223.235 77 224 C77.9075 224.70125 78.815 225.4025 79.75 226.125 C80.4925 226.74375 81.235 227.3625 82 228 C82 228.66 82 229.32 82 230 C82.66 230 83.32 230 84 230 C85.625 231.375 85.625 231.375 87 233 C87 233.66 87 234.32 87 235 C87.66 235 88.32 235 89 235 C90.625 236.375 90.625 236.375 92 238 C92 238.66 92 239.32 92 240 C92.66 240 93.32 240 94 240 C95.625 241.375 95.625 241.375 97 243 C97 243.66 97 244.32 97 245 C97.66 245 98.32 245 99 245 C103 249.47058824 103 249.47058824 103 252 C103.66 252 104.32 252 105 252 C105 252.99 105 253.98 105 255 C105.66 255 106.32 255 107 255 C107.05392397 257.77109307 107.09363455 260.54113818 107.125 263.3125 C107.14175781 264.09818359 107.15851563 264.88386719 107.17578125 265.69335938 C107.18222656 266.45068359 107.18867188 267.20800781 107.1953125 267.98828125 C107.21102295 269.03302612 107.21102295 269.03302612 107.22705078 270.09887695 C107 272 107 272 105 275 C104.34 275 103.68 275 103 275 C102.7525 275.598125 102.505 276.19625 102.25 276.8125 C99.95048521 280.83665088 96.37748019 282.76288603 92 284 C88.65936352 284.15907793 85.341495 284.11679012 82 284 C82 283.34 82 282.68 82 282 C80.741875 281.896875 79.48375 281.79375 78.1875 281.6875 C75.49101243 281.35342189 74.23682932 281.17022107 72 279.5625 C71 278 71 278 71 276 C70.34 276 69.68 276 69 276 C67.375 274.625 67.375 274.625 66 273 C66 272.34 66 271.68 66 271 C65.34 271 64.68 271 64 271 C62.375 269.625 62.375 269.625 61 268 C61 267.34 61 266.68 61 266 C60.34 266 59.68 266 59 266 C57.375 264.625 57.375 264.625 56 263 C56 262.34 56 261.68 56 261 C55.34 261 54.68 261 54 261 C52.375 259.625 52.375 259.625 51 258 C51 257.34 51 256.68 51 256 C50.34 256 49.68 256 49 256 C46.65130253 254.02709413 45.99897713 252.99693138 45 250 C44.96045766 247.66700175 44.95598268 245.33291811 45 243 C44.34 243 43.68 243 43 243 C43 242.34 43 241.68 43 241 C42.34 241 41.68 241 41 241 C41 240.34 41 239.68 41 239 C40.01 238.67 39.02 238.34 38 238 C38 237.34 38 236.68 38 236 C32.830304 236.93894051 29.20310182 237.77762194 25 241 C18.0914039 242.46635444 11.0298036 242.14683169 4 242.125 C2.13214844 242.13080078 2.13214844 242.13080078 0.2265625 242.13671875 C-15.45332898 242.12000245 -15.45332898 242.12000245 -21 239 C-23.32128163 237.97056206 -25.66125473 236.98946915 -28 236 C-28 235.34 -28 234.68 -28 234 C-28.66 234 -29.32 234 -30 234 C-30 233.34 -30 232.68 -30 232 C-31.65 231.67 -33.3 231.34 -35 231 C-35 230.34 -35 229.68 -35 229 C-35.66 229 -36.32 229 -37 229 C-38.62109375 227.3203125 -38.62109375 227.3203125 -40.4375 225.125 C-42.58400884 222.53806278 -44.16776562 220.88815626 -47 219 C-47 218.01 -47 217.02 -47 216 C-47.66 216 -48.32 216 -49 216 C-52 210.375 -52 210.375 -52 207 C-52.66 207 -53.32 207 -54 207 C-56.10575375 201.47239641 -57.37851209 196.93002267 -57 191 C-57.66 191 -58.32 191 -59 191 C-59 184.73 -59 178.46 -59 172 C-60.98 171.67 -62.96 171.34 -65 171 C-65 170.34 -65 169.68 -65 169 C-65.99 168.814375 -65.99 168.814375 -67 168.625 C-70.69698583 167.85479462 -74.34005942 166.93049337 -78 166 C-78 165.34 -78 164.68 -78 164 C-78.66 163.87625 -79.32 163.7525 -80 163.625 C-83.69698583 162.85479462 -87.34005942 161.93049337 -91 161 C-91 160.34 -91 159.68 -91 159 C-92.32 159 -93.64 159 -95 159 C-95 158.34 -95 157.68 -95 157 C-97.64 156.67 -100.28 156.34 -103 156 C-103 155.34 -103 154.68 -103 154 C-103.66 154 -104.32 154 -105 154 C-105 153.34 -105 152.68 -105 152 C-105.66 152 -106.32 152 -107 152 C-107 151.34 -107 150.68 -107 150 C-107.66 150 -108.32 150 -109 150 C-109.9501315 146.79667766 -110.12131773 143.9239887 -110.11352539 140.58886719 C-110.11344986 139.50804871 -110.11337433 138.42723022 -110.11329651 137.31365967 C-110.10813522 136.15312073 -110.10297394 134.99258179 -110.09765625 133.796875 C-110.0962413 132.60394836 -110.09482635 131.41102173 -110.09336853 130.1819458 C-110.08777038 126.37127171 -110.07521819 122.56065634 -110.0625 118.75 C-110.05748476 116.16666752 -110.0529219 113.58333411 -110.04882812 111 C-110.03780155 104.66664663 -110.02106524 98.33332751 -110 92 C-112.64 91.67 -115.28 91.34 -118 91 C-118 90.34 -118 89.68 -118 89 C-119.65 89 -121.3 89 -123 89 C-123 88.34 -123 87.68 -123 87 C-124.65 86.67 -126.3 86.34 -128 86 C-128 85.34 -128 84.68 -128 84 C-128.66 84 -129.32 84 -130 84 C-130 83.34 -130 82.68 -130 82 C-130.66 82 -131.32 82 -132 82 C-134.42130331 78.36804504 -134.21022785 76.61650652 -134.125 72.3125 C-134.09792969 70.54326172 -134.09792969 70.54326172 -134.0703125 68.73828125 C-134.04710937 67.83464844 -134.02390625 66.93101563 -134 66 C-133.34 66 -132.68 66 -132 66 C-131.87625 65.4225 -131.7525 64.845 -131.625 64.25 C-130.99351176 61.97664233 -130.11141809 60.0746471 -129 58 C-128.34 58 -127.68 58 -127 58 C-126.87625 57.4225 -126.7525 56.845 -126.625 56.25 C-125.99351176 53.97664233 -125.11141809 52.0746471 -124 50 C-123.34 50 -122.68 50 -122 50 C-122 48.68 -122 47.36 -122 46 C-121.34 46 -120.68 46 -120 46 C-119.67 44.35 -119.34 42.7 -119 41 C-118.34 41 -117.68 41 -117 41 C-116.87625 40.4225 -116.7525 39.845 -116.625 39.25 C-115.99351176 36.97664233 -115.11141809 35.0746471 -114 33 C-113.34 33 -112.68 33 -112 33 C-111.9071875 32.1646875 -111.9071875 32.1646875 -111.8125 31.3125 C-110.61215635 27.89613729 -108.77650422 26.29363392 -106 24 C-100.8661159 21.96581951 -96.42694535 21.80958086 -91 22 C-91 21.34 -91 20.68 -91 20 C-89.50146484 19.80083984 -89.50146484 19.80083984 -87.97265625 19.59765625 C-86.68230469 19.42105469 -85.39195313 19.24445312 -84.0625 19.0625 C-82.77472656 18.88847656 -81.48695312 18.71445312 -80.16015625 18.53515625 C-77.14533687 18.33837577 -77.14533687 18.33837577 -76 17 C-73.32941149 16.85884839 -70.67567762 16.95752893 -68 17 C-68 16.34 -68 15.68 -68 15 C-63.05 14.67 -58.1 14.34 -53 14 C-53 13.34 -53 12.68 -53 12 C-49.535 11.505 -49.535 11.505 -46 11 C-46 10.67 -46 10.34 -46 10 C-38.08 9.505 -38.08 9.505 -30 9 C-30 8.34 -30 7.68 -30 7 C-27.36 7 -24.72 7 -22 7 C-22 6.34 -22 5.68 -22 5 C-21.00097656 4.86722656 -20.00195312 4.73445312 -18.97265625 4.59765625 C-17.03712891 4.33275391 -17.03712891 4.33275391 -15.0625 4.0625 C-13.77472656 3.88847656 -12.48695313 3.71445313 -11.16015625 3.53515625 C-8.14533687 3.33837577 -8.14533687 3.33837577 -7 2 C-4.67182036 1.63239269 -2.3381615 1.29758419 0 1 C0 0.67 0 0.34 0 0 Z " fill="#B8B8B8" transform="translate(146,7)"/>
<path d="M0 0 C0 0.66 0 1.32 0 2 C1.2375 2.12375 2.475 2.2475 3.75 2.375 C6.86958546 2.77183773 9.36506048 3.1758111 12 5 C12.99 6.485 12.99 6.485 14 8 C15.3303125 8.5878125 15.3303125 8.5878125 16.6875 9.1875 C20.52281172 11.28606679 22.58398887 13.69218435 25.33984375 17.0234375 C27.07704205 19.16593448 27.07704205 19.16593448 29.625 21.5 C35.29557702 27.46902844 37.78962478 32.73799127 38 41 C38.66 41 39.32 41 40 41 C41.31626692 44.61973402 42 47.09567131 42 51 C42.99 51 43.98 51 45 51 C45 57.27 45 63.54 45 70 C44.34 70 43.68 70 43 70 C43.061875 70.969375 43.12375 71.93875 43.1875 72.9375 C43.21625881 77.61559946 41.64771207 81.67475582 40 86 C39.34 86 38.68 86 38 86 C37.20046862 89.28696233 36.90341064 90.71023192 38 94 C38.66 94 39.32 94 40 94 C40 94.66 40 95.32 40 96 C41.485 96.495 41.485 96.495 43 97 C43 97.66 43 98.32 43 99 C44.2375 98.9175 45.475 98.835 46.75 98.75 C50.6875 98.75 50.6875 98.75 53.1875 100.75 C53.785625 101.4925 54.38375 102.235 55 103 C56.36125 104.051875 56.36125 104.051875 57.75 105.125 C58.86375 106.053125 58.86375 106.053125 60 107 C60 107.66 60 108.32 60 109 C60.66 109 61.32 109 62 109 C63.625 110.375 63.625 110.375 65 112 C65 112.66 65 113.32 65 114 C65.66 114 66.32 114 67 114 C68.625 115.375 68.625 115.375 70 117 C70 117.66 70 118.32 70 119 C70.66 119 71.32 119 72 119 C73.625 120.375 73.625 120.375 75 122 C75 122.66 75 123.32 75 124 C75.66 124 76.32 124 77 124 C81 128.47058824 81 128.47058824 81 131 C81.66 131 82.32 131 83 131 C83 131.99 83 132.98 83 134 C83.66 134 84.32 134 85 134 C85.05392397 136.77109307 85.09363455 139.54113818 85.125 142.3125 C85.15013672 143.49102539 85.15013672 143.49102539 85.17578125 144.69335938 C85.18222656 145.45068359 85.18867188 146.20800781 85.1953125 146.98828125 C85.20578613 147.68477783 85.21625977 148.38127441 85.22705078 149.09887695 C85 151 85 151 83 154 C82.34 154 81.68 154 81 154 C80.7525 154.598125 80.505 155.19625 80.25 155.8125 C77.95048521 159.83665088 74.37748019 161.76288603 70 163 C66.65936352 163.15907793 63.341495 163.11679012 60 163 C60 162.34 60 161.68 60 161 C58.1128125 160.8453125 58.1128125 160.8453125 56.1875 160.6875 C53.49101243 160.35342189 52.23682932 160.17022107 50 158.5625 C49 157 49 157 49 155 C48.34 155 47.68 155 47 155 C45.375 153.625 45.375 153.625 44 152 C44 151.34 44 150.68 44 150 C43.34 150 42.68 150 42 150 C40.375 148.625 40.375 148.625 39 147 C39 146.34 39 145.68 39 145 C38.34 145 37.68 145 37 145 C35.375 143.625 35.375 143.625 34 142 C34 141.34 34 140.68 34 140 C33.34 140 32.68 140 32 140 C30.375 138.625 30.375 138.625 29 137 C29 136.34 29 135.68 29 135 C28.34 135 27.68 135 27 135 C24.65130253 133.02709413 23.99897713 131.99693138 23 129 C22.96045766 126.66700175 22.95598268 124.33291811 23 122 C22.34 122 21.68 122 21 122 C21 121.34 21 120.68 21 120 C20.34 120 19.68 120 19 120 C19 119.34 19 118.68 19 118 C17.515 117.505 17.515 117.505 16 117 C16 116.34 16 115.68 16 115 C10.830304 115.93894051 7.20310182 116.77762194 3 120 C-3.9085961 121.46635444 -10.9701964 121.14683169 -18 121.125 C-19.24523437 121.12886719 -20.49046875 121.13273437 -21.7734375 121.13671875 C-37.45332898 121.12000245 -37.45332898 121.12000245 -43 118 C-45.32128163 116.97056206 -47.66125473 115.98946915 -50 115 C-50 114.34 -50 113.68 -50 113 C-50.66 113 -51.32 113 -52 113 C-52 112.34 -52 111.68 -52 111 C-53.65 110.67 -55.3 110.34 -57 110 C-57 109.34 -57 108.68 -57 108 C-57.66 108 -58.32 108 -59 108 C-60.62109375 106.3203125 -60.62109375 106.3203125 -62.4375 104.125 C-64.58400884 101.53806278 -66.16776562 99.88815626 -69 98 C-69 97.01 -69 96.02 -69 95 C-69.66 95 -70.32 95 -71 95 C-74 89.375 -74 89.375 -74 86 C-74.66 86 -75.32 86 -76 86 C-78.10575375 80.47239641 -79.37851209 75.93002267 -79 70 C-79.66 70 -80.32 70 -81 70 C-81 63.73 -81 57.46 -81 51 C-80.01 51 -79.02 51 -78 51 C-77.7834375 49.14375 -77.7834375 49.14375 -77.5625 47.25 C-77.21311498 44.43495501 -76.79620634 41.7298503 -76 39 C-75.34 39 -74.68 39 -74 39 C-73.896875 38.175 -73.79375 37.35 -73.6875 36.5 C-72.31164415 29.49564294 -70.9020941 25.29243207 -65 21 C-63.15970989 18.94487426 -61.39759546 16.84005419 -59.6484375 14.70703125 C-58 13 -58 13 -55 12 C-55 11.34 -55 10.68 -55 10 C-41.7039809 -2.43821142 -17.09331502 -5.06478034 0 0 Z " fill="#454545" transform="translate(168,128)"/>
<path d="M0 0 C2.31 0 4.62 0 7 0 C7 0.66 7 1.32 7 2 C8.134375 1.979375 9.26875 1.95875 10.4375 1.9375 C14 2 14 2 15 3 C17.52195967 3.39943176 20.02963656 3.75079848 22.5625 4.0625 C23.27341797 4.15337891 23.98433594 4.24425781 24.71679688 4.33789062 C26.47738403 4.56239503 28.23863478 4.78168397 30 5 C30 5.66 30 6.32 30 7 C32.64 7 35.28 7 38 7 C38 7.66 38 8.32 38 9 C39.175625 8.979375 40.35125 8.95875 41.5625 8.9375 C45.47413467 8.93052739 49.14497944 9.35749657 53 10 C53 10.66 53 11.32 53 12 C55.64 12 58.28 12 61 12 C61 12.66 61 13.32 61 14 C65.95 14.33 70.9 14.66 76 15 C76 15.66 76 16.32 76 17 C77.175625 16.95875 78.35125 16.9175 79.5625 16.875 C83.67322473 16.8677882 87.05384592 17.82307685 91 19 C93.99191142 19.43632041 96.98799372 19.74046204 100 20 C100 20.33 100 20.66 100 21 C101.093125 21.12375 102.18625 21.2475 103.3125 21.375 C107 22 107 22 110 24 C110 24.66 110 25.32 110 26 C109.01 26 108.02 26 107 26 C107 26.66 107 27.32 107 28 C106.43410156 28.12117188 105.86820313 28.24234375 105.28515625 28.3671875 C104.55167969 28.53476562 103.81820312 28.70234375 103.0625 28.875 C101.96615234 29.11863281 101.96615234 29.11863281 100.84765625 29.3671875 C98.79299706 29.82961523 98.79299706 29.82961523 98 32 C95.35139573 32.59355614 92.70802678 32.74209269 90 33 C90 33.66 90 34.32 90 35 C85.545 35.495 85.545 35.495 81 36 C81 36.66 81 37.32 81 38 C79.87851562 38.38091797 79.87851562 38.38091797 78.734375 38.76953125 C77.74953125 39.11371094 76.7646875 39.45789062 75.75 39.8125 C74.77546875 40.14894531 73.8009375 40.48539063 72.796875 40.83203125 C70.01798598 41.85199891 70.01798598 41.85199891 68.02734375 43.515625 C65.41589052 45.42767168 62.92422553 46.07127294 59.8125 46.9375 C55.81611805 48.10162465 52.06428535 49.32280311 48.3125 51.125 C43.70218623 53.30161654 39.01245194 54.20470491 34 55 C34 55.66 34 56.32 34 57 C30.51381291 58.96656708 27.33920323 60.23009869 23.4375 61 C19.71932397 61.74983217 17.21185145 62.94112086 14 65 C7.47195621 68.12745194 3.5806535 68.12724277 -3.375 65.9375 C-4.24125 65.628125 -5.1075 65.31875 -6 65 C-6 64.34 -6 63.68 -6 63 C-7.299375 62.938125 -8.59875 62.87625 -9.9375 62.8125 C-14.67276122 62.31208596 -17.95779171 60.66214873 -21.95703125 58.15625 C-23.98463526 57.00869591 -25.72555042 56.44977879 -28 56 C-28 55.34 -28 54.68 -28 54 C-29.0828125 53.80857422 -29.0828125 53.80857422 -30.1875 53.61328125 C-32.93007226 53.01524813 -35.38102949 52.18957561 -38 51.1875 C-42.17151981 49.63020756 -46.35579379 48.26476484 -50.625 47 C-55.96592535 45.39197946 -60.98548087 43.43599379 -66 41 C-66 40.34 -66 39.68 -66 39 C-66.54785156 38.92523438 -67.09570312 38.85046875 -67.66015625 38.7734375 C-75.92371758 37.40289562 -83.33791184 34.23483847 -91 31 C-93.31249207 30.04164753 -95.6249913 29.08331234 -97.9375 28.125 C-99.62546995 27.41778729 -101.31316505 26.70991564 -103 26 C-103 25.34 -103 24.68 -103 24 C-99.09971775 21.39981184 -95.52565431 21.84914486 -91 22 C-91 21.34 -91 20.68 -91 20 C-89.50146484 19.80083984 -89.50146484 19.80083984 -87.97265625 19.59765625 C-86.68230469 19.42105469 -85.39195313 19.24445312 -84.0625 19.0625 C-82.77472656 18.88847656 -81.48695312 18.71445312 -80.16015625 18.53515625 C-77.14533687 18.33837577 -77.14533687 18.33837577 -76 17 C-73.32941149 16.85884839 -70.67567762 16.95752893 -68 17 C-68 16.34 -68 15.68 -68 15 C-63.05 14.67 -58.1 14.34 -53 14 C-53 13.34 -53 12.68 -53 12 C-49.535 11.505 -49.535 11.505 -46 11 C-46 10.67 -46 10.34 -46 10 C-38.08 9.505 -38.08 9.505 -30 9 C-30 8.34 -30 7.68 -30 7 C-27.36 7 -24.72 7 -22 7 C-22 6.34 -22 5.68 -22 5 C-21.00097656 4.86722656 -20.00195312 4.73445312 -18.97265625 4.59765625 C-17.03712891 4.33275391 -17.03712891 4.33275391 -15.0625 4.0625 C-13.77472656 3.88847656 -12.48695313 3.71445313 -11.16015625 3.53515625 C-8.14533687 3.33837577 -8.14533687 3.33837577 -7 2 C-4.67182036 1.63239269 -2.3381615 1.29758419 0 1 C0 0.67 0 0.34 0 0 Z " fill="#4C4C4C" transform="translate(146,7)"/>
<path d="M0 0 C4.5182607 3.34178067 8.53329171 7.1166619 11.75 11.75 C11.75 12.41 11.75 13.07 11.75 13.75 C12.41 13.75 13.07 13.75 13.75 13.75 C13.75 15.07 13.75 16.39 13.75 17.75 C14.41 17.75 15.07 17.75 15.75 17.75 C17.20723187 22.77000319 16.97395943 27.81141547 17 33 C17.020625 34.01191406 17.04125 35.02382812 17.0625 36.06640625 C17.09602593 42.52852881 17.02119624 49.27920534 12.30957031 54.27832031 C11.79491211 54.76397461 11.28025391 55.24962891 10.75 55.75 C7.07054387 59.85071283 7.07054387 59.85071283 4.75 64.75 C3.4346659 65.45151152 2.09882408 66.11525925 0.75 66.75 C0.30269531 67.22308594 -0.14460938 67.69617188 -0.60546875 68.18359375 C-2.51399741 70.00145597 -4.26095356 70.80177998 -6.6875 71.8125 C-9.94470848 73.16696989 -9.94470848 73.16696989 -13.03125 74.85546875 C-20.79852197 77.98699213 -35.57795919 76.68578841 -43.25 73.75 C-53.10243712 68.03992001 -62.93731533 59.453738 -66.3125 48.25 C-67.36982685 42.78354825 -67.54460022 37.30336523 -67.625 31.75 C-67.63926025 30.92435547 -67.65352051 30.09871094 -67.66821289 29.24804688 C-67.63035652 24.70528185 -67.41780779 22.21799906 -64.25 18.75 C-63.41027711 16.57447989 -63.41027711 16.57447989 -62.8125 14.3125 C-60.73048853 7.75523707 -56.85915041 3.70940029 -51.25 -0.25 C-47.375 -1.0625 -47.375 -1.0625 -44.25 -1.25 C-44.25 -1.91 -44.25 -2.57 -44.25 -3.25 C-31.46704005 -12.12705552 -12.06613334 -7.88176423 0 0 Z " fill="#DBDBDB" transform="translate(175.25,153.25)"/>
<path d="M0 0 C0 0.66 0 1.32 0 2 C0.66 2 1.32 2 2 2 C3.625 3.375 3.625 3.375 5 5 C5 5.66 5 6.32 5 7 C5.66 7 6.32 7 7 7 C8.625 8.375 8.625 8.375 10 10 C10 10.66 10 11.32 10 12 C10.66 12 11.32 12 12 12 C13.625 13.375 13.625 13.375 15 15 C15 15.66 15 16.32 15 17 C15.66 17 16.32 17 17 17 C21 21.47058824 21 21.47058824 21 24 C21.66 24 22.32 24 23 24 C23 24.99 23 25.98 23 27 C23.66 27 24.32 27 25 27 C25.05392397 29.77109307 25.09363455 32.54113818 25.125 35.3125 C25.14175781 36.09818359 25.15851563 36.88386719 25.17578125 37.69335938 C25.18544922 38.8293457 25.18544922 38.8293457 25.1953125 39.98828125 C25.21102295 41.03302612 25.21102295 41.03302612 25.22705078 42.09887695 C25 44 25 44 23 47 C22.34 47 21.68 47 21 47 C20.7525 47.598125 20.505 48.19625 20.25 48.8125 C17.95048521 52.83665088 14.37748019 54.76288603 10 56 C6.65936352 56.15907793 3.341495 56.11679012 0 56 C0 55.34 0 54.68 0 54 C-1.258125 53.896875 -2.51625 53.79375 -3.8125 53.6875 C-6.50898757 53.35342189 -7.76317068 53.17022107 -10 51.5625 C-11 50 -11 50 -11 48 C-11.66 48 -12.32 48 -13 48 C-14.625 46.625 -14.625 46.625 -16 45 C-16 44.34 -16 43.68 -16 43 C-16.66 43 -17.32 43 -18 43 C-19.625 41.625 -19.625 41.625 -21 40 C-21 39.34 -21 38.68 -21 38 C-21.66 38 -22.32 38 -23 38 C-24.625 36.625 -24.625 36.625 -26 35 C-26 34.34 -26 33.68 -26 33 C-26.66 33 -27.32 33 -28 33 C-29.625 31.5 -29.625 31.5 -31 30 C-29.63016497 26.83884224 -29.0109362 26.0072908 -26 24 C-25.67 23.01 -25.34 22.02 -25 21 C-23.57421875 19.59765625 -23.57421875 19.59765625 -21.6875 18.0625 C-17.24298016 14.31042347 -13.18557127 10.2457093 -9.12573242 6.08813477 C-3.13774114 0 -3.13774114 0 0 0 Z " fill="#8C8C8C" transform="translate(228,235)"/>
<path d="M0 0 C3.57212023 -0.47325731 4.7835864 -0.15747543 7.75390625 2.00390625 C9.62902165 3.71211291 11.50402133 5.42044662 13.37890625 7.12890625 C15.76368745 9.25153588 15.76368745 9.25153588 18.19921875 8.84375 C21.12537248 7.47370943 21.12537248 7.47370943 24 6 C24 5.34 24 4.68 24 4 C26.72141638 1.27858362 28.33725487 0.09096502 32.1875 -0.4375 C33.115625 -0.293125 34.04375 -0.14875 35 0 C37.15502531 3.23253796 37.46856135 4.25150923 37 8 C35.625 9.8125 35.625 9.8125 34 11 C33.34 11 32.68 11 32 11 C31.731875 11.598125 31.46375 12.19625 31.1875 12.8125 C30 15 30 15 28.3125 16.5 C26.79421731 17.90298816 26.79421731 17.90298816 27 19.875 C28.80091112 23.70193614 32.07138156 26.24706613 35.3125 28.875 C37.72629791 31.91459737 37.35513245 34.23559601 37 38 C36 39 36 39 32.75 39.375 C28.02481983 38.90248198 27.04383005 37.52443479 24 34 C21.69931981 31.50789479 21.69931981 31.50789479 19 30 C15.45232306 30.30849365 13.65633812 31.25119854 11.30859375 33.9296875 C10.73238281 34.65414062 10.15617188 35.37859375 9.5625 36.125 C6.46650283 39.91587654 6.46650283 39.91587654 2.1875 40.6875 C-1 40 -1 40 -3 37 C-3.125 33.8125 -3.125 33.8125 -3 31 C-2.34 31 -1.68 31 -1 31 C-0.731875 30.360625 -0.46375 29.72125 -0.1875 29.0625 C1 27 1 27 4 26 C5.20003343 24.18398635 5.20003343 24.18398635 6 22 C6.27457031 21.40703125 6.54914063 20.8140625 6.83203125 20.203125 C7.2547613 17.76453626 7.2547613 17.76453626 5.12890625 15.37890625 C4.28199219 14.44949219 3.43507812 13.52007812 2.5625 12.5625 C-1.93765059 7.62264004 -1.93765059 7.62264004 -2.28515625 4.15234375 C-2.19105469 3.44207031 -2.09695312 2.73179687 -2 2 C-1.34 2 -0.68 2 0 2 C0 1.34 0 0.68 0 0 Z " fill="#565656" transform="translate(136,167)"/>
<path d="M0 0 C0.66 0.33 1.32 0.66 2 1 C2 1.66 2 2.32 2 3 C2.66 3 3.32 3 4 3 C4 3.66 4 4.32 4 5 C4.99 5.33 5.98 5.66 7 6 C7 6.66 7 7.32 7 8 C8.2375 7.9175 9.475 7.835 10.75 7.75 C13.93810485 7.74437724 14.71206191 7.77431879 17.3125 9.8125 C17.869375 10.534375 18.42625 11.25625 19 12 C19.86625 12.86625 19.86625 12.86625 20.75 13.75 C21.1625 14.1625 21.575 14.575 22 15 C20.89513102 18.31460693 20.12376914 18.96976106 17.5 21.125 C13.36623806 24.60959716 9.6216851 28.37562826 5.8828125 32.27734375 C4 34 4 34 2 34 C1.67 34.99 1.34 35.98 1 37 C0.34 37 -0.32 37 -1 37 C-1.0825 37.598125 -1.165 38.19625 -1.25 38.8125 C-2.22294427 41.65025411 -3.44449313 42.49676067 -6 44 C-9 44 -9 44 -10.625 42.6875 C-13.54582554 39.10285047 -13.08326045 35.41280382 -13 31 C-13.66 31 -14.32 31 -15 31 C-15 30.34 -15 29.68 -15 29 C-15.66 29 -16.32 29 -17 29 C-17 28.34 -17 27.68 -17 27 C-17.99 26.67 -18.98 26.34 -20 26 C-20 25.34 -20 24.68 -20 24 C-20.66 24 -21.32 24 -22 24 C-20.92550335 20.77651004 -20.13675431 19.95861919 -17.625 17.8125 C-17.01914063 17.28269531 -16.41328125 16.75289062 -15.7890625 16.20703125 C-14 15 -14 15 -11 15 C-10.938125 14.4225 -10.87625 13.845 -10.8125 13.25 C-9.66615826 10.07551517 -7.74043158 8.87151425 -5 7 C-4.34 7 -3.68 7 -3 7 C-2.87625 6.401875 -2.7525 5.80375 -2.625 5.1875 C-2 3 -2 3 0 0 Z " fill="#464646" transform="translate(204,219)"/>
<path d="M0 0 C0.66 0.33 1.32 0.66 2 1 C2 1.66 2 2.32 2 3 C2.66 3 3.32 3 4 3 C4 3.66 4 4.32 4 5 C4.99 5.33 5.98 5.66 7 6 C7.6875 8.0625 7.6875 8.0625 8 10 C7.26394531 10.59167969 6.52789062 11.18335938 5.76953125 11.79296875 C4.79371094 12.58316406 3.81789062 13.37335938 2.8125 14.1875 C1.84957031 14.96480469 0.88664062 15.74210938 -0.10546875 16.54296875 C-4.9722607 20.67415921 -10.10551017 25.21102034 -13 31 C-13.66 31 -14.32 31 -15 31 C-15 30.34 -15 29.68 -15 29 C-15.66 29 -16.32 29 -17 29 C-17 28.34 -17 27.68 -17 27 C-17.99 26.67 -18.98 26.34 -20 26 C-20 25.34 -20 24.68 -20 24 C-20.66 24 -21.32 24 -22 24 C-20.92550335 20.77651004 -20.13675431 19.95861919 -17.625 17.8125 C-17.01914063 17.28269531 -16.41328125 16.75289062 -15.7890625 16.20703125 C-14 15 -14 15 -11 15 C-10.938125 14.4225 -10.87625 13.845 -10.8125 13.25 C-9.66615826 10.07551517 -7.74043158 8.87151425 -5 7 C-4.34 7 -3.68 7 -3 7 C-2.87625 6.401875 -2.7525 5.80375 -2.625 5.1875 C-2 3 -2 3 0 0 Z " fill="#757575" transform="translate(204,219)"/>
<path d="M0 0 C0 0.66 0 1.32 0 2 C1.2375 2.12375 2.475 2.2475 3.75 2.375 C6.8762197 2.75746305 9.28879237 3.30549523 12 5 C12 5.66 12 6.32 12 7 C11.40832031 6.79503906 10.81664062 6.59007812 10.20703125 6.37890625 C6.16339184 5.0002429 2.23144751 3.68249153 -2 3 C-2 2.34 -2 1.68 -2 1 C-6.145697 0.9120432 -10.29115012 0.85928847 -14.4375 0.8125 C-15.60216797 0.78736328 -16.76683594 0.76222656 -17.96679688 0.73632812 C-25.01007591 0.67680746 -30.46439148 1.3368269 -37 4 C-37 4.33 -37 4.66 -37 5 C-38.5778125 5.2165625 -38.5778125 5.2165625 -40.1875 5.4375 C-43.15460549 5.87526966 -46.06794366 6.37804866 -49 7 C-39.09469523 -4.14639496 -13.36309256 -3.95950864 0 0 Z " fill="#656565" transform="translate(168,128)"/>
<path d="M0 0 C-0.309375 0.598125 -0.61875 1.19625 -0.9375 1.8125 C-2.10209704 4.08956772 -2.10209704 4.08956772 -3 7 C-4.72544921 8.38712583 -6.54194318 9.52681613 -8.40625 10.71875 C-10.30299104 12.00689646 -10.30299104 12.00689646 -11 15 C-12.64333504 16.03789581 -14.31243867 17.03567924 -16 18 C-17.75149165 19.58245275 -17.75149165 19.58245275 -19 21 C-19.66 20.67 -20.32 20.34 -21 20 C-18.381202 15.63533667 -16.30403403 13.56192502 -12 11 C-10.35809794 9.19998885 -8.83584593 7.3422522 -7.33203125 5.42578125 C-6.67267578 4.72001953 -6.67267578 4.72001953 -6 4 C-5.34 4 -4.68 4 -4 4 C-4 3.01 -4 2.02 -4 1 C-2 0 -2 0 0 0 Z " fill="#595859" transform="translate(204,219)"/>
<path d="M0 0 C0.99 0 1.98 0 3 0 C1.66666667 4 0.33333333 8 -1 12 C-1.66 12 -2.32 12 -3 12 C-3.144375 13.2375 -3.28875 14.475 -3.4375 15.75 C-3.78688502 18.56504499 -4.20379366 21.2701497 -5 24 C-6.65 24 -8.3 24 -10 24 C-8.68 23.67 -7.36 23.34 -6 23 C-6.226875 22.13375 -6.45375 21.2675 -6.6875 20.375 C-7.0632763 16.31661591 -6.05257931 14.44833324 -4 11 C-3.34 11 -2.68 11 -2 11 C-2.04125 10.21625 -2.0825 9.4325 -2.125 8.625 C-2 6 -2 6 0 4 C0 2.68 0 1.36 0 0 Z " fill="#8A8A8A" transform="translate(95,155)"/>
<path d="M0 0 C0.99 0.495 0.99 0.495 2 1 C2 1.66 2 2.32 2 3 C2.66 3 3.32 3 4 3 C4.33 4.98 4.66 6.96 5 9 C5.66 9 6.32 9 7 9 C8.125 12.75 8.125 12.75 7 15 C7.66 15 8.32 15 9 15 C9 15.66 9 16.32 9 17 C7.68 17 6.36 17 5 17 C4.34 13.7 3.68 10.4 3 7 C2.34 7 1.68 7 1 7 C0.67 4.69 0.34 2.38 0 0 Z " fill="#787878" transform="translate(205,162)"/>
<path d="M0 0 C0.99 0.495 0.99 0.495 2 1 C2 1.66 2 2.32 2 3 C2.66 3 3.32 3 4 3 C4 4.32 4 5.64 4 7 C4.66 7 5.32 7 6 7 C6.95376567 10.20782086 7.11621181 13.08187396 7.09765625 16.421875 C7.09443359 17.44667969 7.09121094 18.47148437 7.08789062 19.52734375 C7.07951172 20.59082031 7.07113281 21.65429688 7.0625 22.75 C7.05798828 23.82894531 7.05347656 24.90789062 7.04882812 26.01953125 C7.03705727 28.67974383 7.02061399 31.33984365 7 34 C6.01 34.495 6.01 34.495 5 35 C5 26.09 5 17.18 5 8 C4.34 8 3.68 8 3 8 C0 2.25 0 2.25 0 0 Z " fill="#919191" transform="translate(185,164)"/>
<path d="M0 0 C6.93 0.33 13.86 0.66 21 1 C20.67 1.99 20.34 2.98 20 4 C17.04019468 3.91329863 14.08353131 3.80646977 11.125 3.6875 C10.28324219 3.66494141 9.44148437 3.64238281 8.57421875 3.61914062 C7.76855469 3.58369141 6.96289062 3.54824219 6.1328125 3.51171875 C5.38918457 3.48553467 4.64555664 3.45935059 3.87939453 3.43237305 C2 3 2 3 0 0 Z " fill="#737373" transform="translate(139,228)"/>
<path d="M0 0 C6.68825715 1.04161382 12.12749662 2.58327076 18 6 C18.33 6.66 18.66 7.32 19 8 C16.525 7.505 16.525 7.505 14 7 C14 6.34 14 5.68 14 5 C13.11248047 4.94392578 13.11248047 4.94392578 12.20703125 4.88671875 C7.42978922 4.48926468 3.91240961 4.02896228 0 1 C0 0.67 0 0.34 0 0 Z " fill="#797979" transform="translate(126,65)"/>
<path d="M0 0 C0 0.99 0 1.98 0 3 C-3.75 4.125 -3.75 4.125 -6 3 C-6.99 3.33 -7.98 3.66 -9 4 C-8.6875 2.0625 -8.6875 2.0625 -8 0 C-4.71023192 -1.09658936 -3.28696233 -0.79953138 0 0 Z " fill="#4C4C4C" transform="translate(172,169)"/>
<path d="M0 0 C0.66 0 1.32 0 2 0 C2 2.31 2 4.62 2 7 C2.66 7 3.32 7 4 7 C4.66 9.64 5.32 12.28 6 15 C2.12205672 11.7683806 1.04839982 8.89253251 0 4 C0 2.68 0 1.36 0 0 Z " fill="#A8A8A8" transform="translate(109,196)"/>
<path d="M0 0 C0.33 0.66 0.66 1.32 1 2 C0.34 2 -0.32 2 -1 2 C-1.33 2.99 -1.66 3.98 -2 5 C-2.66 5 -3.32 5 -4 5 C-4.103125 5.598125 -4.20625 6.19625 -4.3125 6.8125 C-5.08876455 9.28243264 -6.07088921 10.32251235 -8 12 C-8.99 11.67 -9.98 11.34 -11 11 C-9.7934375 10.1028125 -9.7934375 10.1028125 -8.5625 9.1875 C-5.77672016 7.19052724 -5.77672016 7.19052724 -5 4 C-3.37667033 2.61423077 -1.71275535 1.27358732 0 0 Z " fill="#767676" transform="translate(208,252)"/>
<path d="M0 0 C0.66 0.33 1.32 0.66 2 1 C1.21625 1.721875 0.4325 2.44375 -0.375 3.1875 C-2.87386963 5.86486032 -3.78573009 7.6374064 -5 11 C-5.99 11.495 -5.99 11.495 -7 12 C-6.79692286 7.73538008 -5.91504038 5.56751049 -2.9375 2.625 C-1.968125 1.75875 -0.99875 0.8925 0 0 Z " fill="#5D5D5D" transform="translate(198,240)"/>
<path d="M0 0 C0.33 0.66 0.66 1.32 1 2 C0.09515208 3.15518918 -0.8244206 4.29885406 -1.75 5.4375 C-2.26046875 6.07558594 -2.7709375 6.71367187 -3.296875 7.37109375 C-5.19667629 9.18810554 -6.43586908 9.60423197 -9 10 C-8.06409496 8.8944811 -7.12620142 7.79064547 -6.1875 6.6875 C-5.66542969 6.07261719 -5.14335937 5.45773438 -4.60546875 4.82421875 C-3.12827531 3.14575321 -1.59960869 1.56117966 0 0 Z " fill="#717171" transform="translate(221,239)"/>
<path d="M0 0 C0.99 0.33 1.98 0.66 3 1 C2.67 1.66 2.34 2.32 2 3 C3.32 3.33 4.64 3.66 6 4 C1.48281619 5.36884358 -1.58774263 4.47075246 -6 3 C-4 2 -2 1 0 0 Z " fill="#AEAEAE" transform="translate(125,126)"/>
<path d="M0 0 C3.25 -0.375 3.25 -0.375 6 0 C4.8553125 0.8971875 4.8553125 0.8971875 3.6875 1.8125 C1.6516425 3.46959332 -0.1978279 5.10297674 -2 7 C-2.66 6.67 -3.32 6.34 -4 6 C-2.375 3 -2.375 3 0 0 Z " fill="#5F5F5F" transform="translate(187,233)"/>
<path d="M0 0 C0.66 0 1.32 0 2 0 C3.125 3.75 3.125 3.75 2 6 C2.66 6 3.32 6 4 6 C4 6.66 4 7.32 4 8 C2.68 8 1.36 8 0 8 C0 5.36 0 2.72 0 0 Z " fill="#959595" transform="translate(210,171)"/>
<path d="M0 0 C-4.79482068 2.75702189 -8.58609132 3.53328373 -14 4 C-13.67 3.34 -13.34 2.68 -13 2 C-11.35 2 -9.7 2 -8 2 C-8 1.34 -8 0.68 -8 0 C-4.71303767 -0.79953138 -3.28976808 -1.09658936 0 0 Z " fill="#7C7C7C" transform="translate(180,64)"/>
<path d="M0 0 C0.66 0.33 1.32 0.66 2 1 C0.71937515 2.7074998 -0.61767557 4.37373596 -2 6 C-2.66 6 -3.32 6 -4 6 C-4 7.65 -4 9.3 -4 11 C-4.33 11 -4.66 11 -5 11 C-5 9.02 -5 7.04 -5 5 C-4.34 5 -3.68 5 -3 5 C-2.5359375 4.0409375 -2.5359375 4.0409375 -2.0625 3.0625 C-1 1 -1 1 0 0 Z " fill="#807F80" transform="translate(138,193)"/>
<path d="M0 0 C1 2 1 2 0.25 5.0625 C-0.1625 6.031875 -0.575 7.00125 -1 8 C-1.99 8.33 -2.98 8.66 -4 9 C-2.25 2.25 -2.25 2.25 0 0 Z " fill="#ACACAC" transform="translate(116,161)"/>
<path d="M0 0 C-1.65 0.33 -3.3 0.66 -5 1 C-5.33 1.99 -5.66 2.98 -6 4 C-7.32 3.67 -8.64 3.34 -10 3 C-3.94594595 -1.97297297 -3.94594595 -1.97297297 0 0 Z " fill="#7F7F7F" transform="translate(129,131)"/>
</svg>
