<?xml version="1.0" encoding="UTF-8"?>
<svg version="1.1" xmlns="http://www.w3.org/2000/svg" width="300" height="300">
<path d="M0 0 C1.42675627 -0.00599458 2.85350931 -0.01280225 4.28025818 -0.02035522 C8.13139682 -0.03792073 11.98244643 -0.04270638 15.83362126 -0.0439868 C18.24370374 -0.04541351 20.65376395 -0.04969275 23.06384087 -0.05498123 C31.48267925 -0.07344513 39.90145454 -0.08165579 48.3203125 -0.08007812 C56.15198529 -0.07887538 63.9833831 -0.10001294 71.81498629 -0.13156545 C78.55580212 -0.15775002 85.29652819 -0.16844462 92.03739446 -0.16716731 C96.05620266 -0.16665863 100.07476578 -0.17229056 104.09352303 -0.19352341 C107.871852 -0.21294468 111.64970285 -0.21300418 115.42804909 -0.19849014 C116.80989026 -0.19640624 118.1917617 -0.20107796 119.57355118 -0.21321106 C129.95381199 -0.29841668 136.86720851 1.05759902 144.70288086 8.29052734 C146.50611952 10.27785533 148.26305376 12.2983593 150.00756836 14.33740234 C152.12599026 16.77798057 154.38804119 19.0366045 156.70288086 21.29052734 C166.70288086 31.29052734 176.70288086 41.29052734 186.70288086 51.29052734 C187.54850586 52.11552734 188.39413086 52.94052734 189.26538086 53.79052734 C195.51558511 60.20099324 197.94734187 64.66694347 197.9703064 73.70942688 C197.97483751 74.44717745 197.97936862 75.18492803 197.98403704 75.94503468 C197.99667724 78.41223234 197.99506093 80.87920913 197.9934082 83.34643555 C197.99939372 85.11742435 198.00619932 86.88841055 198.01376343 88.65939331 C198.0314289 93.46734624 198.03611906 98.27522798 198.037395 103.08321023 C198.03881692 106.08826388 198.0430873 109.09329946 198.04838943 112.09834862 C198.06689196 122.58551558 198.07505982 133.07263171 198.07348633 143.55981445 C198.07228507 153.32952425 198.09338383 163.09901307 198.12497365 172.86866695 C198.15114181 181.26119058 198.16185339 189.65364207 198.16057551 198.04620618 C198.16006601 203.05656686 198.16574261 208.06673118 198.18693161 213.07705116 C198.20632287 217.79098122 198.20643237 222.50452779 198.19189835 227.21847153 C198.18981021 228.94539514 198.19451145 230.67234281 198.20661926 232.39922523 C198.32454237 250.38783062 198.32454237 250.38783062 192.29096031 256.78830433 C186.9728535 261.58924674 182.07680926 262.58872839 175.1186676 262.55122375 C174.36317169 262.5550493 173.60767577 262.55887485 172.82928604 262.56281632 C170.30213519 262.57312082 167.77521262 262.56915906 165.24804688 262.56518555 C163.43440542 262.56953342 161.6207658 262.57471682 159.80712891 262.58067322 C154.88360473 262.594066 149.96015731 262.5946416 145.03661847 262.59210992 C140.92619392 262.59104045 136.81578491 262.59592293 132.70536369 262.60071534 C123.00847934 262.61181138 113.31163372 262.61224731 103.61474609 262.60620117 C93.6110026 262.60015963 83.6073997 262.61247676 73.60368019 262.63377124 C65.01416329 262.65138309 56.42469115 262.65738927 47.83515686 262.6541335 C42.70529256 262.65231992 37.57552857 262.65496437 32.44568062 262.66884804 C27.62182187 262.68141504 22.79818243 262.67949293 17.97432709 262.66643715 C16.20464186 262.66406941 14.43494126 262.66681313 12.66527367 262.67506027 C10.24795356 262.68551277 7.83137138 262.6774395 5.41407776 262.66474915 C4.71513997 262.67212343 4.01620218 262.67949772 3.29608446 262.68709546 C-1.2985199 262.63641175 -4.34283284 261.57966973 -8.29711914 259.29052734 C-9.03961914 258.96052734 -9.78211914 258.63052734 -10.54711914 258.29052734 C-12.29711914 257.29052734 -12.29711914 257.29052734 -14.29711914 254.29052734 C-14.29711914 253.30052734 -14.29711914 252.31052734 -14.29711914 251.29052734 C-14.95711914 251.29052734 -15.61711914 251.29052734 -16.29711914 251.29052734 C-17.13781995 247.63787998 -17.42083149 244.27100616 -17.41737366 240.52616882 C-17.41874832 239.37497055 -17.42012299 238.22377228 -17.42153931 237.03768921 C-17.41614639 235.15710312 -17.41614639 235.15710312 -17.41064453 233.23852539 C-17.4103623 231.89790346 -17.4105211 230.55728138 -17.41108704 229.21665955 C-17.4113736 225.58482646 -17.40549969 221.95302649 -17.39851308 218.32120109 C-17.39225604 214.52287702 -17.39167388 210.72455218 -17.39048767 206.92622375 C-17.38738129 199.7369416 -17.37917724 192.54767467 -17.36913818 185.35839921 C-17.35795553 177.17222588 -17.35246117 168.98605182 -17.34744275 160.79987276 C-17.33699405 143.96341512 -17.31920626 127.12697378 -17.29711914 110.29052734 C-20.92711914 109.96052734 -24.55711914 109.63052734 -28.29711914 109.29052734 C-28.29711914 108.63052734 -28.29711914 107.97052734 -28.29711914 107.29052734 C-29.61711914 107.29052734 -30.93711914 107.29052734 -32.29711914 107.29052734 C-32.29711914 106.63052734 -32.29711914 105.97052734 -32.29711914 105.29052734 C-33.44180664 105.10490234 -33.44180664 105.10490234 -34.60961914 104.91552734 C-37.29711914 104.29052734 -37.29711914 104.29052734 -40.29711914 102.29052734 C-40.29711914 101.63052734 -40.29711914 100.97052734 -40.29711914 100.29052734 C-41.01770508 100.06751953 -41.73829102 99.84451172 -42.48071289 99.61474609 C-49.68722644 96.22638535 -56.07856421 87.47038064 -59.29711914 80.29052734 C-62.07697066 72.22193305 -64.44324176 64.61631151 -64.42211914 56.04052734 C-64.42469727 54.98349609 -64.42727539 53.92646484 -64.42993164 52.83740234 C-64.29711914 50.29052734 -64.29711914 50.29052734 -63.29711914 49.29052734 C-62.90045687 47.11033255 -62.55396677 44.92088105 -62.23461914 42.72802734 C-61.9697168 40.93171875 -61.9697168 40.93171875 -61.69946289 39.09912109 C-61.56668945 38.17228516 -61.43391602 37.24544922 -61.29711914 36.29052734 C-60.63711914 36.29052734 -59.97711914 36.29052734 -59.29711914 36.29052734 C-59.29711914 34.97052734 -59.29711914 33.65052734 -59.29711914 32.29052734 C-58.63711914 32.29052734 -57.97711914 32.29052734 -57.29711914 32.29052734 C-57.17336914 31.52740234 -57.04961914 30.76427734 -56.92211914 29.97802734 C-56.29711914 27.29052734 -56.29711914 27.29052734 -54.29711914 24.29052734 C-53.63711914 24.29052734 -52.97711914 24.29052734 -52.29711914 24.29052734 C-52.19012695 23.69755859 -52.08313477 23.10458984 -51.97290039 22.49365234 C-49.54894336 14.59127221 -38.95738189 9.13867915 -32.29711914 5.29052734 C-29.33611551 3.96301856 -26.43202012 3.09527109 -23.29711914 2.29052734 C-22.67432351 2.11326803 -22.05152788 1.93600872 -21.40985966 1.75337791 C-14.31984211 -0.08269185 -7.28021668 -0.00614081 0 0 Z " fill="#B8B8B9" transform="translate(83.297119140625,18.70947265625)"/>
<path d="M0 0 C0 1.32 0 2.64 0 4 C0.88751953 3.96519531 0.88751953 3.96519531 1.79296875 3.9296875 C6.33801959 3.82588536 9.85940059 3.86291643 14 6 C14 6.66 14 7.32 14 8 C16.31 8.33 18.62 8.66 21 9 C21 9.66 21 10.32 21 11 C21.556875 11.226875 22.11375 11.45375 22.6875 11.6875 C25.67961603 13.38572802 27.61600535 15.50764196 30 18 C30.98613281 18.92039062 30.98613281 18.92039062 31.9921875 19.859375 C36.42585782 24.04943706 38.87988396 27.3091622 41 33 C41.50660156 33.46535156 42.01320313 33.93070313 42.53515625 34.41015625 C44.44572409 36.48375921 44.4529876 37.84564181 44.625 40.625 C44.60877773 43.61148183 44.60877773 43.61148183 46 46 C46.09930006 47.56388233 46.13079998 49.13218831 46.1328125 50.69921875 C46.13410156 51.66150391 46.13539063 52.62378906 46.13671875 53.61523438 C46.13285156 54.62908203 46.12898438 55.64292969 46.125 56.6875 C46.12886719 57.68201172 46.13273437 58.67652344 46.13671875 59.70117188 C46.13023058 64.57702926 46.02847124 69.20863001 45 74 C44.34 74 43.68 74 43 74 C42.9175 74.639375 42.835 75.27875 42.75 75.9375 C41.70199235 80.21686457 40.28983219 84.21876395 38 88 C35.25 89.5625 35.25 89.5625 33 90 C33 90.66 33 91.32 33 92 C32.34 92 31.68 92 31 92 C31 92.66 31 93.32 31 94 C30.01 94 29.02 94 28 94 C27.5359375 95.175625 27.5359375 95.175625 27.0625 96.375 C25.23045267 100.90123457 25.23045267 100.90123457 22.8125 101.9375 C21.884375 102.288125 20.95625 102.63875 20 103 C18.96875 103.53625 17.9375 104.0725 16.875 104.625 C14 106 14 106 11 106 C11 106.66 11 107.32 11 108 C-1.6141785 110.75267031 -14.36332923 112.23948552 -27 109 C-27 108.34 -27 107.68 -27 107 C-28.32 107 -29.64 107 -31 107 C-31 106.34 -31 105.68 -31 105 C-32.1446875 104.814375 -32.1446875 104.814375 -33.3125 104.625 C-36 104 -36 104 -39 102 C-39 101.34 -39 100.68 -39 100 C-39.72058594 99.77699219 -40.44117187 99.55398437 -41.18359375 99.32421875 C-48.3901073 95.93585801 -54.78144507 87.1798533 -58 80 C-60.77985152 71.93140571 -63.14612262 64.32578417 -63.125 55.75 C-63.12757812 54.69296875 -63.13015625 53.6359375 -63.1328125 52.546875 C-63 50 -63 50 -62 49 C-61.60333773 46.81980521 -61.25684763 44.6303537 -60.9375 42.4375 C-60.67259766 40.64119141 -60.67259766 40.64119141 -60.40234375 38.80859375 C-60.26957031 37.88175781 -60.13679688 36.95492187 -60 36 C-59.34 36 -58.68 36 -58 36 C-58 34.68 -58 33.36 -58 32 C-57.34 32 -56.68 32 -56 32 C-55.87625 31.236875 -55.7525 30.47375 -55.625 29.6875 C-55 27 -55 27 -53 24 C-52.34 24 -51.68 24 -51 24 C-50.89300781 23.40703125 -50.78601562 22.8140625 -50.67578125 22.203125 C-48.25182422 14.30074487 -37.66026275 8.84815181 -31 5 C-28.04530297 3.67531866 -25.14096463 2.76651063 -22 2 C-21.30777344 1.79761719 -20.61554687 1.59523438 -19.90234375 1.38671875 C-13.31224598 -0.371438 -6.77818192 -0.18857384 0 0 Z " fill="#8E8E8E" transform="translate(82,19)"/>
<path d="M0 0 C7.82712652 -0.1253941 13.2387999 2.68196914 19 8 C20.80323866 9.98732799 22.5601729 12.00783196 24.3046875 14.046875 C26.4231094 16.48745323 28.68516033 18.74607716 31 21 C41 31 51 41 61 51 C61.845625 51.825 62.69125 52.65 63.5625 53.5 C68.43990416 58.50246581 71.95472479 62.46098754 72.046875 69.6640625 C72.03140625 70.76492187 72.0159375 71.86578125 72 73 C64.0810395 72.89256716 56.16217718 72.77994786 48.24338722 72.66066074 C44.56658571 72.60543811 40.88977624 72.55201919 37.21289062 72.50268555 C33.66614134 72.45503221 30.11948974 72.40268909 26.5728569 72.34705925 C25.2180664 72.32664008 23.86324912 72.30792626 22.50841141 72.29092598 C20.61443211 72.26687261 18.72053957 72.23625617 16.82666016 72.20532227 C15.74744293 72.18977798 14.66822571 72.1742337 13.55630493 72.15821838 C11 72 11 72 9 71 C9 70.34 9 69.68 9 69 C8.2575 68.979375 7.515 68.95875 6.75 68.9375 C3.46210009 67.81662503 2.43744798 66.4101931 0.82043457 63.39108276 C-0.98467908 58.13024138 -0.47800766 52.46729917 -0.390625 46.97265625 C-0.38315366 45.61503436 -0.37746495 44.2574016 -0.37347412 42.89976501 C-0.35828762 39.3468893 -0.31906839 35.79467998 -0.2746582 32.24206543 C-0.23355303 28.60873425 -0.21543079 24.97529414 -0.1953125 21.34179688 C-0.15256556 14.22759392 -0.08440093 7.11384074 0 0 Z " fill="#8D8D8D" transform="translate(209,19)"/>
<path d="M0 0 C5.77198887 4.76189082 10.05879747 10.76460875 12 18 C12.66 18 13.32 18 14 18 C14.495 19.485 14.495 19.485 15 21 C15.66 21.33 16.32 21.66 17 22 C17.0825 21.484375 17.165 20.96875 17.25 20.4375 C18.32140225 16.95544268 20.13523605 14.12799115 22 11 C22.66 11 23.32 11 24 11 C24 10.34 24 9.68 24 9 C24.66 9 25.32 9 26 9 C26.33 7.02 26.66 5.04 27 3 C27.66 3 28.32 3 29 3 C29 2.34 29 1.68 29 1 C35.8364236 -0.67912159 35.8364236 -0.67912159 39.0546875 1.19921875 C41.49724031 3.29211151 43.55216354 5.10432707 45 8 C45.63107666 8.29745117 46.26215332 8.59490234 46.91235352 8.90136719 C49.32820129 10.17271732 49.97330691 11.29617536 51.40234375 13.578125 C53.53167962 16.16035449 54.6112071 16.9183671 57.93017578 17.61523438 C61.48923968 17.80614595 64.99908967 17.82183533 68.5625 17.75 C70.9804081 17.73209904 73.39844499 17.72641682 75.81640625 17.734375 C76.88318604 17.71600586 77.94996582 17.69763672 79.04907227 17.67871094 C82.44330087 18.0482654 84.28667831 18.95790539 87 21 C88.32309748 24.5912646 87.94098787 27.34060273 87 31 C83.50102722 32.16632426 80.30770679 32.19931108 76.6640625 32.23828125 C75.94769623 32.246353 75.23132996 32.25442474 74.49325562 32.26274109 C72.97860111 32.27655713 71.46391579 32.28729036 69.94921875 32.29516602 C68.40322729 32.30669599 66.85727594 32.32716421 65.31152344 32.35668945 C63.07459539 32.39941354 60.83884813 32.41553948 58.6015625 32.42578125 C57.91494537 32.44328934 57.22832825 32.46079742 56.52090454 32.47883606 C52.94151813 32.46274115 51.07083899 32.04527859 48.02490234 30.09838867 C46 28 46 28 46 26 C45.443125 25.773125 44.88625 25.54625 44.3125 25.3125 C41.36753316 23.64103234 39.31843456 21.44723648 37 19 C33.44827048 20.18390984 33.02710879 21.05041329 31.0625 24.125 C30.53785156 24.93710938 30.01320312 25.74921875 29.47265625 26.5859375 C28.23649493 28.61232397 27.10491316 30.6511273 26 32.75 C23.59338908 36.66074275 21.85647715 38.50463244 18 41 C14.375 41.625 14.375 41.625 11 41 C8.18077315 38.40935912 7.12561915 36.3842468 5.9375 32.75 C5.628125 31.8425 5.31875 30.935 5 30 C4.01 29.67 3.02 29.34 2 29 C0.8125 25.9375 0.8125 25.9375 0 23 C-0.66 23 -1.32 23 -2 23 C-2 21.68 -2 20.36 -2 19 C-4.33538907 18.96127313 -4.33538907 18.96127313 -7 20 C-8.25633512 21.4628645 -8.25633512 21.4628645 -9.375 23.25 C-11.93950764 27.11673425 -14.64378652 30.17750252 -19 32 C-21.90895669 32.10717209 -24.12464996 31.65578159 -27 31 C-28.10826198 26.0621991 -28.69640388 23.11846684 -25.9375 18.6875 C-23 16 -23 16 -20.0625 14.125 C-16.59246102 11.71721785 -14.72961357 9.1742747 -12.39453125 5.70703125 C-11 4 -11 4 -8 3 C-8 2.34 -8 1.68 -8 1 C-4.90786415 -0.03071195 -3.21050376 -0.45864339 0 0 Z " fill="#32343E" transform="translate(153,209)"/>
<path d="M0 0 C1.08113571 -0.00274933 2.16227142 -0.00549866 3.27616882 -0.0083313 C4.46227753 -0.00114075 5.64838623 0.0060498 6.87043762 0.01345825 C8.74378029 0.01302017 8.74378029 0.01302017 10.65496826 0.01257324 C14.0803955 0.0137288 17.5055824 0.02376718 20.93096709 0.03772116 C24.51041822 0.0502139 28.08987247 0.05139786 31.66934204 0.05377197 C38.44788921 0.05999103 45.22637195 0.07640759 52.00489074 0.09647095 C59.72185399 0.11881672 67.43882031 0.12982005 75.15580785 0.13986182 C91.03052971 0.16077346 106.90518728 0.19595769 122.77986145 0.24050903 C122.77986145 1.23050903 122.77986145 2.22050903 122.77986145 3.24050903 C123.76986145 3.57050903 124.75986145 3.90050903 125.77986145 4.24050903 C126.52986145 7.49050903 126.52986145 7.49050903 126.77986145 11.24050903 C124.78936506 13.89951341 123.56983626 15.08311878 120.28140926 15.73828697 C119.33770253 15.73719744 118.3939958 15.7361079 117.42169189 15.73498535 C116.33510284 15.74337433 115.24851379 15.75176331 114.1289978 15.76040649 C112.94184677 15.74916748 111.75469574 15.73792847 110.53157043 15.72634888 C108.65060669 15.73204391 108.65060669 15.73204391 106.73164368 15.737854 C103.29547957 15.74399449 99.8602776 15.73225357 96.42422748 15.71194792 C92.82883473 15.69437258 89.23345795 15.69790207 85.63803101 15.69866943 C79.60131633 15.6967969 73.56480284 15.67943846 67.52815247 15.65213013 C60.54689964 15.62066553 53.56586703 15.61013445 46.58454841 15.61160123 C39.8697405 15.61282153 33.15500434 15.60261397 26.44021797 15.58601761 C23.58182783 15.57895326 20.72346307 15.57529131 17.86506462 15.57423019 C13.87621639 15.57184982 9.88755165 15.55243321 5.89875793 15.53103638 C4.11499504 15.53239594 4.11499504 15.53239594 2.29519653 15.53378296 C0.66954269 15.52098801 0.66954269 15.52098801 -0.98895264 15.50793457 C-1.93228234 15.50458288 -2.87561205 15.50123119 -3.8475275 15.49777794 C-6.22013855 15.24050903 -6.22013855 15.24050903 -9.22013855 13.24050903 C-10.17744574 9.92675338 -10.38097395 7.83023883 -9.47013855 4.49050903 C-7.1208016 0.26170252 -4.47091139 -0.00875791 0 0 Z " fill="#ECF4F7" transform="translate(115.22013854980469,169.75949096679688)"/>
<path d="M0 0 C1.05141678 -0.00990463 2.10283356 -0.01980927 3.18611145 -0.03001404 C4.32912216 -0.02551239 5.47213287 -0.02101074 6.64978027 -0.01637268 C8.46762276 -0.02666756 8.46762276 -0.02666756 10.32218933 -0.03717041 C13.63842889 -0.05232018 16.95410564 -0.05393702 20.27033806 -0.04822803 C23.04127797 -0.04513421 25.81216715 -0.05123064 28.58309984 -0.05726677 C35.12050644 -0.07130443 41.65778233 -0.06975665 48.19519043 -0.05836487 C54.93510707 -0.04687961 61.67462598 -0.06096751 68.41449022 -0.08776134 C74.20658177 -0.10992355 79.99854852 -0.11655473 85.79067945 -0.11068493 C89.24774167 -0.10731591 92.70454884 -0.1097266 96.16157532 -0.12693596 C100.01587505 -0.14528652 103.86968599 -0.13121259 107.72399902 -0.11402893 C109.43851509 -0.12853088 109.43851509 -0.12853088 111.18766785 -0.14332581 C118.95406759 -0.07068493 118.95406759 -0.07068493 122.93457031 2.41903687 C123.51283569 3.06868912 124.09110107 3.71834137 124.68688965 4.38768005 C124.16420499 7.15044183 123.57819378 9.71376765 122.68688965 12.38768005 C117.09212795 15.21455819 110.88928808 14.66851389 104.77819824 14.64646912 C102.98698799 14.65172607 102.98698799 14.65172607 101.15959167 14.65708923 C97.89733051 14.66436648 94.63523253 14.662685 91.37297392 14.65633106 C87.95422247 14.65125404 84.53548163 14.65596702 81.11672974 14.65910339 C75.37870334 14.6627371 69.64072852 14.65795857 63.90270996 14.64842224 C57.27135576 14.63752843 50.64012446 14.64107234 44.00877321 14.65207505 C38.30926314 14.66115254 32.60979006 14.66243126 26.9102751 14.65719771 C23.50866851 14.65408188 20.10711969 14.65365823 16.70551682 14.66027069 C12.91585669 14.6653373 9.12643436 14.65762394 5.33679199 14.64646912 C3.64729179 14.65254181 3.64729179 14.65254181 1.92366028 14.65873718 C0.89189163 14.65309753 -0.13987701 14.64745789 -1.20291138 14.64164734 C-2.09847559 14.64089329 -2.9940398 14.64013924 -3.91674232 14.63936234 C-6.47166818 14.37102727 -8.1108562 13.6772681 -10.31311035 12.38768005 C-10.4484781 10.95278197 -10.54528178 9.51420899 -10.62561035 8.07518005 C-10.68361816 7.27467224 -10.74162598 6.47416443 -10.8013916 5.6493988 C-10.31311035 3.38768005 -10.31311035 3.38768005 -8.11466217 1.77055264 C-5.10584755 0.28537317 -3.32610554 0.00887469 0 0 Z " fill="#ECF4F8" transform="translate(117.3131103515625,133.61231994628906)"/>
<path d="M0 0 C2.5 2.0625 2.5 2.0625 5 5 C6.26467071 6.2355064 7.53574961 7.46448059 8.8125 8.6875 C10.64453125 10.44921875 10.64453125 10.44921875 12 12 C12 12.66 12 13.32 12 14 C13.32 14 14.64 14 16 14 C16.23589844 13.44828125 16.47179687 12.8965625 16.71484375 12.328125 C19.44869102 7.37562357 23.52875919 3.40908261 28 0 C31.19563896 -0.88687416 33.81716981 -0.96033669 37 0 C39.38769025 2.38769025 39.48410117 3.3217184 39.75 6.625 C39.71292532 10.28480013 39.37013457 11.59454984 36.87109375 14.33203125 C34.31304687 16.33899961 31.68524327 18.1689601 29 20 C27.07935842 21.28223854 27.07935842 21.28223854 26 23 C25.95023795 26.71349299 27.01231395 28.014087 29.46875 30.82421875 C30.46922765 31.78905934 31.48001402 32.74330643 32.5 33.6875 C38.91203078 39.76843096 38.91203078 39.76843096 39.25 44.5 C39.1675 45.655 39.085 46.81 39 48 C35.17798542 50.54800972 33.53385176 50.68007776 29 50 C26.3185967 47.96897963 24.18411876 45.54726139 22 43 C18.76784943 39.10413799 18.76784943 39.10413799 14.2109375 37.49609375 C9.77045428 38.19295791 7.96352929 40.73830356 5.1875 44 C-0.02167228 49.71929837 -0.02167228 49.71929837 -3.77734375 50.796875 C-6.25 50.75 -6.25 50.75 -10 50 C-11.47075246 45.58774263 -12.36884358 42.51718381 -11 38 C-10.34 38 -9.68 38 -9 38 C-9 37.34 -9 36.68 -9 36 C-7.35648543 34.63823078 -5.68477344 33.31037934 -4 32 C0.30542324 28.2370748 0.30542324 28.2370748 2 23 C1.4225 22.7525 0.845 22.505 0.25 22.25 C-2.32939979 20.81700012 -4.06121592 19.21575324 -6 17 C-6 16.34 -6 15.68 -6 15 C-6.99 14.67 -7.98 14.34 -9 14 C-11.76159346 10.36632439 -11.14498705 6.34961164 -11 2 C-7.33755697 -0.34396354 -4.27605847 -0.52512999 0 0 Z " fill="#E8EEEF" transform="translate(61,50)"/>
<path d="M0 0 C9.14626039 -0.14543524 18.19827606 0.22391777 27.32421875 0.78125 C29.21420664 0.89372537 31.1066683 1 33 1 C33 1.66 33 2.32 33 3 C34.32 2.67 35.64 2.34 37 2 C37.95024979 5.69541586 37.95024979 8.30458414 37 12 C31.57716425 13.80761192 25.57971305 13.30557215 19.89428711 13.35009766 C18.34140054 13.36668172 16.78859107 13.39400458 15.23608398 13.43212891 C12.99162424 13.48691249 10.74894449 13.50876661 8.50390625 13.5234375 C7.81212784 13.54610687 7.12034943 13.56877625 6.40760803 13.59213257 C2.70637993 13.57592135 1.25655455 13.24014332 -1.48461914 10.67431641 C-3 8 -3 8 -2.75 4.6875 C-2.37875 3.3571875 -2.37875 3.3571875 -2 2 C-1.34 2 -0.68 2 0 2 C0 1.34 0 0.68 0 0 Z " fill="#2E313B" transform="translate(203,228)"/>
<path d="M0 0 C0.66 0 1.32 0 2 0 C2.8353125 1.6396875 2.8353125 1.6396875 3.6875 3.3125 C5.93373741 7.24143116 8.35562128 9.11793408 12.68722916 10.56279659 C15.95615834 11.18075102 19.19075957 11.13388381 22.5043335 11.12025452 C23.26320838 11.12110894 24.02208327 11.12196337 24.80395436 11.12284368 C27.34816803 11.1244915 29.89231584 11.11898851 32.43652344 11.11352539 C34.25975035 11.11324334 36.08297738 11.1134016 37.90620422 11.1139679 C42.85829869 11.11425518 47.810369 11.10836951 52.76245785 11.10139394 C57.93679113 11.095149 63.11112495 11.0945557 68.28546143 11.09336853 C78.08493171 11.09025859 87.88439087 11.08204972 97.68385625 11.07201904 C108.83972074 11.06084747 119.99558576 11.05534482 131.15145445 11.05032361 C154.10097581 11.03986684 177.05048728 11.02227389 200 11 C199.67 11.99 199.34 12.98 199 14 C174.9826417 14.0700669 150.96529871 14.12297684 126.94785881 14.15543652 C115.79625915 14.17090839 104.64472298 14.1920041 93.49316406 14.22631836 C83.77398484 14.25621082 74.05485159 14.27557267 64.33562768 14.28226548 C59.18890258 14.28617798 54.04230903 14.29537969 48.89562607 14.31719017 C44.05133942 14.33755284 39.20723851 14.34383421 34.36291313 14.33932304 C32.58515984 14.34014834 30.80740034 14.34611529 29.02968407 14.35761642 C26.60117572 14.37255721 24.1733673 14.36894802 21.74484253 14.36076355 C21.04249414 14.36950207 20.34014576 14.3782406 19.61651409 14.38724393 C15.00950272 14.34531916 11.96384337 13.29774644 8 11 C6.88625 10.505 6.88625 10.505 5.75 10 C4 9 4 9 2 6 C2 5.01 2 4.02 2 3 C1.34 3 0.68 3 0 3 C0 2.01 0 1.02 0 0 Z " fill="#999A9A" transform="translate(67,267)"/>
<path d="M0 0 C17.02846441 -0.02334524 34.05692384 -0.04098718 51.08540058 -0.05181217 C58.99175361 -0.05697167 66.89809671 -0.06400779 74.80444336 -0.07543945 C81.69443477 -0.08539684 88.58441898 -0.09185595 95.47441739 -0.09408849 C99.12366863 -0.0953938 102.77289928 -0.09846834 106.42214394 -0.10573006 C110.49278304 -0.11376485 114.5633862 -0.11399045 118.6340332 -0.11352539 C119.84819412 -0.11712067 121.06235504 -0.12071594 122.31330872 -0.12442017 C123.41968689 -0.1230455 124.52606506 -0.12167084 125.66596985 -0.12025452 C127.11088035 -0.12163721 127.11088035 -0.12163721 128.58498096 -0.12304783 C131.6934584 0.03533245 133.4886427 0.50690546 135.75 2.6875 C137.46055104 5.85201942 136.94279323 7.59143987 136 11 C133.46052739 14.80920891 132.44131503 14.98985934 128 16 C123.94653614 16.27542038 119.90561914 16.2525056 115.84423828 16.22705078 C114.01412956 16.22748886 114.01412956 16.22748886 112.14704895 16.22793579 C108.81476779 16.22678407 105.48273674 16.21677778 102.15049982 16.20278788 C98.66315611 16.19025573 95.1758088 16.18910806 91.68844604 16.18673706 C85.09061922 16.18052957 78.49285894 16.1641287 71.89506137 16.14403808 C64.3811689 16.12165627 56.86727318 16.11067992 49.35335565 16.10064721 C33.9021986 16.07976179 18.45110789 16.04460009 3 16 C2.67 15.34 2.34 14.68 2 14 C2.64329474 14.00092179 3.28658949 14.00184359 3.94937801 14.00279331 C19.5802887 14.02484855 35.21119399 14.04141155 50.84211636 14.05181217 C58.40101619 14.05697512 65.95990565 14.0640178 73.51879883 14.07543945 C80.10479666 14.08538632 86.69078698 14.09185343 93.27679211 14.09408849 C96.76613071 14.0953956 100.25544784 14.09848142 103.74477959 14.10573006 C107.63381232 14.11374398 111.52282378 14.11399114 115.41186523 14.11352539 C117.15973579 14.1189183 117.15973579 14.1189183 118.94291687 14.12442017 C119.99606079 14.1230455 121.04920471 14.12167084 122.13426208 14.12025452 C123.05513328 14.12117631 123.97600447 14.1220981 124.92478085 14.12304783 C126.99029255 14.23104526 126.99029255 14.23104526 128 13 C129.66617115 12.95936168 131.33388095 12.957279 133 13 C133.33 10.36 133.66 7.72 134 5 C130.87779244 2.2476328 128.93769934 1.625018 124.80041504 1.6257782 C123.74892776 1.61876389 122.69744049 1.61174957 121.61408997 1.60452271 C120.46591293 1.61216644 119.3177359 1.61981018 118.13476562 1.62768555 C116.31473274 1.62220955 116.31473274 1.62220955 114.45793152 1.61662292 C111.1334208 1.60990597 107.80946978 1.61663082 104.48501396 1.62995505 C101.0048608 1.64127847 97.52472196 1.63716136 94.04455566 1.63520813 C88.20039049 1.63432543 82.35634138 1.64540036 76.51220703 1.66381836 C69.75705655 1.68498566 63.00207606 1.68849573 56.24689913 1.6822564 C49.74674518 1.67656016 43.24665106 1.68221146 36.74650574 1.69342995 C33.98104241 1.69807249 31.2156157 1.69895128 28.45014954 1.6968441 C24.58844683 1.6946094 20.72690558 1.70907555 16.86523438 1.7253418 C15.71705734 1.72286438 14.56888031 1.72038696 13.38591003 1.71783447 C11.80867912 1.72846169 11.80867912 1.72846169 10.19958496 1.73930359 C8.83021915 1.74238289 8.83021915 1.74238289 7.43318939 1.74552441 C4.79778729 2.02114846 3.18517358 2.50376927 1 4 C0.18415432 7.05908413 0.18415432 7.05908413 0 10 C-0.66 9.67 -1.32 9.34 -2 9 C-1.51421457 5.87709365 -1.0013988 3.00419641 0 0 Z " fill="#CCCDCE" transform="translate(107,133)"/>
<path d="M0 0 C1.08251038 -0.00412399 2.16502075 -0.00824799 3.28033447 -0.01249695 C4.4628479 -0.00171112 5.64536133 0.00907471 6.8637085 0.02018738 C8.7372702 0.01953026 8.7372702 0.01953026 10.64868164 0.01885986 C14.0700365 0.02059142 17.49084786 0.03563331 20.91210651 0.05658174 C24.4888734 0.07533953 28.06564757 0.07709826 31.64245605 0.08065796 C38.41392558 0.08998108 45.18524974 0.11459841 51.95665526 0.14470643 C59.66637524 0.17824217 67.37610218 0.19473436 75.08587694 0.20979273 C90.94387111 0.24114779 106.80172028 0.2939134 122.65960693 0.36076355 C122.65960693 1.35076355 122.65960693 2.34076355 122.65960693 3.36076355 C123.64960693 3.69076355 124.63960693 4.02076355 125.65960693 4.36076355 C125.98960693 6.67076355 126.31960693 8.98076355 126.65960693 11.36076355 C125.99960693 11.69076355 125.33960693 12.02076355 124.65960693 12.36076355 C124.55648193 11.24701355 124.45335693 10.13326355 124.34710693 8.98576355 C124.12023193 7.78951355 123.89335693 6.59326355 123.65960693 5.36076355 C120.37471452 3.17083528 119.43262404 3.11123376 115.62496948 3.11352539 C114.58471619 3.1093309 113.54446289 3.10513641 112.47268677 3.10081482 C111.33183624 3.10643433 110.19098572 3.11205383 109.01556396 3.11784363 C107.8137146 3.11594528 106.61186523 3.11404694 105.37359619 3.11209106 C102.07592945 3.1090179 98.77851266 3.11490072 95.48087549 3.12504411 C92.02921356 3.13382724 88.57755584 3.13206708 85.12588501 3.13168335 C79.32704405 3.13262017 73.52825539 3.14130501 67.72943115 3.154953 C61.02945548 3.17066389 54.32953714 3.17595161 47.62954438 3.17521745 C40.49408011 3.17454121 33.3586379 3.18148869 26.22318029 3.19066405 C24.1690713 3.19279309 22.11496587 3.19350493 20.06085587 3.19390297 C16.22802972 3.1950968 12.39525095 3.20482009 8.56243896 3.21549988 C6.85723587 3.2148201 6.85723587 3.2148201 5.11758423 3.21412659 C4.07169128 3.21839157 3.02579834 3.22265656 1.94821167 3.22705078 C0.58934184 3.22956455 0.58934184 3.22956455 -0.7969799 3.2321291 C-3.39854446 3.36370459 -5.80296789 3.78573293 -8.34039307 4.36076355 C-8.34039307 7.33076355 -8.34039307 10.30076355 -8.34039307 13.36076355 C-10.34039307 10.36076355 -10.34039307 10.36076355 -10.21539307 6.86076355 C-9.34039307 3.36076355 -9.34039307 3.36076355 -7.61948013 1.66456127 C-4.85986073 0.08586533 -3.16845894 -0.009319 0 0 Z " fill="#D3D7D8" transform="translate(115.34039306640625,169.6392364501953)"/>
<path d="M0 0 C0.33 0 0.66 0 1 0 C1.29873753 27.80468348 1.57914013 55.60947126 1.82377625 83.41468811 C1.84392686 85.70110081 1.86409362 87.98751337 1.88427734 90.27392578 C1.89400353 91.37639995 1.90372972 92.47887411 1.91375065 93.61475658 C1.97913905 100.92844825 2.05524927 108.24196127 2.13792992 115.55547523 C2.20442698 121.53130418 2.25146742 127.50705111 2.28710938 133.4831543 C2.30390892 135.76869956 2.32772597 138.05420503 2.35888672 140.33959961 C2.39989424 143.42322707 2.41631 146.505983 2.42578125 149.58984375 C2.44324905 150.44650131 2.46071686 151.30315887 2.47871399 152.18577576 C2.4554517 158.57096922 0.87393701 163.83070576 -3.48295593 168.63536072 C-5.0625 170.0625 -5.0625 170.0625 -8 172 C-8.99 171.67 -9.98 171.34 -11 171 C-10.01 170.67 -9.02 170.34 -8 170 C-8 169.34 -8 168.68 -8 168 C-7.01 167.67 -6.02 167.34 -5 167 C-3.87914688 164.6569191 -3.87914688 164.6569191 -3 162 C-2.65518333 161.36786811 -2.31036667 160.73573622 -1.95510101 160.08444881 C-0.92181107 157.82935749 -0.75959359 156.42330737 -0.78088379 153.96131897 C-0.78262604 153.16406717 -0.78436829 152.36681538 -0.78616333 151.54540443 C-0.79807709 150.67714216 -0.80999084 149.80887989 -0.82226562 148.91430664 C-0.82648529 147.98985937 -0.83070496 147.0654121 -0.83505249 146.11295128 C-0.84507512 144.09272066 -0.85952734 142.07250838 -0.87782288 140.05233574 C-0.92708645 134.49869759 -0.94149643 128.94492195 -0.9609375 123.39111328 C-0.96589485 122.2196535 -0.9708522 121.04819372 -0.97595978 119.84123516 C-1.02461302 106.68352268 -0.90930872 93.52808221 -0.78125 80.37109375 C-0.75868043 77.96977768 -0.73613813 75.56846136 -0.71362305 73.16714478 C-0.65643661 67.14713649 -0.59672288 61.12715568 -0.53643799 55.10717773 C-0.47436679 48.85597381 -0.41505972 42.6047436 -0.35546875 36.35351562 C-0.23957125 24.23565102 -0.120798 12.11781668 0 0 Z " fill="#B1B1B1" transform="translate(279,107)"/>
<path d="M0 0 C2.375 0.6875 2.375 0.6875 5 2 C6.3125 4.625 6.3125 4.625 7 7 C6.01 7.66 5.02 8.32 4 9 C4.66 9.66 5.32 10.32 6 11 C5.84076801 14.10502372 5.42490203 15.55992289 3.25 17.8125 C0.62847443 19.19608294 -1.07674878 19.24360427 -4 19 C-4.33 18.01 -4.66 17.02 -5 16 C-5.99 15.67 -6.98 15.34 -8 15 C-8.33 12.69 -8.66 10.38 -9 8 C-10.32 7.67 -11.64 7.34 -13 7 C-12.67 5.68 -12.34 4.36 -12 3 C-11.29875 3.226875 -10.5975 3.45375 -9.875 3.6875 C-6.10265715 4.09753727 -4.21500569 2.89977609 -1 1 C-0.67 0.67 -0.34 0.34 0 0 Z " fill="#2D303A" transform="translate(170,231)"/>
<path d="M0 0 C-1.32 1.32 -2.64 2.64 -4 4 C-4.66 3.67 -5.32 3.34 -6 3 C-6.33 3.33 -6.66 3.66 -7 4 C-7.66 4.45375 -8.32 4.9075 -9 5.375 C-11.27323128 6.92490134 -11.27323128 6.92490134 -12 10 C-12.66 10 -13.32 10 -14 10 C-14.2475 10.61875 -14.495 11.2375 -14.75 11.875 C-16.20628639 14.35068687 -17.37812506 14.95125002 -20 16 C-20 16.66 -20 17.32 -20 18 C-19.34 18.33 -18.68 18.66 -18 19 C-17.4375 20.9375 -17.4375 20.9375 -17 23 C-16.67 23.66 -16.34 24.32 -16 25 C-15.01 25 -14.02 25 -13 25 C-13.33 23.68 -13.66 22.36 -14 21 C-12.68 21.66 -11.36 22.32 -10 23 C-11.27553894 26.82661683 -13.76056358 28.87032074 -16.98046875 31.09375 C-20.5231745 32.68351351 -23.29120196 31.84586622 -27 31 C-28.10826198 26.0621991 -28.69640388 23.11846684 -25.9375 18.6875 C-23 16 -23 16 -20.0625 14.125 C-16.59246102 11.71721785 -14.72961357 9.1742747 -12.39453125 5.70703125 C-11 4 -11 4 -8 3 C-8 2.34 -8 1.68 -8 1 C-5.07175348 0.02391783 -3.04386724 -0.08226668 0 0 Z " fill="#343740" transform="translate(153,209)"/>
<path d="M0 0 C2.83685756 1.30979638 5.08843357 2.75638873 7.4375 4.8125 C7.99308594 5.29332031 8.54867187 5.77414063 9.12109375 6.26953125 C11 8 11 8 13.09472656 10.57763672 C16.8301363 13.6921523 19.72162106 13.64555129 24.36328125 13.48828125 C25.15526413 13.48120651 25.94724701 13.47413177 26.76322937 13.46684265 C29.28063389 13.43896244 31.79577356 13.376242 34.3125 13.3125 C36.0240563 13.28740861 37.73564765 13.26459691 39.44726562 13.24414062 C43.63237654 13.18915747 47.81580496 13.10293418 52 13 C52 9.7 52 6.4 52 3 C54 5 54 5 54.3125 8.3125 C53.98406536 12.18802878 53.11276853 13.8308472 51 17 C51 17.99 51 18.98 51 20 C47.125 18.25 47.125 18.25 46 16 C45.09233887 15.9906543 44.18467773 15.98130859 43.24951172 15.97167969 C39.86073186 15.92749516 36.47318774 15.86580889 33.08496094 15.79248047 C31.62251295 15.7643689 30.1599158 15.74310569 28.69726562 15.72900391 C26.58646831 15.70743581 24.47744571 15.66072344 22.3671875 15.609375 C21.09987793 15.58842773 19.83256836 15.56748047 18.52685547 15.54589844 C14.26127816 14.88565817 12.37175211 13.60482599 9 11 C8.01 11.495 8.01 11.495 7 12 C6.34 11.67 5.68 11.34 5 11 C5 9.68 5 8.36 5 7 C4.34 6.34 3.68 5.68 3 5 C1.9171875 6.0828125 1.9171875 6.0828125 0.8125 7.1875 C-0.96878046 8.96878046 -2.75936583 10.74084472 -4.5625 12.5 C-8.86813981 16.84006347 -8.86813981 16.84006347 -11.82421875 22.10546875 C-13 24 -13 24 -15.1640625 24.609375 C-15.97617188 24.65578125 -16.78828125 24.7021875 -17.625 24.75 C-18.44226563 24.80671875 -19.25953125 24.8634375 -20.1015625 24.921875 C-20.72804687 24.94765625 -21.35453125 24.9734375 -22 25 C-22.33 24.34 -22.66 23.68 -23 23 C-21.80375 22.814375 -20.6075 22.62875 -19.375 22.4375 C-13.5881803 20.98568304 -10.9243504 17.14704235 -7.91796875 12.23046875 C-7.26982993 11.08654247 -6.63411674 9.93547673 -6.01171875 8.77734375 C-4.24864136 5.68004564 -2.10837349 2.86973059 0 0 Z " fill="#929395" transform="translate(188,227)"/>
<path d="M0 0 C0 0.66 0 1.32 0 2 C-2.64 2.33 -5.28 2.66 -8 3 C-8 3.66 -8 4.32 -8 5 C-9.0828125 5.8353125 -9.0828125 5.8353125 -10.1875 6.6875 C-12.58178235 8.65613215 -13.69081297 9.87627814 -15.3125 12.375 C-17.76628753 16.0204032 -20.72838613 18.26853559 -24.328125 20.73828125 C-26.141356 21.91225977 -26.141356 21.91225977 -27 24 C-27.06950541 25.54023996 -27.08452357 27.08334988 -27.0625 28.625 C-27.04896484 29.85089844 -27.04896484 29.85089844 -27.03515625 31.1015625 C-27.02355469 31.72804687 -27.01195313 32.35453125 -27 33 C-21.28811208 33.5010428 -18.1247145 33.15666246 -13.58984375 29.578125 C-11.90022469 27.90096013 -10.67408956 26.17862792 -9.375 24.1875 C-7 21 -7 21 -4.1875 20.5625 C-3.465625 20.706875 -2.74375 20.85125 -2 21 C-2.33 21.66 -2.66 22.32 -3 23 C-3.99 23 -4.98 23 -6 23 C-5.938125 24.093125 -5.87625 25.18625 -5.8125 26.3125 C-6 30 -6 30 -7.125 31.9375 C-9.75786749 33.42945824 -12.01867948 33.06343235 -15 33 C-15.66 33.66 -16.32 34.32 -17 35 C-21.08807128 35.60768627 -24.83132189 35.57008688 -28.5625 33.75 C-30 32 -30 32 -30 28 C-30.99 27.67 -31.98 27.34 -33 27 C-31.19587357 23.73539027 -30.16605307 22.11070205 -27 20 C-26.67 19.01 -26.34 18.02 -26 17 C-25.401875 16.896875 -24.80375 16.79375 -24.1875 16.6875 C-20.80141212 15.62330095 -19.87030069 12.89594946 -18 10 C-17.01 9.67 -16.02 9.34 -15 9 C-14.67 8.01 -14.34 7.02 -14 6 C-13.34 6 -12.68 6 -12 6 C-11.67 4.68 -11.34 3.36 -11 2 C-11 2.66 -11 3.32 -11 4 C-10.34 4 -9.68 4 -9 4 C-9 3.34 -9 2.68 -9 2 C-5.5647952 -0.29013653 -4.014669 -0.17842973 0 0 Z " fill="#8D8F92" transform="translate(153,207)"/>
<path d="M0 0 C42.24 0 84.48 0 128 0 C128 0.33 128 0.66 128 1 C127.05466715 1.00496522 127.05466715 1.00496522 126.09023666 1.01003075 C110.75861525 1.09123576 95.42710369 1.18331994 80.09562302 1.28752708 C72.68144546 1.33765818 65.267279 1.38410102 57.85302734 1.421875 C51.39109383 1.45480647 44.9292462 1.49464403 38.46740746 1.54279006 C35.04561498 1.56804364 31.62387939 1.58982823 28.20201874 1.60334396 C24.38292557 1.62016407 20.56410938 1.64918949 16.74511719 1.68115234 C15.60935745 1.68331253 14.47359772 1.68547272 13.30342102 1.68769836 C11.74276161 1.70444359 11.74276161 1.70444359 10.15057373 1.7215271 C9.24721661 1.72705786 8.34385948 1.73258862 7.4131279 1.73828697 C4.79236189 2.02251915 3.17604784 2.51406532 1 4 C0.18415432 7.05908413 0.18415432 7.05908413 0 10 C-0.66 9.67 -1.32 9.34 -2 9 C-1.51421457 5.87709365 -1.0013988 3.00419641 0 0 Z " fill="#DADBDC" transform="translate(107,133)"/>
<path d="M0 0 C2.0625 0.4375 2.0625 0.4375 4 1 C4 1.66 4 2.32 4 3 C4.66 3 5.32 3 6 3 C6.433125 3.928125 6.86625 4.85625 7.3125 5.8125 C8.72038627 8.47184073 9.76123556 10.08105905 12 12 C11.67 12.66 11.34 13.32 11 14 C9.906875 14.309375 8.81375 14.61875 7.6875 14.9375 C4.34157308 15.90158064 2.56326882 16.74432344 0 19 C-1.625 18 -1.625 18 -3 16 C-2.57362296 14.03210595 -2.1310186 12.06368025 -1.546875 10.13671875 C-0.7669983 7.08962908 -0.93618106 4.12712793 -1 1 C-0.67 0.67 -0.34 0.34 0 0 Z " fill="#A5A6A7" transform="translate(147,229)"/>
<path d="M0 0 C5 5 5 5 6.28930664 6.64038086 C8.81749625 8.64972694 10.86490516 8.40198382 14.05859375 8.44140625 C15.24904297 8.46783203 16.43949219 8.49425781 17.66601562 8.52148438 C18.91060547 8.53501953 20.15519531 8.54855469 21.4375 8.5625 C23.89466526 8.59696414 26.35173327 8.63958496 28.80859375 8.69140625 C29.89970459 8.70373291 30.99081543 8.71605957 32.11499023 8.72875977 C34.9359122 8.99397465 36.60270018 9.54246203 39 11 C38.67 11.66 38.34 12.32 38 13 C37.34 13 36.68 13 36 13 C36 12.34 36 11.68 36 11 C35.13375 11.185625 34.2675 11.37125 33.375 11.5625 C28.41555817 12.28533363 23.54894536 11.67731626 18.58203125 11.23828125 C15.31450748 11.02092144 12.20321987 11.08649305 8.9375 11.25 C5.03950576 11.28454648 4.17273279 11.11294067 0.75 8.875 C-1 6 -1 6 -0.8125 2.6875 C-0.544375 1.800625 -0.27625 0.91375 0 0 Z " fill="#484A52" transform="translate(200,218)"/>
<path d="M0 0 C0.33 0 0.66 0 1 0 C1.10169191 7.82866277 1.1715885 15.65715422 1.21972656 23.48632812 C1.23753649 26.14810247 1.26706285 28.80901028 1.30175781 31.47070312 C1.35045548 35.3034958 1.37301116 39.13570363 1.390625 42.96875 C1.41127014 44.15239136 1.43191528 45.33603271 1.45318604 46.55554199 C1.45521137 54.06736594 0.72007985 59.93346389 -4.48309326 65.62121582 C-6.0625 67.0625 -6.0625 67.0625 -9 69 C-9.99 68.67 -10.98 68.34 -12 68 C-10.515 67.505 -10.515 67.505 -9 67 C-9 66.34 -9 65.68 -9 65 C-7.515 64.505 -7.515 64.505 -6 64 C-4.87914688 61.6569191 -4.87914688 61.6569191 -4 59 C-3.66282959 58.40654785 -3.32565918 57.8130957 -2.97827148 57.20166016 C1.56301356 46.98121879 -0.67446248 30.72451606 -0.4375 19.625 C-0.39419032 17.71353462 -0.35057265 15.80207618 -0.30664062 13.890625 C-0.2008826 9.26048901 -0.09927043 4.63027944 0 0 Z " fill="#9B9B9B" transform="translate(280,210)"/>
<path d="M0 0 C2.31 0 4.62 0 7 0 C7 0.66 7 1.32 7 2 C7.639375 2.103125 8.27875 2.20625 8.9375 2.3125 C9.618125 2.539375 10.29875 2.76625 11 3 C11.33 3.99 11.66 4.98 12 6 C12.66 6 13.32 6 14 6 C14 6.66 14 7.32 14 8 C14.5775 8.28875 15.155 8.5775 15.75 8.875 C16.4925 9.24625 17.235 9.6175 18 10 C18.66 10.268125 19.32 10.53625 20 10.8125 C22 12 22 12 23.71777344 14.5300293 C25.80249578 17.25952078 25.80249578 17.25952078 29.02441406 17.65942383 C30.17651367 17.67513428 31.32861328 17.69084473 32.515625 17.70703125 C33.76601562 17.73603516 35.01640625 17.76503906 36.3046875 17.79492188 C37.60664063 17.80072266 38.90859375 17.80652344 40.25 17.8125 C41.56742188 17.83763672 42.88484375 17.86277344 44.2421875 17.88867188 C47.49509156 17.9476013 50.74664795 17.98384097 54 18 C54.495 19.98 54.495 19.98 55 22 C54.30181152 21.67273926 53.60362305 21.34547852 52.88427734 21.00830078 C49.66242978 19.88199044 47.25538727 19.80460388 43.8515625 19.8671875 C42.09585938 19.86332031 42.09585938 19.86332031 40.3046875 19.859375 C37.85916271 19.86975939 35.41362159 19.90347257 32.96875 19.9609375 C24.13395939 19.88326901 24.13395939 19.88326901 20.72949219 17.23144531 C18.8984375 15.0703125 18.8984375 15.0703125 17.44287109 12.91455078 C15.80150148 10.73661161 14.44986126 10.11423141 12 9 C10.29319053 7.37446717 8.62339805 5.70884005 7 4 C5.10244856 1.65026182 5.10244856 1.65026182 1.875 1.875 C0.92625 1.91625 -0.0225 1.9575 -1 2 C-0.67 1.34 -0.34 0.68 0 0 Z " fill="#898B8D" transform="translate(185,208)"/>
<path d="M0 0 C0.66 0.33 1.32 0.66 2 1 C-0.62711448 5.94515667 -4.26645294 9.87775489 -8 14 C-7.071875 14.1546875 -7.071875 14.1546875 -6.125 14.3125 C-4 15 -4 15 -2 18 C-2 18.99 -2 19.98 -2 21 C-2.99 21 -3.98 21 -5 21 C-5.33 21.99 -5.66 22.98 -6 24 C-7.875 23.8125 -7.875 23.8125 -10 23 C-11.48261414 20.11280405 -12.29772585 17.16023369 -13 14 C-12.195625 13.38125 -11.39125 12.7625 -10.5625 12.125 C-7.96125481 10.25835959 -7.96125481 10.25835959 -7 8 C-6.34 8 -5.68 8 -5 8 C-4.9175 7.38125 -4.835 6.7625 -4.75 6.125 C-4 4 -4 4 -1.9375 2.75 C-1.298125 2.5025 -0.65875 2.255 0 2 C0 1.34 0 0.68 0 0 Z " fill="#31343D" transform="translate(146,211)"/>
<path d="M0 0 C11.41935484 0 11.41935484 0 16.0625 2.9375 C18 5 18 5 18 7 C18.556875 7.2475 19.11375 7.495 19.6875 7.75 C22.42410913 9.22924818 24.67650869 10.93467439 27 13 C27 13.66 27 14.32 27 15 C27.99 15 28.98 15 30 15 C30 15.66 30 16.32 30 17 C26 17 26 17 24.25390625 15.42578125 C23.69574219 14.72839844 23.13757813 14.03101563 22.5625 13.3125 C21.95535156 12.58675781 21.34820312 11.86101563 20.72265625 11.11328125 C20.15417969 10.41589844 19.58570312 9.71851563 19 9 C15.56312166 4.77316451 15.56312166 4.77316451 10.4375 3.625 C7.83436311 3.90897857 5.48501445 4.20479538 3 5 C3.144375 6.27875 3.28875 7.5575 3.4375 8.875 C3.51871094 9.59429687 3.59992187 10.31359375 3.68359375 11.0546875 C3.91292961 13.07404316 3.91292961 13.07404316 5 15 C3.68 14.67 2.36 14.34 1 14 C1 11.03 1 8.06 1 5 C0.34 4.67 -0.32 4.34 -1 4 C-0.67 2.68 -0.34 1.36 0 0 Z " fill="#A3A4A4" transform="translate(47,47)"/>
<path d="M0 0 C2 2 2 2 2.3125 5.3125 C1.98406536 9.18802878 1.11276853 10.8308472 -1 14 C-1 14.99 -1 15.98 -1 17 C-4.875 15.25 -4.875 15.25 -6 13 C-7.36934692 12.97812622 -7.36934692 12.97812622 -8.76635742 12.95581055 C-12.16798611 12.89459205 -15.56882681 12.82041127 -18.9699707 12.73754883 C-20.43926422 12.70438741 -21.90868244 12.67632822 -23.37817383 12.65356445 C-25.49614368 12.61985481 -27.61297995 12.56753567 -29.73046875 12.51171875 C-31.63928833 12.47244263 -31.63928833 12.47244263 -33.58666992 12.43237305 C-37.19111049 11.97579167 -39.13322982 11.19439623 -42 9 C-42.8125 6.8125 -42.8125 6.8125 -43 5 C-42.34 5 -41.68 5 -41 5 C-40.30624268 5.8149292 -39.61248535 6.6298584 -38.89770508 7.46948242 C-35.17773567 10.71806974 -32.33747859 10.64755372 -27.63671875 10.48828125 C-26.44874443 10.47766914 -26.44874443 10.47766914 -25.23677063 10.46684265 C-22.71936611 10.43896244 -20.20422644 10.376242 -17.6875 10.3125 C-15.9759437 10.28740861 -14.26435235 10.26459691 -12.55273438 10.24414062 C-8.36762346 10.18915747 -4.18419504 10.10293418 0 10 C0 6.7 0 3.4 0 0 Z " fill="#6D6F75" transform="translate(240,230)"/>
<path d="M0 0 C0.66 0.66 1.32 1.32 2 2 C1.34 2 0.68 2 0 2 C0 1.34 0 0.68 0 0 Z M-13 2 C-11.329375 2.2475 -11.329375 2.2475 -9.625 2.5 C-6.27967967 3.0455458 -6.27967967 3.0455458 -4 3 C-2.66216607 3.31478446 -1.32796291 3.64587656 0 4 C-0.99 5.485 -0.99 5.485 -2 7 C0.475 7.495 0.475 7.495 3 8 C3 8.33 3 8.66 3 9 C-3.6 9 -10.2 9 -17 9 C-17 8.67 -17 8.34 -17 8 C-13.535 7.505 -13.535 7.505 -10 7 C-11.32 6.67 -12.64 6.34 -14 6 C-13.67 4.68 -13.34 3.36 -13 2 Z " fill="#C2C5C5" transform="translate(134,124)"/>
<path d="M0 0 C-1.32 1.32 -2.64 2.64 -4 4 C-4.66 3.67 -5.32 3.34 -6 3 C-6.33 3.33 -6.66 3.66 -7 4 C-7.66 4.45375 -8.32 4.9075 -9 5.375 C-11.27323128 6.92490134 -11.27323128 6.92490134 -12 10 C-12.66 10 -13.32 10 -14 10 C-14.2475 10.61875 -14.495 11.2375 -14.75 11.875 C-16.20628639 14.35068687 -17.37812506 14.95125002 -20 16 C-20 16.66 -20 17.32 -20 18 C-19.34 18.33 -18.68 18.66 -18 19 C-18.33 19.99 -18.66 20.98 -19 22 C-19.66 22 -20.32 22 -21 22 C-21.33 20.68 -21.66 19.36 -22 18 C-23.65 19.32 -25.3 20.64 -27 22 C-25.61721864 18.69825676 -24.21977675 17.20682964 -21.25 15.25 C-17.39853916 12.51693069 -14.92694732 9.55199812 -12.32421875 5.63671875 C-11 4 -11 4 -8 3 C-8 2.34 -8 1.68 -8 1 C-5.07175348 0.02391783 -3.04386724 -0.08226668 0 0 Z " fill="#44474E" transform="translate(153,209)"/>
<path d="M0 0 C0 0.99 0 1.98 0 3 C-1.33333333 4.33333333 -2.66666667 5.66666667 -4 7 C-4.6425235 9.06874034 -4.6425235 9.06874034 -5 11 C-6.32 11 -7.64 11 -9 11 C-9.28782392 7.94906643 -9.4359485 5.04087532 -9 2 C-5.98076111 -0.8515034 -3.88659295 -1.58342676 0 0 Z " fill="#E9EFF1" transform="translate(116,135)"/>
<path d="M0 0 C4.90607439 0.10012397 7.27206217 0.83156533 10.8125 4.3125 C13.10720337 6.73322827 14.54270015 9.01776191 16 12 C18.5654594 14.5654594 20.47686668 14.54046087 24 15 C24 15.33 24 15.66 24 16 C20.55347538 16.49236066 18.03601338 16.77536731 15.15234375 14.6171875 C13.36154156 12.7988345 11.66539899 10.93362431 10 9 C5.828178 4.42418866 5.828178 4.42418866 0 3 C0 2.01 0 1.02 0 0 Z " fill="#E0E4E5" transform="translate(73,84)"/>
<path d="M0 0 C3.16115776 1.36983503 3.9927092 1.9890638 6 5 C7.64821244 6.03013277 9.31503702 7.03114628 11 8 C13 10 13 10 13.125 13.625 C13.08375 14.73875 13.0425 15.8525 13 17 C11.35 17.33 9.7 17.66 8 18 C8.99 15.69 9.98 13.38 11 11 C10.13375 10.62875 10.13375 10.62875 9.25 10.25 C6.67060021 8.81700012 4.93878408 7.21575324 3 5 C3 4.34 3 3.68 3 3 C2.01 2.67 1.02 2.34 0 2 C0 1.34 0 0.68 0 0 Z " fill="#C7C9C9" transform="translate(52,62)"/>
<path d="M0 0 C0 1.65 0 3.3 0 5 C0.66 5.33 1.32 5.66 2 6 C1.67 6.66 1.34 7.32 1 8 C0.01 8 -0.98 8 -2 8 C-2.33 8.66 -2.66 9.32 -3 10 C-3.66 9.34 -4.32 8.68 -5 8 C-5.66 8.99 -6.32 9.98 -7 11 C-7.375 8.3125 -7.375 8.3125 -7 5 C-5.31436243 3.0410158 -2.69455205 0 0 0 Z " fill="#33363F" transform="translate(132,226)"/>
<path d="M0 0 C1 3 1 3 1 7 C0.0409375 7.2165625 0.0409375 7.2165625 -0.9375 7.4375 C-2.97545146 7.81007181 -2.97545146 7.81007181 -4 9 C-9.73611111 9.27314815 -9.73611111 9.27314815 -12 9 C-12.66 8.34 -13.32 7.68 -14 7 C-12.80375 6.95875 -11.6075 6.9175 -10.375 6.875 C-5.25286274 6.28258199 -3.2606938 3.83131521 0 0 Z " fill="#A3A4A5" transform="translate(66,93)"/>
<path d="M0 0 C0.66 0 1.32 0 2 0 C2 0.99 2 1.98 2 3 C3.98 3.66 5.96 4.32 8 5 C7.42655063 7.86724686 7.1385485 8.8614515 5 11 C5 10.34 5 9.68 5 9 C4.01 8.67 3.02 8.34 2 8 C1.67 7.01 1.34 6.02 1 5 C0.01 5 -0.98 5 -2 5 C-1.34 3.35 -0.68 1.7 0 0 Z " fill="#3D4048" transform="translate(175,220)"/>
<path d="M0 0 C0.66 0.33 1.32 0.66 2 1 C0.55089427 7.21045315 -1.34494898 11.00962876 -6.28125 15.1015625 C-6.8484375 15.39804687 -7.415625 15.69453125 -8 16 C-8.99 15.67 -9.98 15.34 -11 15 C-10.01 14.67 -9.02 14.34 -8 14 C-8 13.34 -8 12.68 -8 12 C-7.01 11.67 -6.02 11.34 -5 11 C-3.92745649 8.73774618 -3.92745649 8.73774618 -3 6 C-2.01517978 3.99248185 -1.01847486 1.99065541 0 0 Z " fill="#949494" transform="translate(279,263)"/>
<path d="M0 0 C2 2 2 2 2.3125 5.3125 C1.98406536 9.18802878 1.11276853 10.8308472 -1 14 C-1 14.99 -1 15.98 -1 17 C-2.9375 16.1875 -2.9375 16.1875 -5 15 C-5.33 14.01 -5.66 13.02 -6 12 C-3 10 -3 10 0 10 C0 6.7 0 3.4 0 0 Z " fill="#858689" transform="translate(240,230)"/>
<path d="M0 0 C1.32 0.33 2.64 0.66 4 1 C3.57847656 1.42410156 3.15695313 1.84820312 2.72265625 2.28515625 C-1.23246072 6.51945795 -2.7628617 9.19011172 -3 15 C-3.103125 14.360625 -3.20625 13.72125 -3.3125 13.0625 C-3.539375 12.381875 -3.76625 11.70125 -4 11 C-4.99 10.67 -5.98 10.34 -7 10 C-5.19587357 6.73539027 -4.16605307 5.11070205 -1 3 C-0.67 2.01 -0.34 1.02 0 0 Z " fill="#98999A" transform="translate(127,224)"/>
<path d="M0 0 C1.32 0.66 2.64 1.32 4 2 C2.54744301 5.82946843 0.57104439 7.12050295 -3 9 C-4.32 7.35 -5.64 5.7 -7 4 C-6.01 3.01 -5.02 2.02 -4 1 C-3.34 1.33 -2.68 1.66 -2 2 C-2 2.66 -2 3.32 -2 4 C-1.01 4 -0.02 4 1 4 C0.67 2.68 0.34 1.36 0 0 Z " fill="#42454C" transform="translate(139,230)"/>
<path d="M0 0 C1 3 1 3 -0.375 6.125 C-3.64572725 9.70722509 -5.50562699 9.76640131 -10.171875 9.9921875 C-11.07679688 9.99605469 -11.07679688 9.99605469 -12 10 C-12.33 9.34 -12.66 8.68 -13 8 C-11.783125 7.79375 -10.56625 7.5875 -9.3125 7.375 C-4.49526679 6.21133443 -2.77779328 3.99307785 0 0 Z " fill="#828487" transform="translate(178,242)"/>
<path d="M0 0 C7.26 0 14.52 0 22 0 C22 0.99 22 1.98 22 3 C21.34 3 20.68 3 20 3 C20 2.34 20 1.68 20 1 C18.6696875 1.2784375 18.6696875 1.2784375 17.3125 1.5625 C11.55905036 2.41838507 5.75242941 1.56226754 0 1 C0 0.67 0 0.34 0 0 Z " fill="#3E4049" transform="translate(216,228)"/>
<path d="M0 0 C2 1 2 1 3.125 4.0625 C3.41375 5.031875 3.7025 6.00125 4 7 C4.66 7 5.32 7 6 7 C6 7.66 6 8.32 6 9 C3.69 8.67 1.38 8.34 -1 8 C-1.33 6.68 -1.66 5.36 -2 4 C-1.34 4 -0.68 4 0 4 C0 2.68 0 1.36 0 0 Z " fill="#3F424A" transform="translate(161,220)"/>
<path d="M0 0 C2.875 1.0625 2.875 1.0625 6 3 C7.1875 6.5 7.1875 6.5 8 10 C9.47761659 11.90170054 9.47761659 11.90170054 11 13 C10.01 13 9.02 13 8 13 C6.61328125 11.3203125 6.61328125 11.3203125 5.3125 9.125 C4.87550781 8.40570313 4.43851563 7.68640625 3.98828125 6.9453125 C3 5 3 5 3 3 C2.01 2.67 1.02 2.34 0 2 C0 1.34 0 0.68 0 0 Z " fill="#52545C" transform="translate(155,236)"/>
<path d="M0 0 C1.65 1.65 3.3 3.3 5 5 C2.625 6.0625 2.625 6.0625 0 7 C-0.66 6.67 -1.32 6.34 -2 6 C-1.49396008 3.83125748 -1.00016187 2.00032373 0 0 Z " fill="#393C44" transform="translate(195,214)"/>
<path d="M0 0 C-2.38957269 3.24299151 -4.2047869 5.50902342 -8 7 C-6.53511706 1.38461538 -6.53511706 1.38461538 -4 -0.4375 C-2 -1 -2 -1 0 0 Z " fill="#7A7C80" transform="translate(139,218)"/>
<path d="M0 0 C0.66 0 1.32 0 2 0 C2 0.66 2 1.32 2 2 C2.66 2 3.32 2 4 2 C4 1.34 4 0.68 4 0 C4.66 0.33 5.32 0.66 6 1 C5.67 1.66 5.34 2.32 5 3 C4.34 3 3.68 3 3 3 C3 3.66 3 4.32 3 5 C2.34 5 1.68 5 1 5 C0.67 5.66 0.34 6.32 0 7 C-0.38133299 5.0085944 -0.71325582 3.00720923 -1 1 C-0.67 0.67 -0.34 0.34 0 0 Z " fill="#939597" transform="translate(174,215)"/>
<path d="M0 0 C0.66 0 1.32 0 2 0 C4.5393228 3.41831915 5.3636198 5.75776898 5 10 C4.01 10.495 4.01 10.495 3 11 C2.566875 9.2984375 2.566875 9.2984375 2.125 7.5625 C1.75375 6.386875 1.3825 5.21125 1 4 C0.34 3.67 -0.32 3.34 -1 3 C-0.67 2.01 -0.34 1.02 0 0 Z " fill="#BCBEBF" transform="translate(239,170)"/>
<path d="M0 0 C1.32 0.33 2.64 0.66 4 1 C4.33 2.32 4.66 3.64 5 5 C2.69 5.33 0.38 5.66 -2 6 C-1.34 4.02 -0.68 2.04 0 0 Z " fill="#9B9C9D" transform="translate(154,238)"/>
<path d="M0 0 C0.66 0 1.32 0 2 0 C3.38123963 1.96722008 4.71488126 3.96868328 6 6 C6.33 6.33 6.66 6.66 7 7 C7.04063832 8.66617115 7.042721 10.33388095 7 12 C4.61853166 9.8300661 3.20751317 7.7719239 1.8125 4.875 C1.46832031 4.17117187 1.12414062 3.46734375 0.76953125 2.7421875 C0 1 0 1 0 0 Z " fill="#8F9193" transform="translate(159,215)"/>
<path d="M0 0 C3.29696105 1.09898702 4.04670589 1.94597387 6.1875 4.5625 C6.71730469 5.20316406 7.24710937 5.84382813 7.79296875 6.50390625 C8.19128906 6.99761719 8.58960937 7.49132813 9 8 C8.67 8.66 8.34 9.32 8 10 C6.84481082 9.09515208 5.70114594 8.1755794 4.5625 7.25 C3.60537109 6.48429687 3.60537109 6.48429687 2.62890625 5.703125 C0.81189446 3.80332371 0.39576803 2.56413092 0 0 Z " fill="#C9C9C9" transform="translate(111,33)"/>
<path d="M0 0 C0.99 0.33 1.98 0.66 3 1 C1.68 3.31 0.36 5.62 -1 8 C-2.32 6.35 -3.64 4.7 -5 3 C-3.68 3 -2.36 3 -1 3 C-0.67 2.01 -0.34 1.02 0 0 Z " fill="#3C3E47" transform="translate(178,237)"/>
<path d="M0 0 C0.33 0 0.66 0 1 0 C1.22786458 2.01822917 1.45572917 4.03645833 1.68359375 6.0546875 C1.91292961 8.07404316 1.91292961 8.07404316 3 10 C1.68 9.67 0.36 9.34 -1 9 C-1.09765625 2.84765625 -1.09765625 2.84765625 -1 1 C-0.67 0.67 -0.34 0.34 0 0 Z " fill="#A7A8A8" transform="translate(49,52)"/>
<path d="M0 0 C0.66 0.33 1.32 0.66 2 1 C0.68 3.64 -0.64 6.28 -2 9 C-2.99 8.67 -3.98 8.34 -5 8 C-5 7.34 -5 6.68 -5 6 C-4.01 5.34 -3.02 4.68 -2 4 C-0.80767387 1.94996045 -0.80767387 1.94996045 0 0 Z " fill="#858689" transform="translate(172,222)"/>
<path d="M0 0 C0.33 0 0.66 0 1 0 C1.042721 1.66611905 1.04063832 3.33382885 1 5 C0 6 0 6 -2.5625 6.0625 C-3.7690625 6.0315625 -3.7690625 6.0315625 -5 6 C-3.35830472 3.97945196 -1.69088222 1.97956942 0 0 Z " fill="#A4A4A4" transform="translate(72,87)"/>
<path d="M0 0 C1.65 0 3.3 0 5 0 C3.6875 2.5 3.6875 2.5 2 5 C1.01 5 0.02 5 -1 5 C-0.67 3.35 -0.34 1.7 0 0 Z " fill="#A5A5A6" transform="translate(129,242)"/>
<path d="M0 0 C0.75 1.625 0.75 1.625 1 4 C-0.9375 7.25 -0.9375 7.25 -3 10 C-4 7 -4 7 -3.22265625 5.17578125 C-2.1484375 3.45052083 -1.07421875 1.72526042 0 0 Z " fill="#8A8C8E" transform="translate(183,234)"/>
<path d="M0 0 C0.66 0 1.32 0 2 0 C2.125 3.375 2.125 3.375 2 7 C1.34 7.66 0.68 8.32 0 9 C-0.87890625 2.84765625 -0.87890625 2.84765625 -1 1 C-0.67 0.67 -0.34 0.34 0 0 Z " fill="#2B2E37" transform="translate(155,214)"/>
<path d="M0 0 C0 0.66 0 1.32 0 2 C-3.07617188 2.29296875 -3.07617188 2.29296875 -6.15234375 2.5859375 C-7.06693359 2.79089844 -7.06693359 2.79089844 -8 3 C-8.33 3.66 -8.66 4.32 -9 5 C-9 4.01 -9 3.02 -9 2 C-5.5647952 -0.29013653 -4.014669 -0.17842973 0 0 Z " fill="#8D8E92" transform="translate(153,207)"/>
<path d="M0 0 C0.99 0 1.98 0 3 0 C3.33 0.99 3.66 1.98 4 3 C3 4 3 4 0.4375 4.0625 C-0.7690625 4.0315625 -0.7690625 4.0315625 -2 4 C-1.34 2.68 -0.68 1.36 0 0 Z " fill="#AFB0B1" transform="translate(128,220)"/>
<path d="M0 0 C2.31 1.98 4.62 3.96 7 6 C6.67 6.66 6.34 7.32 6 8 C5.566875 7.525625 5.13375 7.05125 4.6875 6.5625 C2.97690387 4.76313043 2.97690387 4.76313043 0 4 C0 2.68 0 1.36 0 0 Z " fill="#2C2F38" transform="translate(192,226)"/>
<path d="M0 0 C0.66 0.33 1.32 0.66 2 1 C1.67 2.65 1.34 4.3 1 6 C-0.32 6.33 -1.64 6.66 -3 7 C-2.67 5.35 -2.34 3.7 -2 2 C-1.34 2 -0.68 2 0 2 C0 1.34 0 0.68 0 0 Z " fill="#4E5057" transform="translate(182,210)"/>
<path d="M0 0 C1.65 0.33 3.3 0.66 5 1 C5 1.66 5 2.32 5 3 C2.36 3.33 -0.28 3.66 -3 4 C-3 3.34 -3 2.68 -3 2 C-2.01 2 -1.02 2 0 2 C0 1.34 0 0.68 0 0 Z " fill="#A6A7A8" transform="translate(91,47)"/>
</svg>
