<?xml version="1.0" encoding="UTF-8"?>
<svg version="1.1" xmlns="http://www.w3.org/2000/svg" width="300" height="300">
<path d="M0 0 C1.90744492 -0.01475121 1.90744492 -0.01475121 3.85342407 -0.02980042 C5.2551449 -0.02042926 6.65686306 -0.01064999 8.05857849 -0.00050354 C9.54049696 -0.00428814 11.02241188 -0.00978934 12.50431824 -0.01687622 C16.52290829 -0.03082873 20.54107011 -0.01966328 24.55963635 -0.00316501 C28.76582499 0.01069178 32.97198892 0.0042248 37.17819214 0.0007019 C44.24044187 -0.00199943 51.30252156 0.01146972 58.36473083 0.03465271 C66.53037597 0.06127231 74.69573701 0.06300603 82.86141068 0.05126435 C90.7172443 0.04048731 98.57297512 0.04667236 106.42880058 0.06081963 C109.77203233 0.06657906 113.11518885 0.06649712 116.45842171 0.06175423 C120.39424406 0.05698374 124.32975506 0.06708883 128.26551819 0.08870888 C129.71029549 0.0942756 131.15510271 0.09474307 132.59988213 0.08975601 C134.57098956 0.08380515 136.54212723 0.09813886 138.51318359 0.11352539 C139.61652825 0.11595529 140.71987291 0.11838518 141.85665226 0.12088871 C145.02509845 0.54572048 146.43802608 1.26427721 148.69309998 3.50120544 C148.69309998 4.16120544 148.69309998 4.82120544 148.69309998 5.50120544 C149.35309998 5.50120544 150.01309998 5.50120544 150.69309998 5.50120544 C150.69309998 6.16120544 150.69309998 6.82120544 150.69309998 7.50120544 C152.67309998 7.83120544 154.65309998 8.16120544 156.69309998 8.50120544 C156.69309998 9.16120544 156.69309998 9.82120544 156.69309998 10.50120544 C157.27059998 10.62495544 157.84809998 10.74870544 158.44309998 10.87620544 C160.71645764 11.50769369 162.61845287 12.38978735 164.69309998 13.50120544 C164.69309998 14.16120544 164.69309998 14.82120544 164.69309998 15.50120544 C165.24997498 15.70745544 165.80684998 15.91370544 166.38059998 16.12620544 C169.66322369 18.07803576 171.39983243 20.44351539 173.69309998 23.50120544 C173.69309998 24.16120544 173.69309998 24.82120544 173.69309998 25.50120544 C174.35309998 25.50120544 175.01309998 25.50120544 175.69309998 25.50120544 C175.69309998 26.16120544 175.69309998 26.82120544 175.69309998 27.50120544 C176.35309998 27.50120544 177.01309998 27.50120544 177.69309998 27.50120544 C179.72745528 31.23085684 180.69309998 33.17025586 180.69309998 37.50120544 C181.35309998 37.50120544 182.01309998 37.50120544 182.69309998 37.50120544 C182.82587341 38.35585388 182.95864685 39.21050232 183.09544373 40.09104919 C183.36034607 41.74813904 183.36034607 41.74813904 183.63059998 43.43870544 C183.80462341 44.54085388 183.97864685 45.64300232 184.15794373 46.77854919 C184.41155133 49.40547473 184.41155133 49.40547473 185.69309998 50.50120544 C185.76623564 53.03169946 185.78557525 55.53425381 185.75559998 58.06370544 C185.75108826 58.77462341 185.74657654 59.48554138 185.7419281 60.21800232 C185.73010862 61.97910558 185.71217261 63.7401658 185.69309998 65.50120544 C185.03309998 65.50120544 184.37309998 65.50120544 183.69309998 65.50120544 C183.72403748 67.32651794 183.72403748 67.32651794 183.75559998 69.18870544 C183.76134114 72.42097867 183.48076312 75.35055285 182.69309998 78.50120544 C182.03309998 78.50120544 181.37309998 78.50120544 180.69309998 78.50120544 C180.69309998 79.82120544 180.69309998 81.14120544 180.69309998 82.50120544 C180.03309998 82.50120544 179.37309998 82.50120544 178.69309998 82.50120544 C178.36309998 84.48120544 178.03309998 86.46120544 177.69309998 88.50120544 C177.03309998 88.50120544 176.37309998 88.50120544 175.69309998 88.50120544 C175.69309998 89.16120544 175.69309998 89.82120544 175.69309998 90.50120544 C175.03309998 90.50120544 174.37309998 90.50120544 173.69309998 90.50120544 C173.60802185 91.07354919 173.52294373 91.64589294 173.43528748 92.23558044 C172.47833211 95.15681261 170.99521713 96.59801265 168.81809998 98.75120544 C167.77009216 99.81081482 167.77009216 99.81081482 166.70091248 100.89183044 C164.69309998 102.50120544 164.69309998 102.50120544 161.69309998 102.50120544 C161.69309998 103.16120544 161.69309998 103.82120544 161.69309998 104.50120544 C157.95944293 106.72703945 154.9266835 108.51208638 150.69309998 109.50120544 C150.70001342 110.86122523 150.70001342 110.86122523 150.70706654 112.24872017 C150.81747359 134.30713501 150.9002215 156.36550225 150.95216084 178.42413521 C150.97794576 189.09152777 151.01310192 199.75873593 151.07029724 210.42601013 C151.12012323 219.72328847 151.15238889 229.02043327 151.16354245 238.31784141 C151.17006255 243.24111135 151.18539273 248.16399923 151.22175026 253.08714676 C151.25569696 257.72140805 151.26615561 262.35513004 151.25863838 266.98950386 C151.26001352 268.68987395 151.2699541 270.39026213 151.28912735 272.09052467 C151.31404629 274.41436831 151.30801144 276.7361822 151.29437256 279.06007385 C151.30128601 281.00966601 151.30128601 281.00966601 151.30833912 282.99864388 C150.50554572 287.56895337 149.19083051 289.46476329 145.69309998 292.50120544 C142.6936438 293.1049001 140.49599588 293.31155385 137.50146484 293.25637817 C136.27021571 293.26935974 136.27021571 293.26935974 135.01409286 293.28260356 C132.26521816 293.30418471 129.51836895 293.28290434 126.76951599 293.26170349 C124.79823337 293.26819699 122.82695777 293.27725822 120.85569763 293.28869629 C115.50221078 293.31179204 110.14943618 293.29704889 104.79597211 293.2742269 C99.19468997 293.25532266 93.59345601 293.26646753 87.99215698 293.27313232 C78.58433206 293.27947492 69.17679272 293.26119356 59.76902771 293.22850037 C48.89266297 293.19101612 38.01683956 293.19277926 27.14044625 293.21554154 C16.6789808 293.23649214 6.21771541 293.22921493 -4.2437458 293.20922279 C-8.69621048 293.20123645 -13.14850597 293.2032288 -17.6009655 293.2132473 C-22.84523073 293.2237994 -28.08886538 293.20966841 -33.3330307 293.17650414 C-35.25750324 293.16829672 -37.18203355 293.16858115 -39.10650063 293.17798233 C-41.73446639 293.18940992 -44.36047166 293.17003065 -46.98828125 293.14285278 C-47.74947421 293.15332427 -48.51066717 293.16379576 -49.29492658 293.17458457 C-53.13125073 293.10069909 -55.4215594 292.43662216 -58.78045654 290.5446825 C-62.2493974 286.36582713 -62.14111836 283.44434782 -62.0486145 278.16392517 C-62.05585775 277.21988028 -62.06310099 276.27583539 -62.07056373 275.30318308 C-62.08748181 272.13743875 -62.0614859 268.97350897 -62.03565979 265.80784607 C-62.03887834 263.53938301 -62.04469452 261.27092236 -62.05291748 259.00247192 C-62.0674711 252.83916256 -62.04448615 246.67650391 -62.01405835 240.51327324 C-61.98772786 234.06805524 -61.99298898 227.62285786 -61.99414062 221.17759705 C-61.99133006 210.35321271 -61.96543241 199.52911662 -61.92433167 188.70481873 C-61.88207008 177.56903004 -61.86081938 166.43346215 -61.86280823 155.29759216 C-61.8629281 154.61173682 -61.86304796 153.92588147 -61.86317147 153.21924263 C-61.86329253 152.53457041 -61.86341359 151.84989819 -61.86353832 151.14447832 C-61.86550352 139.10792434 -61.85005711 127.07147555 -61.82516289 115.03494263 C-61.81456292 109.90905047 -61.80907293 104.78319019 -61.80748177 99.6572876 C-61.80447069 93.62275884 -61.78617467 87.58846247 -61.75598335 81.55401039 C-61.74721227 79.33724198 -61.74353147 77.12044682 -61.74526596 74.90366173 C-61.74673583 71.88168841 -61.72979443 68.86036814 -61.70803833 65.83848572 C-61.71268414 64.95765147 -61.71732994 64.07681722 -61.72211653 63.16929102 C-61.66652199 58.50523634 -61.43075509 55.24300824 -58.30690002 51.50120544 C-57.64690002 51.50120544 -56.98690002 51.50120544 -56.30690002 51.50120544 C-55.97690002 50.51120544 -55.64690002 49.52120544 -55.30690002 48.50120544 C-54.64690002 48.50120544 -53.98690002 48.50120544 -53.30690002 48.50120544 C-53.30690002 47.84120544 -53.30690002 47.18120544 -53.30690002 46.50120544 C-51.93190002 44.87620544 -51.93190002 44.87620544 -50.30690002 43.50120544 C-49.64690002 43.50120544 -48.98690002 43.50120544 -48.30690002 43.50120544 C-48.30690002 42.84120544 -48.30690002 42.18120544 -48.30690002 41.50120544 C-46.93190002 39.87620544 -46.93190002 39.87620544 -45.30690002 38.50120544 C-44.64690002 38.50120544 -43.98690002 38.50120544 -43.30690002 38.50120544 C-43.30690002 37.84120544 -43.30690002 37.18120544 -43.30690002 36.50120544 C-41.93190002 34.87620544 -41.93190002 34.87620544 -40.30690002 33.50120544 C-39.64690002 33.50120544 -38.98690002 33.50120544 -38.30690002 33.50120544 C-38.30690002 32.84120544 -38.30690002 32.18120544 -38.30690002 31.50120544 C-36.93190002 29.87620544 -36.93190002 29.87620544 -35.30690002 28.50120544 C-34.64690002 28.50120544 -33.98690002 28.50120544 -33.30690002 28.50120544 C-33.30690002 27.84120544 -33.30690002 27.18120544 -33.30690002 26.50120544 C-31.93190002 24.87620544 -31.93190002 24.87620544 -30.30690002 23.50120544 C-29.64690002 23.50120544 -28.98690002 23.50120544 -28.30690002 23.50120544 C-28.30690002 22.84120544 -28.30690002 22.18120544 -28.30690002 21.50120544 C-26.93190002 19.87620544 -26.93190002 19.87620544 -25.30690002 18.50120544 C-24.64690002 18.50120544 -23.98690002 18.50120544 -23.30690002 18.50120544 C-23.30690002 17.84120544 -23.30690002 17.18120544 -23.30690002 16.50120544 C-21.93190002 14.87620544 -21.93190002 14.87620544 -20.30690002 13.50120544 C-19.64690002 13.50120544 -18.98690002 13.50120544 -18.30690002 13.50120544 C-18.30690002 12.84120544 -18.30690002 12.18120544 -18.30690002 11.50120544 C-16.93190002 9.87620544 -16.93190002 9.87620544 -15.30690002 8.50120544 C-14.64690002 8.50120544 -13.98690002 8.50120544 -13.30690002 8.50120544 C-12.96658752 7.63495544 -12.96658752 7.63495544 -12.61940002 6.75120544 C-9.54840526 1.48664299 -5.91403298 0.0011214 0 0 Z " fill="#B7B7B7" transform="translate(105.30690002441406,3.4987945556640625)"/>
<path d="M0 0 C0 0.66 0 1.32 0 2 C0.86625 2.185625 0.86625 2.185625 1.75 2.375 C4.02335767 3.00648824 5.9253529 3.88858191 8 5 C8 5.66 8 6.32 8 7 C8.556875 7.20625 9.11375 7.4125 9.6875 7.625 C12.97012371 9.57683032 14.70673246 11.94230994 17 15 C17 15.66 17 16.32 17 17 C17.66 17 18.32 17 19 17 C19 17.66 19 18.32 19 19 C19.66 19 20.32 19 21 19 C23.03435531 22.72965139 24 24.66905042 24 29 C24.66 29 25.32 29 26 29 C26.13277344 29.85464844 26.26554688 30.70929687 26.40234375 31.58984375 C26.66724609 33.24693359 26.66724609 33.24693359 26.9375 34.9375 C27.11152344 36.03964844 27.28554688 37.14179687 27.46484375 38.27734375 C27.71845136 40.90426929 27.71845136 40.90426929 29 42 C29.07313567 44.53049402 29.09247527 47.03304837 29.0625 49.5625 C29.05798828 50.27341797 29.05347656 50.98433594 29.04882812 51.71679688 C29.03700864 53.47790013 29.01907263 55.23896036 29 57 C28.34 57 27.68 57 27 57 C27.0309375 58.8253125 27.0309375 58.8253125 27.0625 60.6875 C27.06824116 63.91977322 26.78766315 66.84934741 26 70 C25.34 70 24.68 70 24 70 C24 71.32 24 72.64 24 74 C23.34 74 22.68 74 22 74 C21.67 75.98 21.34 77.96 21 80 C20.34 80 19.68 80 19 80 C19 80.66 19 81.32 19 82 C18.34 82 17.68 82 17 82 C16.91492188 82.57234375 16.82984375 83.1446875 16.7421875 83.734375 C15.78523214 86.65560717 14.30211716 88.09680721 12.125 90.25 C11.07699219 91.30960938 11.07699219 91.30960938 10.0078125 92.390625 C8 94 8 94 5 94 C5 94.66 5 95.32 5 96 C2.69 97.32 0.38 98.64 -2 100 C-2 100.33 -2 100.66 -2 101 C-12.72632662 103.15681972 -23.10596755 103.29436589 -34 103 C-35.09183594 102.98195313 -36.18367188 102.96390625 -37.30859375 102.9453125 C-44.52471434 102.59730101 -51.27857193 100.35296401 -56.73190308 95.4395752 C-59.77083251 93.51074782 -61.89459079 93.62159943 -65.48095703 93.61523438 C-66.79556915 93.60512329 -68.11018127 93.59501221 -69.46463013 93.58459473 C-70.16425999 93.58615067 -70.86388985 93.5877066 -71.58472061 93.58930969 C-73.778609 93.59379249 -75.97169284 93.57977784 -78.16549683 93.56091309 C-83.61053477 93.51791632 -89.05555442 93.50686059 -94.50073242 93.49468994 C-99.10799145 93.4831801 -103.71488205 93.45968294 -108.32198715 93.41999817 C-110.48590111 93.40638782 -112.6493227 93.41060479 -114.81326294 93.41540527 C-116.12157074 93.40529419 -117.42987854 93.39518311 -118.77783203 93.38476562 C-119.9338089 93.38271118 -121.08978577 93.38065674 -122.28079224 93.37854004 C-123.1781308 93.25362183 -124.07546936 93.12870361 -125 93 C-127 90 -127 90 -127 86 C-125.81962585 84.27702332 -125.81962585 84.27702332 -124 83 C-121.66511536 82.60127258 -121.66511536 82.60127258 -118.88598633 82.56762695 C-117.84513382 82.54783279 -116.80428131 82.52803864 -115.73188782 82.50764465 C-114.60993515 82.50125473 -113.48798248 82.49486481 -112.33203125 82.48828125 C-111.18208176 82.47033005 -110.03213226 82.45237885 -108.84733582 82.43388367 C-105.16909468 82.37963739 -101.49098436 82.34583829 -97.8125 82.3125 C-95.32094528 82.27933966 -92.82940785 82.24485122 -90.33789062 82.20898438 C-84.22537772 82.12390265 -78.11284818 82.05561344 -72 82 C-72.95193237 80.36200439 -72.95193237 80.36200439 -73.9230957 78.69091797 C-75.72305617 75.59371546 -77.03347944 72.52582794 -78.1875 69.125 C-79.13773447 65.7929906 -79.13773447 65.7929906 -81 63 C-81.09918457 61.53262975 -81.13079841 60.06056091 -81.1328125 58.58984375 C-81.13410156 57.68169922 -81.13539063 56.77355469 -81.13671875 55.83789062 C-81.13285156 54.88076172 -81.12898438 53.92363281 -81.125 52.9375 C-81.13080078 51.54241211 -81.13080078 51.54241211 -81.13671875 50.11914062 C-81.1156316 35.1156316 -81.1156316 35.1156316 -78 32 C-77.3574765 29.93125966 -77.3574765 29.93125966 -77 28 C-76.34 28 -75.68 28 -75 28 C-74.896875 26.9275 -74.79375 25.855 -74.6875 24.75 C-74.02797801 21.15260731 -73.54223809 19.54223809 -71 17 C-70.34 17 -69.68 17 -69 17 C-68.95875 16.443125 -68.9175 15.88625 -68.875 15.3125 C-67.54848726 11.80671632 -64.90873056 10.26880984 -62 8 C-61.505 7.484375 -61.01 6.96875 -60.5 6.4375 C-55.68129693 1.81957622 -50.28978704 -0.25741966 -44 -2 C-42.94425781 -2.31130859 -42.94425781 -2.31130859 -41.8671875 -2.62890625 C-27.87039297 -6.11591255 -13.50018341 -4.52024078 0 0 Z " fill="#8E8F8E" transform="translate(262,12)"/>
<path d="M0 0 C1.9375 1 1.9375 1 3 3 C4.16242007 7.81574029 4.16242007 7.81574029 3 11 C0.40778295 13.62230912 -2.31958377 15.75514847 -5.30078125 17.921875 C-7.78516469 19.83459857 -9.50329117 21.25513327 -11 24 C-10.91671577 26.87608215 -10.18609454 27.81351202 -8.15234375 29.8515625 C-7.42144531 30.43679687 -6.69054687 31.02203125 -5.9375 31.625 C-4.59087828 32.70892398 -3.26911978 33.82628102 -2 35 C-2 35.66 -2 36.32 -2 37 C-1.01 37 -0.02 37 1 37 C3.13586678 40.20380017 3.23132175 41.01939967 3.125 44.6875 C3.10695313 45.49574219 3.08890625 46.30398437 3.0703125 47.13671875 C3.04710937 47.75160156 3.02390625 48.36648437 3 49 C-0.74904027 50.24968009 -4.12186665 50.7772746 -8 50 C-10.49572564 48.32786382 -12.319695 46.22271558 -14.25 43.9375 C-16.09790255 41.80293565 -17.91535423 39.92680831 -20 38 C-23.64130876 38.42564122 -25.18575394 39.90296961 -27.625 42.5625 C-28.71318768 43.74334995 -29.83193202 44.89810336 -31 46 C-31.66 46 -32.32 46 -33 46 C-33.309375 46.639375 -33.61875 47.27875 -33.9375 47.9375 C-35 50 -35 50 -36 51 C-37.68608966 51.07205511 -39.37500659 51.08386068 -41.0625 51.0625 C-41.98160156 51.05347656 -42.90070313 51.04445312 -43.84765625 51.03515625 C-44.55792969 51.02355469 -45.26820313 51.01195312 -46 51 C-47.03303893 47.87826192 -47.44771204 45.27359341 -47 42 C-43.99515392 37.54078279 -40.14680677 34.01322768 -36.2421875 30.3515625 C-34.8185191 29.00823093 -34.8185191 29.00823093 -34.375 26.75 C-35.38134445 22.3220844 -38.74877377 20.00939948 -42 17 C-45.25786733 13.90341323 -47.3088763 11.36189792 -47.5 6.75 C-47.335 5.5125 -47.17 4.275 -47 3 C-43.3558226 0.5705484 -41.28758728 0.83820425 -37 1 C-37 1.66 -37 2.32 -37 3 C-36.34 3 -35.68 3 -35 3 C-34.10729046 4.09466678 -33.26006426 5.22669092 -32.4375 6.375 C-29.40451527 10.02498898 -26.78394583 11.31555075 -22.12109375 12.0546875 C-19.7347348 12.15858667 -19.7347348 12.15858667 -17 10.3125 C-14.81637046 8.084778 -14.81637046 8.084778 -14 5 C-9.82864341 0.81685991 -5.98583993 -0.92089845 0 0 Z " fill="#E9EFED" transform="translate(257,36)"/>
<path d="M0 0 C2.02919843 -0.25723969 2.02919843 -0.25723969 4 -1 C8.92058638 -2.64019546 13.87802298 -2.74652297 19 -2 C22.3780493 0.23786914 23.73002802 3.19008407 25 7 C26.3341649 19.34102532 26.3341649 19.34102532 23.5078125 22.85546875 C21.625 24.0625 21.625 24.0625 19.67578125 25.06640625 C17.17687029 26.45857343 16.85824631 28.35924212 16 31 C13.05347698 35.58348025 10.14728346 37.28423885 5 39 C0.47389291 39.53116298 -1.9698496 38.1815562 -5.75 35.75 C-6.71421875 35.14671875 -7.6784375 34.5434375 -8.671875 33.921875 C-11.10638193 31.91218136 -11.70020811 31.07968031 -12 28 C-12.99 28 -13.98 28 -15 28 C-17 25 -17 25 -17.5 21.375 C-17.665 20.26125 -17.83 19.1475 -18 18 C-18.66 17.67 -19.32 17.34 -20 17 C-20.60529983 10.43585958 -20.11258422 6.06158752 -16.484375 0.49609375 C-12.41896834 -3.60140822 -4.36946938 -2.91297959 0 0 Z " fill="#8E8E8E" transform="translate(90,152)"/>
<path d="M0 0 C1.60407328 -0.02708567 3.2082785 -0.04643483 4.8125 -0.0625 C5.70582031 -0.07410156 6.59914063 -0.08570312 7.51953125 -0.09765625 C10 0 10 0 13 1 C13 1.66 13 2.32 13 3 C14.31352023 2.69181644 15.62579572 2.37832335 16.9375 2.0625 C17.66839844 1.88847656 18.39929688 1.71445313 19.15234375 1.53515625 C20.99969898 1.16112431 20.99969898 1.16112431 22 0 C24.67058851 -0.14115161 27.32432238 -0.04247107 30 0 C30 0.66 30 1.32 30 2 C30.763125 2.0825 31.52625 2.165 32.3125 2.25 C35.68495876 3.19115128 36.27717115 3.9862766 38 7 C39.23004298 14.57635168 39.12018784 21.38996832 34.6875 27.875 C32.42207481 30.75308735 31.51364446 31.82878518 28 33 C27.505 33.99 27.505 33.99 27 35 C25.68 35 24.36 35 23 35 C23 35.66 23 36.32 23 37 C20.22769434 39.94032419 18.77321144 40.97082221 14.6875 41.125 C10.03054848 39.70423513 6.48146864 37.40912643 3 34 C3 33.34 3 32.68 3 32 C2.401875 31.731875 1.80375 31.46375 1.1875 31.1875 C-2.83453767 29.00410812 -4.9590997 26.06516282 -7 22 C-7.43359375 18.40625 -7.43359375 18.40625 -7.4375 14.5 C-7.45683594 13.2109375 -7.47617188 11.921875 -7.49609375 10.59375 C-6.9308896 6.4993577 -5.98961016 4.81120666 -3 2 C-2.01 2 -1.02 2 0 2 C0 1.34 0 0.68 0 0 Z " fill="#909090" transform="translate(77,85)"/>
<path d="M0 0 C1.31227677 3.93683032 1.03219512 7.62487984 0.9140625 11.71875 C0.89282318 12.57303589 0.87158386 13.42732178 0.84970093 14.30749512 C0.80346188 16.1131061 0.75453546 17.91864996 0.703125 19.72412109 C0.62530627 22.48911794 0.5581335 25.25422859 0.4921875 28.01953125 C0.44595047 29.77345443 0.39909621 31.52736148 0.3515625 33.28125 C0.33171295 34.10943237 0.3118634 34.93761475 0.29141235 35.79089355 C0.19238542 39.08524964 0.04840521 41.85478436 -1 45 C-5.46161618 48.77281697 -10.12089821 48.47196561 -15.67578125 48.51171875 C-16.6009404 48.52966995 -17.52609955 48.54762115 -18.47929382 48.56611633 C-21.42365003 48.62014079 -24.36784484 48.65408991 -27.3125 48.6875 C-29.31317346 48.72068001 -31.31382565 48.7551703 -33.31445312 48.79101562 C-38.20951884 48.87586284 -43.10453733 48.94271166 -48 49 C-47.01 48.505 -47.01 48.505 -46 48 C-45.67 47.01 -45.34 46.02 -45 45 C-44.34 45 -43.68 45 -43 45 C-43 44.34 -43 43.68 -43 43 C-41.625 41.375 -41.625 41.375 -40 40 C-39.34 40 -38.68 40 -38 40 C-38 39.34 -38 38.68 -38 38 C-36.625 36.375 -36.625 36.375 -35 35 C-34.34 35 -33.68 35 -33 35 C-33 34.34 -33 33.68 -33 33 C-31.625 31.375 -31.625 31.375 -30 30 C-29.34 30 -28.68 30 -28 30 C-28 29.34 -28 28.68 -28 28 C-26.625 26.375 -26.625 26.375 -25 25 C-24.34 25 -23.68 25 -23 25 C-23 24.34 -23 23.68 -23 23 C-21.625 21.375 -21.625 21.375 -20 20 C-19.34 20 -18.68 20 -18 20 C-18 19.34 -18 18.68 -18 18 C-16.625 16.375 -16.625 16.375 -15 15 C-14.34 15 -13.68 15 -13 15 C-13 14.34 -13 13.68 -13 13 C-11.625 11.375 -11.625 11.375 -10 10 C-9.34 10 -8.68 10 -8 10 C-8 9.34 -8 8.68 -8 8 C-6.625 6.375 -6.625 6.375 -5 5 C-4.34 5 -3.68 5 -3 5 C-2.690625 4.360625 -2.38125 3.72125 -2.0625 3.0625 C-1 1 -1 1 0 0 Z " fill="#4D4D4D" transform="translate(95,7)"/>
<path d="M0 0 C1.32169441 0.01078583 1.32169441 0.01078583 2.67008972 0.02178955 C3.59697098 0.0214975 4.52385223 0.02120544 5.4788208 0.02090454 C8.55227416 0.02230144 11.62548714 0.03787958 14.69889832 0.05352783 C16.82596199 0.05725668 18.95302738 0.06010426 21.08009338 0.06210327 C26.68612894 0.06974982 32.29206132 0.08940707 37.89805603 0.11151123 C43.61551009 0.13194769 49.33298078 0.14110027 55.05046082 0.15118408 C66.27446455 0.17265199 77.49839161 0.20680023 88.72233582 0.24884033 C90.84733582 6.87384033 90.84733582 6.87384033 89.72233582 10.24884033 C77.25733828 10.31826962 64.79238654 10.37161564 52.32723522 10.40427685 C46.53951386 10.41995048 40.75192454 10.44121983 34.96427917 10.47515869 C29.38165293 10.50769143 23.7991539 10.52568055 18.2164402 10.53347206 C16.08371795 10.53902651 13.95100286 10.54987262 11.81833458 10.5660305 C8.83720585 10.58772375 5.85660661 10.59081064 2.87541199 10.5894165 C1.54508438 10.60559525 1.54508438 10.60559525 0.18788147 10.62210083 C-1.0299427 10.61591484 -1.0299427 10.61591484 -2.27236938 10.60960388 C-2.97754102 10.61236926 -3.68271265 10.61513464 -4.40925312 10.61798382 C-6.86737984 10.13232973 -7.78219671 9.2271025 -9.27766418 7.24884033 C-8.79703663 0.68026369 -6.18153866 0.02118839 0 0 Z " fill="#868686" transform="translate(144.2776641845703,159.75115966796875)"/>
<path d="M0 0 C0.90255524 -0.00175232 1.80511047 -0.00350464 2.73501587 -0.00531006 C5.72904361 -0.00972394 8.72301264 -0.00679195 11.71704102 -0.00341797 C13.79207877 -0.0040912 15.86711645 -0.00506139 17.94215393 -0.00631714 C22.29591623 -0.00779353 26.64965805 -0.00564164 31.00341797 -0.00097656 C36.59016014 0.00471714 42.17685423 0.00144362 47.76359463 -0.00454903 C52.0503221 -0.00815923 56.33703814 -0.00701387 60.62376595 -0.00442123 C62.68389962 -0.00375306 64.74403432 -0.0045766 66.80416679 -0.00690079 C69.68197256 -0.00943441 72.55970007 -0.00557645 75.4375 0 C76.29319077 -0.00202423 77.14888153 -0.00404846 78.03050232 -0.00613403 C81.36742999 0.00587177 84.09549016 0.06674216 87.28344727 1.12939453 C87.28344727 3.76939453 87.28344727 6.40939453 87.28344727 9.12939453 C75.096597 9.30633667 62.90965165 9.47229415 50.7224617 9.6241703 C45.06366317 9.69503643 39.40496783 9.76970722 33.74633789 9.85302734 C28.2870023 9.93327375 22.82762141 10.00358573 17.36806488 10.06696701 C15.28358992 10.09292068 13.19915661 10.12247363 11.11478424 10.15565872 C8.19870239 10.2014748 5.28273577 10.2345723 2.36645508 10.26464844 C1.50186676 10.28118973 0.63727844 10.29773102 -0.25350952 10.31477356 C-1.04993866 10.32043839 -1.8463678 10.32610321 -2.66693115 10.3319397 C-3.70118288 10.34576659 -3.70118288 10.34576659 -4.75632858 10.35987282 C-7.07803148 10.08689276 -8.69411517 9.27246907 -10.71655273 8.12939453 C-10.71655273 5.81939453 -10.71655273 3.50939453 -10.71655273 1.12939453 C-7.38875186 -0.53450591 -3.6585184 -0.0086342 0 0 Z " fill="#7F7F7F" transform="translate(145.716552734375,224.87060546875)"/>
<path d="M0 0 C1.2113562 -0.00630432 2.4227124 -0.01260864 3.67077637 -0.019104 C5.63488464 -0.01303131 5.63488464 -0.01303131 7.63867188 -0.00683594 C8.99483306 -0.00818328 10.35099378 -0.01012439 11.70715332 -0.01263428 C14.54846803 -0.01558231 17.38965695 -0.01129829 20.23095703 -0.00195312 C23.87281559 0.00944135 27.51437937 0.00288015 31.15622711 -0.00909805 C33.95634176 -0.01632537 36.75638654 -0.01402474 39.5565033 -0.00884247 C41.55235994 -0.00685959 43.5482193 -0.01293318 45.54406738 -0.019104 C46.75542358 -0.01279968 47.96677979 -0.00649536 49.21484375 0 C50.28279175 0.00159119 51.35073975 0.00318237 52.4510498 0.00482178 C55.10742188 0.25878906 55.10742188 0.25878906 58.10742188 2.25878906 C58.29492188 5.88378906 58.29492188 5.88378906 58.10742188 9.25878906 C52.24624702 13.17314946 46.30924779 12.69259231 39.44726562 12.65722656 C38.22463516 12.66009674 37.0020047 12.66296692 35.74232483 12.66592407 C33.16276587 12.66796192 30.58319135 12.66245167 28.00366211 12.64990234 C24.05547577 12.63383202 20.10831102 12.64976877 16.16015625 12.66894531 C13.65169045 12.6669631 11.14322529 12.66311989 8.63476562 12.65722656 C7.45446274 12.66329926 6.27415985 12.66937195 5.05809021 12.67562866 C3.95667191 12.66617218 2.8552536 12.6567157 1.72045898 12.64697266 C0.75482529 12.64458588 -0.21080841 12.6421991 -1.20570374 12.63973999 C-4.43788796 12.18147384 -6.32281986 11.2604372 -8.89257812 9.25878906 C-9.39257812 5.69628906 -9.39257812 5.69628906 -8.89257812 2.25878906 C-5.42425178 -0.0534285 -4.09087062 0.00609518 0 0 Z " fill="#828282" transform="translate(142.892578125,243.7412109375)"/>
<path d="M0 0 C1.14814178 -0.00630432 2.29628357 -0.01260864 3.47921753 -0.019104 C5.34793015 -0.01303131 5.34793015 -0.01303131 7.25439453 -0.00683594 C8.52944855 -0.00874939 9.80450256 -0.01066284 11.11819458 -0.01263428 C13.82014427 -0.01399766 16.52173433 -0.01128984 19.22363281 -0.00195312 C22.68270376 0.00941872 26.14146357 0.00289657 29.60052299 -0.00909805 C32.90182455 -0.01807756 36.20308891 -0.01178273 39.50439453 -0.00683594 C40.74615448 -0.0108844 41.98791443 -0.01493286 43.26730347 -0.019104 C44.99897263 -0.00964752 44.99897263 -0.00964752 46.765625 0 C48.28879837 0.00238678 48.28879837 0.00238678 49.84274292 0.00482178 C52.55086097 0.26246652 54.1979212 0.87117312 56.51220703 2.25878906 C56.69970703 5.13378906 56.69970703 5.13378906 56.51220703 8.25878906 C53.11198462 10.525604 51.90207996 10.51526982 47.91088867 10.53344727 C46.18878929 10.54774529 46.18878929 10.54774529 44.43190002 10.56233215 C43.1912529 10.56142075 41.95060577 10.56050934 40.67236328 10.55957031 C38.76190468 10.565998 38.76190468 10.565998 36.81285095 10.57255554 C34.11687461 10.57830376 31.42128052 10.57972865 28.7253418 10.57446289 C25.27404561 10.56866957 21.82328632 10.58559637 18.3720789 10.60880756 C15.07634433 10.62710036 11.78063948 10.62335932 8.48486328 10.62207031 C7.24624039 10.63128006 6.00761749 10.64048981 4.73146057 10.64997864 C3.58024216 10.64374985 2.42902374 10.63752106 1.24291992 10.63110352 C-0.27572914 10.63204765 -0.27572914 10.63204765 -1.82505798 10.63301086 C-4.85945657 10.20655532 -6.2354715 9.28462034 -8.48779297 7.25878906 C-7.52810382 1.1807578 -6.11279817 0.00959366 0 0 Z " fill="#858585" transform="translate(143.48779296875,179.7412109375)"/>
<path d="M0 0 C1.17139023 -0.00953201 2.34278046 -0.01906403 3.54966736 -0.02888489 C4.8204866 -0.02797348 6.09130585 -0.02706207 7.40063477 -0.02612305 C8.7002565 -0.03040817 9.99987823 -0.0346933 11.33888245 -0.03910828 C14.09201124 -0.04657532 16.84501182 -0.04627592 19.59814453 -0.04101562 C23.12691263 -0.03522209 26.65515566 -0.05214604 30.18383694 -0.0753603 C33.54779184 -0.09363334 36.91163044 -0.08991245 40.27563477 -0.08862305 C42.17882729 -0.10243767 42.17882729 -0.10243767 44.12046814 -0.11653137 C45.88228172 -0.10718819 45.88228172 -0.10718819 47.6796875 -0.09765625 C48.71512192 -0.09828568 49.75055634 -0.0989151 50.81736755 -0.0995636 C53.40454102 0.2746582 53.40454102 0.2746582 55.25062561 1.62995911 C56.83481869 3.88794173 56.62274671 5.58345459 56.40454102 8.2746582 C53.02628616 10.31389591 50.4495328 10.51844022 46.53442383 10.50170898 C44.76304047 10.50148239 44.76304047 10.50148239 42.95587158 10.50125122 C41.05100983 10.48576736 41.05100983 10.48576736 39.10766602 10.4699707 C37.80375916 10.46714081 36.49985229 10.46431091 35.15643311 10.46139526 C31.69745152 10.45377541 28.23863908 10.43414129 24.77972412 10.4119873 C21.24713428 10.39149323 17.71451698 10.38238595 14.18188477 10.37231445 C7.25603423 10.35089369 0.33029575 10.31677776 -6.59545898 10.2746582 C-7.97670916 7.51215785 -7.78625205 5.32734721 -7.59545898 2.2746582 C-4.94407938 -0.3767214 -3.70179738 0.01648462 0 0 Z " fill="#8C8C8C" transform="translate(142.595458984375,114.725341796875)"/>
<path d="M0 0 C9.9 0 19.8 0 30 0 C30 0.66 30 1.32 30 2 C35.61 2 41.22 2 47 2 C47 1.34 47 0.68 47 0 C53.625 -0.125 53.625 -0.125 57 1 C60.0604569 1.26778998 63.12052496 1.444442 66.1875 1.62109375 C69 2 69 2 72 4 C72.66686734 10.11295058 72.66686734 10.11295058 70.7228384 12.69884682 C67.64091908 15.02642968 63.71868426 14.41408785 60.00219727 14.38818359 C59.08159515 14.39344055 58.16099304 14.39869751 57.2124939 14.40411377 C54.16362636 14.41733766 51.11527928 14.40856643 48.06640625 14.3984375 C45.95035196 14.40045772 43.83429836 14.40336872 41.71824646 14.40713501 C37.28044007 14.41156175 32.84281467 14.40511662 28.4050293 14.39111328 C22.71403097 14.37403175 17.0234574 14.38385399 11.33247471 14.40183067 C6.9616119 14.4126679 2.59084989 14.40922224 -1.78001595 14.4014473 C-3.87839877 14.39944459 -5.97679071 14.40190704 -8.07516289 14.40888596 C-11.00795622 14.41649814 -13.94006074 14.40489875 -16.87280273 14.38818359 C-18.17664162 14.39729263 -18.17664162 14.39729263 -19.50682068 14.40658569 C-23.07620103 14.36886579 -25.37690615 14.34178541 -28.54603577 12.60342407 C-30 11 -30 11 -30.390625 8.95703125 C-30.26041667 6.97135417 -30.13020833 4.98567708 -30 3 C-26.135514 1.18105318 -23.29215707 0.80553041 -19.04296875 1.0234375 C-17.93115234 1.075 -16.81933594 1.1265625 -15.67382812 1.1796875 C-14.52333984 1.24414062 -13.37285156 1.30859375 -12.1875 1.375 C-11.01767578 1.43171875 -9.84785156 1.4884375 -8.64257812 1.546875 C-5.76107 1.68801009 -2.88047752 1.83939156 0 2 C0 1.34 0 0.68 0 0 Z M-29 4 C-29 6.31 -29 8.62 -29 11 C-26.17694739 12.59557933 -24.18789598 13.24582749 -20.95037842 13.20254517 C-20.15394928 13.19688034 -19.35752014 13.19121552 -18.53695679 13.18537903 C-17.67236847 13.16883774 -16.80778015 13.15229645 -15.91699219 13.13525391 C-14.54086258 13.12106163 -14.54086258 13.12106163 -13.13693237 13.10658264 C-10.10670967 13.07292405 -7.07689774 13.0248032 -4.046875 12.9765625 C-1.9450996 12.95039342 0.15668721 12.92512657 2.25848389 12.90072632 C7.78896531 12.8340946 13.31920661 12.75519735 18.8494873 12.67376709 C24.49331448 12.5928284 30.13728247 12.52345984 35.78125 12.453125 C46.85433546 12.31342345 57.92720175 12.1607671 69 12 C69 9.36 69 6.72 69 4 C65.04753778 2.68251259 61.27399975 2.86085928 57.15405273 2.87060547 C56.24974518 2.86885315 55.34543762 2.86710083 54.41372681 2.86529541 C51.42032968 2.86088895 48.42699149 2.86381042 45.43359375 2.8671875 C43.35758961 2.86651417 41.28158554 2.86554391 39.20558167 2.86428833 C34.85359955 2.86281304 30.50163794 2.86496074 26.1496582 2.86962891 C20.56172525 2.87532963 14.97384028 2.87204394 9.38590908 2.86605644 C5.0992242 2.86244931 0.81255077 2.86359006 -3.47413445 2.86618423 C-5.53509464 2.8668529 -7.59605586 2.86602718 -9.65701485 2.86370468 C-12.53252049 2.86117531 -15.4079475 2.86502266 -18.28344727 2.87060547 C-19.14116226 2.86858124 -19.99887726 2.86655701 -20.88258362 2.86447144 C-25.07489902 2.7648589 -25.07489902 2.7648589 -29 4 Z " fill="#949494" transform="translate(164,222)"/>
<path d="M0 0 C9.9 0 19.8 0 30 0 C30 0.66 30 1.32 30 2 C35.61 2 41.22 2 47 2 C47 1.34 47 0.68 47 0 C53.625 -0.125 53.625 -0.125 57 1 C59.05893621 1.22325814 61.12233653 1.40705759 63.1875 1.5625 C64.27417969 1.64628906 65.36085938 1.73007813 66.48046875 1.81640625 C67.72763672 1.90728516 67.72763672 1.90728516 69 2 C69 2.33 69 2.66 69 3 C20.49 3.495 20.49 3.495 -29 4 C-29 6.31 -29 8.62 -29 11 C-29.33 11 -29.66 11 -30 11 C-30 8.36 -30 5.72 -30 3 C-26.135514 1.18105318 -23.29215707 0.80553041 -19.04296875 1.0234375 C-17.93115234 1.075 -16.81933594 1.1265625 -15.67382812 1.1796875 C-14.52333984 1.24414062 -13.37285156 1.30859375 -12.1875 1.375 C-11.01767578 1.43171875 -9.84785156 1.4884375 -8.64257812 1.546875 C-5.76107 1.68801009 -2.88047752 1.83939156 0 2 C0 1.34 0 0.68 0 0 Z " fill="#A2A2A2" transform="translate(164,222)"/>
<path d="M0 0 C1.32 0.66 2.64 1.32 4 2 C4.78397866 11.94781811 4.78397866 11.94781811 1.625 16.1875 C-1 18 -1 18 -3 18 C-3.33 19.65 -3.66 21.3 -4 23 C-4.66 23 -5.32 23 -6 23 C-6 23.66 -6 24.32 -6 25 C-7.32 25 -8.64 25 -10 25 C-7.69 27.64 -5.38 30.28 -3 33 C-6.48123131 33 -6.86520636 32.58848696 -9.25 30.25 C-9.79140625 29.73953125 -10.3328125 29.2290625 -10.890625 28.703125 C-12 27 -12 27 -11.76953125 24.94140625 C-9.46971039 19.13932011 -3.89197464 14.67427533 1 11 C1.66 11 2.32 11 3 11 C2.87625 9.741875 2.7525 8.48375 2.625 7.1875 C2.55539062 6.47980469 2.48578125 5.77210937 2.4140625 5.04296875 C2.07334609 2.70011858 2.07334609 2.70011858 0 0 Z " fill="#B0B5B4" transform="translate(257,36)"/>
<path d="M0 0 C7.90158503 -0.04632389 15.80311339 -0.0818694 23.70480061 -0.10362434 C27.37380581 -0.1140652 31.04271816 -0.1282298 34.71166992 -0.15087891 C38.25187786 -0.17259669 41.79199644 -0.18456636 45.33226585 -0.18975449 C47.34143905 -0.19525273 49.35057626 -0.21086735 51.35969543 -0.22659302 C52.58073471 -0.22674408 53.80177399 -0.22689514 55.05981445 -0.22705078 C56.67530937 -0.23371262 56.67530937 -0.23371262 58.32344055 -0.24050903 C61 0 61 0 64 2 C64.1875 5.625 64.1875 5.625 64 9 C63.67 9 63.34 9 63 9 C62.731875 8.030625 62.46375 7.06125 62.1875 6.0625 C61.5996875 4.5465625 61.5996875 4.5465625 61 3 C57.87619227 1.95873076 55.61482146 1.84447668 52.33520508 1.79467773 C51.17422806 1.77473251 50.01325104 1.75478729 48.8170929 1.73423767 C46.93729988 1.70916893 46.93729988 1.70916893 45.01953125 1.68359375 C43.73640549 1.66281265 42.45327972 1.64203156 41.13127136 1.62062073 C37.72337185 1.56548094 34.31541259 1.51603611 30.90740967 1.46777344 C27.42845352 1.41749921 23.94958393 1.36184409 20.47070312 1.30664062 C13.64721049 1.19915811 6.82363964 1.09769123 0 1 C0 0.67 0 0.34 0 0 Z " fill="#A0A0A0" transform="translate(137,244)"/>
<path d="M0 0 C-0.58007812 0.4228125 -1.16015625 0.845625 -1.7578125 1.28125 C-3.9066019 2.92840564 -5.87915699 4.6724811 -7.875 6.5 C-11.06046156 9.32888004 -14.1434081 11.16352767 -18 13 C-18.99 14.485 -18.99 14.485 -20 16 C-21.32 16 -22.64 16 -24 16 C-24.33 14.68 -24.66 13.36 -25 12 C-24.278125 12.0825 -23.55625 12.165 -22.8125 12.25 C-19.10642187 11.92057083 -17.63241879 10.55929605 -15 8 C-14.67 7.01 -14.34 6.02 -14 5 C-9.73708302 0.72504088 -6.09844062 -0.62228986 0 0 Z " fill="#D1D6D4" transform="translate(257,36)"/>
<path d="M0 0 C1.21236328 0.04060547 1.21236328 0.04060547 2.44921875 0.08203125 C3.06410156 0.11683594 3.67898437 0.15164062 4.3125 0.1875 C4.6425 1.1775 4.9725 2.1675 5.3125 3.1875 C6.63588632 3.87370031 7.97199948 4.53536461 9.3125 5.1875 C11.37972076 6.78466811 13.33407854 8.47886328 15.3125 10.1875 C14.9825 11.1775 14.6525 12.1675 14.3125 13.1875 C10.7906747 11.23093039 7.96807215 9.23649025 5.3125 6.1875 C5.3125 5.5275 5.3125 4.8675 5.3125 4.1875 C4.6525 4.1875 3.9925 4.1875 3.3125 4.1875 C3.3125 3.5275 3.3125 2.8675 3.3125 2.1875 C0.3425 2.8475 -2.6275 3.5075 -5.6875 4.1875 C-6.0175 6.8275 -6.3475 9.4675 -6.6875 12.1875 C-7.0175 12.1875 -7.3475 12.1875 -7.6875 12.1875 C-7.76881463 10.75094146 -7.82683559 9.3130517 -7.875 7.875 C-7.90980469 7.07449219 -7.94460937 6.27398437 -7.98046875 5.44921875 C-7.6875 3.1875 -7.6875 3.1875 -6.46875 1.40625 C-4.16612638 -0.16922932 -2.76351256 -0.12015272 0 0 Z " fill="#B2B6B4" transform="translate(216.6875,34.8125)"/>
<path d="M0 0 C0 0.33 0 0.66 0 1 C-2.31 1 -4.62 1 -7 1 C-7.33 2.32 -7.66 3.64 -8 5 C-8.66 5 -9.32 5 -10 5 C-10 4.34 -10 3.68 -10 3 C-15.58510123 8.29114853 -17.11814191 11.3572299 -18 19 C-18.33 19 -18.66 19 -19 19 C-19.50227868 12.7215165 -19.21079416 9.02955969 -15 4 C-14.484375 3.21625 -13.96875 2.4325 -13.4375 1.625 C-9.36214507 -1.09190329 -4.75405459 -0.29507925 0 0 Z " fill="#979797" transform="translate(88,214)"/>
<path d="M0 0 C6.625 -0.125 6.625 -0.125 10 1 C12.05893621 1.22325814 14.12233653 1.40705759 16.1875 1.5625 C17.27417969 1.64628906 18.36085937 1.73007813 19.48046875 1.81640625 C20.72763672 1.90728516 20.72763672 1.90728516 22 2 C22 2.33 22 2.66 22 3 C13.42 3 4.84 3 -4 3 C-2.68 2.67 -1.36 2.34 0 2 C0 1.34 0 0.68 0 0 Z " fill="#A3A3A3" transform="translate(211,222)"/>
<path d="M0 0 C2 2 2 2 2.1953125 5.4765625 C2.18201493 6.85950968 2.15816232 8.24238654 2.125 9.625 C2.11597656 10.33140625 2.10695313 11.0378125 2.09765625 11.765625 C2.07407603 13.51056098 2.03820461 15.25532295 2 17 C1.67 17 1.34 17 1 17 C0.67 11.39 0.34 5.78 0 0 Z M-1 17 C-0.34 17.33 0.32 17.66 1 18 C-1.64 21.3 -4.28 24.6 -7 28 C-7.66 27.67 -8.32 27.34 -9 27 C-7.02677065 22.43041625 -5.07763771 19.86536704 -1 17 Z " fill="#A5A5A5" transform="translate(114,156)"/>
<path d="M0 0 C0.94746094 -0.01675781 1.89492187 -0.03351563 2.87109375 -0.05078125 C5.93375309 0.36261109 7.28868559 1.27520529 9.5625 3.3125 C8.73105469 3.21710938 7.89960937 3.12171875 7.04296875 3.0234375 C5.95628906 2.91257813 4.86960937 2.80171875 3.75 2.6875 C2.67105469 2.57148438 1.59210938 2.45546875 0.48046875 2.3359375 C-2.63374332 2.03789844 -2.63374332 2.03789844 -5.4375 4.3125 C-6.4275 4.3125 -7.4175 4.3125 -8.4375 4.3125 C-8.4375 3.6525 -8.4375 2.9925 -8.4375 2.3125 C-5.11533762 0.09772508 -3.88716677 0.01582293 0 0 Z " fill="#9C9C9C" transform="translate(101.4375,213.6875)"/>
<path d="M0 0 C2.93774463 -0.05390357 5.87450232 -0.0936255 8.8125 -0.125 C10.06256836 -0.15013672 10.06256836 -0.15013672 11.33789062 -0.17578125 C12.14033203 -0.18222656 12.94277344 -0.18867188 13.76953125 -0.1953125 C14.50792236 -0.20578613 15.24631348 -0.21625977 16.00708008 -0.22705078 C18 0 18 0 21 2 C21.1875 5.625 21.1875 5.625 21 9 C20.67 9 20.34 9 20 9 C19.731875 8.030625 19.46375 7.06125 19.1875 6.0625 C18.795625 5.051875 18.40375 4.04125 18 3 C14.43913342 1.81304447 11.02668976 1.64904582 7.3125 1.4375 C6.61060547 1.39431641 5.90871094 1.35113281 5.18554688 1.30664062 C3.45724794 1.2008264 1.7286489 1.09993419 0 1 C0 0.67 0 0.34 0 0 Z " fill="#979797" transform="translate(180,244)"/>
<path d="M0 0 C0.33 0 0.66 0 1 0 C1.377045 6.15840165 1.04381607 10.56461416 -2 16 C-4.1875 17.9375 -4.1875 17.9375 -6 19 C-6 18.01 -6 17.02 -6 16 C-4.68 15.34 -3.36 14.68 -2 14 C-2.04125 13.175 -2.0825 12.35 -2.125 11.5 C-1.97786007 7.38008185 -1.09476605 3.96852693 0 0 Z " fill="#9B9B9B" transform="translate(115,226)"/>
<path d="M0 0 C2.97 0.495 2.97 0.495 6 1 C6 3.31 6 5.62 6 8 C5.01 8.33 4.02 8.66 3 9 C3 6.36 3 3.72 3 1 C2.01 0.67 1.02 0.34 0 0 Z " fill="#949494" transform="translate(230,225)"/>
<path d="M0 0 C5.75 0.875 5.75 0.875 8 2 C8.78375 1.67 9.5675 1.34 10.375 1 C13.20266855 -0.07720707 14.22852426 -0.0264725 17 1 C9.21182266 4.66502463 9.21182266 4.66502463 5 4 C2.1875 2.5625 2.1875 2.5625 0 1 C0 0.67 0 0.34 0 0 Z " fill="#9F9F9F" transform="translate(85,187)"/>
<path d="M0 0 C0.99 0.495 0.99 0.495 2 1 C2 1.66 2 2.32 2 3 C2.99 3 3.98 3 5 3 C5.66 4.65 6.32 6.3 7 8 C6.34 8 5.68 8 5 8 C5 8.66 5 9.32 5 10 C4.01 10.33 3.02 10.66 2 11 C2 10.01 2 9.02 2 8 C2.66 8 3.32 8 4 8 C3.25621612 5.02329237 3.25621612 5.02329237 1.4375 3.4375 C0.963125 2.963125 0.48875 2.48875 0 2 C0 1.34 0 0.68 0 0 Z " fill="#D4DBD9" transform="translate(253,70)"/>
<path d="M0 0 C0.33 0.66 0.66 1.32 1 2 C0.67 2.99 0.34 3.98 0 5 C-0.66 5 -1.32 5 -2 5 C-2 5.66 -2 6.32 -2 7 C-2.99 7 -3.98 7 -5 7 C-3.75023244 3.34683329 -3.32901247 2.21934164 0 0 Z " fill="#9EA5A2" transform="translate(253,54)"/>
<path d="M0 0 C0.66 0.33 1.32 0.66 2 1 C0.25 3.5 0.25 3.5 -2 6 C-3.32 6 -4.64 6 -6 6 C-6.33 4.68 -6.66 3.36 -7 2 C-6.21625 2.04125 -5.4325 2.0825 -4.625 2.125 C-1.83883881 2.28728734 -1.83883881 2.28728734 0 0 Z " fill="#BCC1C0" transform="translate(239,46)"/>
<path d="M0 0 C0.66 0.33 1.32 0.66 2 1 C-0.46153846 5.8 -0.46153846 5.8 -3.1875 6.8125 C-3.785625 6.874375 -4.38375 6.93625 -5 7 C-5 6.01 -5 5.02 -5 4 C-3.35 3.34 -1.7 2.68 0 2 C0 1.34 0 0.68 0 0 Z " fill="#C5C5C5" transform="translate(94,50)"/>
<path d="M0 0 C2.97 0.495 2.97 0.495 6 1 C4.75 2.5 4.75 2.5 3 4 C1.68 4 0.36 4 -1 4 C-0.67 2.68 -0.34 1.36 0 0 Z " fill="#CDCDCD" transform="translate(47,56)"/>
</svg>
