<svg width="20" height="21" viewBox="0 0 20 21" fill="none" xmlns="http://www.w3.org/2000/svg">
<path d="M8.96273 4.64666L3.14055 14.7302C3.03538 14.9123 2.98 15.1189 2.97998 15.3292C2.97996 15.5395 3.0353 15.7461 3.14044 15.9282C3.24557 16.1103 3.3968 16.2615 3.57891 16.3667C3.76102 16.4718 3.96761 16.5271 4.17789 16.5271H15.8213C16.0316 16.5271 16.2382 16.4718 16.4203 16.3667C16.6024 16.2615 16.7536 16.1103 16.8588 15.9282C16.9639 15.7461 17.0193 15.5395 17.0192 15.3292C17.0192 15.1189 16.9638 14.9123 16.8587 14.7302L11.0371 4.64666C10.932 4.4646 10.7808 4.31341 10.5987 4.2083C10.4167 4.10319 10.2102 4.04785 9.99992 4.04785C9.78969 4.04785 9.58317 4.10319 9.40111 4.2083C9.21904 4.31341 9.06785 4.4646 8.96273 4.64666Z" fill="#FF5555"/>
<path d="M10.076 7.75684H9.9241C9.55019 7.75684 9.24707 8.05995 9.24707 8.43387V11.67C9.24707 12.0439 9.55019 12.347 9.9241 12.347H10.076C10.4499 12.347 10.753 12.0439 10.753 11.67V8.43387C10.753 8.05995 10.4499 7.75684 10.076 7.75684Z" fill="white"/>
<path d="M10 14.9137C10.4159 14.9137 10.753 14.5765 10.753 14.1607C10.753 13.7448 10.4159 13.4077 10 13.4077C9.58419 13.4077 9.24707 13.7448 9.24707 14.1607C9.24707 14.5765 9.58419 14.9137 10 14.9137Z" fill="white"/>
</svg>
