<svg width="51" height="50" viewBox="0 0 51 50" fill="none" xmlns="http://www.w3.org/2000/svg">
<rect x="0.666809" width="50" height="50" rx="10" fill="#E9F3FF"/>
<path d="M29.2255 26.3496C29.2255 28.1282 27.7786 29.5751 26 29.5751C24.2214 29.5751 22.775 28.1282 22.775 26.3496C22.775 24.5709 24.2214 23.124 26 23.124C27.7786 23.124 29.2255 24.5715 29.2255 26.3496ZM36 21.7695V30.9308C36 32.1521 35.0098 33.1423 33.7885 33.1423H18.2115C16.9902 33.1423 16 32.1521 16 30.9308V21.7695C16 20.5482 16.9902 19.5579 18.2115 19.5579H20.9317V18.7928C20.9317 17.724 21.7975 16.8577 22.8668 16.8577H29.1332C30.2025 16.8577 31.0683 17.724 31.0683 18.7928V19.5574H33.7885C35.0098 19.5579 36 20.5482 36 21.7695ZM30.8842 26.3496C30.8842 23.6565 28.6931 21.4654 26 21.4654C23.3075 21.4654 21.1164 23.6565 21.1164 26.3496C21.1164 29.0427 23.3075 31.2337 26 31.2337C28.6931 31.2337 30.8842 29.0427 30.8842 26.3496Z" fill="#1455AC"/>
</svg>
