<svg width="100" height="100" viewBox="0 0 100 100" fill="none" xmlns="http://www.w3.org/2000/svg">
<path d="M66.7561 10.4022C65.8256 10.5661 65.0166 10.6606 64.2076 10.7552C57.3863 13.192 52.9877 19.9918 45.2495 19.2558C33.3716 18.1841 18.7212 14.4294 10.7 25.5541C9.41096 27.5459 8.58416 29.7759 8.42334 32.0998C8.26252 34.4237 8.76707 36.8415 10.1371 39.2095C13.5266 44.8265 18.2007 49.7468 17.3708 56.6761C16.107 66.9089 8.64738 80.9645 17.1707 88.7077C18.1178 89.5671 19.262 90.3509 20.6345 91.0402C22.6152 91.9818 24.9121 92.2371 26.9567 91.4699C28.1049 91.023 29.2589 90.631 30.4186 90.2938C39.2071 88.1516 47.8845 87.3862 56.8173 88.6623C61.4111 89.4277 66.0054 90.9592 70.8005 90.1355C71.5726 89.9952 72.335 89.8061 73.0833 89.5695C74.6553 89.0706 76.1415 88.3332 77.4898 87.3831C78.1762 86.7621 78.7996 86.0748 79.3509 85.3312C80.9615 83.1479 81.8061 80.587 81.7312 77.8096C81.692 77.0056 81.5587 76.2089 81.3341 75.436C80.3612 72.3724 78.9709 69.3592 77.8053 66.3307C76.6397 63.3022 75.6993 60.2669 75.6275 57.1849C75.3089 54.2743 76.6096 51.3894 77.9459 48.7758C81.1536 43.4817 85.6602 39.9486 87.4599 34.2727C88.9871 28.6256 88.5648 22.6649 85.5074 17.5562C83.1473 13.7321 79.233 10.6361 74.4385 10.2924C72.1392 10.0131 69.5888 10.0296 66.7561 10.4022Z" fill="#DCE5F7" fill-opacity="0.2"/>
<g style="mix-blend-mode:multiply">
<path d="M59.2071 82.8851H36.2997C33.7082 82.8851 31.2229 81.7023 29.3907 79.5957L27.7371 77.6929C26.2363 75.9681 25.3936 73.6283 25.3936 71.1866V30.4296C25.3936 28.2702 26.9164 26.5196 28.7953 26.5196H60.7404L61.3026 80.4446C61.3198 81.7889 60.3746 82.8851 59.2071 82.8851Z" fill="#DCE5F7"/>
</g>
<path d="M37.2197 18.0239H64.2396C65.2489 18.0239 66.2169 18.4249 66.9306 19.1385C67.6442 19.8522 68.0452 20.8202 68.0452 21.8295V77.7697C68.0452 78.779 67.6442 79.7469 66.9306 80.4606C66.2169 81.1743 65.2489 81.5753 64.2396 81.5753H37.2197C36.2104 81.5753 35.2424 81.1743 34.5287 80.4606C33.815 79.7469 33.4141 78.779 33.4141 77.7697V21.8301C33.4141 20.8208 33.815 19.8529 34.5287 19.1392C35.2424 18.4255 36.2104 18.0245 37.2197 18.0245V18.0239Z" fill="#083B45"/>
<path d="M35.3795 18.1675L34.498 19.1693V19.8475L35.9049 19.3148L35.3795 18.1675Z" fill="#07343B"/>
<path d="M67.1703 80.1991L68.1247 79.1237L66.6768 78.6664L67.1703 80.1991Z" fill="#07343B"/>
<path d="M65.2242 16.9135H38.2037C36.1016 16.9135 34.3975 18.6176 34.3975 20.7198V76.6599C34.3975 78.762 36.1016 80.4661 38.2037 80.4661H65.2242C67.3263 80.4661 69.0304 78.762 69.0304 76.6599V20.7198C69.0304 18.6176 67.3263 16.9135 65.2242 16.9135Z" fill="#19575E"/>
<path d="M67.5805 25.076H35.8472V72.3025H67.5805V25.076Z" fill="#FFD871"/>
<path d="M54.9826 22.3249H48.4449C48.2846 22.3249 48.1308 22.2612 48.0174 22.1478C47.904 22.0344 47.8403 21.8806 47.8403 21.7203C47.8403 21.6408 47.8558 21.5621 47.8862 21.4887C47.9165 21.4153 47.961 21.3486 48.0172 21.2924C48.0733 21.2361 48.14 21.1916 48.2134 21.1611C48.2868 21.1307 48.3655 21.1151 48.4449 21.1151H54.9826C55.0621 21.115 55.1409 21.1306 55.2143 21.161C55.2878 21.1913 55.3545 21.2359 55.4107 21.2921C55.467 21.3483 55.5115 21.4151 55.5419 21.4886C55.5723 21.562 55.5879 21.6408 55.5878 21.7203C55.5878 21.7997 55.5722 21.8784 55.5418 21.9518C55.5113 22.0252 55.4667 22.0919 55.4105 22.148C55.3543 22.2042 55.2876 22.2487 55.2142 22.279C55.1408 22.3094 55.0621 22.325 54.9826 22.3249Z" fill="#238787"/>
<path d="M56.6952 77.0392H46.4446C46.2841 77.0392 46.1301 76.9755 46.0166 76.862C45.9031 76.7485 45.8394 76.5945 45.8394 76.434C45.8395 76.2736 45.9034 76.1198 46.0168 76.0065C46.1303 75.8931 46.2842 75.8294 46.4446 75.8294H56.6952C56.8555 75.8294 57.0093 75.8931 57.1227 76.0065C57.2361 76.1199 57.2998 76.2737 57.2998 76.434C57.2999 76.5135 57.2843 76.5921 57.2539 76.6656C57.2236 76.739 57.1791 76.8057 57.1229 76.8619C57.0668 76.9181 57.0001 76.9627 56.9267 76.9931C56.8533 77.0236 56.7746 77.0392 56.6952 77.0392Z" fill="#238787"/>
<g style="mix-blend-mode:multiply">
<path d="M71.0105 61.4129H63.5061L53.7189 66.8365L55.8568 61.4129H20.6695C20.0548 61.4121 19.4655 61.1672 19.0311 60.7322C18.5968 60.2971 18.3529 59.7074 18.353 59.0927V34.2555C18.3529 33.9508 18.4129 33.6491 18.5294 33.3676C18.646 33.0861 18.8168 32.8304 19.0322 32.6149C19.2476 32.3994 19.5033 32.2285 19.7848 32.1119C20.0663 31.9953 20.3679 31.9353 20.6726 31.9353H71.0136C71.6289 31.9353 72.2191 32.1797 72.6542 32.6149C73.0893 33.05 73.3338 33.6401 73.3338 34.2555V59.0927C73.3338 59.3976 73.2737 59.6996 73.1569 59.9813C73.0401 60.263 72.8689 60.5189 72.6531 60.7344C72.4374 60.9499 72.1812 61.1207 71.8994 61.2371C71.6175 61.3536 71.3155 61.4133 71.0105 61.4129Z" fill="#DCE5F7"/>
</g>
<path d="M73.0077 57.8933H66.6855L57.11 65.9477L59.1448 57.8933H23.2904C22.6827 57.8933 22.0999 57.6519 21.6701 57.2222C21.2404 56.7924 20.999 56.2096 20.999 55.6019V31.0723C20.999 30.4646 21.2404 29.8817 21.6701 29.452C22.0999 29.0223 22.6827 28.7809 23.2904 28.7809H73.0089C73.6166 28.7809 74.1995 29.0223 74.6292 29.452C75.0589 29.8817 75.3003 30.4646 75.3003 31.0723V55.6019C75.3003 55.9029 75.241 56.201 75.1258 56.4791C75.0105 56.7572 74.8416 57.0098 74.6287 57.2226C74.4158 57.4354 74.1631 57.6041 73.8849 57.7192C73.6068 57.8343 73.3087 57.8934 73.0077 57.8933Z" fill="#0461A5"/>
<path d="M77.0331 27.657C76.9463 27.6571 76.8613 27.6314 76.789 27.5832C76.7168 27.535 76.6604 27.4664 76.6272 27.3862C76.5939 27.3059 76.5852 27.2176 76.6022 27.1324C76.6192 27.0472 76.6611 26.9689 76.7225 26.9076L78.3344 25.2963C78.3749 25.2544 78.4233 25.2209 78.4769 25.1979C78.5304 25.1748 78.588 25.1627 78.6463 25.1622C78.7046 25.1616 78.7624 25.1727 78.8164 25.1948C78.8703 25.2169 78.9194 25.2495 78.9606 25.2907C79.0018 25.3319 79.0344 25.3809 79.0565 25.4349C79.0785 25.4889 79.0896 25.5467 79.0891 25.605C79.0886 25.6633 79.0765 25.7209 79.0534 25.7744C79.0304 25.828 78.9969 25.8764 78.955 25.9169L77.3437 27.5287C77.2613 27.611 77.1496 27.6571 77.0331 27.657Z" fill="#9CBAF7"/>
<path d="M80.2121 29.9306H78.2185C78.1048 29.9263 77.9973 29.8782 77.9184 29.7963C77.8395 29.7144 77.7954 29.6051 77.7954 29.4914C77.7954 29.3777 77.8395 29.2684 77.9184 29.1865C77.9973 29.1046 78.1048 29.0565 78.2185 29.0522H80.2121C80.2712 29.05 80.3301 29.0597 80.3853 29.0808C80.4405 29.1019 80.4909 29.1339 80.5335 29.1749C80.576 29.2159 80.6099 29.265 80.633 29.3194C80.6561 29.3738 80.668 29.4323 80.668 29.4914C80.668 29.5505 80.6561 29.609 80.633 29.6634C80.6099 29.7178 80.576 29.7669 80.5335 29.8079C80.4909 29.8489 80.4405 29.8809 80.3853 29.902C80.3301 29.9231 80.2712 29.9328 80.2121 29.9306Z" fill="#9CBAF7"/>
<path d="M74.7621 26.4718C74.6456 26.4716 74.5339 26.4252 74.4515 26.3429C74.3691 26.2605 74.3227 26.1488 74.3226 26.0323V24.0392C74.3204 23.9802 74.3301 23.9213 74.3512 23.8661C74.3722 23.8109 74.4042 23.7605 74.4452 23.7179C74.4862 23.6754 74.5354 23.6415 74.5898 23.6184C74.6442 23.5952 74.7027 23.5833 74.7618 23.5833C74.8209 23.5833 74.8793 23.5952 74.9337 23.6184C74.9881 23.6415 75.0373 23.6754 75.0783 23.7179C75.1193 23.7605 75.1513 23.8109 75.1723 23.8661C75.1934 23.9213 75.2031 23.9802 75.2009 24.0392V26.0323C75.2009 26.1487 75.1547 26.2604 75.0724 26.3428C74.9901 26.4252 74.8785 26.4716 74.7621 26.4718Z" fill="#9CBAF7"/>
<path d="M37.1501 39.9117H36.1558V40.4034H37.1501V39.9117Z" fill="#D4D4D9"/>
<path d="M37.478 40.3524H35.8281V40.8324H37.478V40.3524Z" fill="#FEFEFF"/>
<path d="M35.8282 39.9369H37.4782V38.8578C37.4853 38.2221 37.3663 37.5914 37.1281 37.002C36.8898 36.4126 36.5369 35.8764 36.0899 35.4243C35.643 34.9723 35.1107 34.6134 34.5241 34.3684C33.9375 34.1235 33.3081 33.9974 32.6723 33.9974C32.0366 33.9974 31.4072 34.1235 30.8206 34.3684C30.2339 34.6134 29.7017 34.9723 29.2547 35.4243C28.8078 35.8764 28.4549 36.4126 28.2166 37.002C27.9783 37.5914 27.8593 38.2221 27.8665 38.8578V42.6223H29.5164V38.8578C29.528 38.0284 29.8656 37.237 30.4562 36.6545C31.0468 36.0721 31.8429 35.7456 32.6723 35.7456C33.5018 35.7456 34.2979 36.0721 34.8885 36.6545C35.4791 37.237 35.8167 38.0284 35.8282 38.8578V39.9369Z" fill="#FEFEFF"/>
<path d="M27.7968 42.1638H37.5471C37.6969 42.1638 37.8405 42.2233 37.9464 42.3292C38.0523 42.4351 38.1118 42.5787 38.1118 42.7285V46.0222C38.1118 47.465 37.5387 48.8488 36.5184 49.869C35.4982 50.8892 34.1145 51.4624 32.6716 51.4624C31.2288 51.4624 29.8451 50.8892 28.8248 49.869C27.8046 48.8488 27.2314 47.465 27.2314 46.0222V42.7285C27.2314 42.5787 27.2909 42.4351 27.3968 42.3292C27.5027 42.2233 27.6464 42.1638 27.7962 42.1638H27.7968Z" fill="#FCB900"/>
<g style="mix-blend-mode:multiply" opacity="0.85">
<path d="M33.845 45.5674C33.8463 45.3601 33.7927 45.1561 33.6896 44.9763C33.5865 44.7964 33.4375 44.6471 33.2579 44.5435C33.0783 44.44 32.8745 44.3859 32.6672 44.3867C32.4599 44.3876 32.2565 44.4434 32.0777 44.5484C31.899 44.6534 31.7513 44.804 31.6497 44.9847C31.548 45.1654 31.4961 45.3698 31.4992 45.5771C31.5022 45.7843 31.5602 45.9871 31.6671 46.1647C31.774 46.3423 31.9261 46.4884 32.1079 46.5881V47.9606C32.1054 48.0363 32.1182 48.1117 32.1454 48.1824C32.1726 48.253 32.2138 48.3175 32.2665 48.3719C32.3191 48.4263 32.3822 48.4696 32.4519 48.4992C32.5216 48.5287 32.5966 48.5439 32.6723 48.5439C32.748 48.5439 32.823 48.5287 32.8927 48.4992C32.9624 48.4696 33.0255 48.4263 33.0781 48.3719C33.1308 48.3175 33.172 48.253 33.1992 48.1824C33.2264 48.1117 33.2392 48.0363 33.2367 47.9606V46.5881C33.4203 46.4881 33.5736 46.3406 33.6806 46.161C33.7876 45.9815 33.8444 45.7764 33.845 45.5674Z" fill="#301300"/>
</g>
<mask id="mask0_8716_10545" style="mask-type:luminance" maskUnits="userSpaceOnUse" x="27" y="34" width="12" height="18">
<path d="M38.1122 42.5935V46.0222C38.1122 47.4649 37.5391 48.8486 36.519 49.8688C35.4989 50.889 34.1153 51.4622 32.6726 51.4624C31.2298 51.4624 29.8461 50.8892 28.8258 49.869C27.8056 48.8488 27.2324 47.465 27.2324 46.0222V42.5935C27.2324 42.4795 27.2777 42.3702 27.3583 42.2897C27.4388 42.2091 27.5481 42.1638 27.6621 42.1638H27.8671V38.8578C27.8678 38.1992 28.0037 37.5476 28.2665 36.9436C28.5292 36.3396 28.9132 35.796 29.3946 35.3465C29.8761 34.897 30.4447 34.5511 31.0652 34.3302C31.6858 34.1094 32.3451 34.0184 33.0022 34.0627C35.4716 34.2285 37.5475 36.2896 37.4787 39.0279V39.9369H35.8282V38.8578C35.8166 38.0285 35.4791 37.237 34.8885 36.6546C34.2979 36.0721 33.5018 35.7456 32.6723 35.7456C31.8429 35.7456 31.0467 36.0721 30.4561 36.6546C29.8656 37.237 29.528 38.0285 29.5164 38.8578V42.1638H37.6801C37.7367 42.1635 37.7928 42.1744 37.8453 42.1958C37.8977 42.2173 37.9453 42.2488 37.9855 42.2888C38.0256 42.3287 38.0575 42.3762 38.0793 42.4285C38.101 42.4808 38.1122 42.5368 38.1122 42.5935ZM35.8282 40.8361H37.4781V40.3525H35.8282V40.8361Z" fill="white"/>
</mask>
<g mask="url(#mask0_8716_10545)">
<g style="mix-blend-mode:multiply" opacity="0.1">
<path d="M38.113 42.1638H32.6729V51.4624H38.113V42.1638Z" fill="#E70013"/>
</g>
</g>
<path d="M64.1222 48.5259H47.3726C44.7823 48.5259 42.6831 46.3831 42.6831 43.7382V43.6419C42.6831 40.9982 44.7823 38.8541 47.3726 38.8541H64.1222C66.7119 38.8541 68.8117 40.9969 68.8117 43.6419V43.7388C68.8117 46.3831 66.7119 48.5259 64.1222 48.5259Z" fill="#E8E8E8"/>
<path d="M64.2728 48.5259H48.0615C45.5547 48.5259 43.5229 46.5771 43.5229 44.1734V44.0856C43.5229 41.682 45.5547 39.7337 48.0615 39.7337H64.2715C66.7783 39.7337 68.8137 41.682 68.8137 44.0856V44.1734C68.8119 46.5771 66.7826 48.5259 64.2728 48.5259Z" fill="white"/>
<path d="M48.4998 41.4377H49.6488L49.4874 43.1232L50.8777 42.1828L51.4375 43.2122L49.9392 43.8769L51.4375 44.5343L50.8795 45.5619L49.4874 44.624L49.6488 46.3101H48.4998L48.668 44.624L47.2777 45.5643L46.7197 44.5368L48.218 43.8782L46.7197 43.2122L47.2777 42.1841L48.668 43.1244L48.4998 41.4377Z" fill="#707070"/>
<path d="M55.5325 41.4377H56.6815L56.5201 43.1232L57.9104 42.1828L58.4683 43.2122L56.9706 43.8769L58.4683 44.5356L57.9104 45.5631L56.5201 44.624L56.6815 46.3101H55.5325L55.7007 44.624L54.3104 45.5643L53.7524 44.5368L55.2508 43.8782L53.7524 43.2122L54.3104 42.1841L55.7007 43.1244L55.5325 41.4377Z" fill="#707070"/>
<path d="M62.5657 41.4377H63.7135L63.5521 43.1232L64.943 42.1828L65.5003 43.211L64.0026 43.8757L65.5003 44.5343L64.943 45.5619L63.5533 44.624L63.7148 46.3101H62.5657L62.7314 44.624L61.3412 45.5643L60.7832 44.5368L62.2815 43.8782L60.7857 43.2122L61.3436 42.1841L62.7314 43.1232L62.5657 41.4377Z" fill="#707070"/>
</svg>
