<svg width="30" height="30" viewBox="0 0 30 30" fill="none" xmlns="http://www.w3.org/2000/svg">
<rect width="30" height="30" rx="4" fill="#1455AC" fill-opacity="0.9"/>
<g clip-path="url(#clip0_11700_24276)">
<path d="M6.75 9.56221H8.802C8.96298 10.1545 9.31438 10.6774 9.80199 11.0502C10.2896 11.4229 10.8863 11.6249 11.5001 11.6249C12.1139 11.6249 12.7106 11.4229 13.1983 11.0502C13.6859 10.6774 14.0373 10.1545 14.1982 9.56221H23.25C23.4489 9.56221 23.6397 9.48319 23.7803 9.34254C23.921 9.20188 24 9.01112 24 8.81221C24 8.61329 23.921 8.42253 23.7803 8.28188C23.6397 8.14122 23.4489 8.06221 23.25 8.06221H14.1982C14.0373 7.46991 13.6859 6.94704 13.1983 6.57426C12.7106 6.20148 12.1139 5.99951 11.5001 5.99951C10.8863 5.99951 10.2896 6.20148 9.80199 6.57426C9.31438 6.94704 8.96298 7.46991 8.802 8.06221H6.75C6.55109 8.06221 6.36032 8.14122 6.21967 8.28188C6.07902 8.42253 6 8.61329 6 8.81221C6 9.01112 6.07902 9.20188 6.21967 9.34254C6.36032 9.48319 6.55109 9.56221 6.75 9.56221ZM11.4998 7.49971C11.7593 7.49971 12.0131 7.57668 12.2289 7.7209C12.4448 7.86512 12.613 8.07011 12.7123 8.30993C12.8117 8.54976 12.8377 8.81366 12.787 9.06826C12.7364 9.32286 12.6114 9.55673 12.4278 9.74028C12.2443 9.92384 12.0104 10.0488 11.7558 10.0995C11.5012 10.1501 11.2373 10.1241 10.9975 10.0248C10.7576 9.92546 10.5527 9.75723 10.4084 9.54139C10.2642 9.32555 10.1873 9.07179 10.1873 8.81221C10.1876 8.46423 10.3261 8.13062 10.5721 7.88457C10.8182 7.63851 11.1518 7.5001 11.4998 7.49971Z" fill="white"/>
<path d="M23.25 14.2499H21.198C21.0373 13.6575 20.686 13.1345 20.1985 12.7615C19.7109 12.3886 19.1141 12.1865 18.5002 12.1865C17.8864 12.1865 17.2896 12.3886 16.802 12.7615C16.3145 13.1345 15.9632 13.6575 15.8025 14.2499H6.75C6.55109 14.2499 6.36032 14.329 6.21967 14.4696C6.07902 14.6103 6 14.801 6 14.9999C6 15.1989 6.07902 15.3896 6.21967 15.5303C6.36032 15.6709 6.55109 15.7499 6.75 15.7499H15.8025C15.9632 16.3424 16.3145 16.8654 16.802 17.2384C17.2896 17.6113 17.8864 17.8134 18.5002 17.8134C19.1141 17.8134 19.7109 17.6113 20.1985 17.2384C20.686 16.8654 21.0373 16.3424 21.198 15.7499H23.25C23.4489 15.7499 23.6397 15.6709 23.7803 15.5303C23.921 15.3896 24 15.1989 24 14.9999C24 14.801 23.921 14.6103 23.7803 14.4696C23.6397 14.329 23.4489 14.2499 23.25 14.2499ZM18.5002 16.3124C18.2407 16.3124 17.9869 16.2355 17.7711 16.0913C17.5552 15.947 17.387 15.742 17.2877 15.5022C17.1883 15.2624 17.1623 14.9985 17.213 14.7439C17.2636 14.4893 17.3886 14.2554 17.5722 14.0719C17.7557 13.8883 17.9896 13.7633 18.2442 13.7127C18.4988 13.662 18.7627 13.688 19.0025 13.7874C19.2424 13.8867 19.4473 14.0549 19.5916 14.2708C19.7358 14.4866 19.8127 14.7404 19.8127 14.9999C19.8124 15.3479 19.6739 15.6815 19.4279 15.9276C19.1818 16.1736 18.8482 16.3121 18.5002 16.3124Z" fill="white"/>
<path d="M23.25 20.4377H14.1982C14.0373 19.8454 13.6859 19.3225 13.1983 18.9497C12.7106 18.577 12.1139 18.375 11.5001 18.375C10.8863 18.375 10.2896 18.577 9.80199 18.9497C9.31438 19.3225 8.96298 19.8454 8.802 20.4377H6.75C6.55109 20.4377 6.36032 20.5167 6.21967 20.6574C6.07902 20.798 6 20.9888 6 21.1877C6 21.3866 6.07902 21.5774 6.21967 21.718C6.36032 21.8587 6.55109 21.9377 6.75 21.9377H8.802C8.96298 22.53 9.31438 23.0529 9.80199 23.4256C10.2896 23.7984 10.8863 24.0004 11.5001 24.0004C12.1139 24.0004 12.7106 23.7984 13.1983 23.4256C13.6859 23.0529 14.0373 22.53 14.1982 21.9377H23.25C23.4489 21.9377 23.6397 21.8587 23.7803 21.718C23.921 21.5774 24 21.3866 24 21.1877C24 20.9888 23.921 20.798 23.7803 20.6574C23.6397 20.5167 23.4489 20.4377 23.25 20.4377ZM11.4998 22.5002C11.2402 22.5002 10.9864 22.4232 10.7706 22.279C10.5547 22.1348 10.3865 21.9298 10.2872 21.69C10.1878 21.4501 10.1618 21.1862 10.2125 20.9316C10.2631 20.677 10.3881 20.4432 10.5717 20.2596C10.7552 20.0761 10.9891 19.9511 11.2437 19.9004C11.4983 19.8498 11.7622 19.8758 12.002 19.9751C12.2418 20.0744 12.4468 20.2427 12.5911 20.4585C12.7353 20.6743 12.8123 20.9281 12.8123 21.1877C12.8117 21.5356 12.6732 21.8691 12.4272 22.1151C12.1812 22.3611 11.8477 22.4996 11.4998 22.5002Z" fill="white"/>
</g>
<defs>
<clipPath id="clip0_11700_24276">
<rect width="18" height="18" fill="white" transform="translate(6 6)"/>
</clipPath>
</defs>
</svg>
