<svg width="46" height="45" viewBox="0 0 46 45" fill="none" xmlns="http://www.w3.org/2000/svg">
<g clip-path="url(#clip0_11700_27741)">
<path d="M35.4573 28.4589V29C35.4573 30.7956 34.1069 32.25 32.4396 32.25H31.4338C29.7665 32.25 28.4161 30.7956 28.4161 29C28.4161 30.7956 27.0658 32.25 25.3985 32.25H24.3926C22.7254 32.25 21.375 30.7956 21.375 29L23.3867 24.125H40.4883L42.5 29C42.5 30.7956 41.1496 32.25 39.4824 32.25H38.4765C36.8092 32.25 35.4573 30.7956 35.4573 29M27.875 12.75C27.875 7.37288 23.5021 3 18.125 3C12.7479 3 8.37337 7.37288 8.37337 12.75C8.37337 18.1271 12.7462 22.5 18.1234 22.5C23.5005 22.5 27.8734 18.1271 27.8734 12.75H27.875ZM39.4824 35.5H38.4765C37.3829 35.5 36.3543 35.2075 35.4605 34.6956C34.5635 35.2075 33.5349 35.5 32.4429 35.5H31.437C30.3434 35.5 29.3148 35.2075 28.4194 34.6956C27.524 35.2075 26.4954 35.5 25.4034 35.5H24.3975C23.9165 35.5 23.4534 35.4318 23.0049 35.3245V42H40.8799V35.3245C40.4297 35.4318 39.9666 35.5 39.4873 35.5H39.4824ZM18.125 29V28.3565L19.2007 25.75H11.625C7.13838 25.75 3.5 29.3884 3.5 33.875V42H19.75V33.3258C18.7506 32.1736 18.125 30.6672 18.125 29Z" fill="url(#paint0_linear_11700_27741)"/>
<path d="M39 13C42.5899 13 45.5 10.0899 45.5 6.5C45.5 2.91015 42.5899 0 39 0C35.4101 0 32.5 2.91015 32.5 6.5C32.5 10.0899 35.4101 13 39 13Z" fill="#8D8D8D"/>
<path d="M39 13C42.5899 13 45.5 10.0899 45.5 6.5C45.5 2.91015 42.5899 0 39 0C35.4101 0 32.5 2.91015 32.5 6.5C32.5 10.0899 35.4101 13 39 13Z" fill="url(#paint1_linear_11700_27741)"/>
<path d="M41.2611 9.60794C41.1497 9.60807 41.0395 9.5862 40.9366 9.54357C40.8337 9.50094 40.7403 9.43841 40.6617 9.35955L36.1399 4.83781C35.9819 4.67863 35.8934 4.46331 35.8938 4.23901C35.8942 4.01472 35.9835 3.79972 36.1421 3.64112C36.3007 3.48252 36.5157 3.39323 36.74 3.39282C36.9643 3.39242 37.1796 3.48091 37.3388 3.63894L41.8605 8.16068C41.9791 8.27925 42.0598 8.4303 42.0925 8.59475C42.1252 8.75919 42.1084 8.92964 42.0443 9.08454C41.9801 9.23945 41.8714 9.37185 41.732 9.46501C41.5926 9.55817 41.4288 9.60791 41.2611 9.60794Z" fill="#EAF4F4"/>
<path d="M36.7381 9.60794C36.5704 9.60791 36.4065 9.55817 36.2671 9.46501C36.1277 9.37185 36.0191 9.23945 35.9549 9.08454C35.8908 8.92964 35.874 8.75919 35.9067 8.59475C35.9394 8.4303 36.0201 8.27925 36.1386 8.16068L40.6604 3.63894C40.8196 3.48091 41.0349 3.39242 41.2592 3.39282C41.4835 3.39323 41.6985 3.48252 41.8571 3.64112C42.0157 3.79972 42.105 4.01472 42.1054 4.23901C42.1058 4.46331 42.0173 4.67863 41.8592 4.83781L37.3375 9.35955C37.2589 9.43841 37.1655 9.50094 37.0626 9.54357C36.9597 9.5862 36.8494 9.60807 36.7381 9.60794Z" fill="#EAF4F4"/>
</g>
<defs>
<linearGradient id="paint0_linear_11700_27741" x1="23.0025" y1="41.9948" x2="23.0025" y2="2.98302" gradientUnits="userSpaceOnUse">
<stop stop-color="#9B9B9B"/>
<stop offset="1" stop-color="#DDDDDD"/>
</linearGradient>
<linearGradient id="paint1_linear_11700_27741" x1="39.0008" y1="12.9983" x2="33.8" y2="2.16667" gradientUnits="userSpaceOnUse">
<stop stop-color="#6B6B6B"/>
<stop offset="1" stop-color="#D9D9D9"/>
</linearGradient>
<clipPath id="clip0_11700_27741">
<rect width="45" height="45" fill="white" transform="translate(0.5)"/>
</clipPath>
</defs>
</svg>
