<svg width="18" height="18" viewBox="0 0 18 18" fill="none" xmlns="http://www.w3.org/2000/svg">
<path fill-rule="evenodd" clip-rule="evenodd" d="M0 9C0 4.02943 4.02943 0 9 0C13.9705 0 18 4.02943 18 9C18 13.9705 13.9705 18 9 18C4.02943 18 0 13.9705 0 9ZM8.99991 3.6C7.01169 3.6 5.39992 5.21177 5.39992 7.2C5.39992 9.18819 7.01169 10.8 8.99991 10.8C10.9881 10.8 12.5999 9.18819 12.5999 7.2C12.5999 5.21177 10.9881 3.6 8.99991 3.6ZM13.6003 12.5977C14.2824 13.0369 14.2491 13.9942 13.628 14.5159C12.3765 15.5669 10.7623 16.2 9.00009 16.2C7.24959 16.2 5.64493 15.5753 4.397 14.5366C3.77038 14.0151 3.73718 13.0529 4.42216 12.6108C4.6354 12.4732 4.86761 12.3526 5.11964 12.2487C6.13364 11.8307 7.42878 11.7 9 11.7C10.5791 11.7 11.8816 11.8223 12.8983 12.2359C13.1522 12.3392 13.3861 12.4597 13.6003 12.5977Z" fill="#0964C5"/>
</svg>
