<svg width="18" height="19" viewBox="0 0 18 19" fill="none" xmlns="http://www.w3.org/2000/svg">
<path d="M17.0164 8.03831L16.6308 8.99214C16.509 9.31684 16.509 9.66184 16.6308 9.98655L17.0164 10.9404C17.2396 11.5086 17.057 12.158 16.5496 12.5233L15.6973 13.1118C15.4132 13.3148 15.2305 13.6192 15.1493 13.9439L14.9667 14.9586C14.8449 15.5674 14.3376 16.0139 13.7288 16.0342L12.6938 16.0748C12.3488 16.0951 12.024 16.2371 11.7805 16.4807L11.0702 17.2315C10.644 17.678 9.97434 17.7795 9.44669 17.4751L8.55375 16.9474C8.24934 16.7648 7.90434 16.7242 7.55934 16.8054L6.54464 17.0489C5.95611 17.191 5.32699 16.9068 5.04287 16.3589L4.57611 15.4254C4.41375 15.121 4.14993 14.8774 3.82522 14.776L2.85111 14.4513C2.26258 14.2483 1.89728 13.6801 1.95816 13.0713L2.05963 12.0363C2.10022 11.6913 1.99875 11.3463 1.77552 11.0824L1.12611 10.2707C0.740517 9.78361 0.740517 9.1139 1.12611 8.62684L1.77552 7.81508C1.99875 7.55125 2.10022 7.20625 2.05963 6.86126L1.95816 5.82626C1.89728 5.21743 2.26258 4.6492 2.85111 4.44625L3.82522 4.12155C4.14993 4.02008 4.41375 3.77655 4.57611 3.47214L5.04287 2.53861C5.32699 1.99067 5.93581 1.70655 6.54464 1.84861L7.55934 2.09214C7.88405 2.17331 8.24934 2.13273 8.55375 1.95008L9.44669 1.42243C9.97434 1.11802 10.644 1.1992 11.0702 1.66596L11.7805 2.41684C12.024 2.66037 12.3488 2.82273 12.6938 2.82273L13.7288 2.86331C14.3376 2.88361 14.8652 3.33008 14.9667 3.9389L15.1493 4.95361C15.2102 5.29861 15.4132 5.60302 15.6973 5.78567L16.5496 6.3742C17.057 6.82067 17.2599 7.47008 17.0164 8.03831Z" fill="#00D566"/>
<g opacity="0.15">
<path d="M13.2621 15.9937C13.1607 15.9937 13.0592 16.014 12.978 16.0343L13.7086 15.9937C13.8101 15.9937 13.8913 15.9734 13.9927 15.9531L13.2621 15.9937Z" fill="black"/>
</g>
<path d="M5.75293 8.20089L8.28969 11.103L13.485 6.92236" fill="#00D566"/>
<path d="M7.6809 12.6046C7.39679 12.6046 7.11267 12.4828 6.90973 12.2596L4.37296 9.3575C4.00767 8.93132 4.04826 8.3022 4.45414 7.91661C4.88031 7.55132 5.50943 7.59191 5.89502 7.99779L7.80267 10.1693L12.2471 6.5975C12.6733 6.2525 13.3227 6.31338 13.6677 6.75985C14.0127 7.20632 13.9518 7.83544 13.5053 8.18044L8.31002 12.3813C8.12737 12.5234 7.90414 12.6046 7.6809 12.6046Z" fill="white"/>
</svg>
